<?xml version="1.0" encoding="utf-8"?>
<!-- Generator: Adobe Illustrator 19.1.0, SVG Export Plug-In . SVG Version: 6.00 Build 0)  -->
<svg version="1.1" id="Capa_1" xmlns="http://www.w3.org/2000/svg" xmlns:xlink="http://www.w3.org/1999/xlink" x="0px" y="0px"
	 viewBox="715 -369.5 491 256" style="enable-background:new 715 -369.5 491 256;" xml:space="preserve">
<style type="text/css">
	.st0{display:none;}
	.st1{display:inline;}
	.st2{fill:#C52375;}
	.st3{clip-path:url(#SVGID_2_);fill:#E6E8EA;}
	.st4{clip-path:url(#SVGID_4_);fill:#E3DBC3;}
	.st5{opacity:0.4;clip-path:url(#SVGID_6_);fill:#02929E;enable-background:new    ;}
	.st6{clip-path:url(#SVGID_8_);fill:#E3DBC3;}
	.st7{clip-path:url(#SVGID_10_);fill:#02929E;}
	.st8{clip-path:url(#SVGID_12_);fill:#2C2827;}
	.st9{clip-path:url(#SVGID_14_);fill:#B6B9BB;}
	.st10{clip-path:url(#SVGID_16_);fill:#94999B;}
	.st11{clip-path:url(#SVGID_18_);fill:#A7A9AC;}
	.st12{clip-path:url(#SVGID_20_);fill:#A7A9AC;}
	.st13{clip-path:url(#SVGID_22_);fill:#9E1F63;}
	.st14{clip-path:url(#SVGID_24_);fill:#9E1F63;}
	.st15{clip-path:url(#SVGID_26_);fill:none;stroke:#02929E;stroke-width:1.296;stroke-miterlimit:10;}
	.st16{clip-path:url(#SVGID_28_);fill:#A7A9AC;}
	.st17{clip-path:url(#SVGID_30_);fill:#A7A9AC;}
	.st18{clip-path:url(#SVGID_32_);fill:#2C2827;}
	.st19{clip-path:url(#SVGID_34_);}
	.st20{fill:#2C2827;}
	.st21{fill:#B6B9BB;}
	.st22{clip-path:url(#SVGID_36_);fill:#E6E8EA;}
	.st23{clip-path:url(#SVGID_38_);fill:#9AC3C1;}
	.st24{clip-path:url(#SVGID_40_);fill:#9E9EA1;}
	.st25{clip-path:url(#SVGID_42_);fill:#E3DBC3;}
	.st26{clip-path:url(#SVGID_44_);fill:#CED1D3;}
	.st27{clip-path:url(#SVGID_46_);fill:#E6E8EA;}
	.st28{clip-path:url(#SVGID_48_);fill:#B3B7BA;}
	.st29{clip-path:url(#SVGID_50_);fill:#CED1D3;}
	.st30{clip-path:url(#SVGID_52_);fill:#E6E8EA;}
	.st31{clip-path:url(#SVGID_54_);fill:#B3B7BA;}
	.st32{clip-path:url(#SVGID_56_);fill:#CED1D3;}
	.st33{clip-path:url(#SVGID_58_);fill:#E6E8EA;}
	.st34{clip-path:url(#SVGID_60_);fill:#B3B7BA;}
	.st35{clip-path:url(#SVGID_62_);fill:#CED1D3;}
	.st36{clip-path:url(#SVGID_64_);fill:#E6E8EA;}
	.st37{clip-path:url(#SVGID_66_);fill:#B3B7BA;}
	.st38{clip-path:url(#SVGID_68_);fill:#CED1D3;}
	.st39{clip-path:url(#SVGID_70_);fill:#E6E8EA;}
	.st40{clip-path:url(#SVGID_72_);fill:#B3B7BA;}
	.st41{clip-path:url(#SVGID_74_);fill:#CED1D3;}
	.st42{clip-path:url(#SVGID_76_);fill:#E6E8EA;}
	.st43{clip-path:url(#SVGID_78_);fill:#B3B7BA;}
	.st44{clip-path:url(#SVGID_80_);fill:#CED1D3;}
	.st45{clip-path:url(#SVGID_82_);fill:#E6E8EA;}
	.st46{clip-path:url(#SVGID_84_);fill:#B3B7BA;}
	.st47{clip-path:url(#SVGID_86_);fill:#CED1D3;}
	.st48{clip-path:url(#SVGID_88_);fill:#E6E8EA;}
	.st49{clip-path:url(#SVGID_90_);fill:#B3B7BA;}
	.st50{clip-path:url(#SVGID_92_);fill:#E0CE4B;}
	.st51{clip-path:url(#SVGID_94_);fill:#00AEEF;}
	.st52{clip-path:url(#SVGID_96_);fill:#0A7393;}
	.st53{opacity:0.22;clip-path:url(#SVGID_98_);fill:#5D5E5E;enable-background:new    ;}
	.st54{clip-path:url(#SVGID_100_);fill:#5D5E5E;}
	.st55{clip-path:url(#SVGID_102_);fill:#95D8EA;}
	.st56{clip-path:url(#SVGID_104_);fill:#0A7393;}
	.st57{clip-path:url(#SVGID_106_);fill:#00AEEF;}
	.st58{clip-path:url(#SVGID_108_);fill:#FFFFFF;}
	.st59{clip-path:url(#SVGID_110_);fill:#E3DBC3;}
	.st60{clip-path:url(#SVGID_112_);fill:#E3DBC3;}
	.st61{clip-path:url(#SVGID_114_);fill:#E0CE4B;}
	.st62{clip-path:url(#SVGID_116_);fill:#FFFFFF;}
	.st63{clip-path:url(#SVGID_118_);fill:#FFFFFF;}
	.st64{clip-path:url(#SVGID_120_);fill:#FFFFFF;}
	.st65{clip-path:url(#SVGID_122_);fill:#FFFFFF;}
	.st66{clip-path:url(#SVGID_124_);fill:#FFFFFF;}
	.st67{clip-path:url(#SVGID_126_);fill:#FFFFFF;}
	.st68{clip-path:url(#SVGID_128_);fill:#FFFFFF;}
	.st69{clip-path:url(#SVGID_130_);fill:#FFFFFF;}
	.st70{clip-path:url(#SVGID_132_);fill:#ED2387;}
	.st71{clip-path:url(#SVGID_134_);fill:#ED2387;}
	.st72{display:inline;fill:#00AEEF;}
	.st73{clip-path:url(#SVGID_136_);fill:none;}
	.st74{clip-path:url(#SVGID_138_);fill:#C52375;}
	.st75{clip-path:url(#SVGID_140_);}
	.st76{fill:#E3DBC3;}
	.st77{fill:#02929E;}
	.st78{opacity:0.19;enable-background:new    ;}
	.st79{opacity:0.4;fill:#02929E;enable-background:new    ;}
	.st80{clip-path:url(#SVGID_142_);fill:#C52375;}
	.st81{clip-path:url(#SVGID_144_);fill:#FFFFFF;}
	.st82{clip-path:url(#SVGID_146_);}
	.st83{clip-path:url(#SVGID_148_);}
	.st84{clip-path:url(#SVGID_150_);}
	.st85{clip-path:url(#SVGID_152_);}
	.st86{clip-path:url(#SVGID_154_);}
	.st87{clip-path:url(#SVGID_156_);}
	.st88{clip-path:url(#SVGID_158_);}
	
		.st89{clip-path:url(#SVGID_160_);fill:none;stroke:#02929E;stroke-width:1.249;stroke-linecap:round;stroke-linejoin:round;stroke-miterlimit:10;}
	
		.st90{clip-path:url(#SVGID_162_);fill:none;stroke:#02929E;stroke-width:1.249;stroke-linecap:round;stroke-linejoin:round;stroke-miterlimit:10;}
	.st91{clip-path:url(#SVGID_164_);}
	.st92{clip-path:url(#SVGID_166_);fill:#E3DBC3;}
	.st93{clip-path:url(#SVGID_168_);fill:#E3DBC3;}
	.st94{clip-path:url(#SVGID_170_);fill:#00AEEF;}
	.st95{clip-path:url(#SVGID_172_);fill:#00AEEF;}
	.st96{clip-path:url(#SVGID_174_);fill:#E0CE4B;}
	.st97{clip-path:url(#SVGID_176_);fill:#81184D;}
	.st98{clip-path:url(#SVGID_178_);fill:#C52375;}
	.st99{clip-path:url(#SVGID_180_);fill:#02929E;}
	.st100{clip-path:url(#SVGID_182_);fill:#FFFFFF;}
	.st101{clip-path:url(#SVGID_184_);fill:#81184D;}
	.st102{clip-path:url(#SVGID_186_);fill:#81184D;}
	.st103{clip-path:url(#SVGID_188_);fill:none;stroke:#02929E;stroke-width:0.4243;stroke-miterlimit:10;}
	.st104{clip-path:url(#SVGID_190_);fill:none;stroke:#02929E;stroke-width:0.4243;stroke-miterlimit:10;}
	.st105{clip-path:url(#SVGID_192_);fill:none;stroke:#02929E;stroke-width:0.4243;stroke-miterlimit:10;}
	.st106{clip-path:url(#SVGID_194_);fill:none;stroke:#02929E;stroke-width:0.4243;stroke-miterlimit:10;}
	.st107{clip-path:url(#SVGID_196_);fill:#E3DBC3;}
	.st108{clip-path:url(#SVGID_198_);fill:#FFFFFF;}
	.st109{clip-path:url(#SVGID_200_);fill:#FFFFFF;}
	.st110{clip-path:url(#SVGID_202_);fill:#E3DBC3;}
	.st111{clip-path:url(#SVGID_204_);fill:#02929E;}
	.st112{clip-path:url(#SVGID_206_);fill:#02929E;}
	.st113{clip-path:url(#SVGID_208_);fill:#02929E;}
	.st114{clip-path:url(#SVGID_210_);fill:#02929E;}
	.st115{clip-path:url(#SVGID_212_);fill:#E3DBC3;}
	.st116{clip-path:url(#SVGID_214_);fill:#E3DBC3;}
	.st117{clip-path:url(#SVGID_216_);fill:#E3DBC3;}
	.st118{clip-path:url(#SVGID_218_);fill:#02929E;}
	.st119{clip-path:url(#SVGID_220_);fill:#C52375;}
	.st120{clip-path:url(#SVGID_222_);fill:#00AEEF;}
	.st121{opacity:0.65;clip-path:url(#SVGID_224_);fill:#FFFFFF;enable-background:new    ;}
	.st122{clip-path:url(#SVGID_226_);fill:#C52375;}
	.st123{opacity:0.4;clip-path:url(#SVGID_228_);}
	.st124{clip-path:url(#SVGID_230_);fill:none;}
	.st125{clip-path:url(#SVGID_232_);fill:#FFFFFF;}
	.st126{clip-path:url(#SVGID_234_);fill:#FFFFFF;}
	.st127{clip-path:url(#SVGID_236_);fill:#FFFFFF;}
	.st128{clip-path:url(#SVGID_238_);}
	.st129{fill:#FFFFFF;}
	.st130{fill:#00AEEF;}
	.st131{opacity:0.4;}
	.st132{fill:none;}
	.st133{clip-path:url(#SVGID_240_);fill:#FFFFFF;}
	.st134{clip-path:url(#SVGID_242_);fill:#FFFFFF;}
	.st135{display:inline;fill:#C52375;}
	.st136{clip-path:url(#SVGID_244_);fill:#E3DBC3;}
	.st137{opacity:0.67;clip-path:url(#SVGID_246_);fill:#E3DBC3;enable-background:new    ;}
	.st138{clip-path:url(#SVGID_248_);fill:#FFFFFF;}
	.st139{clip-path:url(#SVGID_250_);fill:#E0CE4B;}
	.st140{opacity:0.67;clip-path:url(#SVGID_252_);fill:#E3DBC3;enable-background:new    ;}
	.st141{clip-path:url(#SVGID_254_);fill:#00AEEF;}
	.st142{clip-path:url(#SVGID_256_);}
	.st143{clip-path:url(#SVGID_258_);}
	.st144{clip-path:url(#SVGID_260_);}
	.st145{clip-path:url(#SVGID_262_);}
	.st146{clip-path:url(#SVGID_264_);}
	.st147{clip-path:url(#SVGID_266_);}
	.st148{fill:#02919D;}
	.st149{fill:#C42275;}
	.st150{clip-path:url(#SVGID_268_);fill:#C42275;}
	.st151{clip-path:url(#SVGID_268_);fill:#FFFFFF;}
	.st152{clip-path:url(#SVGID_268_);fill:#231F20;}
	
		.st153{clip-path:url(#SVGID_268_);fill:none;stroke:#02919D;stroke-width:1.249;stroke-linecap:round;stroke-linejoin:round;stroke-miterlimit:10;}
	.st154{clip-path:url(#SVGID_268_);fill:#E2DAC2;}
	.st155{clip-path:url(#SVGID_268_);fill:#00ADEE;}
	.st156{fill:#00ADEE;}
	.st157{clip-path:url(#SVGID_270_);fill:#F9F293;}
	.st158{clip-path:url(#SVGID_270_);fill:#81184D;}
	.st159{clip-path:url(#SVGID_270_);fill:#C42275;}
	.st160{clip-path:url(#SVGID_270_);fill:#02919D;}
	.st161{clip-path:url(#SVGID_270_);fill:#FFFFFF;}
	.st162{clip-path:url(#SVGID_270_);fill:none;stroke:#02919D;stroke-width:0.4243;stroke-miterlimit:10;}
	.st163{clip-path:url(#SVGID_270_);fill:#E2DAC2;}
	.st164{clip-path:url(#SVGID_270_);fill:#CEB993;}
	.st165{clip-path:url(#SVGID_272_);fill:none;}
	.st166{clip-path:url(#SVGID_272_);fill:#C42275;}
	.st167{clip-path:url(#SVGID_272_);}
	.st168{fill:#E2DAC2;}
	.st169{fill:#0B7F82;}
	.st170{opacity:0.4;fill:#02919D;}
	.st171{clip-path:url(#SVGID_274_);fill:#E6E8E9;}
	.st172{clip-path:url(#SVGID_274_);fill:#E2DAC2;}
	.st173{opacity:0.4;clip-path:url(#SVGID_274_);fill:#02919D;}
	.st174{clip-path:url(#SVGID_274_);fill:#02919D;}
	.st175{clip-path:url(#SVGID_274_);fill:#2C2827;}
	.st176{clip-path:url(#SVGID_274_);fill:#B6B8BA;}
	.st177{clip-path:url(#SVGID_274_);fill:#93989A;}
	.st178{clip-path:url(#SVGID_274_);fill:#A6A8AB;}
	.st179{clip-path:url(#SVGID_274_);fill:#9E1F63;}
	.st180{clip-path:url(#SVGID_274_);fill:none;stroke:#02919D;stroke-width:1.296;stroke-miterlimit:10;}
	.st181{clip-path:url(#SVGID_274_);}
	.st182{fill:#B6B8BA;}
	.st183{clip-path:url(#SVGID_274_);fill:#99C3C0;}
	.st184{clip-path:url(#SVGID_274_);fill:#9D9DA1;}
	.st185{clip-path:url(#SVGID_274_);fill:#CDD1D3;}
	.st186{clip-path:url(#SVGID_274_);fill:#B3B7BA;}
	.st187{fill:#CEB993;}
	.st188{fill:#DFCD4B;}
	.st189{clip-path:url(#SVGID_276_);fill:#F9F293;}
	.st190{clip-path:url(#SVGID_276_);fill:#00ADEE;}
	.st191{clip-path:url(#SVGID_276_);fill:#097493;}
	.st192{opacity:0.22;clip-path:url(#SVGID_276_);fill:#5E5E5E;}
	.st193{clip-path:url(#SVGID_276_);fill:#5E5E5E;}
	.st194{clip-path:url(#SVGID_276_);fill:#93D7EA;}
	.st195{clip-path:url(#SVGID_276_);fill:#FFFFFF;}
	.st196{clip-path:url(#SVGID_276_);fill:#E2DAC2;}
	.st197{clip-path:url(#SVGID_276_);fill:#DFCD4B;}
	.st198{clip-path:url(#SVGID_276_);fill:#EC2386;}
	.st199{fill:#F9F29C;}
	.st200{fill:#DDD26C;}
	.st201{fill:none;stroke:#02919D;stroke-width:0.9262;stroke-miterlimit:10;}
	.st202{clip-path:url(#SVGID_278_);fill:#00ADEE;}
	.st203{clip-path:url(#SVGID_278_);fill:#BCB29B;}
	.st204{opacity:0.4;clip-path:url(#SVGID_278_);fill:#02919D;}
	.st205{clip-path:url(#SVGID_278_);fill:none;stroke:#02919D;stroke-width:1.6272;stroke-miterlimit:10;}
	.st206{clip-path:url(#SVGID_278_);fill:#02919D;}
	.st207{fill:#EC2386;}
	.st208{clip-path:url(#SVGID_280_);fill:#F9F29C;}
	.st209{clip-path:url(#SVGID_280_);fill:#E2DAC2;}
	.st210{opacity:0.4;clip-path:url(#SVGID_280_);fill:#02919D;}
	.st211{clip-path:url(#SVGID_280_);fill:none;stroke:#02919D;stroke-width:1.6191;stroke-miterlimit:10;}
	.st212{clip-path:url(#SVGID_280_);fill:#02919D;}
	.st213{clip-path:url(#SVGID_280_);fill:#EC2386;}
	.st214{clip-path:url(#SVGID_280_);fill:none;stroke:#00ADEE;stroke-width:1.6191;stroke-miterlimit:10;}
	.st215{clip-path:url(#SVGID_280_);fill:none;stroke:#00ADEE;stroke-width:1.4393;stroke-miterlimit:10;}
	.st216{clip-path:url(#SVGID_280_);fill:none;stroke:#00ADEE;stroke-width:1.1151;stroke-miterlimit:10;}
	.st217{fill:#B61F70;}
	.st218{clip-path:url(#SVGID_282_);fill:none;stroke:#231F20;stroke-width:0.8882;stroke-miterlimit:10;}
	.st219{clip-path:url(#SVGID_282_);fill:#EC2386;}
	.st220{clip-path:url(#SVGID_282_);fill:#F9F29C;}
	.st221{clip-path:url(#SVGID_282_);fill:#BCB29B;}
	.st222{opacity:0.4;clip-path:url(#SVGID_282_);fill:#02919D;}
	.st223{clip-path:url(#SVGID_282_);fill:#DDD26C;}
	.st224{clip-path:url(#SVGID_282_);}
	.st225{fill:none;stroke:#02919D;stroke-width:1.4472;stroke-linejoin:round;stroke-miterlimit:10;}
	.st226{fill:#FFFFFF;stroke:#02919D;stroke-width:1.6155;stroke-linejoin:round;stroke-miterlimit:10;}
	.st227{fill:none;stroke:#02919D;stroke-width:1.2383;stroke-miterlimit:10;}
	.st228{clip-path:url(#SVGID_282_);fill:none;stroke:#02919D;stroke-width:0.9979;stroke-miterlimit:10;}
	.st229{clip-path:url(#SVGID_284_);fill:#F9F29C;}
	.st230{clip-path:url(#SVGID_284_);fill:#BCB29B;}
	.st231{opacity:0.4;clip-path:url(#SVGID_284_);fill:#02919D;}
	.st232{clip-path:url(#SVGID_284_);fill:none;stroke:#02919D;stroke-width:1.4902;stroke-miterlimit:10;}
	.st233{clip-path:url(#SVGID_284_);fill:#02919D;}
	.st234{clip-path:url(#SVGID_284_);fill:none;stroke:#02919D;stroke-width:1.1906;stroke-miterlimit:10;}
	.st235{clip-path:url(#SVGID_284_);fill:none;stroke:#02919D;stroke-width:1.6045;stroke-miterlimit:10;}
	.st236{clip-path:url(#SVGID_286_);fill:none;stroke:#231F20;stroke-width:0.8262;stroke-miterlimit:10;}
	.st237{clip-path:url(#SVGID_286_);fill:#02919D;}
	.st238{clip-path:url(#SVGID_286_);fill:#EC2386;}
	.st239{clip-path:url(#SVGID_286_);fill:#E2DAC2;}
	.st240{opacity:0.4;clip-path:url(#SVGID_286_);fill:#02919D;}
	.st241{clip-path:url(#SVGID_286_);fill:none;stroke:#02919D;stroke-width:1.3629;stroke-miterlimit:10;}
	.st242{clip-path:url(#SVGID_286_);fill:none;stroke:#02919D;stroke-width:1.5027;stroke-linejoin:round;stroke-miterlimit:10;}
	.st243{clip-path:url(#SVGID_286_);fill:#FFFFFF;stroke:#02919D;stroke-width:1.5027;stroke-linejoin:round;stroke-miterlimit:10;}
	.st244{clip-path:url(#SVGID_288_);fill:none;stroke:#231F20;stroke-width:0.8318;stroke-miterlimit:10;}
	.st245{clip-path:url(#SVGID_288_);fill:#00ADEE;}
	.st246{clip-path:url(#SVGID_288_);fill:#F9F29C;}
	.st247{clip-path:url(#SVGID_288_);fill:#E2DAC2;}
	.st248{opacity:0.4;clip-path:url(#SVGID_288_);fill:#02919D;}
	.st249{clip-path:url(#SVGID_288_);fill:none;stroke:#02919D;stroke-width:1.3722;stroke-miterlimit:10;}
	.st250{clip-path:url(#SVGID_288_);fill:#02919D;}
	.st251{clip-path:url(#SVGID_288_);fill:none;stroke:#02919D;stroke-width:1.513;stroke-linejoin:round;stroke-miterlimit:10;}
	.st252{clip-path:url(#SVGID_288_);fill:#FFFFFF;stroke:#02919D;stroke-width:1.513;stroke-linejoin:round;stroke-miterlimit:10;}
	.st253{clip-path:url(#SVGID_288_);fill:none;stroke:#EC2386;stroke-width:1.6249;stroke-miterlimit:10;}
	.st254{clip-path:url(#SVGID_288_);fill:none;stroke:#EC2386;stroke-width:1.4045;stroke-miterlimit:10;}
	.st255{clip-path:url(#SVGID_288_);fill:#EC2386;}
	.st256{clip-path:url(#SVGID_288_);fill:#DDD26C;}
	.st257{clip-path:url(#SVGID_290_);fill:none;stroke:#02919D;stroke-width:1.6208;stroke-miterlimit:10;}
	.st258{clip-path:url(#SVGID_290_);fill:#EC2386;}
	.st259{clip-path:url(#SVGID_290_);fill:#E2DAC2;}
	.st260{opacity:0.4;clip-path:url(#SVGID_290_);fill:#02919D;}
	.st261{clip-path:url(#SVGID_290_);fill:#F9F29C;}
	.st262{clip-path:url(#SVGID_290_);fill:#02919D;}
	.st263{clip-path:url(#SVGID_290_);fill:none;stroke:#02919D;stroke-width:1.726;stroke-miterlimit:10;}
	.st264{clip-path:url(#SVGID_290_);fill:none;stroke:#02919D;stroke-width:1.8267;stroke-miterlimit:10;}
	.st265{clip-path:url(#SVGID_292_);}
	.st266{clip-path:url(#SVGID_292_);fill:#EC2386;}
	.st267{clip-path:url(#SVGID_292_);fill:none;stroke:#231F20;stroke-width:0.8237;stroke-miterlimit:10;}
	.st268{clip-path:url(#SVGID_292_);fill:#02919D;}
	.st269{clip-path:url(#SVGID_292_);fill:#E2DAC2;}
	.st270{opacity:0.4;clip-path:url(#SVGID_292_);fill:#02919D;}
	.st271{clip-path:url(#SVGID_292_);fill:none;stroke:#02919D;stroke-width:1.3587;stroke-miterlimit:10;}
	.st272{clip-path:url(#SVGID_292_);fill:none;stroke:#02919D;stroke-width:1.4981;stroke-linejoin:round;stroke-miterlimit:10;}
	.st273{clip-path:url(#SVGID_292_);fill:#FFFFFF;stroke:#02919D;stroke-width:1.4981;stroke-linejoin:round;stroke-miterlimit:10;}
	.st274{clip-path:url(#SVGID_292_);fill:none;stroke:#02919D;stroke-width:1.1482;stroke-miterlimit:10;}
	.st275{clip-path:url(#SVGID_292_);fill:none;stroke:#FFFFFF;stroke-width:0.5741;stroke-linecap:round;stroke-miterlimit:10;}
	.st276{clip-path:url(#SVGID_292_);fill:#0B7F82;}
	.st277{clip-path:url(#SVGID_292_);fill:#B61F70;}
	.st278{clip-path:url(#SVGID_294_);fill:#02919D;}
	.st279{clip-path:url(#SVGID_294_);fill:#0B7F82;}
	.st280{clip-path:url(#SVGID_294_);fill:none;stroke:#231F20;stroke-width:0.8338;stroke-miterlimit:10;}
	.st281{clip-path:url(#SVGID_294_);fill:#EC2386;}
	.st282{clip-path:url(#SVGID_294_);fill:#BCB29B;}
	.st283{opacity:0.4;clip-path:url(#SVGID_294_);fill:#02919D;}
	.st284{clip-path:url(#SVGID_294_);fill:none;stroke:#02919D;stroke-width:1.3755;stroke-miterlimit:10;}
	.st285{clip-path:url(#SVGID_294_);fill:none;stroke:#02919D;stroke-width:1.5165;stroke-linejoin:round;stroke-miterlimit:10;}
	.st286{clip-path:url(#SVGID_294_);fill:#FFFFFF;stroke:#02919D;stroke-width:1.5165;stroke-linejoin:round;stroke-miterlimit:10;}
	.st287{clip-path:url(#SVGID_294_);fill:none;stroke:#02919D;stroke-width:1.1624;stroke-miterlimit:10;}
	.st288{clip-path:url(#SVGID_294_);fill:none;stroke:#EC2386;stroke-width:1.1624;stroke-miterlimit:10;}
	.st289{clip-path:url(#SVGID_296_);fill:#00ADEE;}
	.st290{clip-path:url(#SVGID_296_);fill:#E2DAC2;}
	.st291{opacity:0.4;clip-path:url(#SVGID_296_);fill:#02919D;}
	.st292{clip-path:url(#SVGID_296_);fill:none;stroke:#02919D;stroke-width:1.6082;stroke-miterlimit:10;}
	.st293{clip-path:url(#SVGID_296_);fill:#02919D;}
	.st294{clip-path:url(#SVGID_296_);fill:#EC2386;}
	.st295{clip-path:url(#SVGID_296_);}
	.st296{clip-path:url(#SVGID_298_);}
	.st297{clip-path:url(#SVGID_300_);fill:none;stroke:#231F20;stroke-width:0.8288;stroke-miterlimit:10;}
	.st298{clip-path:url(#SVGID_300_);fill:#F9F29C;}
	.st299{clip-path:url(#SVGID_300_);fill:#02919D;}
	.st300{clip-path:url(#SVGID_300_);fill:#BCB29B;}
	.st301{opacity:0.4;clip-path:url(#SVGID_300_);fill:#02919D;}
	.st302{clip-path:url(#SVGID_300_);fill:none;stroke:#02919D;stroke-width:1.3672;stroke-miterlimit:10;}
	.st303{clip-path:url(#SVGID_300_);fill:none;stroke:#02919D;stroke-width:1.5075;stroke-linejoin:round;stroke-miterlimit:10;}
	.st304{clip-path:url(#SVGID_300_);fill:none;stroke:#00ADEE;stroke-width:1.619;stroke-miterlimit:10;}
	.st305{clip-path:url(#SVGID_300_);fill:none;stroke:#00ADEE;stroke-width:1.3995;stroke-miterlimit:10;}
	.st306{clip-path:url(#SVGID_300_);}
	.st307{clip-path:url(#SVGID_300_);fill:#0B7F82;}
	.st308{clip-path:url(#SVGID_300_);fill:#00ADEE;}
	.st309{clip-path:url(#SVGID_302_);fill:#EC2386;}
	.st310{clip-path:url(#SVGID_302_);fill:#E2DAC2;}
	.st311{opacity:0.4;clip-path:url(#SVGID_302_);fill:#02919D;}
	.st312{clip-path:url(#SVGID_302_);fill:#F9F29C;}
	.st313{clip-path:url(#SVGID_302_);fill:none;stroke:#02919D;stroke-width:1.37;stroke-miterlimit:10;}
	.st314{clip-path:url(#SVGID_302_);fill:#02919D;}
	.st315{clip-path:url(#SVGID_302_);fill:none;stroke:#02919D;stroke-width:1.6051;stroke-miterlimit:10;}
	.st316{clip-path:url(#SVGID_302_);fill:#DDD26C;}
	.st317{fill:none;stroke:#FFFFFF;stroke-width:1.6513;stroke-miterlimit:10;}
	.st318{fill:none;stroke:#02919D;stroke-width:0.9188;stroke-miterlimit:10;}
	.st319{fill:none;stroke:#02919D;stroke-width:0.9892;stroke-miterlimit:10;}
	.st320{fill:#C2297D;}
	.st321{fill:#D2C5A6;}
	.st322{clip-path:url(#SVGID_304_);fill:#C42275;}
	.st323{clip-path:url(#SVGID_304_);fill:#FFFFFF;}
	.st324{clip-path:url(#SVGID_304_);fill:#231F20;}
	
		.st325{clip-path:url(#SVGID_304_);fill:none;stroke:#02919D;stroke-width:1.249;stroke-linecap:round;stroke-linejoin:round;stroke-miterlimit:10;}
	.st326{clip-path:url(#SVGID_304_);fill:#E2DAC2;}
	.st327{clip-path:url(#SVGID_304_);fill:#02919D;}
	.st328{clip-path:url(#SVGID_306_);fill:#F9F293;}
	.st329{clip-path:url(#SVGID_306_);fill:#00ADEE;}
	.st330{clip-path:url(#SVGID_306_);fill:#BCB29B;}
	.st331{clip-path:url(#SVGID_306_);fill:#C42275;}
	.st332{clip-path:url(#SVGID_306_);}
	.st333{fill:#9B8256;}
	.st334{clip-path:url(#SVGID_306_);fill:none;}
	.st335{clip-path:url(#SVGID_306_);fill:#FFFFFF;}
	.st336{fill:#DBCCA7;}
	.st337{fill:#C4AE83;}
	.st338{clip-path:url(#SVGID_308_);fill:#02919D;}
	.st339{clip-path:url(#SVGID_308_);fill:#C42275;}
	.st340{clip-path:url(#SVGID_308_);fill:#00ADEE;}
	.st341{opacity:0.65;clip-path:url(#SVGID_308_);fill:#FFFFFF;}
	.st342{opacity:0.4;clip-path:url(#SVGID_308_);}
	.st343{clip-path:url(#SVGID_308_);fill:none;}
	.st344{clip-path:url(#SVGID_308_);fill:#FFFFFF;}
	.st345{clip-path:url(#SVGID_308_);}
	.st346{fill:#F9F293;}
	.st347{clip-path:url(#SVGID_310_);}
	.st348{fill:#831B52;}
	.st349{clip-path:url(#SVGID_312_);}
	.st350{fill:#00779B;}
	.st351{opacity:0.15;fill:#00ADEE;}
	.st352{opacity:0.46;fill:#FFFFFF;}
	.st353{fill:#F6BECA;}
	.st354{fill:#BCB29B;}
	.st355{fill:#86D8F2;}
	.st356{fill:#0B8BB2;}
	.st357{fill:#B11F6D;}
	.st358{opacity:0.36;fill:#5E5E5E;}
	.st359{opacity:0.37;fill:#02919D;}
	.st360{opacity:0.55;fill:#EC2386;}
</style>
<g>
	<path class="st199" d="M1125.6-207.9c-4.9,0-9.7,0.6-14.2,1.7c-5-27.2-31.8-48-64-48c-22.3,0-41.9,9.9-53.6,25
		c-9.7-6.5-21.9-10.3-35-10.3c-6.1,0-12,0.8-17.5,2.4c-11.5-22.8-37.3-38.7-67.4-38.7c-37.2,0-67.9,24.3-73,55.9
		c-2-0.2-4.1-0.3-6.2-0.3c-32.9,0-59.6,23.6-59.6,52.7c0,0.8,0,1.6,0.1,2.4H735v51.1h443.1V-165l0,0
		C1176-189,1153.3-207.9,1125.6-207.9z"/>
	<polygon class="st149" points="933.7,-282.3 929.4,-338.2 1026.8,-345 1024,-294.4 941.2,-289.2 	"/>
	<path class="st148" d="M832.3-322.8c0-15.5-15.2-28.1-34-28.1s-34,12.6-34,28.1s15.2,28.1,34,28.1c4.7,0,9.3-0.8,13.4-2.2l6.1,6.1
		l3.6-11.3C828.1-307.2,832.3-314.6,832.3-322.8z"/>
	<path class="st354" d="M836.8-163.4l3.5-24.2c0,0,7.5-4.2,9.5-12.3c2-8,2.3-24.2,2.3-24.2s1-12.7,1-19.4c0-6.7-0.8-10.8-2.9-10.4
		c-2.1,0.4-2,1.4-2.5,3.6c-0.6,2.2-1.8,20.7-1.8,20.7s0,2.7-0.7,2.6c-1-0.1,0.6-10.1,1.3-19.5c0.7-9.4,0.4-14.1,0.1-16.5
		c-0.3-2.4-4.7-5.3-5.5,0.6c-0.8,5.9-3.3,29.7-3.5,30.5c-0.2,0.8-0.1,4.1-1,2.9c-0.6-0.8,3.6-38.4,3.8-39.7c0.2-1.7-2.5-4.7-5.1-3
		c-1.2,0.8-1.5,3.4-1.7,5c-0.1,1.6-4.8,34.8-5.1,35.4c-0.7,1.7-0.9,0.4-0.9,0.4s3.4-31.5,2.4-33.1c-0.9-1.6-5.3-3.8-5.9,1.9
		c-0.4,3.9-2.4,19.9-4.3,30.3c-0.8,4.7-2.2,8.2-2.4,9.2c-0.6,3-2.7,7-2.7,7s-2.6-6.1-2.4-7.9c0.2-1.8,0.9-5.6,1-8.4
		c0.1-2.8-1.1-5.5-1.5-6c-0.4-0.5-2.9-1.2-4.9,4.9c-2,6.1-2.9,10.7-3,12.2c-0.1,1.1,1.7,9.6,2.5,12.8c2.9,12.6,13.2,16,13.2,16
		s0.5,7.7,0.5,8.3s-2.2,20.9-2.2,21.3C817.8-162.6,834.3-158.6,836.8-163.4z"/>
	<path class="st149" d="M841-113.5c0.1-1.3,2.8-61.9,2.8-61.9s-6.9,2.7-16,1.7s-15.2-4.2-15.2-4.2l-1.5,64.4H841z"/>
	<g>
		<path class="st333" d="M851.8-223.5c-9-4.4-18.8-6.6-29.1-6.5"/>
	</g>
	<line class="st132" x1="837.1" y1="-225" x2="836.8" y2="-224.3"/>
	<path class="st129" d="M782.3-331.9c0.8,0.6,35.4-1.3,35.4-1.3l-1.1,3.2h-36.1L782.3-331.9z"/>
	<path class="st129" d="M815.8-320.5c-0.8-0.6-35.4,1.3-35.4,1.3l1.1-3.2h36.1L815.8-320.5z"/>
	<path class="st129" d="M815.8-311.3c-0.8-0.6-35.4,1.3-35.4,1.3l1.1-3.2h36.1L815.8-311.3z"/>
	<g>
		<path class="st129" d="M890.4-171.6l-4.5-31c0,0-9.6-5.4-12.1-15.7c-2.5-10.2-2.9-30.9-2.9-30.9s-1.2-16.3-1.2-24.8
			s1-13.8,3.7-13.3c2.7,0.5,2.5,1.7,3.2,4.6c0.7,2.8,2.3,26.5,2.3,26.5s0,3.4,0.9,3.3c1.3-0.1-0.7-13-1.7-25c-0.9-12-0.5-18-0.1-21
			c0.4-3,6-6.8,7,0.7c1,7.5,4.2,38,4.5,39c0.3,1,0.1,5.2,1.3,3.7c0.7-1-4.6-49-4.8-50.8c-0.2-2.2,3.2-6.1,6.5-3.9
			c1.6,1.1,2,4.3,2.1,6.4c0.2,2,6.1,44.4,6.5,45.3c0.9,2.1,1.1,0.6,1.1,0.6s-4.3-40.3-3.1-42.3s6.7-4.9,7.5,2.4
			c0.6,5,3.1,25.4,5.5,38.7c1.1,6,2.9,10.5,3.1,11.7c0.8,3.8,3.4,8.9,3.4,8.9s3.4-7.7,3.1-10.1c-0.3-2.4-1.1-7.2-1.3-10.7
			c-0.1-3.6,1.4-7,1.9-7.7c0.5-0.7,3.7-1.5,6.3,6.3c2.6,7.8,3.7,13.7,3.8,15.6c0.1,1.3-2.2,12.3-3.2,16.3
			c-3.7,16.1-16.9,20.4-16.9,20.4s-0.7,9.9-0.7,10.6c0,0.7,2.8,26.7,2.9,27.2C914.7-170.6,893.6-165.5,890.4-171.6z"/>
		<path class="st156" d="M881.4-113.5c-0.1-1.6,0-73.5,0-73.5s8.8,3.4,20.4,2.2s19.4-5.4,19.4-5.4l-1.3,76.7H881.4z"/>
		<g>
			<path class="st355" d="M874.4-248.5c11.5-5.6,24.1-8.4,37.3-8.3"/>
		</g>
		<line class="st132" x1="893.2" y1="-250.4" x2="893.6" y2="-249.5"/>
	</g>
	<path class="st156" d="M1008.3-163.4l3.5-24.2c0,0,7.5-4.2,9.5-12.3c2-8,2.3-24.2,2.3-24.2s1-12.7,1-19.4c0-6.7-0.8-10.8-2.9-10.4
		c-2.1,0.4-2,1.4-2.5,3.6c-0.6,2.2-1.8,20.7-1.8,20.7s0,2.7-0.7,2.6c-1-0.1,0.6-10.1,1.3-19.5c0.7-9.4,0.4-14.1,0.1-16.5
		c-0.3-2.4-4.7-5.3-5.5,0.6c-0.8,5.9-3.3,29.7-3.5,30.5c-0.2,0.8-0.1,4.1-1,2.9c-0.6-0.8,3.6-38.4,3.8-39.7c0.2-1.7-2.5-4.7-5.1-3
		c-1.2,0.8-1.5,3.4-1.7,5c-0.1,1.6-4.8,34.8-5.1,35.4c-0.7,1.7-0.9,0.4-0.9,0.4s3.4-31.5,2.4-33.1c-0.9-1.6-5.3-3.8-5.9,1.9
		c-0.4,3.9-2.4,19.9-4.3,30.3c-0.8,4.7-2.2,8.2-2.4,9.2c-0.6,3-2.7,7-2.7,7s-2.6-6.1-2.4-7.9c0.2-1.8,0.9-5.6,1-8.4
		c0.1-2.8-1.1-5.5-1.5-6c-0.4-0.5-2.9-1.2-4.9,4.9c-2,6.1-2.9,10.7-3,12.2c-0.1,1.1,1.7,9.6,2.5,12.8c2.9,12.6,13.2,16,13.2,16
		s0.5,7.7,0.5,8.3c0,0.5-2.2,20.9-2.2,21.3C989.3-162.6,1005.8-158.6,1008.3-163.4z"/>
	<path class="st168" d="M1012.6-113.5c0.1-1.3,2.8-61.9,2.8-61.9s-6.9,2.7-16,1.7c-9.1-1-15.2-4.2-15.2-4.2l-1.5,64.4H1012.6z"/>
	<g>
		<path class="st356" d="M1023.3-223.5c-9-4.4-18.8-6.6-29.1-6.5"/>
	</g>
	<line class="st132" x1="1008.6" y1="-225" x2="1008.3" y2="-224.3"/>
	<g>
		<path class="st207" d="M1064.4-171.6l-4.5-31c0,0-9.6-5.4-12.1-15.7c-2.5-10.2-2.9-30.9-2.9-30.9s-1.2-16.3-1.2-24.8
			s1-13.8,3.7-13.3c2.7,0.5,2.5,1.7,3.2,4.6c0.7,2.8,2.3,26.5,2.3,26.5s0,3.4,0.9,3.3c1.3-0.1-0.7-13-1.7-25c-0.9-12-0.5-18-0.1-21
			c0.4-3,6-6.8,7,0.7c1,7.5,4.2,38,4.5,39c0.3,1,0.1,5.2,1.3,3.7c0.7-1-4.6-49-4.8-50.8c-0.2-2.2,3.2-6.1,6.5-3.9
			c1.6,1.1,2,4.3,2.1,6.4c0.2,2,6.1,44.4,6.5,45.3c0.9,2.1,1.1,0.6,1.1,0.6s-4.3-40.3-3.1-42.3c1.2-2,6.7-4.9,7.5,2.4
			c0.6,5,3.1,25.4,5.5,38.7c1.1,6,2.9,10.5,3.1,11.7c0.8,3.8,3.4,8.9,3.4,8.9s3.4-7.7,3.1-10.1c-0.3-2.4-1.1-7.2-1.3-10.7
			c-0.1-3.6,1.4-7,1.9-7.7c0.5-0.7,3.7-1.5,6.3,6.3c2.6,7.8,3.7,13.7,3.8,15.6c0.1,1.3-2.2,12.3-3.2,16.3
			c-3.7,16.1-16.9,20.4-16.9,20.4s-0.7,9.9-0.7,10.6c0,0.7,2.8,26.7,2.9,27.2C1088.7-170.6,1067.6-165.5,1064.4-171.6z"/>
		<path class="st148" d="M1055.4-113.5c-0.1-1.6,0-73.5,0-73.5s8.8,3.4,20.4,2.2c11.6-1.2,19.4-5.4,19.4-5.4l-1.3,76.7H1055.4z"/>
		<g>
			<path class="st357" d="M1048.4-248.5c11.5-5.6,24.1-8.4,37.3-8.3"/>
		</g>
		<line class="st132" x1="1067.2" y1="-250.4" x2="1067.6" y2="-249.5"/>
	</g>
	<path class="st358" d="M963.3-197.4c-1.7,0.3-1.6,1.1-2,2.8c-0.4,1.7-1.4,16.4-1.4,16.4s0,2.1-0.5,2c-0.8-0.1,0.5-8,1-15.5
		c0.6-7.4,0.3-11.2,0.1-13c-0.3-1.9-3.7-4.2-4.4,0.5c-0.6,4.7-2.6,23.5-2.8,24.2c-0.2,0.6-0.1,3.2-0.8,2.3c-0.5-0.6,2.9-30.4,3-31.5
		c0.2-1.4-2-3.8-4-2.4c-1,0.7-1.2,2.7-1.3,3.9c-0.1,1.3-3.8,27.5-4,28.1c-0.6,1.3-0.7,0.4-0.7,0.4s2.7-25,1.9-26.2
		c-0.7-1.2-4.2-3-4.7,1.5c-0.3,3.1-1.9,15.7-3.4,24c-0.7,3.7-1.8,6.5-1.9,7.3c-0.5,2.4-2.1,5.5-2.1,5.5s-2.1-4.8-1.9-6.3
		c0.2-1.5,0.7-4.4,0.8-6.7c0.1-2.2-0.9-4.4-1.2-4.8c-0.3-0.4-2.3-0.9-3.9,3.9c-1.6,4.8-2.3,8.5-2.4,9.7c0,0.8,1.4,7.6,2,10.1
		c2.3,9.9,10.5,12.6,10.5,12.6s0.4,6.1,0.4,6.5c0,0.2-0.3,3.2-0.7,6.6c-3.2-0.9-5.2-2-5.2-2l0,23.8h23.7c0.1-1,1-21.8,1-21.8
		s-1.7,0.6-4.4,1.1l1.5-10.7c0,0,5.9-3.4,7.5-9.7c1.6-6.4,1.8-19.2,1.8-19.2s0.8-10.1,0.8-15.3C965.6-194.4,964.9-197.7,963.3-197.4
		z"/>
	<path class="st359" d="M796.9-156.4c0.5-2.4,1.9-8.7,1.8-9.5c-0.1-1.1-0.7-4.5-2.2-9.1c-1.5-4.5-3.4-4-3.6-3.6
		c-0.3,0.4-1.2,2.4-1.1,4.5c0.1,2.1,0.6,4.9,0.7,6.2c0.2,1.4-1.8,5.9-1.8,5.9s-1.5-3-2-5.2c-0.1-0.7-1.2-3.3-1.8-6.8
		c-1.4-7.8-2.9-19.6-3.2-22.5c-0.5-4.2-3.7-2.6-4.4-1.4c-0.7,1.2,1.8,24.6,1.8,24.6s-0.1,0.9-0.7-0.3c-0.2-0.5-3.7-25.1-3.8-26.3
		s-0.3-3.1-1.2-3.7c-1.9-1.3-3.9,1-3.8,2.3c0.1,1,3.2,28.9,2.8,29.5c-0.7,0.9-0.6-1.5-0.8-2.1c-0.2-0.6-2-18.3-2.6-22.7
		c-0.6-4.4-3.8-2.2-4.1-0.4c-0.2,1.7-0.5,5.2,0.1,12.2c0.5,7,1.7,14.4,1,14.5c-0.5,0.1-0.5-1.9-0.5-1.9s-0.9-13.8-1.4-15.4
		c-0.4-1.6-0.3-2.3-1.9-2.6c-1.6-0.3-2.2,2.8-2.2,7.7c0,4.9,0.7,14.4,0.7,14.4s0.2,12,1.7,18c1.5,6,7,9.1,7,9.1l1.4,10.1
		c-2.5-0.4-4.1-1-4.1-1s0.3,17.7,0.4,18.7h22.2l0.6-20.5c0,0-1.8,1-4.8,1.8c-0.3-3.2-0.6-6.1-0.6-6.2c0-0.4,0.4-6.1,0.4-6.1
		S794.8-147.1,796.9-156.4z"/>
	<path class="st360" d="M1150.4-182.1c-1.6,0.3-1.6,1.1-2,2.8c-0.4,1.7-1.4,16.3-1.4,16.3s0,2.1-0.5,2c-0.8-0.1,0.5-8,1-15.4
		c0.6-7.4,0.3-11.1,0.1-13c-0.3-1.9-3.7-4.2-4.3,0.5c-0.6,4.6-2.6,23.4-2.8,24c-0.2,0.6-0.1,3.2-0.8,2.3c-0.5-0.6,2.8-30.2,3-31.3
		c0.2-1.3-2-3.7-4-2.4c-1,0.7-1.2,2.7-1.3,3.9c-0.1,1.2-3.8,27.4-4,27.9c-0.6,1.3-0.7,0.3-0.7,0.3s2.6-24.8,1.9-26.1
		c-0.7-1.2-4.1-3-4.6,1.5c-0.3,3.1-1.9,15.6-3.4,23.9c-0.7,3.7-1.8,6.5-1.9,7.2c-0.5,2.4-2.1,5.5-2.1,5.5s-2.1-4.8-1.9-6.2
		c0.2-1.5,0.7-4.4,0.8-6.6c0.1-2.2-0.9-4.3-1.2-4.7c-0.3-0.4-2.3-0.9-3.9,3.9c-1.6,4.8-2.3,8.5-2.4,9.6c0,0.8,1.4,7.6,1.9,10.1
		c2.3,9.9,10.4,12.6,10.4,12.6s0.4,6.1,0.4,6.5c0,0.2-0.3,3.2-0.7,6.6c-3.2-0.9-5.1-1.9-5.1-1.9l0.5,8.7h23.8c0.1-1,0.3-6.8,0.3-6.8
		s-1.7,0.6-4.3,1.1l1.5-10.7c0,0,5.9-3.3,7.5-9.7c1.6-6.3,1.8-19.1,1.8-19.1s0.8-10,0.8-15.3S1152-182.4,1150.4-182.1z"/>
	<path class="st129" d="M946.2-323.2c0,0,62.7-4.7,64-4.3c1.3,0.4,2,1.5-2.2,2.3c-4.1,0.8-62,4.4-62,4.4L946.2-323.2z"/>
	<path class="st129" d="M945.6-313c0,0,62.7-4.7,64-4.3c1.3,0.4,2,1.5-2.2,2.3c-4.1,0.8-62,4.4-62,4.4L945.6-313z"/>
	<polygon class="st156" points="1188.7,-216.4 1191.4,-279.6 1117.3,-283.3 1120.5,-225.9 1182.3,-224.4 	"/>
	<g>
		<g>
			<path class="st129" d="M1141.1-260c-3-6.3,5.2-9.6,9.6-8.6c8,1.9,6,10.6,2,14.8c-3.2,3.3-6.6,6.1-6.1,11.1c0.2,1.6,2.7,1.6,2.5,0
				c-0.8-7.2,8.6-9.7,9.6-16.6c0.6-4.1-1.2-9.1-5-11c-7.4-3.7-19,2.9-14.8,11.6C1139.7-257.3,1141.8-258.5,1141.1-260L1141.1-260z"
				/>
		</g>
	</g>
	<g>
		<g>
			<path class="st129" d="M1148.4-234.5c-0.1,0-0.2-0.1-0.2-0.1c-0.1-0.2-0.2-0.4-0.3-0.6c0,0,0-0.1,0-0.1c0,1.6,2.5,1.6,2.5,0
				c0-0.8-0.5-1.5-1.3-1.6c-0.7-0.1-1.4,0.2-1.5,0.9C1147.3-235.4,1147.7-234.6,1148.4-234.5L1148.4-234.5z"/>
		</g>
	</g>
</g>
</svg>
