<?xml version="1.0" encoding="utf-8"?>
<!-- Generator: Adobe Illustrator 19.1.0, SVG Export Plug-In . SVG Version: 6.00 Build 0)  -->
<svg version="1.1" id="Capa_1" xmlns="http://www.w3.org/2000/svg" xmlns:xlink="http://www.w3.org/1999/xlink" x="0px" y="0px"
	 viewBox="1441.3 331.2 180 180" style="enable-background:new 1441.3 331.2 180 180;" xml:space="preserve">
<style type="text/css">
	.st0{display:none;}
	.st1{display:inline;}
	.st2{fill:#C52375;}
	.st3{clip-path:url(#SVGID_2_);fill:#E6E8EA;}
	.st4{clip-path:url(#SVGID_4_);fill:#E3DBC3;}
	.st5{opacity:0.4;clip-path:url(#SVGID_6_);fill:#02929E;enable-background:new    ;}
	.st6{clip-path:url(#SVGID_8_);fill:#E3DBC3;}
	.st7{clip-path:url(#SVGID_10_);fill:#02929E;}
	.st8{clip-path:url(#SVGID_12_);fill:#2C2827;}
	.st9{clip-path:url(#SVGID_14_);fill:#B6B9BB;}
	.st10{clip-path:url(#SVGID_16_);fill:#94999B;}
	.st11{clip-path:url(#SVGID_18_);fill:#A7A9AC;}
	.st12{clip-path:url(#SVGID_20_);fill:#A7A9AC;}
	.st13{clip-path:url(#SVGID_22_);fill:#9E1F63;}
	.st14{clip-path:url(#SVGID_24_);fill:#9E1F63;}
	.st15{clip-path:url(#SVGID_26_);fill:none;stroke:#02929E;stroke-width:1.296;stroke-miterlimit:10;}
	.st16{clip-path:url(#SVGID_28_);fill:#A7A9AC;}
	.st17{clip-path:url(#SVGID_30_);fill:#A7A9AC;}
	.st18{clip-path:url(#SVGID_32_);fill:#2C2827;}
	.st19{clip-path:url(#SVGID_34_);}
	.st20{fill:#2C2827;}
	.st21{fill:#B6B9BB;}
	.st22{clip-path:url(#SVGID_36_);fill:#E6E8EA;}
	.st23{clip-path:url(#SVGID_38_);fill:#9AC3C1;}
	.st24{clip-path:url(#SVGID_40_);fill:#9E9EA1;}
	.st25{clip-path:url(#SVGID_42_);fill:#E3DBC3;}
	.st26{clip-path:url(#SVGID_44_);fill:#CED1D3;}
	.st27{clip-path:url(#SVGID_46_);fill:#E6E8EA;}
	.st28{clip-path:url(#SVGID_48_);fill:#B3B7BA;}
	.st29{clip-path:url(#SVGID_50_);fill:#CED1D3;}
	.st30{clip-path:url(#SVGID_52_);fill:#E6E8EA;}
	.st31{clip-path:url(#SVGID_54_);fill:#B3B7BA;}
	.st32{clip-path:url(#SVGID_56_);fill:#CED1D3;}
	.st33{clip-path:url(#SVGID_58_);fill:#E6E8EA;}
	.st34{clip-path:url(#SVGID_60_);fill:#B3B7BA;}
	.st35{clip-path:url(#SVGID_62_);fill:#CED1D3;}
	.st36{clip-path:url(#SVGID_64_);fill:#E6E8EA;}
	.st37{clip-path:url(#SVGID_66_);fill:#B3B7BA;}
	.st38{clip-path:url(#SVGID_68_);fill:#CED1D3;}
	.st39{clip-path:url(#SVGID_70_);fill:#E6E8EA;}
	.st40{clip-path:url(#SVGID_72_);fill:#B3B7BA;}
	.st41{clip-path:url(#SVGID_74_);fill:#CED1D3;}
	.st42{clip-path:url(#SVGID_76_);fill:#E6E8EA;}
	.st43{clip-path:url(#SVGID_78_);fill:#B3B7BA;}
	.st44{clip-path:url(#SVGID_80_);fill:#CED1D3;}
	.st45{clip-path:url(#SVGID_82_);fill:#E6E8EA;}
	.st46{clip-path:url(#SVGID_84_);fill:#B3B7BA;}
	.st47{clip-path:url(#SVGID_86_);fill:#CED1D3;}
	.st48{clip-path:url(#SVGID_88_);fill:#E6E8EA;}
	.st49{clip-path:url(#SVGID_90_);fill:#B3B7BA;}
	.st50{clip-path:url(#SVGID_92_);fill:#E0CE4B;}
	.st51{clip-path:url(#SVGID_94_);fill:#00AEEF;}
	.st52{clip-path:url(#SVGID_96_);fill:#0A7393;}
	.st53{opacity:0.22;clip-path:url(#SVGID_98_);fill:#5D5E5E;enable-background:new    ;}
	.st54{clip-path:url(#SVGID_100_);fill:#5D5E5E;}
	.st55{clip-path:url(#SVGID_102_);fill:#95D8EA;}
	.st56{clip-path:url(#SVGID_104_);fill:#0A7393;}
	.st57{clip-path:url(#SVGID_106_);fill:#00AEEF;}
	.st58{clip-path:url(#SVGID_108_);fill:#FFFFFF;}
	.st59{clip-path:url(#SVGID_110_);fill:#E3DBC3;}
	.st60{clip-path:url(#SVGID_112_);fill:#E3DBC3;}
	.st61{clip-path:url(#SVGID_114_);fill:#E0CE4B;}
	.st62{clip-path:url(#SVGID_116_);fill:#FFFFFF;}
	.st63{clip-path:url(#SVGID_118_);fill:#FFFFFF;}
	.st64{clip-path:url(#SVGID_120_);fill:#FFFFFF;}
	.st65{clip-path:url(#SVGID_122_);fill:#FFFFFF;}
	.st66{clip-path:url(#SVGID_124_);fill:#FFFFFF;}
	.st67{clip-path:url(#SVGID_126_);fill:#FFFFFF;}
	.st68{clip-path:url(#SVGID_128_);fill:#FFFFFF;}
	.st69{clip-path:url(#SVGID_130_);fill:#FFFFFF;}
	.st70{clip-path:url(#SVGID_132_);fill:#ED2387;}
	.st71{clip-path:url(#SVGID_134_);fill:#ED2387;}
	.st72{display:inline;fill:#00AEEF;}
	.st73{clip-path:url(#SVGID_136_);fill:none;}
	.st74{clip-path:url(#SVGID_138_);fill:#C52375;}
	.st75{clip-path:url(#SVGID_140_);}
	.st76{fill:#E3DBC3;}
	.st77{fill:#02929E;}
	.st78{opacity:0.19;enable-background:new    ;}
	.st79{opacity:0.4;fill:#02929E;enable-background:new    ;}
	.st80{clip-path:url(#SVGID_142_);fill:#C52375;}
	.st81{clip-path:url(#SVGID_144_);fill:#FFFFFF;}
	.st82{clip-path:url(#SVGID_146_);}
	.st83{clip-path:url(#SVGID_148_);}
	.st84{clip-path:url(#SVGID_150_);}
	.st85{clip-path:url(#SVGID_152_);}
	.st86{clip-path:url(#SVGID_154_);}
	.st87{clip-path:url(#SVGID_156_);}
	.st88{clip-path:url(#SVGID_158_);}
	
		.st89{clip-path:url(#SVGID_160_);fill:none;stroke:#02929E;stroke-width:1.249;stroke-linecap:round;stroke-linejoin:round;stroke-miterlimit:10;}
	
		.st90{clip-path:url(#SVGID_162_);fill:none;stroke:#02929E;stroke-width:1.249;stroke-linecap:round;stroke-linejoin:round;stroke-miterlimit:10;}
	.st91{clip-path:url(#SVGID_164_);}
	.st92{clip-path:url(#SVGID_166_);fill:#E3DBC3;}
	.st93{clip-path:url(#SVGID_168_);fill:#E3DBC3;}
	.st94{clip-path:url(#SVGID_170_);fill:#00AEEF;}
	.st95{clip-path:url(#SVGID_172_);fill:#00AEEF;}
	.st96{clip-path:url(#SVGID_174_);fill:#E0CE4B;}
	.st97{clip-path:url(#SVGID_176_);fill:#81184D;}
	.st98{clip-path:url(#SVGID_178_);fill:#C52375;}
	.st99{clip-path:url(#SVGID_180_);fill:#02929E;}
	.st100{clip-path:url(#SVGID_182_);fill:#FFFFFF;}
	.st101{clip-path:url(#SVGID_184_);fill:#81184D;}
	.st102{clip-path:url(#SVGID_186_);fill:#81184D;}
	.st103{clip-path:url(#SVGID_188_);fill:none;stroke:#02929E;stroke-width:0.4243;stroke-miterlimit:10;}
	.st104{clip-path:url(#SVGID_190_);fill:none;stroke:#02929E;stroke-width:0.4243;stroke-miterlimit:10;}
	.st105{clip-path:url(#SVGID_192_);fill:none;stroke:#02929E;stroke-width:0.4243;stroke-miterlimit:10;}
	.st106{clip-path:url(#SVGID_194_);fill:none;stroke:#02929E;stroke-width:0.4243;stroke-miterlimit:10;}
	.st107{clip-path:url(#SVGID_196_);fill:#E3DBC3;}
	.st108{clip-path:url(#SVGID_198_);fill:#FFFFFF;}
	.st109{clip-path:url(#SVGID_200_);fill:#FFFFFF;}
	.st110{clip-path:url(#SVGID_202_);fill:#E3DBC3;}
	.st111{clip-path:url(#SVGID_204_);fill:#02929E;}
	.st112{clip-path:url(#SVGID_206_);fill:#02929E;}
	.st113{clip-path:url(#SVGID_208_);fill:#02929E;}
	.st114{clip-path:url(#SVGID_210_);fill:#02929E;}
	.st115{clip-path:url(#SVGID_212_);fill:#E3DBC3;}
	.st116{clip-path:url(#SVGID_214_);fill:#E3DBC3;}
	.st117{clip-path:url(#SVGID_216_);fill:#E3DBC3;}
	.st118{clip-path:url(#SVGID_218_);fill:#02929E;}
	.st119{clip-path:url(#SVGID_220_);fill:#C52375;}
	.st120{clip-path:url(#SVGID_222_);fill:#00AEEF;}
	.st121{opacity:0.65;clip-path:url(#SVGID_224_);fill:#FFFFFF;enable-background:new    ;}
	.st122{clip-path:url(#SVGID_226_);fill:#C52375;}
	.st123{opacity:0.4;clip-path:url(#SVGID_228_);}
	.st124{clip-path:url(#SVGID_230_);fill:none;}
	.st125{clip-path:url(#SVGID_232_);fill:#FFFFFF;}
	.st126{clip-path:url(#SVGID_234_);fill:#FFFFFF;}
	.st127{clip-path:url(#SVGID_236_);fill:#FFFFFF;}
	.st128{clip-path:url(#SVGID_238_);}
	.st129{fill:#FFFFFF;}
	.st130{fill:#00AEEF;}
	.st131{opacity:0.4;}
	.st132{fill:none;}
	.st133{clip-path:url(#SVGID_240_);fill:#FFFFFF;}
	.st134{clip-path:url(#SVGID_242_);fill:#FFFFFF;}
	.st135{display:inline;fill:#C52375;}
	.st136{clip-path:url(#SVGID_244_);fill:#E3DBC3;}
	.st137{opacity:0.67;clip-path:url(#SVGID_246_);fill:#E3DBC3;enable-background:new    ;}
	.st138{clip-path:url(#SVGID_248_);fill:#FFFFFF;}
	.st139{clip-path:url(#SVGID_250_);fill:#E0CE4B;}
	.st140{opacity:0.67;clip-path:url(#SVGID_252_);fill:#E3DBC3;enable-background:new    ;}
	.st141{clip-path:url(#SVGID_254_);fill:#00AEEF;}
	.st142{clip-path:url(#SVGID_256_);}
	.st143{clip-path:url(#SVGID_258_);}
	.st144{clip-path:url(#SVGID_260_);}
	.st145{clip-path:url(#SVGID_262_);}
	.st146{clip-path:url(#SVGID_264_);}
	.st147{clip-path:url(#SVGID_266_);}
	.st148{fill:#02919D;}
	.st149{fill:#C42275;}
	.st150{clip-path:url(#SVGID_268_);fill:#C42275;}
	.st151{clip-path:url(#SVGID_268_);fill:#FFFFFF;}
	.st152{clip-path:url(#SVGID_268_);fill:#231F20;}
	
		.st153{clip-path:url(#SVGID_268_);fill:none;stroke:#02919D;stroke-width:1.249;stroke-linecap:round;stroke-linejoin:round;stroke-miterlimit:10;}
	.st154{clip-path:url(#SVGID_268_);fill:#E2DAC2;}
	.st155{clip-path:url(#SVGID_268_);fill:#00ADEE;}
	.st156{fill:#00ADEE;}
	.st157{clip-path:url(#SVGID_270_);fill:#02919D;}
	.st158{clip-path:url(#SVGID_270_);fill:#C42275;}
	.st159{clip-path:url(#SVGID_270_);fill:#00ADEE;}
	.st160{opacity:0.65;clip-path:url(#SVGID_270_);fill:#FFFFFF;}
	.st161{opacity:0.4;clip-path:url(#SVGID_270_);}
	.st162{clip-path:url(#SVGID_270_);fill:none;}
	.st163{clip-path:url(#SVGID_270_);fill:#FFFFFF;}
	.st164{clip-path:url(#SVGID_270_);}
	.st165{clip-path:url(#SVGID_272_);fill:#DFCD4B;}
	.st166{clip-path:url(#SVGID_272_);fill:#81184D;}
	.st167{clip-path:url(#SVGID_272_);fill:#C42275;}
	.st168{clip-path:url(#SVGID_272_);fill:#02919D;}
	.st169{clip-path:url(#SVGID_272_);fill:#FFFFFF;}
	.st170{clip-path:url(#SVGID_272_);fill:none;stroke:#02919D;stroke-width:0.4243;stroke-miterlimit:10;}
	.st171{clip-path:url(#SVGID_272_);fill:#E2DAC2;}
	.st172{clip-path:url(#SVGID_274_);fill:none;}
	.st173{clip-path:url(#SVGID_274_);fill:#C42275;}
	.st174{clip-path:url(#SVGID_274_);}
	.st175{fill:#E2DAC2;}
	.st176{fill:#0B7F82;}
	.st177{opacity:0.4;fill:#02919D;}
	.st178{clip-path:url(#SVGID_276_);fill:#E6E8E9;}
	.st179{clip-path:url(#SVGID_276_);fill:#E2DAC2;}
	.st180{opacity:0.4;clip-path:url(#SVGID_276_);fill:#02919D;}
	.st181{clip-path:url(#SVGID_276_);fill:#02919D;}
	.st182{clip-path:url(#SVGID_276_);fill:#2C2827;}
	.st183{clip-path:url(#SVGID_276_);fill:#B6B8BA;}
	.st184{clip-path:url(#SVGID_276_);fill:#93989A;}
	.st185{clip-path:url(#SVGID_276_);fill:#A6A8AB;}
	.st186{clip-path:url(#SVGID_276_);fill:#9E1F63;}
	.st187{clip-path:url(#SVGID_276_);fill:none;stroke:#02919D;stroke-width:1.296;stroke-miterlimit:10;}
	.st188{clip-path:url(#SVGID_276_);}
	.st189{fill:#B6B8BA;}
	.st190{clip-path:url(#SVGID_276_);fill:#99C3C0;}
	.st191{clip-path:url(#SVGID_276_);fill:#9D9DA1;}
	.st192{clip-path:url(#SVGID_276_);fill:#CDD1D3;}
	.st193{clip-path:url(#SVGID_276_);fill:#B3B7BA;}
	.st194{clip-path:url(#SVGID_278_);fill:#E2DAC2;}
	.st195{opacity:0.67;clip-path:url(#SVGID_278_);fill:#E2DAC2;}
	.st196{clip-path:url(#SVGID_278_);fill:#FFFFFF;}
	.st197{clip-path:url(#SVGID_278_);fill:#DFCD4B;}
	.st198{clip-path:url(#SVGID_278_);fill:#00ADEE;}
	.st199{clip-path:url(#SVGID_278_);}
	.st200{clip-path:url(#SVGID_280_);fill:#DFCD4B;}
	.st201{clip-path:url(#SVGID_280_);fill:#00ADEE;}
	.st202{clip-path:url(#SVGID_280_);fill:#097493;}
	.st203{opacity:0.22;clip-path:url(#SVGID_280_);fill:#5E5E5E;}
	.st204{clip-path:url(#SVGID_280_);fill:#5E5E5E;}
	.st205{clip-path:url(#SVGID_280_);fill:#93D7EA;}
	.st206{clip-path:url(#SVGID_280_);fill:#FFFFFF;}
	.st207{clip-path:url(#SVGID_280_);fill:#E2DAC2;}
	.st208{clip-path:url(#SVGID_280_);fill:#EC2386;}
	.st209{clip-path:url(#SVGID_282_);fill:#00ADEE;}
	.st210{clip-path:url(#SVGID_282_);fill:#F9F29C;}
	.st211{clip-path:url(#SVGID_282_);fill:#E2DAC2;}
	.st212{opacity:0.67;clip-path:url(#SVGID_282_);fill:#E2DAC2;}
	.st213{clip-path:url(#SVGID_282_);fill:#C42275;}
	.st214{clip-path:url(#SVGID_282_);fill:#DDD26C;}
	.st215{clip-path:url(#SVGID_282_);fill:none;stroke:#02919D;stroke-width:0.9262;stroke-miterlimit:10;}
	.st216{fill:#F9F29C;}
	.st217{clip-path:url(#SVGID_284_);fill:#00ADEE;}
	.st218{clip-path:url(#SVGID_284_);fill:#BCB29B;}
	.st219{opacity:0.4;clip-path:url(#SVGID_284_);fill:#02919D;}
	.st220{clip-path:url(#SVGID_284_);fill:none;stroke:#02919D;stroke-width:1.6272;stroke-miterlimit:10;}
	.st221{clip-path:url(#SVGID_284_);fill:#02919D;}
	.st222{fill:#EC2386;}
	.st223{clip-path:url(#SVGID_286_);fill:#F9F29C;}
	.st224{clip-path:url(#SVGID_286_);fill:#E2DAC2;}
	.st225{opacity:0.4;clip-path:url(#SVGID_286_);fill:#02919D;}
	.st226{clip-path:url(#SVGID_286_);fill:none;stroke:#02919D;stroke-width:1.6191;stroke-miterlimit:10;}
	.st227{clip-path:url(#SVGID_286_);fill:#02919D;}
	.st228{clip-path:url(#SVGID_286_);fill:#EC2386;}
	.st229{clip-path:url(#SVGID_286_);fill:none;stroke:#00ADEE;stroke-width:1.6191;stroke-miterlimit:10;}
	.st230{clip-path:url(#SVGID_286_);fill:none;stroke:#00ADEE;stroke-width:1.4393;stroke-miterlimit:10;}
	.st231{clip-path:url(#SVGID_286_);fill:none;stroke:#00ADEE;stroke-width:1.1151;stroke-miterlimit:10;}
	.st232{fill:#B61F70;}
	.st233{clip-path:url(#SVGID_288_);fill:none;stroke:#231F20;stroke-width:0.8882;stroke-miterlimit:10;}
	.st234{clip-path:url(#SVGID_288_);fill:#EC2386;}
	.st235{clip-path:url(#SVGID_288_);fill:#F9F29C;}
	.st236{clip-path:url(#SVGID_288_);fill:#BCB29B;}
	.st237{opacity:0.4;clip-path:url(#SVGID_288_);fill:#02919D;}
	.st238{clip-path:url(#SVGID_288_);fill:#DDD26C;}
	.st239{clip-path:url(#SVGID_288_);}
	.st240{fill:none;stroke:#02919D;stroke-width:1.4472;stroke-linejoin:round;stroke-miterlimit:10;}
	.st241{fill:#FFFFFF;stroke:#02919D;stroke-width:1.6155;stroke-linejoin:round;stroke-miterlimit:10;}
	.st242{fill:none;stroke:#02919D;stroke-width:1.2383;stroke-miterlimit:10;}
	.st243{clip-path:url(#SVGID_288_);fill:none;stroke:#02919D;stroke-width:0.9979;stroke-miterlimit:10;}
	.st244{clip-path:url(#SVGID_290_);fill:#F9F29C;}
	.st245{clip-path:url(#SVGID_290_);fill:#BCB29B;}
	.st246{opacity:0.4;clip-path:url(#SVGID_290_);fill:#02919D;}
	.st247{clip-path:url(#SVGID_290_);fill:none;stroke:#02919D;stroke-width:1.4902;stroke-miterlimit:10;}
	.st248{clip-path:url(#SVGID_290_);fill:#02919D;}
	.st249{clip-path:url(#SVGID_290_);fill:none;stroke:#02919D;stroke-width:1.1906;stroke-miterlimit:10;}
	.st250{clip-path:url(#SVGID_290_);fill:none;stroke:#02919D;stroke-width:1.6045;stroke-miterlimit:10;}
	.st251{clip-path:url(#SVGID_292_);fill:none;stroke:#231F20;stroke-width:0.8262;stroke-miterlimit:10;}
	.st252{clip-path:url(#SVGID_292_);fill:#02919D;}
	.st253{clip-path:url(#SVGID_292_);fill:#EC2386;}
	.st254{clip-path:url(#SVGID_292_);fill:#E2DAC2;}
	.st255{opacity:0.4;clip-path:url(#SVGID_292_);fill:#02919D;}
	.st256{clip-path:url(#SVGID_292_);fill:none;stroke:#02919D;stroke-width:1.3629;stroke-miterlimit:10;}
	.st257{clip-path:url(#SVGID_292_);fill:none;stroke:#02919D;stroke-width:1.5027;stroke-linejoin:round;stroke-miterlimit:10;}
	.st258{clip-path:url(#SVGID_292_);fill:#FFFFFF;stroke:#02919D;stroke-width:1.5027;stroke-linejoin:round;stroke-miterlimit:10;}
	.st259{fill:#DDD26C;}
	.st260{clip-path:url(#SVGID_294_);fill:none;stroke:#231F20;stroke-width:0.8318;stroke-miterlimit:10;}
	.st261{clip-path:url(#SVGID_294_);fill:#00ADEE;}
	.st262{clip-path:url(#SVGID_294_);fill:#F9F29C;}
	.st263{clip-path:url(#SVGID_294_);fill:#E2DAC2;}
	.st264{opacity:0.4;clip-path:url(#SVGID_294_);fill:#02919D;}
	.st265{clip-path:url(#SVGID_294_);fill:none;stroke:#02919D;stroke-width:1.3722;stroke-miterlimit:10;}
	.st266{clip-path:url(#SVGID_294_);fill:#02919D;}
	.st267{clip-path:url(#SVGID_294_);fill:none;stroke:#02919D;stroke-width:1.513;stroke-linejoin:round;stroke-miterlimit:10;}
	.st268{clip-path:url(#SVGID_294_);fill:#FFFFFF;stroke:#02919D;stroke-width:1.513;stroke-linejoin:round;stroke-miterlimit:10;}
	.st269{clip-path:url(#SVGID_294_);fill:none;stroke:#EC2386;stroke-width:1.6249;stroke-miterlimit:10;}
	.st270{clip-path:url(#SVGID_294_);fill:none;stroke:#EC2386;stroke-width:1.4045;stroke-miterlimit:10;}
	.st271{clip-path:url(#SVGID_294_);fill:#EC2386;}
	.st272{clip-path:url(#SVGID_294_);fill:#DDD26C;}
	.st273{clip-path:url(#SVGID_296_);fill:none;stroke:#02919D;stroke-width:1.6208;stroke-miterlimit:10;}
	.st274{clip-path:url(#SVGID_296_);fill:#EC2386;}
	.st275{clip-path:url(#SVGID_296_);fill:#E2DAC2;}
	.st276{opacity:0.4;clip-path:url(#SVGID_296_);fill:#02919D;}
	.st277{clip-path:url(#SVGID_296_);fill:#F9F29C;}
	.st278{clip-path:url(#SVGID_296_);fill:#02919D;}
	.st279{clip-path:url(#SVGID_296_);fill:none;stroke:#02919D;stroke-width:1.726;stroke-miterlimit:10;}
	.st280{clip-path:url(#SVGID_296_);fill:none;stroke:#02919D;stroke-width:1.8267;stroke-miterlimit:10;}
	.st281{clip-path:url(#SVGID_298_);}
	.st282{clip-path:url(#SVGID_298_);fill:#EC2386;}
	.st283{clip-path:url(#SVGID_298_);fill:none;stroke:#231F20;stroke-width:0.8237;stroke-miterlimit:10;}
	.st284{clip-path:url(#SVGID_298_);fill:#02919D;}
	.st285{clip-path:url(#SVGID_298_);fill:#E2DAC2;}
	.st286{opacity:0.4;clip-path:url(#SVGID_298_);fill:#02919D;}
	.st287{clip-path:url(#SVGID_298_);fill:none;stroke:#02919D;stroke-width:1.3587;stroke-miterlimit:10;}
	.st288{clip-path:url(#SVGID_298_);fill:none;stroke:#02919D;stroke-width:1.4981;stroke-linejoin:round;stroke-miterlimit:10;}
	.st289{clip-path:url(#SVGID_298_);fill:#FFFFFF;stroke:#02919D;stroke-width:1.4981;stroke-linejoin:round;stroke-miterlimit:10;}
	.st290{clip-path:url(#SVGID_298_);fill:none;stroke:#02919D;stroke-width:1.1482;stroke-miterlimit:10;}
	.st291{clip-path:url(#SVGID_298_);fill:none;stroke:#FFFFFF;stroke-width:0.5741;stroke-linecap:round;stroke-miterlimit:10;}
	.st292{clip-path:url(#SVGID_298_);fill:#0B7F82;}
	.st293{clip-path:url(#SVGID_298_);fill:#B61F70;}
	.st294{clip-path:url(#SVGID_300_);fill:#02919D;}
	.st295{clip-path:url(#SVGID_300_);fill:#0B7F82;}
	.st296{clip-path:url(#SVGID_300_);fill:none;stroke:#231F20;stroke-width:0.8338;stroke-miterlimit:10;}
	.st297{clip-path:url(#SVGID_300_);fill:#EC2386;}
	.st298{clip-path:url(#SVGID_300_);fill:#BCB29B;}
	.st299{opacity:0.4;clip-path:url(#SVGID_300_);fill:#02919D;}
	.st300{clip-path:url(#SVGID_300_);fill:none;stroke:#02919D;stroke-width:1.3755;stroke-miterlimit:10;}
	.st301{clip-path:url(#SVGID_300_);fill:none;stroke:#02919D;stroke-width:1.5165;stroke-linejoin:round;stroke-miterlimit:10;}
	.st302{clip-path:url(#SVGID_300_);fill:#FFFFFF;stroke:#02919D;stroke-width:1.5165;stroke-linejoin:round;stroke-miterlimit:10;}
	.st303{clip-path:url(#SVGID_300_);fill:none;stroke:#02919D;stroke-width:1.1624;stroke-miterlimit:10;}
	.st304{clip-path:url(#SVGID_300_);fill:none;stroke:#EC2386;stroke-width:1.1624;stroke-miterlimit:10;}
	.st305{clip-path:url(#SVGID_302_);fill:#00ADEE;}
	.st306{clip-path:url(#SVGID_302_);fill:#E2DAC2;}
	.st307{opacity:0.4;clip-path:url(#SVGID_302_);fill:#02919D;}
	.st308{clip-path:url(#SVGID_302_);fill:none;stroke:#02919D;stroke-width:1.6082;stroke-miterlimit:10;}
	.st309{clip-path:url(#SVGID_302_);fill:#02919D;}
	.st310{clip-path:url(#SVGID_302_);fill:#EC2386;}
	.st311{clip-path:url(#SVGID_302_);}
	.st312{clip-path:url(#SVGID_304_);}
	.st313{clip-path:url(#SVGID_306_);fill:none;stroke:#231F20;stroke-width:0.8288;stroke-miterlimit:10;}
	.st314{clip-path:url(#SVGID_306_);fill:#F9F29C;}
	.st315{clip-path:url(#SVGID_306_);fill:#02919D;}
	.st316{clip-path:url(#SVGID_306_);fill:#BCB29B;}
	.st317{opacity:0.4;clip-path:url(#SVGID_306_);fill:#02919D;}
	.st318{clip-path:url(#SVGID_306_);fill:none;stroke:#02919D;stroke-width:1.3672;stroke-miterlimit:10;}
	.st319{clip-path:url(#SVGID_306_);fill:none;stroke:#02919D;stroke-width:1.5075;stroke-linejoin:round;stroke-miterlimit:10;}
	.st320{clip-path:url(#SVGID_306_);fill:none;stroke:#00ADEE;stroke-width:1.619;stroke-miterlimit:10;}
	.st321{clip-path:url(#SVGID_306_);fill:none;stroke:#00ADEE;stroke-width:1.3995;stroke-miterlimit:10;}
	.st322{clip-path:url(#SVGID_306_);}
	.st323{clip-path:url(#SVGID_306_);fill:#0B7F82;}
	.st324{clip-path:url(#SVGID_306_);fill:#00ADEE;}
	.st325{clip-path:url(#SVGID_308_);fill:#EC2386;}
	.st326{clip-path:url(#SVGID_308_);fill:#E2DAC2;}
	.st327{opacity:0.4;clip-path:url(#SVGID_308_);fill:#02919D;}
	.st328{clip-path:url(#SVGID_308_);fill:#F9F29C;}
	.st329{clip-path:url(#SVGID_308_);fill:none;stroke:#02919D;stroke-width:1.37;stroke-miterlimit:10;}
	.st330{clip-path:url(#SVGID_308_);fill:#02919D;}
	.st331{clip-path:url(#SVGID_308_);fill:none;stroke:#02919D;stroke-width:1.6051;stroke-miterlimit:10;}
	.st332{clip-path:url(#SVGID_308_);fill:#DDD26C;}
</style>
<g>
	<g>
		<defs>
			<path id="SVGID_279_" d="M1605.9,462.7c4.8-10.4,7.4-22,7.4-34.1c0-45.4-36.8-82.2-82.2-82.2c-45.4,0-82.2,36.8-82.2,82.2
				s36.8,82.2,82.2,82.2c8.5,0,16.7-1.3,24.4-3.7c8.7,6.5,21.5,15.8,22.5,16.5c1.4,0.9,50.6-15,50.6-15L1605.9,462.7z"/>
		</defs>
		<clipPath id="SVGID_2_">
			<use xlink:href="#SVGID_279_"  style="overflow:visible;"/>
		</clipPath>
		<circle style="clip-path:url(#SVGID_2_);fill:#DFCD4B;" cx="1531.2" cy="428.6" r="82.2"/>
		<path style="clip-path:url(#SVGID_2_);fill:#00ADEE;" d="M1464.8,484.2c0.2-0.7,19.3-44.8,19.3-44.8h93.9l20.5,44.8H1464.8z"/>
		<polygon style="clip-path:url(#SVGID_2_);fill:#097493;" points="1464.8,484.2 1466.2,489.6 1595.4,489.6 1598.5,484.2 		"/>
		<polyline style="opacity:0.22;clip-path:url(#SVGID_2_);fill:#5E5E5E;" points="1484.1,439.4 1578,439.4 1585.2,455.2 
			1467.8,477.2 1484.1,439.4 		"/>
		<polygon style="clip-path:url(#SVGID_2_);fill:#5E5E5E;" points="1488.6,445.6 1573.2,444.3 1581.1,466.5 1480.2,464.3 		"/>
		<path style="clip-path:url(#SVGID_2_);fill:#93D7EA;" d="M1522.6,469.7c-0.2,0.7-3.7,11.7-3.7,11.7h28.5l-2.2-11.7H1522.6z"/>
		<path style="clip-path:url(#SVGID_2_);fill:#097493;" d="M1485.3,438.6c0-1.2-1.2-65-1.2-65h97l-3.1,65.7L1485.3,438.6z"/>
		<path style="clip-path:url(#SVGID_2_);fill:#00ADEE;" d="M1484.1,439.4c0-1.7,1.2-63.2,1.2-63.2h92.7v63.2H1484.1z"/>
		<polygon style="clip-path:url(#SVGID_2_);fill:#FFFFFF;" points="1488.6,380.5 1488.6,432.7 1572.8,430.9 1574.4,380.5 		"/>
		<path style="clip-path:url(#SVGID_2_);fill:#E2DAC2;" d="M1456.4,493.8c0,0,8.9-10.6,10.2-12.4c1.3-1.7,0,0.9,1.4-0.1
			c1.4-1,3.7-5.9,3.7-5.9l4.4-11.4c0,0-1-8.7,0-10.3c1-1.6,4.9-1.6,4.9-1.6v4.1c0,0,1.1-7.3,1.7-8.1c0.6-0.8,1.1-1.9,3.5-2.1
			c2.4-0.2,3.2,1.3,3.2,1.3v5.6c0,0,1.6-7.8,2.7-8.6s3.7-1.3,5.2,0c1.6,1.3,2.6,5.2,2.4,5.7c-0.2,0.5-1.3,3.4-1.3,3.4
			s9.3-5.6,10.8-5.4c1.4,0.2,1.5,1.8,1.5,3.1c0,1.3-7.1,7.4-7.1,7.4v7c0,0,7.3-4.9,8.1-5.4c0.8-0.5,3.8-1.9,5.6-1.9s2.4,0.6,3,1.6
			c0.6,1-6.2,8.3-7.9,9.9s-13.3,11-16.5,11.8c-3.2,0.8-6.4,2-6.4,2l-7.8,10.5H1456.4z"/>
		<path style="clip-path:url(#SVGID_2_);fill:#E2DAC2;" d="M1563.4,496c0,0-13.7-7.8-14.9-8.4c-1.3-0.6-7.5-4.4-9.7-8.4
			s-7.1-8.1-7.6-10.6s3-2.8,4.7-2c1.7,0.8,7.1,6.7,8.1,7c1,0.3,3.5,1.1,4.4-0.6c1-1.7,0-9.5-0.3-10.5c-0.3-1-18.3-6.5-18.7-7.1
			c-0.3-0.6,0.3-2.5,1.7-3.2c1.4-0.6,14.3,1.2,14.3,1.2l4.8,0.5v-0.8l-13.5-1.7c0,0,4.7-3.1,6.2-3.5c3.1-0.7,12.9,1,12.9,1
			c3.2,1.5,4.2,3.9,4.2,3.9s-1.3-5.1,1.1-5.1c5.8-0.1,7,7.5,7,7.5s0-5.1,1.5-5.1c5.6-0.1,6.3,8.3,7.4,10s9.2,24.5,9.2,24.5
			s5.5,4.9,8.2,7.2c2.7,2.3,4.1,3.8,4.7,4.1c0.6,0.3-25.5,2.9-25.5,2.9L1563.4,496z"/>
		<polygon style="clip-path:url(#SVGID_2_);fill:#DFCD4B;" points="1565,425.8 1498.1,423.3 1498.1,389.2 1565,389.2 		"/>
		<path style="clip-path:url(#SVGID_2_);fill:#FFFFFF;" d="M1543.4,399.9h-35.9c-0.4,0-0.7-0.3-0.7-0.7v-0.2c0-0.4,0.3-0.7,0.7-0.7
			h35.9c0.4,0,0.7,0.3,0.7,0.7v0.2C1544.1,399.6,1543.8,399.9,1543.4,399.9z"/>
		<path style="clip-path:url(#SVGID_2_);fill:#FFFFFF;" d="M1543.4,404h-35.9c-0.4,0-0.7-0.3-0.7-0.7v-0.2c0-0.4,0.3-0.7,0.7-0.7
			h35.9c0.4,0,0.7,0.3,0.7,0.7v0.2C1544.1,403.7,1543.8,404,1543.4,404z"/>
		<path style="clip-path:url(#SVGID_2_);fill:#FFFFFF;" d="M1543.4,408.1h-35.9c-0.4,0-0.7-0.3-0.7-0.7v-0.2c0-0.4,0.3-0.7,0.7-0.7
			h35.9c0.4,0,0.7,0.3,0.7,0.7v0.2C1544.1,407.7,1543.8,408.1,1543.4,408.1z"/>
		<path style="clip-path:url(#SVGID_2_);fill:#FFFFFF;" d="M1543.4,408.1h-35.9c-0.4,0-0.7-0.3-0.7-0.7v-0.2c0-0.4,0.3-0.7,0.7-0.7
			h35.9c0.4,0,0.7,0.3,0.7,0.7v0.2C1544.1,407.7,1543.8,408.1,1543.4,408.1z"/>
		<path style="clip-path:url(#SVGID_2_);fill:#FFFFFF;" d="M1543.4,412.1h-35.9c-0.4,0-0.7-0.3-0.7-0.7v-0.2c0-0.4,0.3-0.7,0.7-0.7
			h35.9c0.4,0,0.7,0.3,0.7,0.7v0.2C1544.1,411.8,1543.8,412.1,1543.4,412.1z"/>
		<path style="clip-path:url(#SVGID_2_);fill:#FFFFFF;" d="M1543.4,416.2h-35.9c-0.4,0-0.7-0.3-0.7-0.7v-0.2c0-0.4,0.3-0.7,0.7-0.7
			h35.9c0.4,0,0.7,0.3,0.7,0.7v0.2C1544.1,415.9,1543.8,416.2,1543.4,416.2z"/>
		<path style="clip-path:url(#SVGID_2_);fill:#FFFFFF;" d="M1543.4,416.2h-35.9c-0.4,0-0.7-0.3-0.7-0.7v-0.2c0-0.4,0.3-0.7,0.7-0.7
			h35.9c0.4,0,0.7,0.3,0.7,0.7v0.2C1544.1,415.9,1543.8,416.2,1543.4,416.2z"/>
		<rect x="1547.4" y="398.3" style="clip-path:url(#SVGID_2_);fill:#FFFFFF;" width="12" height="14.3"/>
		<path style="clip-path:url(#SVGID_2_);fill:#EC2386;" d="M1454.8,498.2l10.6-18.3c0,0,4.4-0.9,12.7,0c8.3,0.9,12.8,4.2,12.8,4.2
			l-8.1,20.9L1454.8,498.2z"/>
		<path style="clip-path:url(#SVGID_2_);fill:#EC2386;" d="M1563.6,501.2c0,0,8.1-9.2,17.5-11.2c9.4-1.9,13.8-0.4,13.8-0.4
			l18.2,21.6h-38.9L1563.6,501.2z"/>
	</g>
</g>
</svg>
