<?xml version="1.0" encoding="utf-8"?>
<!-- Generator: Adobe Illustrator 19.1.0, SVG Export Plug-In . SVG Version: 6.00 Build 0)  -->
<svg version="1.1" xmlns="http://www.w3.org/2000/svg" xmlns:xlink="http://www.w3.org/1999/xlink" x="0px" y="0px"
	 viewBox="0 0 180.7 185.3" style="enable-background:new 0 0 180.7 185.3;" xml:space="preserve">
<style type="text/css">
	.st0{display:none;}
	.st1{display:inline;}
	.st2{fill:#00AEEF;}
	.st3{clip-path:url(#SVGID_2_);}
	.st4{fill:#FAF39D;}
	.st5{fill:#02929E;}
	.st6{fill:#E3DBC3;}
	.st7{opacity:0.67;clip-path:url(#SVGID_2_);}
	.st8{fill:#C52375;}
	.st9{clip-path:url(#SVGID_4_);fill:#E6E8EA;}
	.st10{clip-path:url(#SVGID_4_);fill:#E3DBC3;}
	.st11{opacity:0.4;clip-path:url(#SVGID_4_);fill:#02929E;}
	.st12{clip-path:url(#SVGID_4_);fill:#02929E;}
	.st13{clip-path:url(#SVGID_4_);fill:#2C2827;}
	.st14{clip-path:url(#SVGID_4_);fill:#B6B9BB;}
	.st15{clip-path:url(#SVGID_4_);fill:#94999B;}
	.st16{clip-path:url(#SVGID_4_);fill:#A7A9AC;}
	.st17{clip-path:url(#SVGID_4_);fill:#9E1F63;}
	.st18{clip-path:url(#SVGID_4_);fill:none;stroke:#02929E;stroke-width:1.296;stroke-miterlimit:10;}
	.st19{clip-path:url(#SVGID_4_);}
	.st20{fill:#2C2827;}
	.st21{fill:#B6B9BB;}
	.st22{clip-path:url(#SVGID_4_);fill:#9AC3C1;}
	.st23{clip-path:url(#SVGID_4_);fill:#9E9EA1;}
	.st24{clip-path:url(#SVGID_4_);fill:#CED1D3;}
	.st25{clip-path:url(#SVGID_4_);fill:#B3B7BA;}
	.st26{clip-path:url(#SVGID_6_);fill:#E0CE4B;}
	.st27{clip-path:url(#SVGID_6_);fill:#00AEEF;}
	.st28{clip-path:url(#SVGID_6_);fill:#0A7393;}
	.st29{opacity:0.22;clip-path:url(#SVGID_6_);fill:#5D5E5E;}
	.st30{clip-path:url(#SVGID_6_);fill:#5D5E5E;}
	.st31{clip-path:url(#SVGID_6_);fill:#95D8EA;}
	.st32{clip-path:url(#SVGID_6_);fill:#FFFFFF;}
	.st33{clip-path:url(#SVGID_6_);fill:#E3DBC3;}
	.st34{clip-path:url(#SVGID_6_);fill:#ED2387;}
</style>
<g id="Layer_1" class="st0">
	<g class="st1">
		<g>
			<circle class="st2" cx="85.8" cy="92.3" r="82.2"/>
		</g>
		<g>
			<defs>
				<path id="SVGID_1_" d="M175.9,31.2l-4.2-17.5L150.4-1L111.8-6c0,0-5.2,8.3-10.9,17.3c-4.5-0.8-9.1-1.2-13.8-1.2
					C41.8,10.1,5,46.8,5,92.2s36.8,82.2,82.2,82.2s82.2-36.8,82.2-82.2c0-8.5-1.3-16.8-3.7-24.5l10.3-10.5V31.2z"/>
			</defs>
			<clipPath id="SVGID_2_">
				<use xlink:href="#SVGID_1_"  style="overflow:visible;"/>
			</clipPath>
			<g class="st3">
				<circle class="st4" cx="130.6" cy="42" r="36.8"/>
			</g>
			<g class="st3">
				<path class="st5" d="M141.5,72c-2.6,0-5-0.1-5.1-0.1l-0.4,0l-0.1-0.4c0-0.1-1.9-8.9-5-14.7c-0.3-0.6-0.6-1.1-0.9-1.7
					c-2.7-5-5-9.3-16.1-21.7l-0.1-0.1l0-0.2c0-0.3-0.3-7.1,2.7-11.2c3-4.2,6.3-5.7,6.5-5.7l0.3-0.1l0.2,0.2
					c0.1,0.1,8.8,7.5,12.7,12.5c3.6,4.6,12,15.3,14.7,26.7c2.6,11,2.8,12.8,2.8,12.9l0,0.3l-0.2,0.2c-0.2,0.1-4.5,2.9-8.1,3.1
					C144.2,72,142.8,72,141.5,72z M136.8,71c1.3,0,5.6,0.2,8.5,0c2.8-0.2,6.4-2.2,7.4-2.8c-0.1-0.8-0.7-3.7-2.8-12.5
					c-2.6-11.2-10.9-21.8-14.5-26.4c-3.5-4.5-10.9-10.9-12.3-12.1c-0.8,0.4-3.4,2-5.8,5.3c-2.5,3.5-2.6,9.4-2.5,10.5
					c11.1,12.4,13.5,16.7,16.2,21.8c0.3,0.5,0.6,1.1,0.9,1.7C134.6,61.6,136.4,69.2,136.8,71z"/>
			</g>
			<g class="st3">
				<path class="st5" d="M152.8,69.1l-0.1-0.6c0-0.1-1.4-8.5-4.2-17.4c-2.2-7-7.3-14.3-11.1-19.2c-2.7-3.5-11.2-12-11.3-12.1
					l-3.6-3.2l0.5-0.3c0.2-0.2,5.1-3.7,7-4.8l2.1-1.2l0.2,0.1c0.1,0.1,10.1,5.4,16.6,13.6l0.3,0.3c5.8,7.3,7.3,9.2,10.8,18.4
					c2.8,7.3,2.9,17.3,2.9,17.4l0,0.2l-0.1,0.1c-0.5,0.7-5.3,6.4-6.9,7.1c-1.5,0.7-2.5,1.2-2.6,1.2L152.8,69.1z M123.9,16.7l2.8,2.5
					c0.4,0.4,8.7,8.7,11.4,12.2c3.9,4.9,9,12.3,11.3,19.5c2.4,7.6,3.8,14.8,4.1,16.9c0.5-0.2,1.2-0.6,2.1-1c1.1-0.5,4.4-4.2,6.5-6.8
					c0-1.3-0.3-10.2-2.9-16.9c-3.5-9-5-10.9-10.7-18.1l-0.3-0.3c-5.9-7.4-14.6-12.4-16.1-13.3l-1.7,0.9
					C128.8,13.1,125.2,15.7,123.9,16.7z"/>
			</g>
			<g class="st3">
				<path class="st5" d="M105.2,68.8c-0.1,0-0.2,0-0.3,0l0-0.9c0.1,0,9.2,0.1,15.4-3.1c6.2-3.3,11-7.8,11.1-7.9l0.6,0.7
					c0,0-5,4.7-11.3,8C114.9,68.7,106.8,68.8,105.2,68.8z"/>
			</g>
			<g class="st3">
				<path class="st5" d="M100.1,38.4c0-0.1,0.1-13.5,10-23.4c5.4-5.5,12.9-9.4,12.9-9.4l0.4,0.8c-0.1,0-7.4,3.9-12.7,9.3
					c-9.6,9.7-9.7,22.7-9.7,22.8H100.1z"/>
			</g>
			<g class="st3">
				<path class="st5" d="M166.3,39.6c-1.2-9.2-6.4-16.1-9.8-20.6c-3.8-4.9-12.1-9.6-12.1-9.7l0.5-0.8c0.3,0.2,8.6,4.8,12.4,9.9
					c3.5,4.6,8.8,11.6,10,21.1L166.3,39.6z"/>
			</g>
			<g class="st3">
				<path class="st5" d="M119.7,76.5c-0.5,0-0.9,0-0.9,0l0-0.9c0.1,0,5.1,0.2,9.4-1.2c4.3-1.4,7.9-3.4,7.9-3.4l0.4,0.8
					c0,0-3.7,2.1-8.1,3.5C125.2,76.4,121.4,76.5,119.7,76.5z"/>
			</g>
			<g class="st3">
				<path class="st6" d="M49.5,167.3c0,0,34.5-58.8,35.3-60.2c0.8-1.4,5.9-2.6,7.4-7s0.1-15-3.8-23.8c-4.1-9.1-3.6-10.1-3.6-10.1
					s-1.8-20.5-2.8-22.4s-3.6-1.6-3.6-1.6l-0.4,22.2c0,0-3.9-32.1-7.6-32.9c-4.6-1-3.8,3.4-3.8,3.4s1.2,10,2.4,13.8
					c1.2,3.8,2.9,15,2.9,15l-3.5-11.1c0,0-3.7-13.4-4.7-15.8c-1-2.4-3.1-4.2-4.2-3.7c-2.3,1.1-1.9,4.5-1.9,4.5l7.2,27.3
					c0,0,0.4-1.2-1.4-3.1s-8.2-25.7-9.2-27.3c-1-1.6-3.2-1.4-4.7,1.6c-1.5,3,4.5,21.2,5.3,23.4c0.8,2.2,5.5,17.1,5.5,17.1
					s-1.1,1-2.7-1.2s-7.4-10.8-8.8-11.1c-1.4-0.3-3,3.1-2.4,6.9s6.6,12.4,8.8,15.2c2.2,2.8,13.2,13,13.2,13l-36,52.6
					C32.4,152.1,32.2,168.1,49.5,167.3z"/>
			</g>
			<g class="st7">
				<path class="st6" d="M61.7,69.4c0,0,2.1-2.7,9.3-4.4c7.2-1.7,11.2,2.2,11.2,2.2S71.7,64.3,61.7,69.4z"/>
			</g>
			<g class="st3">
				<path class="st8" d="M23.2,148.3l24.9-25.8c0,0,1.5,5.6,11.3,10.2s10.7,4.8,10.7,4.8l-14.5,34C55.6,171.4,26.3,172.7,23.2,148.3
					z"/>
			</g>
			<g class="st7">
				<path class="st6" d="M78.2,89.7c0,0-0.4-5.8-6.7-9.5c-6.3-3.8-11.2-3.5-11.2-3.5S73.9,81,78.2,89.7z"/>
			</g>
			<g class="st3">
				<path class="st5" d="M94,41.5l-0.4-0.8c0.1,0,8.2-4,21-7.5l0.2,0.9C102.1,37.5,94.1,41.5,94,41.5z"/>
			</g>
			<g class="st3">
				<path class="st5" d="M96.9,56.1c-0.3,0-0.5,0-0.6,0l0.1-0.9c0.1,0,5.1,0.3,14.2-2.8c9.2-3.1,13.5-7.2,13.6-7.2l0.6,0.7
					c-0.2,0.2-4.6,4.2-13.9,7.4C103.3,55.8,98.5,56.1,96.9,56.1z"/>
			</g>
			<g class="st3">
				<path class="st4" d="M106,17.8c0,0-13.5,13.8-8.6,30.1c4.9,16.3,12.4,23.5,18.3,25.8s17.5,3.4,23.6,2.3c6.2-1.1,14.1-6,14.9-7.7
					c0.8-1.6,4.1-13.7-17.8-8.8S131.7-1.8,106,17.8z"/>
			</g>
		</g>
	</g>
</g>
<g id="Layer_2" class="st0">
	<g class="st1">
		<circle class="st8" cx="84.4" cy="92.7" r="82.2"/>
		<g>
			<defs>
				<path id="SVGID_3_" d="M181.4,64.1l-1.4-24l-2.5-8.2h-38.2c-14.6-13.2-34-21.3-55.2-21.3C38.8,10.5,2,47.3,2,92.7
					s36.8,82.2,82.2,82.2c17.4,0,27.1-1.3,40.4-10.6c0,0,22.2,13.6,42.8-4.3c11.3-9.9,18.6-55.1,19.2-57
					C187.2,101.1,181.4,64.1,181.4,64.1z"/>
			</defs>
			<clipPath id="SVGID_4_">
				<use xlink:href="#SVGID_3_"  style="overflow:visible;"/>
			</clipPath>
			<path class="st9" d="M36.7,164.5c-5.2-3.4,5.7-56.5,11.6-59.2s29.3-4.9,29.3-4.9s52.6-2.2,56.6,2.8c4,5,6.1,58,6.1,58
				S83,194.5,36.7,164.5z"/>
			<path class="st10" d="M79.1,90.6l-1.6,20.8c0,0,6.7,2.6,15.5-0.1s9.1-4.3,9.1-4.3l-3.7-22L79.1,90.6z"/>
			<polygon class="st11" points="79.1,90.6 78.3,100.7 99.2,90.5 98.3,85.1 			"/>
			<path class="st10" d="M68.5,41.3l-5.2,19.7l0.2,25.4c0,0,11.5,7.2,23.3,5.6c9.2-1.2,15.4-5.5,20.3-12.7c4.9-7.2,5-8.3,5-8.3
				s2.2,2.3,4.8,1c2.6-1.3,5.1-6.5,4.3-8.5c-0.8-2-5.1-1-5.1-1s-0.8-24.6-5.6-28.3C105.7,30.4,68.5,41.3,68.5,41.3z"/>
			<path class="st12" d="M107.7,35.5c0,0-10.8,2.6-20,4.4s-29.5,0.5-29.5,0.5s3.3-11.8,11.5-17.2s36.3-10.8,46.4,3.9
				s4.2,28.3,4,29.4c-0.2,1.1-5.1,6.6-5.1,6.6s-9.7-5.2-8.7-14.8C107.2,38.6,107.7,35.5,107.7,35.5z"/>
			<path class="st13" d="M99.9,92.1c0,0,9.1,5.2,11.6,21.9c2.6,16.7,3.9,31.1,3.2,40s-1.2,10.6-1.2,10.6l-2.5-0.6
				c0,0,1.5-25.4-0.3-34s-3.2-23.9-5.3-27.2c-2.1-3.3-5.4-7.2-5.4-7.2L99.9,92.1z"/>
			<circle class="st14" cx="110.7" cy="167.2" r="5.3"/>
			<path class="st15" d="M109.8,161.6c0,0-1,2.4-0.8,4.7s1,3.5,2.6,3s2.9-3.8,3.3-5.2S112.4,160.4,109.8,161.6z"/>
			<path class="st16" d="M96.2,113.9c1.5-0.8,4.6-17.4,4.6-17.4l8,4.1l-3.8,13.6L96.2,113.9z"/>
			<polygon class="st16" points="78.3,100.7 82.3,113.7 75.1,115.9 74.1,100.6 78.7,96.6 			"/>
			<path class="st17" d="M84,109.7c1.5-0.6,3.6-1.3,5.9-1.3c2.3,0,1.5,5,0.9,6.8s-4.8,1.6-4.8,1.6S81.8,110.5,84,109.7z"/>
			<path class="st17" d="M85.9,118.4l3.9-0.9c0,0,6.2,11.6,4.2,26.7c-2,15.2-3.9,16.3-3.9,16.3S79.5,150.4,85.9,118.4z"/>
			<path class="st18" d="M66.6,58"/>
			<path class="st16" d="M96.2,113.6c0,0-1,32.3,0.2,32s5.7-26.2,5.7-26.2L96.2,113.6z"/>
			<path class="st16" d="M82.3,113.7c0,0,1.4,32.3,0.2,32c-1.2-0.2-6-26.1-6-26.1L82.3,113.7z"/>
			<path class="st13" d="M63.1,97.4c-0.6,0.2-5.4,4.2-6.8,12.8c-1.1,6.7,1.2,15.8,1.2,15.8s0.4-0.6,1.7,0c1.3,0.5,1.4-0.8,1.4-0.8
				s-2.2-8.3-1.8-12.2c0.3-3.9,0.4-8,3.3-10.7c5.5-5.2,16.2-6.9,16.2-6.9l0.6-2.5L63.1,97.4z"/>
			<g class="st19">
				<path class="st20" d="M54.9,140l2-1.7c0,0-3.7-8.5-3.3-10.1c0.3-1.5,4.1-1.4,6.2-2.2c2.1-0.7,4.3-1.7,6.2-0.7
					c1.9,0.9,2.8,3.1,2.9,6c0.1,2.8-0.5,7.3-0.5,7.3s1.2,0.3,1.6,0.1c0.5-0.2,1.1-5.1,1-6.9c-0.1-1.9-2.3-9-5-9.7s-4.9,2.2-7.1,2.1
					c-2.2-0.1-6.4-0.4-7.4,1.4C49.5,129.2,54.9,140,54.9,140z"/>
				<path class="st21" d="M69.6,138.8c0,0-0.2,32.3-1.1,34.1c-0.9,1.8-4.3,1.8-4.8,1.8c-0.5,0,0-2.3,0-2.3s2,0.7,2.7-0.1
					s1.3-1.2,1.5-9.9c0.2-8.7,0.6-23.7,0.6-23.7L69.6,138.8z"/>
				<path class="st21" d="M56.2,138.8c0,0,20.4,26.5,22.3,27.3c1.9,0.7,4.1-1.5,5.1-2.4s2.1-2.2,2.1-2.2l0.9,1c0,0-3.5,4.6-5.2,4.8
					s-2.8,1.3-5-0.6c-2.2-1.9-21.2-27.2-21.2-27.2L56.2,138.8z"/>
				<path class="st21" d="M85,160.1c0,0-1.2,0.8-0.6,1.6c0.6,0.8,1.9,2.4,2.4,2.4c0.4,0.1,2.3-1,2.3-1S87,160.2,85,160.1z"/>
				<path class="st21" d="M62.7,171.1c0,0-1,0.5-1,2.1s0.5,2.8,0.5,2.8s1.7,0.4,2,0c0.3-0.4,0.9-3.6,1-3.9
					C65.4,171.7,62.7,171.1,62.7,171.1z"/>
			</g>
			<path class="st9" d="M171.5,129.7c-2.6,0.7-11.6,1.5-17.9-0.5c-6.3-2-8.2-2.4-8.2-2.4l-10.9,18.6l-4.4-1.1l-12,20.3
				c0,0,27,6.4,35.7-3.9C162.6,150.4,171.5,129.7,171.5,129.7z"/>
			<path class="st22" d="M161.4,90.7c-0.3,0.1-13,16.2-11.6,26.8c1.4,10.7,22.2-9.2,22.2-9.2l3.8-10.7l-2.5-5.5L161.4,90.7z"/>
			<path class="st23" d="M159.2,93.6c0,0-12.2,0.6-12.4-0.4c-0.3-1-1.4-37.2-1.4-42.7c-0.1-5.5-0.9-12-0.5-12.6
				c0.4-0.6,22.7-0.6,23.7,0.1c1,0.7,1.9,55.8,1,56C168.7,94.4,159.2,93.6,159.2,93.6z"/>
			<path class="st10" d="M164.1,130.7l3.3-5.2c0,0,9.3-15.5,10.6-19.9c1.2-4.4-2.9-17.3-4.6-17.8s-14.9-2.7-17.7,0.2
				c-2.8,2.8,13.1,5.2,13.1,5.2s-13.1,6.9-14.1,9.5c-0.9,2.5,3.2,2.6,3.2,2.6s-3.5,2.6-1.4,4.7c2.1,2.2,2.4,0.9,2.4,0.9l12.9-7.9
				c0,0-21.1,11.7-21.9,14.5s-0.6,9.4-0.3,10.4C150.6,131.6,164.1,130.7,164.1,130.7z"/>
			<ellipse class="st24" cx="153" cy="46.3" rx="3.5" ry="3.7"/>
			<ellipse class="st9" cx="153.8" cy="46.2" rx="3.5" ry="3.7"/>
			<path class="st25" d="M150.8,46.8c0,0,0.2-0.4,2.9-0.8c2.7-0.4,3.2-0.5,3.2-0.5S154.6,47,150.8,46.8z"/>
			<ellipse class="st24" cx="162.6" cy="46.3" rx="3.5" ry="3.7"/>
			<ellipse class="st9" cx="163.5" cy="46.2" rx="3.5" ry="3.7"/>
			<path class="st25" d="M160.5,46.8c0,0,0.2-0.4,2.9-0.8c2.7-0.4,3.2-0.5,3.2-0.5S164.2,47,160.5,46.8z"/>
			<ellipse class="st24" cx="153" cy="58" rx="3.5" ry="3.7"/>
			<ellipse class="st9" cx="153.8" cy="57.9" rx="3.5" ry="3.7"/>
			<path class="st25" d="M150.8,58.5c0,0,0.2-0.4,2.9-0.8c2.7-0.4,3.2-0.5,3.2-0.5S154.6,58.7,150.8,58.5z"/>
			<ellipse class="st24" cx="162.6" cy="58" rx="3.5" ry="3.7"/>
			<ellipse class="st9" cx="163.5" cy="57.9" rx="3.5" ry="3.7"/>
			<path class="st25" d="M160.5,58.5c0,0,0.2-0.4,2.9-0.8c2.7-0.4,3.2-0.5,3.2-0.5S164.2,58.7,160.5,58.5z"/>
			<ellipse class="st24" cx="153" cy="69.7" rx="3.5" ry="3.7"/>
			<ellipse class="st9" cx="153.8" cy="69.6" rx="3.5" ry="3.7"/>
			<path class="st25" d="M150.8,70.2c0,0,0.2-0.4,2.9-0.8c2.7-0.4,3.2-0.5,3.2-0.5S154.6,70.4,150.8,70.2z"/>
			<ellipse class="st24" cx="162.6" cy="69.7" rx="3.5" ry="3.7"/>
			<ellipse class="st9" cx="163.5" cy="69.6" rx="3.5" ry="3.7"/>
			<path class="st25" d="M160.5,70.2c0,0,0.2-0.4,2.9-0.8c2.7-0.4,3.2-0.5,3.2-0.5S164.2,70.4,160.5,70.2z"/>
			<ellipse class="st24" cx="153" cy="81.4" rx="3.5" ry="3.7"/>
			<ellipse class="st9" cx="153.8" cy="81.3" rx="3.5" ry="3.7"/>
			<path class="st25" d="M150.8,81.9c0,0,0.2-0.4,2.9-0.8c2.7-0.4,3.2-0.5,3.2-0.5S154.6,82.1,150.8,81.9z"/>
			<ellipse class="st24" cx="162.6" cy="81.4" rx="3.5" ry="3.7"/>
			<ellipse class="st9" cx="163.5" cy="81.3" rx="3.5" ry="3.7"/>
			<path class="st25" d="M160.5,81.9c0,0,0.2-0.4,2.9-0.8c2.7-0.4,3.2-0.5,3.2-0.5S164.2,82.1,160.5,81.9z"/>
		</g>
	</g>
</g>
<g id="Layer_3">
	<g>
		<g>
			<defs>
				<path id="SVGID_5_" d="M161.4,123.8c4.8-10.4,7.4-22,7.4-34.1c0-45.4-36.8-82.2-82.2-82.2C41.3,7.5,4.5,44.3,4.5,89.6
					s36.8,82.2,82.2,82.2c8.5,0,16.7-1.3,24.4-3.7c8.7,6.5,21.5,15.8,22.5,16.5c1.4,0.9,50.6-15,50.6-15L161.4,123.8z"/>
			</defs>
			<clipPath id="SVGID_6_">
				<use xlink:href="#SVGID_5_"  style="overflow:visible;"/>
			</clipPath>
			<circle class="st26" cx="86.7" cy="89.6" r="82.2"/>
			<path class="st27" d="M20.3,145.3c0.2-0.7,19.3-44.8,19.3-44.8h93.9l20.5,44.8H20.3z"/>
			<polygon class="st28" points="20.3,145.3 21.7,150.7 150.9,150.7 154,145.3 			"/>
			<polyline class="st29" points="39.6,100.5 133.5,100.5 140.7,116.2 23.3,138.3 39.6,100.5 			"/>
			<polygon class="st30" points="44.1,106.6 128.7,105.4 136.6,127.5 35.6,125.4 			"/>
			<path class="st31" d="M78.1,130.7c-0.2,0.7-3.7,11.7-3.7,11.7h28.5l-2.2-11.7H78.1z"/>
			<path class="st28" d="M40.8,99.7c0-1.2-1.2-65-1.2-65h97l-3.1,65.7L40.8,99.7z"/>
			<path class="st27" d="M39.6,100.5c0-1.7,1.2-63.2,1.2-63.2h92.7v63.2H39.6z"/>
			<polygon class="st32" points="44.1,41.6 44.1,93.8 128.2,92 129.9,41.6 			"/>
			<path class="st33" d="M11.9,154.9c0,0,8.9-10.6,10.2-12.4c1.3-1.7,0,0.9,1.4-0.1s3.7-5.9,3.7-5.9l4.4-11.4c0,0-1-8.7,0-10.3
				c1-1.6,4.9-1.6,4.9-1.6v4.1c0,0,1.1-7.3,1.7-8.1c0.6-0.8,1.1-1.9,3.5-2.1c2.4-0.2,3.2,1.3,3.2,1.3v5.6c0,0,1.6-7.8,2.7-8.6
				c1.1-0.8,3.7-1.3,5.2,0c1.6,1.3,2.6,5.2,2.4,5.7s-1.3,3.4-1.3,3.4s9.3-5.6,10.8-5.4s1.5,1.8,1.5,3.1s-7.1,7.4-7.1,7.4v7
				c0,0,7.3-4.9,8.1-5.4c0.8-0.5,3.8-1.9,5.6-1.9c1.7,0,2.4,0.6,3,1.6c0.6,1-6.2,8.3-7.9,9.9c-1.7,1.6-13.3,11-16.5,11.8
				c-3.2,0.8-6.4,2-6.4,2l-7.8,10.5H11.9z"/>
			<path class="st33" d="M118.9,157.1c0,0-13.7-7.8-14.9-8.4s-7.5-4.4-9.7-8.4c-2.2-4-7.1-8.1-7.6-10.6c-0.5-2.5,3-2.8,4.7-2
				c1.7,0.8,7.1,6.7,8.1,7s3.5,1.1,4.4-0.6c1-1.7,0-9.5-0.3-10.5c-0.3-1-18.3-6.5-18.7-7.1c-0.3-0.6,0.3-2.5,1.7-3.2
				c1.4-0.6,14.3,1.2,14.3,1.2l4.8,0.5v-0.8l-13.5-1.7c0,0,4.7-3.1,6.2-3.5c3.1-0.7,12.9,1,12.9,1c3.2,1.5,4.2,3.9,4.2,3.9
				s-1.3-5.1,1.1-5.1c5.8-0.1,7,7.5,7,7.5s0-5.1,1.5-5.1c5.6-0.1,6.3,8.3,7.4,10c1.1,1.7,9.2,24.5,9.2,24.5s5.5,4.9,8.2,7.2
				c2.7,2.3,4.1,3.8,4.7,4.1c0.6,0.3-25.5,2.9-25.5,2.9L118.9,157.1z"/>
			<polygon class="st26" points="120.5,86.8 53.5,84.4 53.5,50.2 120.5,50.2 			"/>
			<path class="st32" d="M98.9,61H63c-0.4,0-0.7-0.3-0.7-0.7v-0.2c0-0.4,0.3-0.7,0.7-0.7h35.9c0.4,0,0.7,0.3,0.7,0.7v0.2
				C99.6,60.7,99.3,61,98.9,61z"/>
			<path class="st32" d="M98.9,65H63c-0.4,0-0.7-0.3-0.7-0.7v-0.2c0-0.4,0.3-0.7,0.7-0.7h35.9c0.4,0,0.7,0.3,0.7,0.7v0.2
				C99.6,64.7,99.3,65,98.9,65z"/>
			<path class="st32" d="M98.9,69.1H63c-0.4,0-0.7-0.3-0.7-0.7v-0.2c0-0.4,0.3-0.7,0.7-0.7h35.9c0.4,0,0.7,0.3,0.7,0.7v0.2
				C99.6,68.8,99.3,69.1,98.9,69.1z"/>
			<path class="st32" d="M98.9,69.1H63c-0.4,0-0.7-0.3-0.7-0.7v-0.2c0-0.4,0.3-0.7,0.7-0.7h35.9c0.4,0,0.7,0.3,0.7,0.7v0.2
				C99.6,68.8,99.3,69.1,98.9,69.1z"/>
			<path class="st32" d="M98.9,73.2H63c-0.4,0-0.7-0.3-0.7-0.7v-0.2c0-0.4,0.3-0.7,0.7-0.7h35.9c0.4,0,0.7,0.3,0.7,0.7v0.2
				C99.6,72.9,99.3,73.2,98.9,73.2z"/>
			<path class="st32" d="M98.9,77.2H63c-0.4,0-0.7-0.3-0.7-0.7v-0.2c0-0.4,0.3-0.7,0.7-0.7h35.9c0.4,0,0.7,0.3,0.7,0.7v0.2
				C99.6,76.9,99.3,77.2,98.9,77.2z"/>
			<path class="st32" d="M98.9,77.2H63c-0.4,0-0.7-0.3-0.7-0.7v-0.2c0-0.4,0.3-0.7,0.7-0.7h35.9c0.4,0,0.7,0.3,0.7,0.7v0.2
				C99.6,76.9,99.3,77.2,98.9,77.2z"/>
			<rect x="102.9" y="59.4" class="st32" width="12" height="14.3"/>
			<path class="st34" d="M10.3,159.3L20.9,141c0,0,4.4-0.9,12.7,0c8.3,0.9,12.8,4.2,12.8,4.2l-8.1,20.9L10.3,159.3z"/>
			<path class="st34" d="M119.1,162.3c0,0,8.1-9.2,17.5-11.2s13.8-0.4,13.8-0.4l11.9,14.9l-28.1,11.5L119.1,162.3z"/>
		</g>
	</g>
</g>
</svg>
