<?xml version="1.0" encoding="utf-8"?>
<!-- Generator: Adobe Illustrator 19.1.0, SVG Export Plug-In . SVG Version: 6.00 Build 0)  -->
<svg version="1.1" id="Layer_1" xmlns="http://www.w3.org/2000/svg" xmlns:xlink="http://www.w3.org/1999/xlink" x="0px" y="0px"
	 viewBox="0 0 82 236.7" style="enable-background:new 0 0 82 236.7;" xml:space="preserve">
<style type="text/css">
	.st0{fill:none;}
	.st1{clip-path:url(#SVGID_2_);}
	.st2{fill:none;stroke:#FAF39D;stroke-width:0.8;stroke-miterlimit:10;}
	.st3{fill:#E3DBC3;stroke:url(#SVGID_3_);stroke-miterlimit:10;}
	.st4{fill:#02929E;}
	.st5{fill:url(#SVGID_4_);}
</style>
<pattern  x="-42.7" y="43.3" width="40" height="40" patternUnits="userSpaceOnUse" id="Nueva_muestra_de_motivo_16" viewBox="23 -63 40 40" style="overflow:visible;">
	<g>
		<polygon class="st0" points="23,-63 63,-63 63,-23 23,-23 		"/>
		<g>
			<defs>
				<rect id="SVGID_1_" x="23" y="-63" width="40" height="40"/>
			</defs>
			<clipPath id="SVGID_2_">
				<use xlink:href="#SVGID_1_"  style="overflow:visible;"/>
			</clipPath>
			<g class="st1">
				<line class="st2" x1="0.3" y1="-40.3" x2="45.8" y2="-85.8"/>
				<line class="st2" x1="4.3" y1="-36.3" x2="49.8" y2="-81.8"/>
				<line class="st2" x1="8.3" y1="-32.3" x2="53.8" y2="-77.8"/>
				<line class="st2" x1="12.3" y1="-28.3" x2="57.8" y2="-73.8"/>
				<line class="st2" x1="16.3" y1="-24.3" x2="61.8" y2="-69.8"/>
				<line class="st2" x1="20.3" y1="-20.3" x2="65.8" y2="-65.8"/>
				<line class="st2" x1="24.3" y1="-16.3" x2="69.8" y2="-61.8"/>
				<line class="st2" x1="28.3" y1="-12.3" x2="73.8" y2="-57.8"/>
				<line class="st2" x1="32.3" y1="-8.3" x2="77.8" y2="-53.8"/>
				<line class="st2" x1="36.3" y1="-4.3" x2="81.8" y2="-49.8"/>
				<line class="st2" x1="40.3" y1="-0.3" x2="85.8" y2="-45.8"/>
			</g>
		</g>
	</g>
</pattern>
<g>
	<pattern  id="SVGID_3_" xlink:href="#Nueva_muestra_de_motivo_16" patternTransform="matrix(1 0 0 1 31.9194 29.8825)">
	</pattern>
	<path class="st3" d="M46.9,39.1c0.1,7.8,0.1,15.6,0.1,23.4c0,2.1-0.9,4.1-2.5,5.4c-1.5,1.2-1.9,2.6-1.8,4.5c0.1,1,0.1,1.9,0,2.9
		H25.2c0-0.1,0-0.2,0-0.3c0.3-2.5,0.1-4.5-3.1-5c-1.1-0.2-2-1.2-2.8-2.1c-3.3-3.9-6.6-7.7-9.9-11.6c-0.6-0.7-0.9-1.4-0.9-2.3
		c0-4.5,0.1-8.9,0-13.4c0-1.6,0.7-1.7,1.8-1.4c2.1,0.7,3.4,2.1,3.5,4.5c0.1,2.9,0,5.8,0,8.7c0,1,0,2,1.6,1.9c1.6,0,1.5-0.9,1.5-2
		c0-12.7,0-25.5,0-38.2c0-2.6,1.2-3.9,3.1-3.6c2.1,0.4,2.3,2.1,2.3,3.8c0,5.6,0,11.2,0,16.9c0,1.4,0.1,2.8,0,4.2
		c0,1.1,0.4,1.3,1.4,1.3c0.9,0,1.6-0.1,1.5-1.3c0-0.3,0-0.6,0-0.9c0-1.7,0.9-2.7,2.5-2.8c1.6-0.1,2.5,1,2.7,2.6
		c0.1,0.7-0.7,1.9,0.8,2c1,0,2,0.2,2.4-1.2c0.4-1.2,1.5-1.5,2.7-1.3c1.2,0.2,1.9,0.9,2.1,2.2c0.3,1.4,1.9,2,2.9,0.8
		c1.1-1.2,2.3-1.2,3.6-0.8C46.6,36.4,46.9,37.8,46.9,39.1z"/>
	<path class="st4" d="M52.7,37.8c0.1,7.7,0.1,15.4,0.1,23.2c0,0.8-0.2,1.5-0.4,2.3c-0.2,1.3-0.7,2.7-1.6,3.6c-2.3,2-2.4,4.5-2.3,7.1
		h-2.8c0-1,0.1-2,0-2.9c-0.2-1.8,0.2-3.2,1.8-4.5c1.6-1.3,2.5-3.3,2.5-5.4c0.1-7.8,0-15.6-0.1-23.4c0-1.3-0.3-2.6-1.7-3.1
		c-1.3-0.4-2.5-0.4-3.6,0.8c-1,1.2-2.7,0.6-2.9-0.8c-0.2-1.2-0.9-2-2.1-2.2c-1.2-0.2-2.3,0.2-2.7,1.3c-0.4,1.4-1.4,1.2-2.4,1.2
		c-1.5-0.1-0.7-1.3-0.8-2c-0.3-1.6-1.1-2.7-2.7-2.6c-1.6,0.1-2.5,1.1-2.5,2.8c0,0.3,0,0.6,0,0.9c0.1,1.1-0.6,1.2-1.5,1.3
		c-1,0-1.4-0.2-1.4-1.3c0.1-1.4,0-2.8,0-4.2c0-5.6,0-11.2,0-16.9c0-1.7-0.2-3.4-2.3-3.8c-1.9-0.4-3.1,1-3.1,3.6
		c0,12.7,0,25.5,0,38.2c0,1.1,0.1,2-1.5,2c-1.6,0-1.6-0.9-1.6-1.9c0-2.9,0-5.8,0-8.7c0-2.3-1.4-3.7-3.5-4.5
		c-1.1-0.4-1.9-0.2-1.8,1.4c0.1,4.4,0.1,8.9,0,13.4c0,0.9,0.3,1.6,0.9,2.3c3.3,3.8,6.6,7.7,9.9,11.6c0.8,0.9,1.7,1.9,2.8,2.1
		c3.1,0.5,3.4,2.5,3.1,5c0,0.1,0,0.2,0,0.3h-2.8c0-1.5-0.5-2.7-2.4-3.3c-1.2-0.4-2-1.4-2.8-2.4c-3.4-4-6.9-8-10.4-12
		c-0.7-0.8-1.1-1.6-1.1-2.7c0-5.6,0-11.2-0.1-16.8c0-1.5,0.4-2,2-1.9c2,0.1,4,0,5.8,1.3c0.3,0.2,0.5,0.4,0.6-0.1c0-6,0-12,0-18
		c0-1.1,0.1-4.9,0.1-5.8c0.1-2.4,0.3-4.6,3.1-5.5c2.5-0.9,5-0.7,6.9,1.2c1.3,1.3,1.3,5.4,1.4,7c0,1,0,2,0,3.1c0,3.3,0,6.5,0,9.9
		c2.8-1,5.2-0.5,7,1.9c0.6,0.8,1,0.3,1.6,0.1c1.6-0.6,2.3-1.2,4.5-0.3c1.4,1,1.7,2.4,2.8,2.6c0.7,0.1,1.7-0.4,2.5-0.4
		C50.4,31.3,52.6,33.6,52.7,37.8z"/>
	<g>
		<path class="st4" d="M47.9,231.3H22.3c-3.2,0-5.8-2.6-5.8-5.8v-141c0-3.2,2.6-5.8,5.8-5.8h25.6c3.2,0,5.8,2.6,5.8,5.8v141
			C53.7,228.7,51.1,231.3,47.9,231.3z M22.3,81.3c-1.7,0-3.1,1.4-3.1,3.1v141c0,1.7,1.4,3.1,3.1,3.1h25.6c1.7,0,3.1-1.4,3.1-3.1
			v-141c0-1.7-1.4-3.1-3.1-3.1H22.3z"/>
	</g>
	<pattern  id="SVGID_4_" xlink:href="#Nueva_muestra_de_motivo_16" patternTransform="matrix(1 0 0 1 26.9194 0.8825)">
	</pattern>
	<path class="st5" d="M24.6,73.8h29c2.6,0,4.6,2.1,4.6,4.6V223c0,2.6-2.1,4.6-4.6,4.6h-29c-2.6,0-4.6-2.1-4.6-4.6V78.5
		C20,75.9,22,73.8,24.6,73.8z"/>
</g>
</svg>
