<?xml version="1.0" encoding="utf-8"?>
<!-- Generator: Adobe Illustrator 19.1.0, SVG Export Plug-In . SVG Version: 6.00 Build 0)  -->
<svg version="1.1" id="Layer_1" xmlns="http://www.w3.org/2000/svg" xmlns:xlink="http://www.w3.org/1999/xlink" x="0px" y="0px"
	 viewBox="0 0 22.5 111" style="enable-background:new 0 0 22.5 111;" xml:space="preserve">
<style type="text/css">
	.st0{fill:#056668;}
	.st1{fill:#E3DBC3;}
	.st2{fill:#02929E;}
</style>
<g>
	<path class="st0" d="M5.7,40.2c0,0,1.8-2.6,8.1-2.6c6.3,0,6.8,2.6,6.8,2.6l-6.7,5.2L5.7,40.2z"/>
	<path class="st1" d="M8.3,41.9c0,0,1.3-5.9-0.3-7.8s-3.4-1.5-4.8-3.5S1.2,18.1,2.1,17.5C3,16.8,4.2,18.1,5,21.6s0.9,3.1,0.9,3.1
		S5.7,8.4,6.2,7.5s1.6-1.1,2.6-0.6c1,0.5,0.6,14.6,0.6,14.6s-0.1-4.2,1.8-4c2.2,0.2,2.3,2.4,2.3,2.4s-0.3-2.4,1.9-2.1
		c1.3,0.2,1.7,2.5,1.7,2.5s0.8-2.6,2.5-1.6c1.7,1,0.8,10.6,0.9,12.7c0,2-1.9,2.4-2.2,4.2c-0.3,1.5-0.1,6.4-0.1,6.4H8.3z"/>
	<path class="st2" d="M5.7,40.2c0,0,2.8,1.2,6.5,1.3c7.1,0.2,8.4-1.3,8.4-1.3v62.2c0,0-1.1,2-5.2,2.1s-8.7-1.2-8.7-1.2L5.7,40.2z"/>
</g>
</svg>
