<?xml version="1.0" encoding="utf-8"?>
<!-- Generator: Adobe Illustrator 19.1.0, SVG Export Plug-In . SVG Version: 6.00 Build 0)  -->
<svg version="1.1" id="Layer_1" xmlns="http://www.w3.org/2000/svg" xmlns:xlink="http://www.w3.org/1999/xlink" x="0px" y="0px"
	 viewBox="0 0 14.7 15.1" style="enable-background:new 0 0 14.7 15.1;" xml:space="preserve">
<style type="text/css">
	.st0{opacity:0.6;fill:#FFFFFF;}
</style>
<path class="st0" d="M9.2,7.5l3.7-3.7c0.5-0.5,0.5-1.4,0-1.9S11.5,1.5,11,2L7.4,5.7L3.7,2C3.2,1.5,2.3,1.5,1.8,2s-0.5,1.4,0,1.9
	l3.7,3.7l-3.7,3.7c-0.5,0.5-0.5,1.4,0,1.9c0.5,0.5,1.4,0.5,1.9,0l3.7-3.7l3.7,3.7c0.5,0.5,1.4,0.5,1.9,0c0.5-0.5,0.5-1.4,0-1.9
	L9.2,7.5z"/>
</svg>
