<?xml version="1.0" encoding="utf-8"?>
<!-- Generator: Adobe Illustrator 19.1.0, SVG Export Plug-In . SVG Version: 6.00 Build 0)  -->
<svg version="1.1" id="Layer_1" xmlns="http://www.w3.org/2000/svg" xmlns:xlink="http://www.w3.org/1999/xlink" x="0px" y="0px"
	 viewBox="0 0 145 145" style="enable-background:new 0 0 145 145;" xml:space="preserve">
<style type="text/css">
	.st0{opacity:0.13;}
	.st1{fill:#FFFFFF;}
</style>
<g class="st0">
	<g>
		<g>
			<path class="st1" d="M132.3,53c-0.5,0-0.8-0.2-1.2-0.5c-0.4-0.3-0.6-0.4-1-0.3l-0.2-0.7c0.7-0.2,1.2,0.1,1.6,0.4
				c0.4,0.3,0.6,0.4,1,0.3c0.4-0.1,0.5-0.4,0.6-0.8c0.2-0.4,0.4-1,1.1-1.2c0.7-0.2,1.2,0.1,1.6,0.4c0.4,0.3,0.6,0.4,1,0.3
				c0.4-0.1,0.5-0.4,0.6-0.8c0.2-0.4,0.4-1,1.1-1.2c0.7-0.2,1.2,0.1,1.6,0.4c0.4,0.3,0.6,0.4,1,0.3l0.2,0.7
				c-0.7,0.2-1.2-0.1-1.6-0.4c-0.4-0.3-0.6-0.4-1-0.3c-0.4,0.1-0.5,0.4-0.6,0.8c-0.2,0.4-0.4,1-1.1,1.2c-0.7,0.2-1.2-0.1-1.6-0.4
				c-0.4-0.3-0.6-0.4-1-0.3c-0.4,0.1-0.5,0.4-0.6,0.8c-0.2,0.4-0.4,1-1.1,1.2C132.6,53,132.5,53,132.3,53z"/>
		</g>
	</g>
	<g>
		<g>
			<path class="st1" d="M134.3,59.9c-0.6,0-0.9-0.3-1.3-0.6c-0.4-0.3-0.6-0.5-1-0.4l-0.1-0.7c0.7-0.1,1.2,0.2,1.5,0.6
				c0.4,0.3,0.6,0.5,1,0.4c0.4-0.1,0.5-0.3,0.7-0.7c0.2-0.4,0.5-1,1.2-1.1c0.7-0.1,1.2,0.2,1.5,0.6c0.4,0.3,0.6,0.5,1,0.4
				c0.4-0.1,0.5-0.3,0.7-0.7c0.2-0.4,0.5-1,1.2-1.1c0.7-0.1,1.2,0.2,1.5,0.6c0.4,0.3,0.6,0.5,1,0.4l0.1,0.7
				c-0.7,0.1-1.2-0.2-1.5-0.6c-0.4-0.3-0.6-0.5-1-0.4c-0.4,0.1-0.5,0.3-0.7,0.7c-0.2,0.4-0.5,1-1.2,1.1c-0.7,0.1-1.2-0.2-1.5-0.6
				c-0.4-0.3-0.6-0.5-1-0.4c-0.4,0.1-0.5,0.3-0.7,0.7c-0.2,0.4-0.5,1-1.2,1.1C134.5,59.9,134.4,59.9,134.3,59.9z"/>
		</g>
	</g>
	<g>
		<g>
			<path class="st1" d="M135.5,67c-0.7,0-1-0.4-1.3-0.7c-0.3-0.3-0.5-0.5-0.9-0.5l-0.1-0.7c0.7-0.1,1.1,0.4,1.5,0.7
				c0.3,0.3,0.5,0.5,0.9,0.5c0.4,0,0.5-0.3,0.8-0.6c0.3-0.4,0.6-0.9,1.3-1c0.7-0.1,1.1,0.4,1.5,0.7c0.3,0.3,0.5,0.5,0.9,0.5
				c0.4,0,0.5-0.3,0.8-0.6c0.3-0.4,0.6-0.9,1.3-1c0.7-0.1,1.1,0.4,1.5,0.7c0.3,0.3,0.5,0.5,0.9,0.5l0.1,0.7
				c-0.7,0.1-1.1-0.4-1.5-0.7c-0.3-0.3-0.5-0.5-0.9-0.5c-0.4,0-0.5,0.3-0.8,0.6c-0.3,0.4-0.6,0.9-1.3,1c-0.7,0.1-1.1-0.4-1.5-0.7
				c-0.3-0.3-0.5-0.5-0.9-0.5c-0.4,0-0.5,0.3-0.8,0.6c-0.3,0.4-0.6,0.9-1.3,1C135.6,67,135.6,67,135.5,67z"/>
		</g>
	</g>
	<g>
		<g>
			<path class="st1" d="M145,74.5c-0.7,0-1.1-0.5-1.4-0.9c-0.3-0.4-0.5-0.6-0.8-0.6c-0.4,0-0.6,0.2-0.9,0.5
				c-0.3,0.4-0.7,0.8-1.4,0.8c-0.7,0-1.1-0.5-1.4-0.9c-0.3-0.4-0.5-0.6-0.8-0.6c-0.4,0-0.6,0.2-0.9,0.5c-0.3,0.4-0.7,0.8-1.4,0.8
				c-0.7,0-1.1-0.5-1.4-0.9c-0.3-0.4-0.5-0.6-0.8-0.6l0-0.7c0.7,0,1.1,0.5,1.4,0.9c0.3,0.4,0.5,0.6,0.8,0.6c0.4,0,0.6-0.2,0.9-0.5
				c0.3-0.4,0.7-0.8,1.4-0.8c0.7,0,1.1,0.5,1.4,0.9c0.3,0.4,0.5,0.6,0.8,0.6c0.4,0,0.6-0.2,0.9-0.5c0.3-0.4,0.7-0.8,1.4-0.8
				c0.7,0,1.1,0.5,1.4,0.9c0.3,0.4,0.5,0.6,0.8,0.6L145,74.5z"/>
		</g>
	</g>
	<g>
		<g>
			<path class="st1" d="M144.3,82.7c-0.7-0.1-1-0.6-1.3-1c-0.2-0.4-0.4-0.6-0.8-0.7c-0.4-0.1-0.6,0.1-0.9,0.4
				c-0.4,0.3-0.8,0.7-1.5,0.6c-0.7-0.1-1-0.6-1.3-1c-0.2-0.4-0.4-0.6-0.8-0.7c-0.4-0.1-0.6,0.1-0.9,0.4c-0.4,0.3-0.8,0.7-1.5,0.6
				c-0.7-0.1-1-0.6-1.3-1c-0.2-0.4-0.4-0.6-0.8-0.7l0.1-0.7c0.7,0.1,1,0.6,1.3,1c0.2,0.4,0.4,0.6,0.8,0.7c0.4,0.1,0.6-0.1,0.9-0.4
				c0.4-0.3,0.8-0.7,1.5-0.6c0.7,0.1,1,0.6,1.3,1c0.2,0.4,0.4,0.6,0.8,0.7c0.4,0.1,0.6-0.1,0.9-0.4c0.4-0.3,0.8-0.7,1.5-0.6
				c0.7,0.1,1,0.6,1.3,1c0.2,0.4,0.4,0.6,0.8,0.7L144.3,82.7z"/>
		</g>
	</g>
	<g>
		<g>
			<path class="st1" d="M142.7,90.8c-0.7-0.2-1-0.7-1.1-1.2c-0.2-0.4-0.3-0.7-0.7-0.8c-0.4-0.1-0.6,0.1-1,0.3
				c-0.4,0.3-0.9,0.6-1.6,0.4c-0.7-0.2-1-0.7-1.1-1.2c-0.2-0.4-0.3-0.7-0.7-0.8c-0.4-0.1-0.6,0.1-1,0.3c-0.4,0.3-0.9,0.6-1.6,0.4
				c-0.7-0.2-1-0.7-1.1-1.2c-0.2-0.4-0.3-0.7-0.7-0.8l0.2-0.7c0.7,0.2,1,0.7,1.1,1.2c0.2,0.4,0.3,0.7,0.7,0.8c0.4,0.1,0.6-0.1,1-0.3
				c0.4-0.3,0.9-0.6,1.6-0.4c0.7,0.2,1,0.7,1.1,1.2c0.2,0.4,0.3,0.7,0.7,0.8c0.4,0.1,0.6-0.1,1-0.3c0.4-0.3,0.9-0.6,1.6-0.4
				c0.7,0.2,1,0.7,1.1,1.2c0.2,0.4,0.3,0.7,0.7,0.8L142.7,90.8z"/>
		</g>
	</g>
	<g>
		<g>
			<path class="st1" d="M140.1,98.6c-0.7-0.3-0.9-0.8-1-1.3c-0.1-0.5-0.2-0.7-0.6-0.9c-0.4-0.1-0.6,0-1,0.2
				c-0.4,0.2-0.9,0.5-1.6,0.3c-0.7-0.3-0.9-0.8-1-1.3c-0.1-0.5-0.2-0.7-0.6-0.9c-0.4-0.1-0.6,0-1,0.2c-0.4,0.2-0.9,0.5-1.6,0.3
				c-0.7-0.3-0.9-0.8-1-1.3c-0.1-0.5-0.2-0.7-0.6-0.9l0.3-0.7c0.7,0.3,0.9,0.8,1,1.3c0.1,0.5,0.2,0.7,0.6,0.9c0.4,0.1,0.6,0,1-0.2
				c0.4-0.2,0.9-0.5,1.6-0.3c0.7,0.3,0.9,0.8,1,1.3c0.1,0.5,0.2,0.7,0.6,0.9c0.4,0.1,0.6,0,1-0.2c0.4-0.2,0.9-0.5,1.6-0.3
				c0.7,0.3,0.9,0.8,1,1.3c0.1,0.5,0.2,0.7,0.6,0.9L140.1,98.6z"/>
		</g>
	</g>
	<g>
		<g>
			<path class="st1" d="M12.2,61.5c-0.7-0.2-1-0.7-1.2-1.1c-0.2-0.4-0.3-0.7-0.7-0.8c-0.4-0.1-0.6,0.1-1,0.4
				c-0.4,0.3-0.8,0.7-1.6,0.5c-0.7-0.2-1-0.7-1.2-1.1c-0.2-0.4-0.3-0.7-0.7-0.8c-0.4-0.1-0.6,0.1-1,0.4c-0.4,0.3-0.8,0.7-1.6,0.5
				c-0.7-0.2-1-0.7-1.2-1.1c-0.2-0.4-0.3-0.7-0.7-0.8l0.2-0.7c0.7,0.2,1,0.7,1.2,1.1c0.2,0.4,0.3,0.7,0.7,0.8c0.4,0.1,0.6-0.1,1-0.4
				c0.4-0.3,0.8-0.7,1.6-0.5C6.8,58,7,58.6,7.2,59c0.2,0.4,0.3,0.7,0.7,0.8c0.4,0.1,0.6-0.1,1-0.4c0.4-0.3,0.8-0.7,1.6-0.5
				c0.7,0.2,1,0.7,1.2,1.1c0.2,0.4,0.3,0.7,0.7,0.8L12.2,61.5z"/>
		</g>
	</g>
	<g>
		<g>
			<path class="st1" d="M13.9,54.7c-0.7-0.2-0.9-0.8-1.1-1.3c-0.2-0.4-0.3-0.7-0.6-0.8c-0.4-0.1-0.6,0-1,0.3
				c-0.4,0.3-0.9,0.6-1.6,0.3C8.9,53,8.7,52.4,8.5,52c-0.2-0.4-0.3-0.7-0.6-0.8c-0.4-0.1-0.6,0-1,0.3C6.5,51.6,6,52,5.3,51.7
				c-0.7-0.2-0.9-0.8-1.1-1.3C4.1,50,4,49.7,3.6,49.6l0.2-0.7c0.7,0.2,0.9,0.8,1.1,1.3c0.2,0.4,0.3,0.7,0.6,0.8c0.4,0.1,0.6,0,1-0.3
				c0.4-0.3,0.9-0.6,1.6-0.3c0.7,0.2,0.9,0.8,1.1,1.3c0.2,0.4,0.3,0.7,0.6,0.8c0.4,0.1,0.6,0,1-0.3c0.4-0.3,0.9-0.6,1.6-0.3
				c0.7,0.2,0.9,0.8,1.1,1.3c0.2,0.4,0.3,0.7,0.6,0.8L13.9,54.7z"/>
		</g>
	</g>
	<g>
		<g>
			<path class="st1" d="M16.3,48.2c-0.7-0.3-0.8-0.9-0.9-1.4c-0.1-0.5-0.2-0.7-0.5-0.9c-0.3-0.2-0.6-0.1-1,0.1
				c-0.4,0.2-1,0.5-1.6,0.1c-0.7-0.3-0.8-0.9-0.9-1.4c-0.1-0.5-0.2-0.7-0.5-0.9c-0.3-0.2-0.6-0.1-1,0.1c-0.4,0.2-1,0.5-1.6,0.1
				c-0.7-0.3-0.8-0.9-0.9-1.4C7.1,42.4,7,42.1,6.7,42L7,41.3c0.7,0.3,0.8,0.9,0.9,1.4C8,43.2,8,43.4,8.4,43.6c0.3,0.2,0.6,0.1,1-0.1
				c0.4-0.2,1-0.5,1.6-0.1c0.7,0.3,0.8,0.9,0.9,1.4c0.1,0.5,0.2,0.7,0.5,0.9c0.3,0.2,0.6,0.1,1-0.1c0.4-0.2,1-0.5,1.6-0.1
				c0.7,0.3,0.8,0.9,0.9,1.4c0.1,0.5,0.2,0.7,0.5,0.9L16.3,48.2z"/>
		</g>
	</g>
	<g>
		<g>
			<path class="st1" d="M19.4,42c-0.6-0.4-0.7-1-0.7-1.5c-0.1-0.5-0.1-0.7-0.4-0.9c-0.3-0.2-0.6-0.1-1,0c-0.5,0.2-1,0.3-1.6,0
				c-0.6-0.4-0.7-1-0.7-1.5c-0.1-0.5-0.1-0.7-0.4-0.9c-0.3-0.2-0.6-0.1-1,0c-0.5,0.2-1,0.3-1.6,0c-0.6-0.4-0.7-1-0.7-1.5
				c-0.1-0.5-0.1-0.7-0.4-0.9l0.4-0.6c0.6,0.4,0.7,1,0.7,1.5c0.1,0.5,0.1,0.7,0.4,0.9c0.3,0.2,0.6,0.1,1,0c0.5-0.2,1-0.3,1.6,0
				c0.6,0.4,0.7,1,0.7,1.5c0.1,0.5,0.1,0.7,0.4,0.9c0.3,0.2,0.6,0.1,1,0c0.5-0.2,1-0.3,1.6,0c0.6,0.4,0.7,1,0.7,1.5
				c0.1,0.5,0.1,0.7,0.4,0.9L19.4,42z"/>
		</g>
	</g>
	<g>
		<g>
			<path class="st1" d="M23.2,36.2c-0.6-0.5-0.6-1.1-0.6-1.5c0-0.5,0-0.8-0.3-1c-0.3-0.2-0.6-0.2-1-0.1c-0.5,0.1-1.1,0.2-1.6-0.2
				c-0.6-0.5-0.6-1.1-0.6-1.5c0-0.5,0-0.8-0.3-1c-0.3-0.2-0.6-0.2-1-0.1c-0.5,0.1-1.1,0.2-1.6-0.2c-0.6-0.5-0.6-1.1-0.6-1.5
				c0-0.5,0-0.8-0.3-1l0.4-0.6c0.6,0.5,0.6,1.1,0.6,1.5c0,0.5,0,0.8,0.3,1c0.3,0.2,0.6,0.2,1,0.1c0.5-0.1,1.1-0.2,1.6,0.2
				c0.6,0.5,0.6,1.1,0.6,1.5c0,0.5,0,0.8,0.3,1c0.3,0.2,0.6,0.2,1,0.1c0.5-0.1,1.1-0.2,1.6,0.2c0.6,0.5,0.6,1.1,0.6,1.5
				c0,0.5,0,0.8,0.3,1L23.2,36.2z"/>
		</g>
	</g>
	<g>
		<g>
			<path class="st1" d="M27.6,30.9c-0.5-0.5-0.4-1.1-0.4-1.6c0.1-0.5,0.1-0.7-0.2-1C26.8,28,26.5,28,26,28c-0.5,0-1.1,0.1-1.6-0.4
				C23.9,27.1,24,26.5,24,26c0.1-0.5,0.1-0.7-0.2-1c-0.3-0.3-0.5-0.3-1-0.2c-0.5,0-1.1,0.1-1.6-0.4c-0.5-0.5-0.4-1.1-0.4-1.6
				c0.1-0.5,0.1-0.7-0.2-1l0.5-0.5c0.5,0.5,0.4,1.1,0.4,1.6c-0.1,0.5-0.1,0.7,0.2,1c0.3,0.3,0.5,0.3,1,0.2c0.5,0,1.1-0.1,1.6,0.4
				c0.5,0.5,0.4,1.1,0.4,1.6c-0.1,0.5-0.1,0.7,0.2,1c0.3,0.3,0.5,0.3,1,0.2c0.5,0,1.1-0.1,1.6,0.4c0.5,0.5,0.4,1.1,0.4,1.6
				c-0.1,0.5-0.1,0.7,0.2,1L27.6,30.9z"/>
		</g>
	</g>
	<g>
		<g>
			<path class="st1" d="M32.6,26.1c-0.5-0.6-0.3-1.2-0.2-1.6c0.1-0.5,0.2-0.7-0.1-1c-0.2-0.3-0.5-0.3-1-0.3c-0.5,0-1.1,0-1.5-0.6
				c-0.5-0.6-0.3-1.2-0.2-1.6c0.1-0.5,0.2-0.7-0.1-1c-0.2-0.3-0.5-0.3-1-0.3c-0.5,0-1.1,0-1.5-0.6c-0.5-0.6-0.3-1.2-0.2-1.6
				c0.1-0.5,0.2-0.7-0.1-1l0.6-0.4c0.5,0.6,0.3,1.2,0.2,1.6c-0.1,0.5-0.2,0.7,0.1,1c0.2,0.3,0.5,0.3,1,0.3c0.5,0,1.1,0,1.5,0.6
				c0.5,0.6,0.3,1.2,0.2,1.6c-0.1,0.5-0.2,0.7,0.1,1c0.2,0.3,0.5,0.3,1,0.3c0.5,0,1.1,0,1.5,0.6c0.5,0.6,0.3,1.2,0.2,1.6
				c-0.1,0.5-0.2,0.7,0.1,1L32.6,26.1z"/>
		</g>
	</g>
	<g>
		<g>
			<path class="st1" d="M38.1,21.8c-0.4-0.6-0.2-1.2,0-1.6c0.2-0.4,0.2-0.7,0-1c-0.2-0.3-0.5-0.4-0.9-0.4c-0.5-0.1-1.1-0.1-1.5-0.8
				c-0.4-0.6-0.2-1.2,0-1.6c0.2-0.4,0.2-0.7,0-1c-0.2-0.3-0.5-0.4-0.9-0.4c-0.5-0.1-1.1-0.1-1.5-0.8s-0.2-1.2,0-1.6
				c0.2-0.4,0.2-0.7,0-1L34,11c0.4,0.6,0.2,1.2,0,1.6c-0.2,0.4-0.2,0.7,0,1c0.2,0.3,0.5,0.4,0.9,0.4c0.5,0.1,1.1,0.1,1.5,0.8
				c0.4,0.6,0.2,1.2,0,1.6c-0.2,0.4-0.2,0.7,0,1c0.2,0.3,0.5,0.4,0.9,0.4c0.5,0.1,1.1,0.1,1.5,0.8c0.4,0.6,0.2,1.2,0,1.6
				c-0.2,0.4-0.2,0.7,0,1L38.1,21.8z"/>
		</g>
	</g>
	<g>
		<g>
			<path class="st1" d="M44.1,18.3c-0.3-0.7,0-1.2,0.2-1.6c0.2-0.4,0.3-0.7,0.2-1c-0.2-0.3-0.4-0.4-0.9-0.5
				c-0.5-0.1-1.1-0.3-1.4-0.9c-0.3-0.7,0-1.2,0.2-1.6c0.2-0.4,0.3-0.7,0.2-1c-0.2-0.3-0.4-0.4-0.9-0.5c-0.5-0.1-1.1-0.3-1.4-0.9
				s0-1.2,0.2-1.6c0.2-0.4,0.3-0.7,0.2-1l0.6-0.3c0.3,0.7,0,1.2-0.2,1.6c-0.2,0.4-0.3,0.7-0.2,1c0.2,0.3,0.4,0.4,0.9,0.5
				c0.5,0.1,1.1,0.3,1.4,0.9c0.3,0.7,0,1.2-0.2,1.6c-0.2,0.4-0.3,0.7-0.2,1c0.2,0.3,0.4,0.4,0.9,0.5c0.5,0.1,1.1,0.3,1.4,0.9
				c0.3,0.7,0,1.2-0.2,1.6c-0.2,0.4-0.3,0.7-0.2,1L44.1,18.3z"/>
		</g>
	</g>
	<g>
		<g>
			<path class="st1" d="M50.4,15.4c-0.2-0.7,0.1-1.2,0.4-1.6c0.3-0.4,0.4-0.6,0.3-1c-0.1-0.4-0.4-0.5-0.8-0.6
				c-0.5-0.2-1-0.4-1.2-1.1c-0.2-0.7,0.1-1.2,0.4-1.6c0.3-0.4,0.4-0.6,0.3-1c-0.1-0.4-0.4-0.5-0.8-0.6c-0.5-0.2-1-0.4-1.2-1.1
				c-0.2-0.7,0.1-1.2,0.4-1.6c0.3-0.4,0.4-0.6,0.3-1L48.8,4c0.2,0.7-0.1,1.2-0.4,1.6c-0.3,0.4-0.4,0.6-0.3,1C48.3,6.9,48.6,7,49,7.2
				c0.5,0.2,1,0.4,1.2,1.1c0.2,0.7-0.1,1.2-0.4,1.6c-0.3,0.4-0.4,0.6-0.3,1c0.1,0.4,0.4,0.5,0.8,0.6c0.5,0.2,1,0.4,1.2,1.1
				c0.2,0.7-0.1,1.2-0.4,1.6c-0.3,0.4-0.4,0.6-0.3,1L50.4,15.4z"/>
		</g>
	</g>
	<g>
		<g>
			<path class="st1" d="M57,13.3c-0.2-0.7,0.2-1.2,0.5-1.6c0.3-0.4,0.5-0.6,0.4-1c-0.1-0.4-0.3-0.5-0.7-0.7c-0.4-0.2-1-0.5-1.1-1.2
				c-0.2-0.7,0.2-1.2,0.5-1.6c0.3-0.4,0.5-0.6,0.4-1c-0.1-0.4-0.3-0.5-0.7-0.7c-0.4-0.2-1-0.5-1.1-1.2c-0.2-0.7,0.2-1.2,0.5-1.6
				c0.3-0.4,0.5-0.6,0.4-1l0.7-0.1c0.2,0.7-0.2,1.2-0.5,1.6c-0.3,0.4-0.5,0.6-0.4,1c0.1,0.4,0.3,0.5,0.7,0.7c0.4,0.2,1,0.5,1.1,1.2
				c0.2,0.7-0.2,1.2-0.5,1.6c-0.3,0.4-0.5,0.6-0.4,1c0.1,0.4,0.3,0.5,0.7,0.7c0.4,0.2,1,0.5,1.1,1.2c0.2,0.7-0.2,1.2-0.5,1.6
				c-0.3,0.4-0.5,0.6-0.4,1L57,13.3z"/>
		</g>
	</g>
	<g>
		<g>
			<path class="st1" d="M63.8,11.9c-0.1-0.7,0.4-1.2,0.7-1.5c0.3-0.3,0.5-0.5,0.5-0.9S64.8,9,64.4,8.7c-0.4-0.3-0.9-0.6-1-1.3
				c-0.1-0.7,0.4-1.2,0.7-1.5c0.3-0.3,0.5-0.5,0.5-0.9c0-0.4-0.3-0.5-0.7-0.8c-0.4-0.3-0.9-0.6-1-1.3c-0.1-0.7,0.4-1.2,0.7-1.5
				c0.3-0.3,0.5-0.5,0.5-0.9l0.7-0.1c0.1,0.7-0.4,1.2-0.7,1.5c-0.3,0.3-0.5,0.5-0.5,0.9c0,0.4,0.3,0.5,0.7,0.8
				c0.4,0.3,0.9,0.6,1,1.3c0.1,0.7-0.4,1.2-0.7,1.5c-0.3,0.3-0.5,0.5-0.5,0.9c0,0.4,0.3,0.5,0.7,0.8c0.4,0.3,0.9,0.6,1,1.3
				c0.1,0.7-0.4,1.2-0.7,1.5c-0.3,0.3-0.5,0.5-0.5,0.9L63.8,11.9z"/>
		</g>
	</g>
	<g>
		<g>
			<path class="st1" d="M71.5,11.4l-0.7,0c0-0.7,0.5-1.1,0.9-1.4c0.4-0.3,0.6-0.5,0.6-0.8c0-0.4-0.2-0.6-0.6-0.9
				c-0.4-0.3-0.8-0.7-0.8-1.4c0-0.7,0.5-1.1,0.9-1.4c0.4-0.3,0.6-0.5,0.6-0.8c0-0.4-0.2-0.6-0.6-0.9c-0.4-0.3-0.8-0.7-0.8-1.4
				c0-0.7,0.5-1.1,0.9-1.4c0.4-0.3,0.6-0.5,0.6-0.8l0.7,0c0,0.7-0.5,1.1-0.9,1.4c-0.4,0.3-0.6,0.5-0.6,0.8c0,0.4,0.2,0.6,0.6,0.9
				C72.6,3.4,73,3.8,73,4.6c0,0.7-0.5,1.1-0.9,1.4c-0.4,0.3-0.6,0.5-0.6,0.8c0,0.4,0.2,0.6,0.6,0.9C72.5,8,73,8.4,72.9,9.1
				c0,0.7-0.5,1.1-0.9,1.4C71.7,10.8,71.5,11,71.5,11.4z"/>
		</g>
	</g>
	<g>
		<g>
			<path class="st1" d="M78.4,11.6l-0.7-0.1c0.1-0.7,0.6-1,1-1.3c0.4-0.2,0.6-0.4,0.7-0.8c0.1-0.4-0.1-0.6-0.5-0.9
				c-0.3-0.3-0.7-0.8-0.7-1.5c0.1-0.7,0.6-1,1-1.3C79.7,5.5,80,5.3,80,5c0-0.4-0.1-0.6-0.5-0.9c-0.3-0.3-0.7-0.8-0.7-1.5
				c0.1-0.7,0.6-1,1-1.3c0.4-0.2,0.6-0.4,0.7-0.8l0.7,0.1c-0.1,0.7-0.6,1-1,1.3c-0.4,0.2-0.6,0.4-0.7,0.8c0,0.4,0.1,0.6,0.5,0.9
				c0.3,0.3,0.7,0.8,0.7,1.5c-0.1,0.7-0.6,1-1,1.3c-0.4,0.2-0.6,0.4-0.7,0.8c0,0.4,0.1,0.6,0.5,0.9c0.3,0.3,0.7,0.8,0.7,1.5
				s-0.6,1-1,1.3C78.7,11.1,78.5,11.3,78.4,11.6z"/>
		</g>
	</g>
	<g>
		<g>
			<path class="st1" d="M85.3,12.7l-0.7-0.2c0.2-0.7,0.7-1,1.2-1.2c0.4-0.2,0.7-0.3,0.8-0.7c0.1-0.4-0.1-0.6-0.4-1
				c-0.3-0.4-0.7-0.9-0.5-1.6c0.2-0.7,0.7-1,1.2-1.2c0.4-0.2,0.7-0.3,0.8-0.7c0.1-0.4-0.1-0.6-0.4-1c-0.3-0.4-0.7-0.9-0.5-1.6
				C87,3,87.5,2.7,88,2.5c0.4-0.2,0.7-0.3,0.8-0.7L89.4,2c-0.2,0.7-0.7,1-1.2,1.2c-0.4,0.2-0.7,0.3-0.8,0.7c-0.1,0.4,0.1,0.6,0.4,1
				c0.3,0.4,0.7,0.9,0.5,1.6c-0.2,0.7-0.7,1-1.2,1.2c-0.4,0.2-0.7,0.3-0.8,0.7c-0.1,0.4,0.1,0.6,0.4,1c0.3,0.4,0.7,0.9,0.5,1.6
				c-0.2,0.7-0.7,1-1.2,1.2C85.6,12.2,85.4,12.3,85.3,12.7z"/>
		</g>
	</g>
	<g>
		<g>
			<path class="st1" d="M92,14.5l-0.7-0.2c0.3-0.7,0.8-0.9,1.3-1c0.4-0.1,0.7-0.2,0.8-0.6c0.1-0.4,0-0.6-0.2-1
				c-0.2-0.4-0.6-0.9-0.3-1.6c0.3-0.7,0.8-0.9,1.3-1c0.4-0.1,0.7-0.2,0.8-0.6c0.1-0.4,0-0.6-0.2-1c-0.2-0.4-0.6-0.9-0.3-1.6
				c0.3-0.7,0.8-0.9,1.3-1c0.4-0.1,0.7-0.2,0.8-0.6l0.7,0.2c-0.3,0.7-0.8,0.9-1.3,1c-0.4,0.1-0.7,0.2-0.8,0.6c-0.1,0.4,0,0.6,0.2,1
				C95.7,7.4,96,8,95.7,8.7c-0.3,0.7-0.8,0.9-1.3,1c-0.4,0.1-0.7,0.2-0.8,0.6c-0.1,0.4,0,0.6,0.2,1c0.2,0.4,0.6,0.9,0.3,1.6
				c-0.3,0.7-0.8,0.9-1.3,1C92.4,14.1,92.1,14.2,92,14.5z"/>
		</g>
	</g>
	<g>
		<g>
			<path class="st1" d="M98.4,17.1l-0.6-0.3c0.3-0.7,0.9-0.8,1.4-0.9c0.5-0.1,0.7-0.2,0.9-0.5c0.2-0.3,0.1-0.6-0.1-1
				c-0.2-0.4-0.4-1-0.1-1.6c0.3-0.7,0.9-0.8,1.4-0.9c0.5-0.1,0.7-0.2,0.9-0.5c0.2-0.3,0.1-0.6-0.1-1c-0.2-0.4-0.4-1-0.1-1.6
				c0.3-0.7,0.9-0.8,1.4-0.9c0.5-0.1,0.7-0.2,0.9-0.5l0.6,0.3c-0.3,0.7-0.9,0.8-1.4,0.9c-0.5,0.1-0.7,0.2-0.9,0.5
				c-0.2,0.3-0.1,0.6,0.1,1c0.2,0.4,0.4,1,0.1,1.6c-0.3,0.7-0.9,0.8-1.4,0.9c-0.5,0.1-0.7,0.2-0.9,0.5c-0.2,0.3-0.1,0.6,0.1,1
				c0.2,0.4,0.4,1,0.1,1.6c-0.3,0.7-0.9,0.8-1.4,0.9C98.9,16.7,98.6,16.8,98.4,17.1z"/>
		</g>
	</g>
	<g>
		<g>
			<path class="st1" d="M104.5,20.4l-0.6-0.4c0.4-0.6,1-0.7,1.5-0.7c0.5,0,0.7-0.1,1-0.4c0.2-0.3,0.1-0.6,0-1
				c-0.1-0.5-0.3-1,0.1-1.6c0.4-0.6,1-0.7,1.5-0.7c0.5,0,0.7-0.1,1-0.4c0.2-0.3,0.1-0.6,0-1c-0.1-0.5-0.3-1,0.1-1.6
				c0.4-0.6,1-0.7,1.5-0.7c0.5,0,0.7-0.1,1-0.4l0.6,0.4c-0.4,0.6-1,0.7-1.5,0.7c-0.5,0-0.7,0.1-1,0.4c-0.2,0.3-0.1,0.6,0,1
				c0.1,0.5,0.3,1-0.1,1.6c-0.4,0.6-1,0.7-1.5,0.7c-0.5,0-0.7,0.1-1,0.4c-0.2,0.3-0.1,0.6,0,1c0.1,0.5,0.3,1-0.1,1.6
				c-0.4,0.6-1,0.7-1.5,0.7C105,20.1,104.7,20.1,104.5,20.4z"/>
		</g>
	</g>
	<g>
		<g>
			<path class="st1" d="M110.2,24.4l-0.5-0.5c0.5-0.6,1.1-0.6,1.6-0.5c0.5,0,0.8,0,1-0.3c0.2-0.3,0.2-0.6,0.1-1
				c-0.1-0.5-0.2-1.1,0.3-1.6c0.5-0.6,1.1-0.6,1.6-0.5c0.5,0,0.8,0,1-0.3c0.2-0.3,0.2-0.6,0.1-1c-0.1-0.5-0.2-1.1,0.3-1.6
				c0.5-0.6,1.1-0.6,1.6-0.5c0.5,0,0.8,0,1-0.3l0.5,0.5c-0.5,0.6-1.1,0.6-1.6,0.5c-0.5,0-0.8,0-1,0.3c-0.2,0.3-0.2,0.6-0.1,1
				c0.1,0.5,0.2,1.1-0.3,1.6c-0.5,0.6-1.1,0.6-1.6,0.5c-0.5,0-0.8,0-1,0.3c-0.2,0.3-0.2,0.6-0.1,1c0.1,0.5,0.2,1.1-0.3,1.6
				c-0.5,0.6-1.1,0.6-1.6,0.5C110.7,24.1,110.5,24.1,110.2,24.4z"/>
		</g>
	</g>
	<g>
		<g>
			<path class="st1" d="M115.4,29l-0.5-0.5c0.5-0.5,1.1-0.4,1.6-0.4c0.5,0.1,0.7,0.1,1-0.2c0.3-0.3,0.3-0.5,0.2-1
				c0-0.5-0.1-1.1,0.4-1.6c0.5-0.5,1.1-0.4,1.6-0.4c0.5,0.1,0.7,0.1,1-0.2c0.3-0.3,0.3-0.5,0.2-1c0-0.5-0.1-1.1,0.4-1.6
				c0.5-0.5,1.1-0.4,1.6-0.4c0.5,0.1,0.7,0.1,1-0.2l0.5,0.5c-0.5,0.5-1.1,0.4-1.6,0.4c-0.5-0.1-0.7-0.1-1,0.2
				c-0.3,0.3-0.3,0.5-0.2,1c0,0.5,0.1,1.1-0.4,1.6c-0.5,0.5-1.1,0.4-1.6,0.4c-0.5-0.1-0.7-0.1-1,0.2c-0.3,0.3-0.3,0.5-0.2,1
				c0,0.5,0.1,1.1-0.4,1.6c-0.5,0.5-1.1,0.4-1.6,0.4C116,28.7,115.7,28.7,115.4,29z"/>
		</g>
	</g>
	<g>
		<g>
			<path class="st1" d="M121.9,34.2c-0.3,0-0.5-0.1-0.8-0.1c-0.5-0.1-0.7-0.2-1,0.1l-0.4-0.6c0.6-0.4,1.2-0.3,1.6-0.2
				c0.5,0.1,0.7,0.2,1-0.1c0.3-0.2,0.3-0.5,0.3-1c0-0.5,0-1.1,0.6-1.5c0.6-0.4,1.2-0.3,1.6-0.2c0.5,0.1,0.7,0.2,1-0.1
				c0.3-0.2,0.3-0.5,0.3-1c0-0.5,0-1.1,0.6-1.5c0.6-0.4,1.2-0.3,1.6-0.2c0.5,0.1,0.7,0.2,1-0.1l0.4,0.6c-0.6,0.4-1.2,0.3-1.6,0.2
				c-0.5-0.1-0.7-0.2-1,0.1c-0.3,0.2-0.3,0.5-0.3,1c0,0.5,0,1.1-0.6,1.5c-0.6,0.4-1.2,0.3-1.6,0.2c-0.5-0.1-0.7-0.2-1,0.1
				c-0.3,0.2-0.3,0.5-0.3,1c0,0.5,0,1.1-0.6,1.5C122.5,34.1,122.2,34.2,121.9,34.2z"/>
		</g>
	</g>
	<g>
		<g>
			<path class="st1" d="M126.1,40c-0.3,0-0.6-0.1-0.9-0.2c-0.4-0.2-0.7-0.3-1-0.1l-0.4-0.6c0.6-0.4,1.2-0.2,1.6,0
				c0.4,0.2,0.7,0.3,1,0.1c0.3-0.2,0.4-0.5,0.4-0.9c0.1-0.5,0.2-1.1,0.8-1.4c0.6-0.4,1.2-0.2,1.6,0c0.4,0.2,0.7,0.3,1,0.1
				c0.3-0.2,0.4-0.5,0.4-0.9c0.1-0.5,0.2-1.1,0.8-1.4c0.6-0.4,1.2-0.2,1.6,0c0.4,0.2,0.7,0.3,1,0.1l0.4,0.6c-0.6,0.4-1.2,0.2-1.6,0
				c-0.4-0.2-0.7-0.3-1-0.1c-0.3,0.2-0.4,0.5-0.4,0.9c-0.1,0.5-0.2,1.1-0.8,1.4c-0.6,0.4-1.2,0.2-1.6,0c-0.4-0.2-0.7-0.3-1-0.1
				c-0.3,0.2-0.4,0.5-0.4,0.9c-0.1,0.5-0.2,1.1-0.8,1.4C126.6,40,126.3,40,126.1,40z"/>
		</g>
	</g>
	<g>
		<g>
			<path class="st1" d="M129.6,46.3c-0.4,0-0.7-0.2-1-0.3c-0.4-0.2-0.7-0.3-1-0.2l-0.3-0.6c0.7-0.3,1.2,0,1.6,0.2
				c0.4,0.2,0.7,0.3,1,0.2c0.3-0.2,0.4-0.4,0.6-0.9c0.1-0.5,0.3-1,1-1.3c0.7-0.3,1.2,0,1.6,0.2c0.4,0.2,0.7,0.3,1,0.2
				c0.3-0.2,0.4-0.4,0.6-0.9c0.1-0.5,0.3-1,1-1.3c0.7-0.3,1.2,0,1.6,0.2c0.4,0.2,0.7,0.3,1,0.2l0.3,0.6c-0.7,0.3-1.2,0-1.6-0.2
				c-0.4-0.2-0.7-0.3-1-0.2c-0.3,0.2-0.4,0.4-0.6,0.9c-0.1,0.5-0.3,1-1,1.3c-0.7,0.3-1.2,0-1.6-0.2c-0.4-0.2-0.7-0.3-1-0.2
				c-0.3,0.2-0.4,0.4-0.6,0.9c-0.1,0.5-0.3,1-1,1.3C130,46.3,129.8,46.3,129.6,46.3z"/>
		</g>
	</g>
	<g>
		<g>
			<path class="st1" d="M136.8,106.1c-0.7-0.3-0.8-0.9-0.8-1.4c-0.1-0.5-0.2-0.7-0.5-0.9c-0.3-0.2-0.6-0.1-1,0.1
				c-0.4,0.2-1,0.4-1.6,0.1c-0.7-0.3-0.8-0.9-0.9-1.4c-0.1-0.5-0.2-0.7-0.5-0.9c-0.3-0.2-0.6-0.1-1,0.1c-0.4,0.2-1,0.4-1.6,0.1
				c-0.7-0.3-0.8-0.9-0.9-1.4c-0.1-0.5-0.2-0.7-0.5-0.9l0.3-0.6c0.7,0.3,0.8,0.9,0.9,1.4c0.1,0.5,0.2,0.7,0.5,0.9
				c0.3,0.2,0.6,0.1,1-0.1c0.4-0.2,1-0.4,1.6-0.1c0.7,0.3,0.8,0.9,0.9,1.4c0.1,0.5,0.2,0.7,0.5,0.9c0.3,0.2,0.6,0.1,1-0.1
				c0.4-0.2,1-0.4,1.6-0.1c0.7,0.3,0.8,0.9,0.9,1.4c0.1,0.5,0.2,0.7,0.5,0.9L136.8,106.1z"/>
		</g>
	</g>
	<g>
		<g>
			<path class="st1" d="M132.5,113.2c-0.6-0.4-0.7-1-0.7-1.5c0-0.5-0.1-0.7-0.4-1c-0.3-0.2-0.6-0.1-1,0c-0.5,0.1-1,0.3-1.6-0.1
				c-0.6-0.4-0.7-1-0.7-1.5c0-0.5-0.1-0.7-0.4-1c-0.3-0.2-0.6-0.1-1,0c-0.5,0.1-1,0.3-1.6-0.1c-0.6-0.4-0.7-1-0.7-1.5
				c0-0.5-0.1-0.7-0.4-1l0.4-0.6c0.6,0.4,0.7,1,0.7,1.5c0,0.5,0.1,0.7,0.4,1c0.3,0.2,0.6,0.1,1,0c0.5-0.1,1-0.3,1.6,0.1
				c0.6,0.4,0.7,1,0.7,1.5c0,0.5,0.1,0.7,0.4,1c0.3,0.2,0.6,0.1,1,0c0.5-0.1,1-0.3,1.6,0.1c0.6,0.4,0.7,1,0.7,1.5
				c0,0.5,0.1,0.7,0.4,1L132.5,113.2z"/>
		</g>
	</g>
	<g>
		<g>
			<path class="st1" d="M127.6,119.7c-0.6-0.5-0.5-1.1-0.5-1.6c0-0.5,0-0.8-0.3-1c-0.3-0.2-0.6-0.2-1-0.1c-0.5,0.1-1.1,0.2-1.6-0.3
				c-0.6-0.5-0.5-1.1-0.5-1.6c0-0.5,0-0.8-0.3-1c-0.3-0.2-0.6-0.2-1-0.1c-0.5,0.1-1.1,0.2-1.6-0.3c-0.6-0.5-0.5-1.1-0.5-1.6
				c0-0.5,0-0.8-0.3-1l0.5-0.5c0.6,0.5,0.5,1.1,0.5,1.6c0,0.5,0,0.8,0.3,1c0.3,0.2,0.6,0.2,1,0.1c0.5-0.1,1.1-0.2,1.6,0.3
				c0.6,0.5,0.5,1.1,0.5,1.6c0,0.5,0,0.8,0.3,1c0.3,0.2,0.6,0.2,1,0.1c0.5-0.1,1.1-0.2,1.6,0.3c0.6,0.5,0.5,1.1,0.5,1.6
				c0,0.5,0,0.8,0.3,1L127.6,119.7z"/>
		</g>
	</g>
	<g>
		<g>
			<path class="st1" d="M121.9,125.6c-0.5-0.5-0.4-1.1-0.3-1.6c0.1-0.5,0.1-0.7-0.2-1c-0.3-0.3-0.5-0.3-1-0.2
				c-0.5,0-1.1,0.1-1.6-0.5c-0.5-0.5-0.4-1.1-0.3-1.6c0.1-0.5,0.1-0.7-0.2-1c-0.3-0.3-0.5-0.3-1-0.2c-0.5,0-1.1,0.1-1.6-0.5
				c-0.5-0.5-0.4-1.1-0.3-1.6c0.1-0.5,0.1-0.7-0.2-1l0.5-0.5c0.5,0.5,0.4,1.1,0.3,1.6c-0.1,0.5-0.1,0.7,0.2,1c0.3,0.3,0.5,0.3,1,0.2
				c0.5,0,1.1-0.1,1.6,0.5c0.5,0.5,0.4,1.1,0.3,1.6c-0.1,0.5-0.1,0.7,0.2,1c0.3,0.3,0.5,0.3,1,0.2c0.5,0,1.1-0.1,1.6,0.5
				c0.5,0.5,0.4,1.1,0.3,1.6c-0.1,0.5-0.1,0.7,0.2,1L121.9,125.6z"/>
		</g>
	</g>
	<g>
		<g>
			<path class="st1" d="M115.5,130.9c-0.4-0.6-0.3-1.2-0.1-1.6c0.1-0.5,0.2-0.7,0-1c-0.2-0.3-0.5-0.3-1-0.4c-0.5,0-1.1-0.1-1.5-0.7
				c-0.4-0.6-0.3-1.2-0.1-1.6c0.1-0.5,0.2-0.7,0-1c-0.2-0.3-0.5-0.3-1-0.4c-0.5,0-1.1-0.1-1.5-0.7c-0.4-0.6-0.3-1.2-0.1-1.6
				c0.1-0.5,0.2-0.7,0-1l0.6-0.4c0.4,0.6,0.3,1.2,0.1,1.6c-0.1,0.5-0.2,0.7,0,1c0.2,0.3,0.5,0.3,1,0.4c0.5,0,1.1,0.1,1.5,0.7
				c0.4,0.6,0.3,1.2,0.1,1.6c-0.1,0.5-0.2,0.7,0,1c0.2,0.3,0.5,0.3,1,0.4c0.5,0,1.1,0.1,1.5,0.7c0.4,0.6,0.3,1.2,0.1,1.6
				c-0.1,0.5-0.2,0.7,0,1L115.5,130.9z"/>
		</g>
	</g>
	<g>
		<g>
			<path class="st1" d="M108.6,135.4c-0.4-0.6-0.1-1.2,0-1.6c0.2-0.4,0.3-0.7,0.1-1c-0.2-0.3-0.5-0.4-0.9-0.5
				c-0.5-0.1-1.1-0.2-1.4-0.8c-0.4-0.6-0.1-1.2,0-1.6c0.2-0.4,0.3-0.7,0.1-1c-0.2-0.3-0.5-0.4-0.9-0.5c-0.5-0.1-1.1-0.2-1.4-0.8
				c-0.4-0.6-0.1-1.2,0-1.6c0.2-0.4,0.3-0.7,0.1-1l0.6-0.3c0.4,0.6,0.1,1.2,0,1.6c-0.2,0.4-0.3,0.7-0.1,1c0.2,0.3,0.5,0.4,0.9,0.5
				c0.5,0.1,1.1,0.2,1.4,0.8c0.4,0.6,0.1,1.2,0,1.6c-0.2,0.4-0.3,0.7-0.1,1c0.2,0.3,0.5,0.4,0.9,0.5c0.5,0.1,1.1,0.2,1.4,0.8
				c0.4,0.6,0.1,1.2,0,1.6c-0.2,0.4-0.3,0.7-0.1,1L108.6,135.4z"/>
		</g>
	</g>
	<g>
		<g>
			<path class="st1" d="M101.3,139.1c-0.3-0.7,0-1.2,0.2-1.6c0.2-0.4,0.3-0.7,0.2-1c-0.1-0.3-0.4-0.4-0.9-0.6c-0.5-0.1-1-0.3-1.3-1
				c-0.3-0.7,0-1.2,0.2-1.6c0.2-0.4,0.3-0.7,0.2-1c-0.1-0.3-0.4-0.4-0.9-0.6c-0.5-0.1-1-0.3-1.3-1c-0.3-0.7,0-1.2,0.2-1.6
				c0.2-0.4,0.3-0.7,0.2-1l0.7-0.3c0.3,0.7,0,1.2-0.2,1.6c-0.2,0.4-0.3,0.7-0.2,1c0.1,0.3,0.4,0.4,0.9,0.6c0.5,0.1,1,0.3,1.3,1
				c0.3,0.7,0,1.2-0.2,1.6c-0.2,0.4-0.3,0.7-0.2,1c0.1,0.3,0.4,0.4,0.9,0.6c0.5,0.1,1,0.3,1.3,1c0.3,0.7,0,1.2-0.2,1.6
				c-0.2,0.4-0.3,0.7-0.2,1L101.3,139.1z"/>
		</g>
	</g>
	<g>
		<g>
			<path class="st1" d="M93.5,141.9c-0.2-0.7,0.1-1.2,0.4-1.6c0.3-0.4,0.4-0.6,0.3-1c-0.1-0.4-0.4-0.5-0.8-0.7
				c-0.4-0.2-1-0.4-1.2-1.1c-0.2-0.7,0.1-1.2,0.4-1.6c0.3-0.4,0.4-0.6,0.3-1c-0.1-0.4-0.4-0.5-0.8-0.7c-0.4-0.2-1-0.4-1.2-1.1
				c-0.2-0.7,0.1-1.2,0.4-1.6c0.3-0.4,0.4-0.6,0.3-1l0.7-0.2c0.2,0.7-0.1,1.2-0.4,1.6c-0.3,0.4-0.4,0.6-0.3,1
				c0.1,0.4,0.4,0.5,0.8,0.7c0.4,0.2,1,0.4,1.2,1.1c0.2,0.7-0.1,1.2-0.4,1.6c-0.3,0.4-0.4,0.6-0.3,1c0.1,0.4,0.4,0.5,0.8,0.7
				c0.4,0.2,1,0.4,1.2,1.1c0.2,0.7-0.1,1.2-0.4,1.6c-0.3,0.4-0.4,0.6-0.3,1L93.5,141.9z"/>
		</g>
	</g>
	<g>
		<g>
			<path class="st1" d="M85.5,143.8c-0.1-0.7,0.3-1.2,0.6-1.5c0.3-0.4,0.5-0.6,0.4-0.9c-0.1-0.4-0.3-0.5-0.7-0.7
				c-0.4-0.2-0.9-0.5-1.1-1.2c-0.1-0.7,0.3-1.2,0.6-1.5c0.3-0.4,0.5-0.6,0.4-0.9c-0.1-0.4-0.3-0.5-0.7-0.7c-0.4-0.2-0.9-0.5-1.1-1.2
				c-0.1-0.7,0.3-1.2,0.6-1.5c0.3-0.4,0.5-0.6,0.4-0.9l0.7-0.1c0.1,0.7-0.3,1.2-0.6,1.5c-0.3,0.4-0.5,0.6-0.4,0.9
				c0.1,0.4,0.3,0.5,0.7,0.7c0.4,0.2,0.9,0.5,1.1,1.2c0.1,0.7-0.3,1.2-0.6,1.5c-0.3,0.4-0.5,0.6-0.4,0.9c0.1,0.4,0.3,0.5,0.7,0.7
				c0.4,0.2,0.9,0.5,1.1,1.2c0.1,0.7-0.3,1.2-0.6,1.5c-0.3,0.4-0.5,0.6-0.4,0.9L85.5,143.8z"/>
		</g>
	</g>
	<g>
		<g>
			<path class="st1" d="M77.4,144.9c0-0.7,0.4-1.1,0.8-1.5c0.4-0.3,0.5-0.5,0.5-0.9c0-0.4-0.2-0.6-0.6-0.8c-0.4-0.3-0.9-0.6-0.9-1.4
				c0-0.7,0.4-1.1,0.8-1.5c0.4-0.3,0.5-0.5,0.5-0.9c0-0.4-0.2-0.6-0.6-0.8c-0.4-0.3-0.9-0.6-0.9-1.4c0-0.7,0.4-1.1,0.8-1.5
				c0.4-0.3,0.5-0.5,0.5-0.9l0.7,0c0,0.7-0.4,1.1-0.8,1.5c-0.4,0.3-0.5,0.5-0.5,0.9c0,0.4,0.2,0.6,0.6,0.8c0.4,0.3,0.9,0.6,0.9,1.4
				c0,0.7-0.4,1.1-0.8,1.5c-0.4,0.3-0.5,0.5-0.5,0.9c0,0.4,0.2,0.6,0.6,0.8c0.4,0.3,0.9,0.6,0.9,1.4c0,0.7-0.4,1.1-0.8,1.5
				c-0.4,0.3-0.5,0.5-0.5,0.9L77.4,144.9z"/>
		</g>
	</g>
	<g>
		<g>
			<path class="st1" d="M69.9,145l-0.7,0c0-0.7,0.5-1.1,0.9-1.4c0.4-0.3,0.6-0.4,0.6-0.8c0-0.4-0.2-0.6-0.5-0.9
				c-0.4-0.3-0.8-0.7-0.8-1.5c0-0.7,0.5-1.1,0.9-1.4c0.4-0.3,0.6-0.4,0.6-0.8c0-0.4-0.2-0.6-0.5-0.9c-0.4-0.3-0.8-0.7-0.8-1.5
				c0-0.7,0.5-1.1,0.9-1.4c0.4-0.3,0.6-0.4,0.6-0.8l0.7,0c0,0.7-0.5,1.1-0.9,1.4c-0.4,0.3-0.6,0.4-0.6,0.8c0,0.4,0.2,0.6,0.5,0.9
				c0.4,0.3,0.8,0.7,0.8,1.5c0,0.7-0.5,1.1-0.9,1.4c-0.4,0.3-0.6,0.4-0.6,0.8c0,0.4,0.2,0.6,0.5,0.9c0.4,0.3,0.8,0.7,0.8,1.5
				c0,0.7-0.5,1.1-0.9,1.4C70.1,144.4,69.9,144.6,69.9,145z"/>
		</g>
	</g>
	<g>
		<g>
			<path class="st1" d="M61.7,144.2l-0.7-0.1c0.1-0.7,0.6-1,1.1-1.3c0.4-0.2,0.6-0.4,0.7-0.8c0.1-0.4-0.1-0.6-0.4-0.9
				c-0.3-0.4-0.7-0.8-0.6-1.5c0.1-0.7,0.6-1,1.1-1.3c0.4-0.2,0.6-0.4,0.7-0.8c0.1-0.4-0.1-0.6-0.4-0.9c-0.3-0.4-0.7-0.8-0.6-1.5
				c0.1-0.7,0.6-1,1.1-1.3c0.4-0.2,0.7-0.4,0.7-0.8l0.7,0.1c-0.1,0.7-0.6,1-1.1,1.3c-0.4,0.2-0.7,0.4-0.7,0.8
				c-0.1,0.4,0.1,0.6,0.4,0.9c0.3,0.4,0.7,0.8,0.6,1.5c-0.1,0.7-0.6,1-1.1,1.3c-0.4,0.2-0.6,0.4-0.7,0.8c-0.1,0.4,0.1,0.6,0.4,0.9
				c0.3,0.4,0.7,0.8,0.6,1.5c-0.1,0.7-0.6,1-1.1,1.3C62,143.7,61.7,143.9,61.7,144.2z"/>
		</g>
	</g>
	<g>
		<g>
			<path class="st1" d="M53.6,142.6l-0.7-0.2c0.2-0.7,0.8-0.9,1.2-1.1c0.4-0.2,0.7-0.3,0.8-0.7c0.1-0.4,0-0.6-0.3-1
				c-0.3-0.4-0.6-0.9-0.4-1.6c0.2-0.7,0.8-0.9,1.2-1.1c0.4-0.2,0.7-0.3,0.8-0.7c0.1-0.4,0-0.6-0.3-1c-0.3-0.4-0.6-0.9-0.4-1.6
				c0.2-0.7,0.8-0.9,1.2-1.1c0.4-0.2,0.7-0.3,0.8-0.7l0.7,0.2c-0.2,0.7-0.8,0.9-1.2,1.1c-0.4,0.2-0.7,0.3-0.8,0.7
				c-0.1,0.4,0,0.6,0.3,1c0.3,0.4,0.6,0.9,0.4,1.6c-0.2,0.7-0.8,0.9-1.2,1.1c-0.4,0.2-0.7,0.3-0.8,0.7c-0.1,0.4,0,0.6,0.3,1
				c0.3,0.4,0.6,0.9,0.4,1.6c-0.2,0.7-0.8,0.9-1.2,1.1C54,142.1,53.7,142.2,53.6,142.6z"/>
		</g>
	</g>
	<g>
		<g>
			<path class="st1" d="M45.8,140l-0.7-0.3c0.3-0.7,0.9-0.8,1.3-1c0.5-0.1,0.7-0.2,0.9-0.6c0.1-0.3,0-0.6-0.2-1
				c-0.2-0.4-0.5-0.9-0.2-1.6c0.3-0.7,0.9-0.8,1.3-1c0.5-0.1,0.7-0.2,0.9-0.6c0.1-0.4,0-0.6-0.2-1c-0.2-0.4-0.5-0.9-0.2-1.6
				c0.3-0.7,0.9-0.8,1.3-1c0.5-0.1,0.7-0.2,0.9-0.6l0.7,0.3c-0.3,0.7-0.9,0.8-1.3,1c-0.5,0.1-0.7,0.2-0.9,0.6c-0.1,0.4,0,0.6,0.2,1
				c0.2,0.4,0.5,0.9,0.2,1.6c-0.3,0.7-0.9,0.8-1.3,1c-0.5,0.1-0.7,0.2-0.9,0.6c-0.1,0.4,0,0.6,0.2,1c0.2,0.4,0.5,0.9,0.2,1.6
				c-0.3,0.7-0.9,0.8-1.3,1C46.2,139.5,45.9,139.6,45.8,140z"/>
		</g>
	</g>
	<g>
		<g>
			<path class="st1" d="M38.3,136.5l-0.6-0.3c0.4-0.6,1-0.7,1.4-0.8c0.5-0.1,0.7-0.1,0.9-0.5c0.2-0.3,0.1-0.6-0.1-1
				c-0.2-0.4-0.4-1,0-1.6c0.4-0.6,1-0.7,1.4-0.8c0.5-0.1,0.7-0.1,0.9-0.5c0.2-0.3,0.1-0.6-0.1-1c-0.2-0.4-0.4-1,0-1.6
				c0.4-0.6,1-0.7,1.4-0.8c0.5-0.1,0.7-0.1,0.9-0.5l0.6,0.3c-0.4,0.6-1,0.7-1.4,0.8c-0.5,0.1-0.7,0.1-0.9,0.5
				c-0.2,0.3-0.1,0.6,0.1,1c0.2,0.4,0.4,1,0,1.6c-0.4,0.6-1,0.7-1.4,0.8c-0.5,0.1-0.7,0.1-0.9,0.5c-0.2,0.3-0.1,0.6,0.1,1
				c0.2,0.4,0.4,1,0,1.6c-0.4,0.6-1,0.7-1.4,0.8C38.8,136.1,38.5,136.2,38.3,136.5z"/>
		</g>
	</g>
	<g>
		<g>
			<path class="st1" d="M31.3,132.2l-0.6-0.4c0.4-0.6,1-0.6,1.5-0.7c0.5,0,0.7-0.1,1-0.4c0.2-0.3,0.2-0.6,0-1
				c-0.1-0.5-0.3-1,0.1-1.6c0.4-0.6,1-0.6,1.5-0.7c0.5,0,0.7-0.1,1-0.4c0.2-0.3,0.2-0.6,0-1c-0.1-0.5-0.3-1,0.1-1.6
				c0.4-0.6,1-0.6,1.5-0.7c0.5,0,0.7-0.1,1-0.4l0.6,0.4c-0.4,0.6-1,0.6-1.5,0.7c-0.5,0-0.7,0.1-1,0.4c-0.2,0.3-0.2,0.6,0,1
				c0.1,0.5,0.3,1-0.1,1.6c-0.4,0.6-1,0.6-1.5,0.7c-0.5,0-0.7,0.1-1,0.4c-0.2,0.3-0.2,0.6,0,1c0.1,0.5,0.3,1-0.1,1.6
				c-0.4,0.6-1,0.6-1.5,0.7C31.8,131.9,31.5,131.9,31.3,132.2z"/>
		</g>
	</g>
	<g>
		<g>
			<path class="st1" d="M24.8,127.2l-0.5-0.5c0.5-0.5,1.1-0.5,1.6-0.5c0.5,0,0.8,0,1-0.2c0.3-0.3,0.2-0.6,0.1-1
				c-0.1-0.5-0.2-1.1,0.3-1.6c0.5-0.5,1.1-0.5,1.6-0.5c0.5,0,0.8,0,1-0.2c0.3-0.3,0.2-0.6,0.1-1c-0.1-0.5-0.2-1.1,0.3-1.6
				c0.5-0.5,1.1-0.5,1.6-0.5c0.5,0,0.8,0,1-0.3l0.5,0.5c-0.5,0.5-1.1,0.5-1.6,0.5c-0.5,0-0.8,0-1,0.3c-0.3,0.3-0.2,0.6-0.1,1
				c0.1,0.5,0.2,1.1-0.3,1.6c-0.5,0.5-1.1,0.5-1.6,0.5c-0.5,0-0.8,0-1,0.2c-0.3,0.3-0.2,0.6-0.1,1c0.1,0.5,0.2,1.1-0.3,1.6
				c-0.5,0.5-1.1,0.5-1.6,0.5C25.3,126.9,25,126.9,24.8,127.2z"/>
		</g>
	</g>
	<g>
		<g>
			<path class="st1" d="M18.9,121.5l-0.5-0.5c0.6-0.5,1.1-0.4,1.6-0.3c0.5,0.1,0.7,0.1,1-0.1c0.3-0.3,0.3-0.5,0.3-1
				c0-0.5-0.1-1.1,0.5-1.6c0.6-0.5,1.1-0.4,1.6-0.3c0.5,0.1,0.7,0.1,1-0.1c0.3-0.3,0.3-0.5,0.3-1c0-0.5-0.1-1.1,0.5-1.6
				c0.6-0.5,1.1-0.4,1.6-0.3c0.5,0.1,0.7,0.1,1-0.1l0.5,0.5c-0.6,0.5-1.1,0.4-1.6,0.3c-0.5-0.1-0.7-0.1-1,0.1
				c-0.3,0.3-0.3,0.5-0.3,1c0,0.5,0.1,1.1-0.5,1.6c-0.6,0.5-1.1,0.4-1.6,0.3c-0.5-0.1-0.7-0.1-1,0.1c-0.3,0.3-0.3,0.5-0.3,1
				c0,0.5,0.1,1.1-0.5,1.6c-0.6,0.5-1.1,0.4-1.6,0.3C19.5,121.2,19.2,121.2,18.9,121.5z"/>
		</g>
	</g>
	<g>
		<g>
			<path class="st1" d="M15.5,115.2c-0.3,0-0.6-0.1-0.8-0.2c-0.5-0.1-0.7-0.2-1,0l-0.4-0.6c0.6-0.4,1.2-0.3,1.6-0.1
				c0.5,0.1,0.7,0.2,1,0c0.3-0.2,0.3-0.5,0.4-1c0-0.5,0.1-1.1,0.7-1.5c0.6-0.4,1.2-0.3,1.6-0.1c0.5,0.1,0.7,0.2,1,0
				c0.3-0.2,0.3-0.5,0.4-1c0-0.5,0.1-1.1,0.7-1.5c0.6-0.4,1.2-0.3,1.6-0.1c0.5,0.1,0.7,0.2,1,0l0.4,0.6c-0.6,0.4-1.2,0.3-1.6,0.1
				c-0.5-0.1-0.7-0.2-1,0c-0.3,0.2-0.3,0.5-0.4,1c0,0.5-0.1,1.1-0.7,1.5c-0.6,0.4-1.2,0.3-1.6,0.1c-0.5-0.1-0.7-0.2-1,0
				c-0.3,0.2-0.3,0.5-0.4,1c0,0.5-0.1,1.1-0.7,1.5C16.1,115.1,15.8,115.2,15.5,115.2z"/>
		</g>
	</g>
	<g>
		<g>
			<path class="st1" d="M11.2,108.5c-0.4,0-0.7-0.1-1-0.3c-0.4-0.2-0.7-0.3-1-0.1l-0.3-0.6c0.7-0.4,1.2-0.1,1.6,0.1
				c0.4,0.2,0.7,0.3,1,0.1c0.3-0.2,0.4-0.5,0.5-0.9c0.1-0.5,0.2-1.1,0.8-1.4c0.7-0.4,1.2-0.1,1.6,0.1c0.4,0.2,0.7,0.3,1,0.1
				c0.3-0.2,0.4-0.5,0.5-0.9c0.1-0.5,0.2-1.1,0.8-1.4c0.7-0.4,1.2-0.1,1.6,0.1c0.4,0.2,0.7,0.3,1,0.1l0.3,0.6
				c-0.7,0.4-1.2,0.1-1.6-0.1c-0.4-0.2-0.7-0.3-1-0.1c-0.3,0.2-0.4,0.5-0.5,0.9c-0.1,0.5-0.2,1.1-0.8,1.4c-0.7,0.4-1.2,0.1-1.6-0.1
				c-0.4-0.2-0.7-0.3-1-0.1c-0.3,0.2-0.4,0.5-0.5,0.9c-0.1,0.5-0.2,1.1-0.8,1.4C11.7,108.5,11.5,108.5,11.2,108.5z"/>
		</g>
	</g>
	<g>
		<g>
			<path class="st1" d="M7.7,101.3c-0.4,0-0.8-0.2-1.1-0.4c-0.4-0.2-0.7-0.4-1-0.2l-0.3-0.7c0.7-0.3,1.2,0,1.6,0.3
				c0.4,0.2,0.7,0.4,1,0.2c0.4-0.1,0.4-0.4,0.6-0.9c0.1-0.5,0.3-1,1-1.3c0.7-0.3,1.2,0,1.6,0.3c0.4,0.2,0.7,0.4,1,0.2
				c0.4-0.1,0.4-0.4,0.6-0.9c0.1-0.5,0.3-1,1-1.3c0.7-0.3,1.2,0,1.6,0.3c0.4,0.2,0.7,0.4,1,0.2l0.3,0.7c-0.7,0.3-1.2,0-1.6-0.3
				c-0.4-0.2-0.7-0.4-1-0.2c-0.4,0.1-0.4,0.4-0.6,0.9c-0.1,0.5-0.3,1-1,1.3c-0.7,0.3-1.2,0-1.6-0.3c-0.4-0.2-0.7-0.4-1-0.2
				c-0.4,0.1-0.4,0.4-0.6,0.9c-0.1,0.5-0.3,1-1,1.3C8.1,101.3,7.9,101.3,7.7,101.3z"/>
		</g>
	</g>
	<g>
		<g>
			<path class="st1" d="M5,93.8c-0.5,0-0.9-0.3-1.2-0.5c-0.4-0.3-0.6-0.4-1-0.3l-0.2-0.7c0.7-0.2,1.2,0.2,1.6,0.4
				c0.4,0.3,0.6,0.4,1,0.3c0.4-0.1,0.5-0.4,0.7-0.8c0.2-0.4,0.4-1,1.1-1.2c0.7-0.2,1.2,0.2,1.6,0.4c0.4,0.3,0.6,0.4,1,0.3
				c0.4-0.1,0.5-0.4,0.7-0.8c0.2-0.4,0.4-1,1.1-1.2c0.7-0.2,1.2,0.2,1.6,0.4c0.4,0.3,0.6,0.4,1,0.3l0.2,0.7
				c-0.7,0.2-1.2-0.2-1.6-0.4c-0.4-0.3-0.6-0.4-1-0.3c-0.4,0.1-0.5,0.4-0.7,0.8c-0.2,0.4-0.4,1-1.1,1.2c-0.7,0.2-1.2-0.2-1.6-0.4
				c-0.4-0.3-0.6-0.4-1-0.3c-0.4,0.1-0.5,0.4-0.7,0.8c-0.2,0.4-0.4,1-1.1,1.2C5.3,93.8,5.1,93.8,5,93.8z"/>
		</g>
	</g>
	<g>
		<g>
			<path class="st1" d="M3.2,86.1c-0.6,0-1-0.3-1.3-0.6C1.6,85.1,1.4,84.9,1,85l-0.1-0.7c0.7-0.1,1.2,0.3,1.5,0.6
				c0.3,0.3,0.6,0.5,0.9,0.4c0.4-0.1,0.5-0.3,0.8-0.7c0.2-0.4,0.5-0.9,1.3-1.1c0.7-0.1,1.2,0.3,1.5,0.6c0.3,0.3,0.6,0.5,0.9,0.4
				c0.4-0.1,0.5-0.3,0.8-0.7c0.2-0.4,0.5-0.9,1.3-1.1c0.7-0.1,1.2,0.3,1.5,0.6c0.3,0.3,0.6,0.5,0.9,0.4l0.1,0.7
				c-0.7,0.1-1.2-0.3-1.5-0.6c-0.3-0.3-0.6-0.5-0.9-0.4c-0.4,0.1-0.5,0.3-0.8,0.7c-0.2,0.4-0.5,0.9-1.3,1.1
				c-0.7,0.1-1.2-0.3-1.5-0.6c-0.3-0.3-0.6-0.5-0.9-0.4C5.1,84.4,5,84.6,4.7,85c-0.2,0.4-0.5,0.9-1.3,1.1
				C3.4,86.1,3.3,86.1,3.2,86.1z"/>
		</g>
	</g>
	<g>
		<g>
			<path class="st1" d="M2.3,78.2c-0.7,0-1.1-0.4-1.4-0.8C0.6,77,0.4,76.8,0,76.8l0-0.7c0.7,0,1.1,0.4,1.4,0.8
				c0.3,0.4,0.5,0.6,0.9,0.5c0.4,0,0.6-0.2,0.8-0.6c0.3-0.4,0.6-0.9,1.4-0.9c0.7,0,1.1,0.4,1.4,0.8c0.3,0.4,0.5,0.6,0.9,0.5
				c0.4,0,0.6-0.2,0.8-0.6c0.3-0.4,0.6-0.9,1.4-0.9c0.7,0,1.1,0.4,1.4,0.8c0.3,0.4,0.5,0.6,0.9,0.5l0,0.7c-0.7,0-1.1-0.4-1.4-0.8
				c-0.3-0.4-0.5-0.6-0.9-0.5c-0.4,0-0.6,0.2-0.8,0.6C8,77.5,7.6,77.9,6.9,78c-0.7,0-1.1-0.4-1.4-0.8c-0.3-0.4-0.5-0.6-0.9-0.5
				c-0.4,0-0.6,0.2-0.8,0.6C3.5,77.6,3.1,78.1,2.3,78.2C2.3,78.2,2.3,78.2,2.3,78.2z"/>
		</g>
	</g>
	<g>
		<g>
			<path class="st1" d="M11.2,70.9c-0.7-0.1-1.1-0.5-1.4-0.9c-0.3-0.4-0.4-0.6-0.8-0.6c-0.4,0-0.6,0.2-0.9,0.5
				c-0.3,0.4-0.7,0.8-1.5,0.7C6,70.5,5.6,70,5.4,69.6c-0.3-0.4-0.4-0.6-0.8-0.6c-0.4,0-0.6,0.2-0.9,0.5c-0.3,0.4-0.7,0.8-1.5,0.7
				c-0.7-0.1-1.1-0.5-1.3-0.9c-0.3-0.4-0.4-0.6-0.8-0.6l0.1-0.7c0.7,0.1,1.1,0.5,1.3,0.9c0.3,0.4,0.4,0.6,0.8,0.6
				c0.4,0,0.6-0.2,0.9-0.5c0.3-0.4,0.7-0.8,1.5-0.7c0.7,0.1,1.1,0.5,1.3,0.9c0.3,0.4,0.4,0.6,0.8,0.6c0.4,0,0.6-0.2,0.9-0.5
				c0.3-0.4,0.7-0.8,1.5-0.7c0.7,0.1,1.1,0.5,1.4,0.9c0.3,0.4,0.4,0.6,0.8,0.6L11.2,70.9z"/>
		</g>
	</g>
</g>
</svg>
