<?xml version="1.0" encoding="utf-8"?>
<!-- Generator: Adobe Illustrator 19.1.0, SVG Export Plug-In . SVG Version: 6.00 Build 0)  -->
<svg version="1.1" id="Layer_1" xmlns="http://www.w3.org/2000/svg" xmlns:xlink="http://www.w3.org/1999/xlink" x="0px" y="0px"
	 viewBox="0 0 150 189.5" style="enable-background:new 0 0 150 189.5;" xml:space="preserve">
<style type="text/css">
	.st0{fill:none;stroke:#FFFFFF;stroke-width:1.7165;stroke-miterlimit:10;}
	.st1{fill:#FAF39D;}
	.st2{fill:#E0CE4B;}
	.st3{fill:#ED2387;}
	.st4{fill:#FFFFFF;}
	.st5{opacity:0.4;fill:#02929E;}
	.st6{fill:none;stroke:#02929E;stroke-width:0.955;stroke-miterlimit:10;}
	.st7{fill:#02929E;}
	.st8{fill:none;stroke:#02929E;stroke-width:1.0282;stroke-miterlimit:10;}
	.st9{fill:none;stroke:#02929E;stroke-width:1.0282;stroke-linecap:round;stroke-linejoin:round;stroke-miterlimit:10;}
	.st10{fill:#02929E;stroke:#FFFFFF;stroke-width:1.0282;stroke-miterlimit:10;}
	.st11{fill:#02929E;stroke:#FFFFFF;stroke-width:1.1525;stroke-miterlimit:10;}
	.st12{fill:#FFFFFF;stroke:#02929E;stroke-width:0.8881;stroke-miterlimit:10;}
	.st13{fill:none;stroke:#02929E;stroke-width:0.9457;stroke-miterlimit:10;}
</style>
<g>
	<path class="st0" d="M3.5,181.7"/>
	<path class="st1" d="M147.1,70"/>
	<circle class="st2" cx="72.8" cy="74" r="68.2"/>
	<path class="st3" d="M114,137.7c1-0.9-4.1-26.2-9.1-28.5c-5-2.3-15.6-2.6-15.6-2.6s-37.9-1.6-41.3,2.6
		c-3.4,4.2-10.5,29.5-10.5,29.5S99.5,150.5,114,137.7z"/>
	<path class="st4" d="M87.8,99.1l1.3,15.3c0,0-4.9,2-11.5,0s-6.7-3.1-6.7-3.1l2.6-16.2L87.8,99.1z"/>
	<polygon class="st5" points="87.8,99.1 88.4,106.6 72.8,99.1 73.5,95.2 	"/>
	<path class="st4" d="M95.1,61.5l3.6,30c0,0-8.4,11.4-17.8,10.3c-7.3-0.9-12.3-4.3-16.2-10c-3.9-5.7-4-6.6-4-6.6s-1.7,1.9-3.8,0.8
		c-2.1-1-4.1-5.1-3.5-6.7s4-0.8,4-0.8S57.9,59,61.7,56C65.5,53.1,95.1,61.5,95.1,61.5z"/>
	<path class="st6" d="M82.5,71.1c0.5,0.7,6.1,11.9,5.2,12.2c-0.8,0.3-3.7,0.6-3.7,0.6"/>
	<circle class="st7" cx="90.6" cy="72.4" r="1.3"/>
	
		<ellipse transform="matrix(-0.9975 -7.109155e-02 7.109155e-02 -0.9975 145.8627 156.8834)" class="st7" cx="75.7" cy="75.8" rx="1.5" ry="1.6"/>
	<path class="st8" d="M93.2,67.8c0,0,0-1.2-2.4-1.4c-1.7-0.2-2.4,1.8-2.4,1.8"/>
	<path class="st8" d="M75.2,70.7c-0.6-0.8-3.4-2.2-4.4,2.3"/>
	<path class="st7" d="M63.9,57.1l15.9,3.8l-2.3-2.2c0,0,7.6,2.1,12.9,2.8c6.5,0.9,12.9-0.9,12.9-0.9s-2.7-9.3-9.2-13.6
		c-2.4-1.6-7-4.3-13.3-4.2c-2.5,0-8.6,0.3-8.6,0.3s4.4-2.5,3.9-2.5c-8.5-0.6-17.1,2.6-21.3,8.9c-7.9,11.7-0.9,27.6-0.7,28.5
		c0.2,0.9,4.4,1,4.4,1s7.6-4.2,6.8-11.8S63.9,57.1,63.9,57.1z"/>
	<path class="st9" d="M81.7,87.7c0,0,3.2,0,5-0.6c1.8-0.6,2.6-0.8,2.6-0.8s-1.1,4-3.5,3.7C83.5,89.9,81.7,87.7,81.7,87.7z"/>
	<path class="st10" d="M55.2,32.8v5.7l-4.4-5.7c0,0-21.5,2.4-21.9-8.1S27.4,3.6,42,2.5s21.2,0.9,23.2,6.3c2,5.5,3.5,15.5,0,18.6
		C61.7,30.6,55.2,32.8,55.2,32.8z"/>
	<path class="st11" d="M85.5,32.4V40l3.9-4.2c0,0,11,1,16.2-3.4s7.4-16.2,2.2-21.3S89.5,2.7,82.3,9.6S76.7,27.3,85.5,32.4z"/>
	<g>
		<g>
			<path class="st4" d="M92.8,15c0.2,3.2,0,6.4-0.8,9.6c-0.2,0.8,1,1.1,1.2,0.3c0.8-3.3,1.1-6.6,0.8-9.9
				C93.9,14.2,92.7,14.2,92.8,15L92.8,15z"/>
		</g>
	</g>
	<g>
		<g>
			<path class="st4" d="M96.7,12.9c0,4-0.2,7.9-0.7,11.9c-0.1,0.8,1.1,0.8,1.2,0c0.5-3.9,0.8-7.9,0.7-11.9
				C97.9,12.1,96.6,12.1,96.7,12.9L96.7,12.9z"/>
		</g>
	</g>
	<g>
		<g>
			<path class="st4" d="M95.1,28.4c0.8,0,0.8-1.2,0-1.2C94.3,27.2,94.3,28.4,95.1,28.4L95.1,28.4z"/>
		</g>
	</g>
	<g>
		<g>
			<path class="st4" d="M91.4,28.4c0.8,0,0.8-1.2,0-1.2C90.6,27.2,90.6,28.4,91.4,28.4L91.4,28.4z"/>
		</g>
	</g>
	<g>
		<path class="st10" d="M35.7,61.2l5.5,3.5h-7.9c0,0-4.6,8.3-13.8,3.9S5.1,58.4,7.3,50.2S16.9,36,24,36.4S44.9,43.4,35.7,61.2z"/>
		<g>
			<g>
				<path class="st4" d="M15.7,51c1,1.2,1.5,2.1,1.3,3.7c-0.1,1.2-0.2,2.4,0,3.5c0.2,1.4,0.8,2.6,2.2,3.2c2.8,1.2,5.2-1.6,4.4-4.3
					c-0.2-0.7-1.4-0.4-1.2,0.3c0.6,2.1-1.8,4.1-3.5,2.4c-1.2-1.1-0.9-3.6-0.7-5.1c0.1-0.7,0.4-1.6,0.2-2.2c-0.2-0.9-1.3-1.8-1.9-2.4
					C16,49.6,15.2,50.4,15.7,51L15.7,51z"/>
			</g>
		</g>
		<g>
			<g>
				<path class="st4" d="M19.5,48.9c0.7-1.5,3.3-4.6,4.8-2.3c0.8,1.2,0.7,2.1,0,3.2c-1.2,1.8-1.1,3.1,0.6,4.6
					c0.6,0.5,1.4-0.3,0.9-0.9c-1.9-1.7-0.6-2.3,0.2-4c0.5-1.1,0.1-2.1-0.4-3.1c-0.6-1.3-1.3-2.1-2.9-1.8c-1.9,0.5-3.4,2-4.2,3.7
					C18.2,49,19.2,49.6,19.5,48.9L19.5,48.9z"/>
			</g>
		</g>
		<g>
			<g>
				<path class="st4" d="M27.6,56.4c0.8,0,0.8-1.2,0-1.2C26.9,55.2,26.9,56.4,27.6,56.4L27.6,56.4z"/>
			</g>
		</g>
		<g>
			<g>
				<path class="st4" d="M13.9,48.4c0.8,0,0.8-1.2,0-1.2C13.1,47.2,13.1,48.4,13.9,48.4L13.9,48.4z"/>
			</g>
		</g>
	</g>
	<path class="st3" d="M38.7,134.9c0,0-3.1,12.5-3.4,16.6c0,0,3.4,24.4,16.5,15S75,143.2,77,134.9s3.3-14.9,3.3-14.9s-8.4,1.8-9.7,0
		c-1.3-1.8-15.6,18.7-15.6,18.7L38.7,134.9z"/>
	<path class="st12" d="M66.1,121.3c0,0,7.5-12.5,7.8-13.6s8.4-10.5,9.7-9.8c1.2,0.6-4.4,10.2-4.4,10.2s5,0.8,5.2,5.1
		c0.1,4.3-10.6,10.8-10.6,10.8l-2.8-0.8L66.1,121.3z"/>
	<path class="st4" d="M82.4,163.2c0,0-6.6,6-7.4,7.1s-2,8-1.9,9.2c0.1,1.3,0.9,2.9,1.4,2.3c0.5-0.7,2.1-8.3,2.1-8.3l1.1-0.9
		c0,0-1.8,8.6-1.6,9.9c0.2,1.3,0.5,2,1.1,1.9c0.7-0.1,1-0.1,1.2-0.7c0.2-0.6,2.1-10.6,2.3-10.8c0.2-0.2,0.5,0.1,0.5,0.5
		c0,0.4-2.3,12.6-1.9,12.8s1.5,0.9,1.8,0.3c0.3-0.5,2-8.1,2.3-9.6c0.3-1.5,0.9-3.9,0.9-3.9s-1,11.2-0.6,11.8s1.5,0.9,1.9,0.2
		s1.4-11,1.8-12.2c0.4-1.2,1.9-6.3,2.5-7c0.6-0.7-7.8-3.5-7.8-3.5"/>
	<path class="st3" d="M99.5,137.3c0,0-0.8,8.5-7.1,15.7c-6.3,7.1-12.6,12.6-12.6,12.6s7.8,0.3,9.9,1.2c3.3,1.5,3.5,3.3,3.5,3.3
		s14.3-14.8,17.2-18.5c2.9-3.8,3.4-12.9,1.7-18.6"/>
	<g>
		<g>
			<path class="st4" d="M44.4,12.8c-1.3-2.9,2.7-5.1,5.1-4.2c3.9,1.4,2.4,5.6,0.4,7.5c-1.5,1.5-3,2.9-2.7,5.2c0.1,0.8,1.3,0.8,1.2,0
				c-0.4-3.5,4.2-4.8,4.7-8.1c0.3-2-0.5-4.5-2.4-5.5c-3.7-1.9-9.3,1.4-7.3,5.7C43.7,14.1,44.8,13.5,44.4,12.8L44.4,12.8z"/>
		</g>
	</g>
	<g>
		<g>
			<path class="st4" d="M48,25.4c0,0-0.1,0-0.1,0c-0.1-0.1-0.1-0.3-0.2-0.4c0,0,0,0.1,0,0.1c0.1,0.8,1.3,0.8,1.2,0
				c-0.1-0.4-0.2-0.7-0.6-0.8C47.6,24,47.3,25.1,48,25.4L48,25.4z"/>
		</g>
	</g>
	<path class="st13" d="M70.1,107c0,0-20.2-1.7-22,2.4c-10,22.6-12.9,41.4-12.8,42.3c0.2,1,3,14.2,6.9,15.7s6.6,3.8,16.9-6.6
		c10.3-10.4,13.9-14,14.9-20.6c1-6.6,1.3-16,1.3-16l-10.6-2.4c0,0-7.2,17.6-11.4,22.7c-4.2,5.1-5.3,6.3-5.3,6.3"/>
	<path class="st13" d="M89.3,106.6c0,0,13-0.3,15.6,2.6c2.5,2.9,7.2,14,8.2,22.6c1,8.6,1.9,14.9-1.2,18.8c-3.1,3.8-19,20.7-19,20.7
		s0.7-3.2-3.7-4.8c-4.4-1.6-8.9-1.5-8.9-1.5s12.7-11.8,16.4-18.8c3.7-7,2.1-16.2,2.1-16.2"/>
</g>
</svg>
