<?xml version="1.0" encoding="utf-8"?>
<!-- Generator: Adobe Illustrator 19.1.0, SVG Export Plug-In . SVG Version: 6.00 Build 0)  -->
<svg version="1.1" xmlns="http://www.w3.org/2000/svg" xmlns:xlink="http://www.w3.org/1999/xlink" x="0px" y="0px"
	 viewBox="0 0 180.7 185.3" style="enable-background:new 0 0 180.7 185.3;" xml:space="preserve">
<style type="text/css">
	.st0{fill:#00AEEF;}
	.st1{clip-path:url(#SVGID_2_);}
	.st2{fill:#FAF39D;}
	.st3{fill:#02929E;}
	.st4{fill:#E3DBC3;}
	.st5{opacity:0.67;clip-path:url(#SVGID_2_);}
	.st6{fill:#C52375;}
	.st7{display:none;}
	.st8{display:inline;}
	.st9{clip-path:url(#SVGID_4_);fill:#E6E8EA;}
	.st10{clip-path:url(#SVGID_4_);fill:#E3DBC3;}
	.st11{opacity:0.4;clip-path:url(#SVGID_4_);fill:#02929E;}
	.st12{clip-path:url(#SVGID_4_);fill:#02929E;}
	.st13{clip-path:url(#SVGID_4_);fill:#2C2827;}
	.st14{clip-path:url(#SVGID_4_);fill:#B6B9BB;}
	.st15{clip-path:url(#SVGID_4_);fill:#94999B;}
	.st16{clip-path:url(#SVGID_4_);fill:#A7A9AC;}
	.st17{clip-path:url(#SVGID_4_);fill:#9E1F63;}
	.st18{clip-path:url(#SVGID_4_);fill:none;stroke:#02929E;stroke-width:1.296;stroke-miterlimit:10;}
	.st19{clip-path:url(#SVGID_4_);}
	.st20{fill:#2C2827;}
	.st21{fill:#B6B9BB;}
	.st22{clip-path:url(#SVGID_4_);fill:#9AC3C1;}
	.st23{clip-path:url(#SVGID_4_);fill:#9E9EA1;}
	.st24{clip-path:url(#SVGID_4_);fill:#CED1D3;}
	.st25{clip-path:url(#SVGID_4_);fill:#B3B7BA;}
	.st26{clip-path:url(#SVGID_6_);fill:#E0CE4B;}
	.st27{clip-path:url(#SVGID_6_);fill:#00AEEF;}
	.st28{clip-path:url(#SVGID_6_);fill:#0A7393;}
	.st29{opacity:0.22;clip-path:url(#SVGID_6_);fill:#5D5E5E;}
	.st30{clip-path:url(#SVGID_6_);fill:#5D5E5E;}
	.st31{clip-path:url(#SVGID_6_);fill:#95D8EA;}
	.st32{clip-path:url(#SVGID_6_);fill:#FFFFFF;}
	.st33{clip-path:url(#SVGID_6_);fill:#E3DBC3;}
	.st34{clip-path:url(#SVGID_6_);fill:#ED2387;}
	.st35{display:inline;fill:#00AEEF;}
	.st36{clip-path:url(#SVGID_8_);fill:none;}
	.st37{clip-path:url(#SVGID_8_);fill:#C52375;}
	.st38{clip-path:url(#SVGID_8_);}
	.st39{opacity:0.19;}
	.st40{opacity:0.4;fill:#02929E;}
	.st41{clip-path:url(#SVGID_10_);fill:#C52375;}
	.st42{clip-path:url(#SVGID_10_);fill:#FFFFFF;}
	.st43{clip-path:url(#SVGID_10_);}
	
		.st44{clip-path:url(#SVGID_10_);fill:none;stroke:#02929E;stroke-width:1.249;stroke-linecap:round;stroke-linejoin:round;stroke-miterlimit:10;}
	.st45{clip-path:url(#SVGID_10_);fill:#E3DBC3;}
	.st46{clip-path:url(#SVGID_10_);fill:#00AEEF;}
	.st47{clip-path:url(#SVGID_12_);fill:#E0CE4B;}
	.st48{clip-path:url(#SVGID_12_);fill:#81184D;}
	.st49{clip-path:url(#SVGID_12_);fill:#C52375;}
	.st50{clip-path:url(#SVGID_12_);fill:#02929E;}
	.st51{clip-path:url(#SVGID_12_);fill:#FFFFFF;}
	.st52{clip-path:url(#SVGID_12_);fill:none;stroke:#02929E;stroke-width:0.4243;stroke-miterlimit:10;}
	.st53{clip-path:url(#SVGID_12_);fill:#E3DBC3;}
	.st54{clip-path:url(#SVGID_14_);fill:#02929E;}
	.st55{clip-path:url(#SVGID_14_);fill:#C52375;}
	.st56{clip-path:url(#SVGID_14_);fill:#00AEEF;}
	.st57{opacity:0.65;clip-path:url(#SVGID_14_);fill:#FFFFFF;}
	.st58{opacity:0.4;clip-path:url(#SVGID_14_);}
	.st59{clip-path:url(#SVGID_14_);fill:none;}
	.st60{clip-path:url(#SVGID_14_);fill:#FFFFFF;}
	.st61{clip-path:url(#SVGID_14_);}
	.st62{fill:#FFFFFF;}
	.st63{opacity:0.4;}
	.st64{fill:none;}
	.st65{display:inline;fill:#C52375;}
	.st66{clip-path:url(#SVGID_16_);fill:#E3DBC3;}
	.st67{opacity:0.67;clip-path:url(#SVGID_16_);fill:#E3DBC3;}
	.st68{clip-path:url(#SVGID_16_);fill:#FFFFFF;}
	.st69{clip-path:url(#SVGID_16_);fill:#E0CE4B;}
	.st70{clip-path:url(#SVGID_16_);fill:#00AEEF;}
	.st71{clip-path:url(#SVGID_16_);}
</style>
<g id="Layer_1">
	<g>
		<g>
			<circle class="st0" cx="85.8" cy="92.3" r="82.2"/>
		</g>
		<g>
			<defs>
				<path id="SVGID_1_" d="M175.9,31.2l-4.2-17.5L150.4-1L111.8-6c0,0-5.2,8.3-10.9,17.3c-4.5-0.8-9.1-1.2-13.8-1.2
					C41.8,10.1,5,46.8,5,92.2s36.8,82.2,82.2,82.2s82.2-36.8,82.2-82.2c0-8.5-1.3-16.8-3.7-24.5l10.3-10.5V31.2z"/>
			</defs>
			<clipPath id="SVGID_2_">
				<use xlink:href="#SVGID_1_"  style="overflow:visible;"/>
			</clipPath>
			<g class="st1">
				<circle class="st2" cx="130.6" cy="42" r="36.8"/>
			</g>
			<g class="st1">
				<path class="st3" d="M141.5,72c-2.6,0-5-0.1-5.1-0.1l-0.4,0l-0.1-0.4c0-0.1-1.9-8.9-5-14.7c-0.3-0.6-0.6-1.1-0.9-1.7
					c-2.7-5-5-9.3-16.1-21.7l-0.1-0.1l0-0.2c0-0.3-0.3-7.1,2.7-11.2c3-4.2,6.3-5.7,6.5-5.7l0.3-0.1l0.2,0.2
					c0.1,0.1,8.8,7.5,12.7,12.5c3.6,4.6,12,15.3,14.7,26.7c2.6,11,2.8,12.8,2.8,12.9l0,0.3l-0.2,0.2c-0.2,0.1-4.5,2.9-8.1,3.1
					C144.2,72,142.8,72,141.5,72z M136.8,71c1.3,0,5.6,0.2,8.5,0c2.8-0.2,6.4-2.2,7.4-2.8c-0.1-0.8-0.7-3.7-2.8-12.5
					c-2.6-11.2-10.9-21.8-14.5-26.4c-3.5-4.5-10.9-10.9-12.3-12.1c-0.8,0.4-3.4,2-5.8,5.3c-2.5,3.5-2.6,9.4-2.5,10.5
					c11.1,12.4,13.5,16.7,16.2,21.8c0.3,0.5,0.6,1.1,0.9,1.7C134.6,61.6,136.4,69.2,136.8,71z"/>
			</g>
			<g class="st1">
				<path class="st3" d="M152.8,69.1l-0.1-0.6c0-0.1-1.4-8.5-4.2-17.4c-2.2-7-7.3-14.3-11.1-19.2c-2.7-3.5-11.2-12-11.3-12.1
					l-3.6-3.2l0.5-0.3c0.2-0.2,5.1-3.7,7-4.8l2.1-1.2l0.2,0.1c0.1,0.1,10.1,5.4,16.6,13.6l0.3,0.3c5.8,7.3,7.3,9.2,10.8,18.4
					c2.8,7.3,2.9,17.3,2.9,17.4l0,0.2l-0.1,0.1c-0.5,0.7-5.3,6.4-6.9,7.1c-1.5,0.7-2.5,1.2-2.6,1.2L152.8,69.1z M123.9,16.7l2.8,2.5
					c0.4,0.4,8.7,8.7,11.4,12.2c3.9,4.9,9,12.3,11.3,19.5c2.4,7.6,3.8,14.8,4.1,16.9c0.5-0.2,1.2-0.6,2.1-1c1.1-0.5,4.4-4.2,6.5-6.8
					c0-1.3-0.3-10.2-2.9-16.9c-3.5-9-5-10.9-10.7-18.1l-0.3-0.3c-5.9-7.4-14.6-12.4-16.1-13.3l-1.7,0.9
					C128.8,13.1,125.2,15.7,123.9,16.7z"/>
			</g>
			<g class="st1">
				<path class="st3" d="M105.2,68.8c-0.1,0-0.2,0-0.3,0l0-0.9c0.1,0,9.2,0.1,15.4-3.1c6.2-3.3,11-7.8,11.1-7.9l0.6,0.7
					c0,0-5,4.7-11.3,8C114.9,68.7,106.8,68.8,105.2,68.8z"/>
			</g>
			<g class="st1">
				<path class="st3" d="M100.1,38.4c0-0.1,0.1-13.5,10-23.4c5.4-5.5,12.9-9.4,12.9-9.4l0.4,0.8c-0.1,0-7.4,3.9-12.7,9.3
					c-9.6,9.7-9.7,22.7-9.7,22.8H100.1z"/>
			</g>
			<g class="st1">
				<path class="st3" d="M166.3,39.6c-1.2-9.2-6.4-16.1-9.8-20.6c-3.8-4.9-12.1-9.6-12.1-9.7l0.5-0.8c0.3,0.2,8.6,4.8,12.4,9.9
					c3.5,4.6,8.8,11.6,10,21.1L166.3,39.6z"/>
			</g>
			<g class="st1">
				<path class="st3" d="M119.7,76.5c-0.5,0-0.9,0-0.9,0l0-0.9c0.1,0,5.1,0.2,9.4-1.2c4.3-1.4,7.9-3.4,7.9-3.4l0.4,0.8
					c0,0-3.7,2.1-8.1,3.5C125.2,76.4,121.4,76.5,119.7,76.5z"/>
			</g>
			<g class="st1">
				<path class="st4" d="M49.5,167.3c0,0,34.5-58.8,35.3-60.2c0.8-1.4,5.9-2.6,7.4-7s0.1-15-3.8-23.8c-4.1-9.1-3.6-10.1-3.6-10.1
					s-1.8-20.5-2.8-22.4s-3.6-1.6-3.6-1.6l-0.4,22.2c0,0-3.9-32.1-7.6-32.9c-4.6-1-3.8,3.4-3.8,3.4s1.2,10,2.4,13.8
					c1.2,3.8,2.9,15,2.9,15l-3.5-11.1c0,0-3.7-13.4-4.7-15.8c-1-2.4-3.1-4.2-4.2-3.7c-2.3,1.1-1.9,4.5-1.9,4.5l7.2,27.3
					c0,0,0.4-1.2-1.4-3.1s-8.2-25.7-9.2-27.3c-1-1.6-3.2-1.4-4.7,1.6c-1.5,3,4.5,21.2,5.3,23.4c0.8,2.2,5.5,17.1,5.5,17.1
					s-1.1,1-2.7-1.2s-7.4-10.8-8.8-11.1c-1.4-0.3-3,3.1-2.4,6.9s6.6,12.4,8.8,15.2c2.2,2.8,13.2,13,13.2,13l-36,52.6
					C32.4,152.1,32.2,168.1,49.5,167.3z"/>
			</g>
			<g class="st5">
				<path class="st4" d="M61.7,69.4c0,0,2.1-2.7,9.3-4.4c7.2-1.7,11.2,2.2,11.2,2.2S71.7,64.3,61.7,69.4z"/>
			</g>
			<g class="st1">
				<path class="st6" d="M23.2,148.3l24.9-25.8c0,0,1.5,5.6,11.3,10.2s10.7,4.8,10.7,4.8l-14.5,34C55.6,171.4,26.3,172.7,23.2,148.3
					z"/>
			</g>
			<g class="st5">
				<path class="st4" d="M78.2,89.7c0,0-0.4-5.8-6.7-9.5c-6.3-3.8-11.2-3.5-11.2-3.5S73.9,81,78.2,89.7z"/>
			</g>
			<g class="st1">
				<path class="st3" d="M94,41.5l-0.4-0.8c0.1,0,8.2-4,21-7.5l0.2,0.9C102.1,37.5,94.1,41.5,94,41.5z"/>
			</g>
			<g class="st1">
				<path class="st3" d="M96.9,56.1c-0.3,0-0.5,0-0.6,0l0.1-0.9c0.1,0,5.1,0.3,14.2-2.8c9.2-3.1,13.5-7.2,13.6-7.2l0.6,0.7
					c-0.2,0.2-4.6,4.2-13.9,7.4C103.3,55.8,98.5,56.1,96.9,56.1z"/>
			</g>
			<g class="st1">
				<path class="st2" d="M106,17.8c0,0-13.5,13.8-8.6,30.1c4.9,16.3,12.4,23.5,18.3,25.8s17.5,3.4,23.6,2.3c6.2-1.1,14.1-6,14.9-7.7
					c0.8-1.6,4.1-13.7-17.8-8.8S131.7-1.8,106,17.8z"/>
			</g>
		</g>
	</g>
</g>
<g id="Layer_2" class="st7">
	<g class="st8">
		<circle class="st6" cx="84.4" cy="92.7" r="82.2"/>
		<g>
			<defs>
				<path id="SVGID_3_" d="M181.4,64.1l-1.4-24l-2.5-8.2h-38.2c-14.6-13.2-34-21.3-55.2-21.3C38.8,10.5,2,47.3,2,92.7
					s36.8,82.2,82.2,82.2c17.4,0,27.1-1.3,40.4-10.6c0,0,22.2,13.6,42.8-4.3c11.3-9.9,18.6-55.1,19.2-57
					C187.2,101.1,181.4,64.1,181.4,64.1z"/>
			</defs>
			<clipPath id="SVGID_4_">
				<use xlink:href="#SVGID_3_"  style="overflow:visible;"/>
			</clipPath>
			<path class="st9" d="M36.7,164.5c-5.2-3.4,5.7-56.5,11.6-59.2s29.3-4.9,29.3-4.9s52.6-2.2,56.6,2.8c4,5,6.1,58,6.1,58
				S83,194.5,36.7,164.5z"/>
			<path class="st10" d="M79.1,90.6l-1.6,20.8c0,0,6.7,2.6,15.5-0.1s9.1-4.3,9.1-4.3l-3.7-22L79.1,90.6z"/>
			<polygon class="st11" points="79.1,90.6 78.3,100.7 99.2,90.5 98.3,85.1 			"/>
			<path class="st10" d="M68.5,41.3l-5.2,19.7l0.2,25.4c0,0,11.5,7.2,23.3,5.6c9.2-1.2,15.4-5.5,20.3-12.7c4.9-7.2,5-8.3,5-8.3
				s2.2,2.3,4.8,1c2.6-1.3,5.1-6.5,4.3-8.5c-0.8-2-5.1-1-5.1-1s-0.8-24.6-5.6-28.3C105.7,30.4,68.5,41.3,68.5,41.3z"/>
			<path class="st12" d="M107.7,35.5c0,0-10.8,2.6-20,4.4s-29.5,0.5-29.5,0.5s3.3-11.8,11.5-17.2s36.3-10.8,46.4,3.9
				s4.2,28.3,4,29.4c-0.2,1.1-5.1,6.6-5.1,6.6s-9.7-5.2-8.7-14.8C107.2,38.6,107.7,35.5,107.7,35.5z"/>
			<path class="st13" d="M99.9,92.1c0,0,9.1,5.2,11.6,21.9c2.6,16.7,3.9,31.1,3.2,40s-1.2,10.6-1.2,10.6l-2.5-0.6
				c0,0,1.5-25.4-0.3-34s-3.2-23.9-5.3-27.2c-2.1-3.3-5.4-7.2-5.4-7.2L99.9,92.1z"/>
			<circle class="st14" cx="110.7" cy="167.2" r="5.3"/>
			<path class="st15" d="M109.8,161.6c0,0-1,2.4-0.8,4.7s1,3.5,2.6,3s2.9-3.8,3.3-5.2S112.4,160.4,109.8,161.6z"/>
			<path class="st16" d="M96.2,113.9c1.5-0.8,4.6-17.4,4.6-17.4l8,4.1l-3.8,13.6L96.2,113.9z"/>
			<polygon class="st16" points="78.3,100.7 82.3,113.7 75.1,115.9 74.1,100.6 78.7,96.6 			"/>
			<path class="st17" d="M84,109.7c1.5-0.6,3.6-1.3,5.9-1.3c2.3,0,1.5,5,0.9,6.8s-4.8,1.6-4.8,1.6S81.8,110.5,84,109.7z"/>
			<path class="st17" d="M85.9,118.4l3.9-0.9c0,0,6.2,11.6,4.2,26.7c-2,15.2-3.9,16.3-3.9,16.3S79.5,150.4,85.9,118.4z"/>
			<path class="st18" d="M66.6,58"/>
			<path class="st16" d="M96.2,113.6c0,0-1,32.3,0.2,32s5.7-26.2,5.7-26.2L96.2,113.6z"/>
			<path class="st16" d="M82.3,113.7c0,0,1.4,32.3,0.2,32c-1.2-0.2-6-26.1-6-26.1L82.3,113.7z"/>
			<path class="st13" d="M63.1,97.4c-0.6,0.2-5.4,4.2-6.8,12.8c-1.1,6.7,1.2,15.8,1.2,15.8s0.4-0.6,1.7,0c1.3,0.5,1.4-0.8,1.4-0.8
				s-2.2-8.3-1.8-12.2c0.3-3.9,0.4-8,3.3-10.7c5.5-5.2,16.2-6.9,16.2-6.9l0.6-2.5L63.1,97.4z"/>
			<g class="st19">
				<path class="st20" d="M54.9,140l2-1.7c0,0-3.7-8.5-3.3-10.1c0.3-1.5,4.1-1.4,6.2-2.2c2.1-0.7,4.3-1.7,6.2-0.7
					c1.9,0.9,2.8,3.1,2.9,6c0.1,2.8-0.5,7.3-0.5,7.3s1.2,0.3,1.6,0.1c0.5-0.2,1.1-5.1,1-6.9c-0.1-1.9-2.3-9-5-9.7s-4.9,2.2-7.1,2.1
					c-2.2-0.1-6.4-0.4-7.4,1.4C49.5,129.2,54.9,140,54.9,140z"/>
				<path class="st21" d="M69.6,138.8c0,0-0.2,32.3-1.1,34.1c-0.9,1.8-4.3,1.8-4.8,1.8c-0.5,0,0-2.3,0-2.3s2,0.7,2.7-0.1
					s1.3-1.2,1.5-9.9c0.2-8.7,0.6-23.7,0.6-23.7L69.6,138.8z"/>
				<path class="st21" d="M56.2,138.8c0,0,20.4,26.5,22.3,27.3c1.9,0.7,4.1-1.5,5.1-2.4s2.1-2.2,2.1-2.2l0.9,1c0,0-3.5,4.6-5.2,4.8
					s-2.8,1.3-5-0.6c-2.2-1.9-21.2-27.2-21.2-27.2L56.2,138.8z"/>
				<path class="st21" d="M85,160.1c0,0-1.2,0.8-0.6,1.6c0.6,0.8,1.9,2.4,2.4,2.4c0.4,0.1,2.3-1,2.3-1S87,160.2,85,160.1z"/>
				<path class="st21" d="M62.7,171.1c0,0-1,0.5-1,2.1s0.5,2.8,0.5,2.8s1.7,0.4,2,0c0.3-0.4,0.9-3.6,1-3.9
					C65.4,171.7,62.7,171.1,62.7,171.1z"/>
			</g>
			<path class="st9" d="M171.5,129.7c-2.6,0.7-11.6,1.5-17.9-0.5c-6.3-2-8.2-2.4-8.2-2.4l-10.9,18.6l-4.4-1.1l-12,20.3
				c0,0,27,6.4,35.7-3.9C162.6,150.4,171.5,129.7,171.5,129.7z"/>
			<path class="st22" d="M161.4,90.7c-0.3,0.1-13,16.2-11.6,26.8c1.4,10.7,22.2-9.2,22.2-9.2l3.8-10.7l-2.5-5.5L161.4,90.7z"/>
			<path class="st23" d="M159.2,93.6c0,0-12.2,0.6-12.4-0.4c-0.3-1-1.4-37.2-1.4-42.7c-0.1-5.5-0.9-12-0.5-12.6
				c0.4-0.6,22.7-0.6,23.7,0.1c1,0.7,1.9,55.8,1,56C168.7,94.4,159.2,93.6,159.2,93.6z"/>
			<path class="st10" d="M164.1,130.7l3.3-5.2c0,0,9.3-15.5,10.6-19.9c1.2-4.4-2.9-17.3-4.6-17.8s-14.9-2.7-17.7,0.2
				c-2.8,2.8,13.1,5.2,13.1,5.2s-13.1,6.9-14.1,9.5c-0.9,2.5,3.2,2.6,3.2,2.6s-3.5,2.6-1.4,4.7c2.1,2.2,2.4,0.9,2.4,0.9l12.9-7.9
				c0,0-21.1,11.7-21.9,14.5s-0.6,9.4-0.3,10.4C150.6,131.6,164.1,130.7,164.1,130.7z"/>
			<ellipse class="st24" cx="153" cy="46.3" rx="3.5" ry="3.7"/>
			<ellipse class="st9" cx="153.8" cy="46.2" rx="3.5" ry="3.7"/>
			<path class="st25" d="M150.8,46.8c0,0,0.2-0.4,2.9-0.8c2.7-0.4,3.2-0.5,3.2-0.5S154.6,47,150.8,46.8z"/>
			<ellipse class="st24" cx="162.6" cy="46.3" rx="3.5" ry="3.7"/>
			<ellipse class="st9" cx="163.5" cy="46.2" rx="3.5" ry="3.7"/>
			<path class="st25" d="M160.5,46.8c0,0,0.2-0.4,2.9-0.8c2.7-0.4,3.2-0.5,3.2-0.5S164.2,47,160.5,46.8z"/>
			<ellipse class="st24" cx="153" cy="58" rx="3.5" ry="3.7"/>
			<ellipse class="st9" cx="153.8" cy="57.9" rx="3.5" ry="3.7"/>
			<path class="st25" d="M150.8,58.5c0,0,0.2-0.4,2.9-0.8c2.7-0.4,3.2-0.5,3.2-0.5S154.6,58.7,150.8,58.5z"/>
			<ellipse class="st24" cx="162.6" cy="58" rx="3.5" ry="3.7"/>
			<ellipse class="st9" cx="163.5" cy="57.9" rx="3.5" ry="3.7"/>
			<path class="st25" d="M160.5,58.5c0,0,0.2-0.4,2.9-0.8c2.7-0.4,3.2-0.5,3.2-0.5S164.2,58.7,160.5,58.5z"/>
			<ellipse class="st24" cx="153" cy="69.7" rx="3.5" ry="3.7"/>
			<ellipse class="st9" cx="153.8" cy="69.6" rx="3.5" ry="3.7"/>
			<path class="st25" d="M150.8,70.2c0,0,0.2-0.4,2.9-0.8c2.7-0.4,3.2-0.5,3.2-0.5S154.6,70.4,150.8,70.2z"/>
			<ellipse class="st24" cx="162.6" cy="69.7" rx="3.5" ry="3.7"/>
			<ellipse class="st9" cx="163.5" cy="69.6" rx="3.5" ry="3.7"/>
			<path class="st25" d="M160.5,70.2c0,0,0.2-0.4,2.9-0.8c2.7-0.4,3.2-0.5,3.2-0.5S164.2,70.4,160.5,70.2z"/>
			<ellipse class="st24" cx="153" cy="81.4" rx="3.5" ry="3.7"/>
			<ellipse class="st9" cx="153.8" cy="81.3" rx="3.5" ry="3.7"/>
			<path class="st25" d="M150.8,81.9c0,0,0.2-0.4,2.9-0.8c2.7-0.4,3.2-0.5,3.2-0.5S154.6,82.1,150.8,81.9z"/>
			<ellipse class="st24" cx="162.6" cy="81.4" rx="3.5" ry="3.7"/>
			<ellipse class="st9" cx="163.5" cy="81.3" rx="3.5" ry="3.7"/>
			<path class="st25" d="M160.5,81.9c0,0,0.2-0.4,2.9-0.8c2.7-0.4,3.2-0.5,3.2-0.5S164.2,82.1,160.5,81.9z"/>
		</g>
	</g>
</g>
<g id="Layer_3" class="st7">
	<g class="st8">
		<g>
			<defs>
				<path id="SVGID_5_" d="M161.4,123.8c4.8-10.4,7.4-22,7.4-34.1c0-45.4-36.8-82.2-82.2-82.2C41.3,7.5,4.5,44.3,4.5,89.6
					s36.8,82.2,82.2,82.2c8.5,0,16.7-1.3,24.4-3.7c8.7,6.5,21.5,15.8,22.5,16.5c1.4,0.9,50.6-15,50.6-15L161.4,123.8z"/>
			</defs>
			<clipPath id="SVGID_6_">
				<use xlink:href="#SVGID_5_"  style="overflow:visible;"/>
			</clipPath>
			<circle class="st26" cx="86.7" cy="89.6" r="82.2"/>
			<path class="st27" d="M20.3,145.3c0.2-0.7,19.3-44.8,19.3-44.8h93.9l20.5,44.8H20.3z"/>
			<polygon class="st28" points="20.3,145.3 21.7,150.7 150.9,150.7 154,145.3 			"/>
			<polyline class="st29" points="39.6,100.5 133.5,100.5 140.7,116.2 23.3,138.3 39.6,100.5 			"/>
			<polygon class="st30" points="44.1,106.6 128.7,105.4 136.6,127.5 35.6,125.4 			"/>
			<path class="st31" d="M78.1,130.7c-0.2,0.7-3.7,11.7-3.7,11.7h28.5l-2.2-11.7H78.1z"/>
			<path class="st28" d="M40.8,99.7c0-1.2-1.2-65-1.2-65h97l-3.1,65.7L40.8,99.7z"/>
			<path class="st27" d="M39.6,100.5c0-1.7,1.2-63.2,1.2-63.2h92.7v63.2H39.6z"/>
			<polygon class="st32" points="44.1,41.6 44.1,93.8 128.2,92 129.9,41.6 			"/>
			<path class="st33" d="M11.9,154.9c0,0,8.9-10.6,10.2-12.4c1.3-1.7,0,0.9,1.4-0.1s3.7-5.9,3.7-5.9l4.4-11.4c0,0-1-8.7,0-10.3
				c1-1.6,4.9-1.6,4.9-1.6v4.1c0,0,1.1-7.3,1.7-8.1c0.6-0.8,1.1-1.9,3.5-2.1c2.4-0.2,3.2,1.3,3.2,1.3v5.6c0,0,1.6-7.8,2.7-8.6
				c1.1-0.8,3.7-1.3,5.2,0c1.6,1.3,2.6,5.2,2.4,5.7s-1.3,3.4-1.3,3.4s9.3-5.6,10.8-5.4s1.5,1.8,1.5,3.1s-7.1,7.4-7.1,7.4v7
				c0,0,7.3-4.9,8.1-5.4c0.8-0.5,3.8-1.9,5.6-1.9c1.7,0,2.4,0.6,3,1.6c0.6,1-6.2,8.3-7.9,9.9c-1.7,1.6-13.3,11-16.5,11.8
				c-3.2,0.8-6.4,2-6.4,2l-7.8,10.5H11.9z"/>
			<path class="st33" d="M118.9,157.1c0,0-13.7-7.8-14.9-8.4s-7.5-4.4-9.7-8.4c-2.2-4-7.1-8.1-7.6-10.6c-0.5-2.5,3-2.8,4.7-2
				c1.7,0.8,7.1,6.7,8.1,7s3.5,1.1,4.4-0.6c1-1.7,0-9.5-0.3-10.5c-0.3-1-18.3-6.5-18.7-7.1c-0.3-0.6,0.3-2.5,1.7-3.2
				c1.4-0.6,14.3,1.2,14.3,1.2l4.8,0.5v-0.8l-13.5-1.7c0,0,4.7-3.1,6.2-3.5c3.1-0.7,12.9,1,12.9,1c3.2,1.5,4.2,3.9,4.2,3.9
				s-1.3-5.1,1.1-5.1c5.8-0.1,7,7.5,7,7.5s0-5.1,1.5-5.1c5.6-0.1,6.3,8.3,7.4,10c1.1,1.7,9.2,24.5,9.2,24.5s5.5,4.9,8.2,7.2
				c2.7,2.3,4.1,3.8,4.7,4.1c0.6,0.3-25.5,2.9-25.5,2.9L118.9,157.1z"/>
			<polygon class="st26" points="120.5,86.8 53.5,84.4 53.5,50.2 120.5,50.2 			"/>
			<path class="st32" d="M98.9,61H63c-0.4,0-0.7-0.3-0.7-0.7v-0.2c0-0.4,0.3-0.7,0.7-0.7h35.9c0.4,0,0.7,0.3,0.7,0.7v0.2
				C99.6,60.7,99.3,61,98.9,61z"/>
			<path class="st32" d="M98.9,65H63c-0.4,0-0.7-0.3-0.7-0.7v-0.2c0-0.4,0.3-0.7,0.7-0.7h35.9c0.4,0,0.7,0.3,0.7,0.7v0.2
				C99.6,64.7,99.3,65,98.9,65z"/>
			<path class="st32" d="M98.9,69.1H63c-0.4,0-0.7-0.3-0.7-0.7v-0.2c0-0.4,0.3-0.7,0.7-0.7h35.9c0.4,0,0.7,0.3,0.7,0.7v0.2
				C99.6,68.8,99.3,69.1,98.9,69.1z"/>
			<path class="st32" d="M98.9,69.1H63c-0.4,0-0.7-0.3-0.7-0.7v-0.2c0-0.4,0.3-0.7,0.7-0.7h35.9c0.4,0,0.7,0.3,0.7,0.7v0.2
				C99.6,68.8,99.3,69.1,98.9,69.1z"/>
			<path class="st32" d="M98.9,73.2H63c-0.4,0-0.7-0.3-0.7-0.7v-0.2c0-0.4,0.3-0.7,0.7-0.7h35.9c0.4,0,0.7,0.3,0.7,0.7v0.2
				C99.6,72.9,99.3,73.2,98.9,73.2z"/>
			<path class="st32" d="M98.9,77.2H63c-0.4,0-0.7-0.3-0.7-0.7v-0.2c0-0.4,0.3-0.7,0.7-0.7h35.9c0.4,0,0.7,0.3,0.7,0.7v0.2
				C99.6,76.9,99.3,77.2,98.9,77.2z"/>
			<path class="st32" d="M98.9,77.2H63c-0.4,0-0.7-0.3-0.7-0.7v-0.2c0-0.4,0.3-0.7,0.7-0.7h35.9c0.4,0,0.7,0.3,0.7,0.7v0.2
				C99.6,76.9,99.3,77.2,98.9,77.2z"/>
			<rect x="102.9" y="59.4" class="st32" width="12" height="14.3"/>
			<path class="st34" d="M10.3,159.3L20.9,141c0,0,4.4-0.9,12.7,0c8.3,0.9,12.8,4.2,12.8,4.2l-8.1,20.9L10.3,159.3z"/>
			<path class="st34" d="M119.1,162.3c0,0,8.1-9.2,17.5-11.2s13.8-0.4,13.8-0.4l11.9,14.9l-28.1,11.5L119.1,162.3z"/>
		</g>
	</g>
</g>
<g id="Layer_4" class="st7">
	<circle class="st35" cx="89.4" cy="99.6" r="82.2"/>
	<g class="st8">
		<defs>
			<path id="SVGID_7_" d="M111.8,19.2l2.2-11l-3.8-15H82.5l-45,17.6l7.5,19C22.7,44.5,8,69.8,8,98.5c0,45.4,36.8,82.2,82.2,82.2
				s82.2-36.8,82.2-82.2C172.3,60.6,146.7,28.8,111.8,19.2z"/>
		</defs>
		<clipPath id="SVGID_8_">
			<use xlink:href="#SVGID_7_"  style="overflow:visible;"/>
		</clipPath>
		<circle class="st36" cx="87.9" cy="99.6" r="82.2"/>
		<path class="st37" d="M136.4,126.3c0,0-3.3-11.5-1.8-17.1c1.5-5.5,6.5,4.3,6.5,4.3s5.2-6.6,7.1-4.2c1.9,2.4-1.6,13.2-11.6,17.9"/>
		<g class="st38">
			<path class="st6" d="M66.7,10c0,0-7.7-0.3-11.6,10.5s3.2,25.7,2.9,32.1c-0.3,6.4-8.3,23.5-8.3,23.5l7.2,9l49.8-9.2
				c0,0,2.8-0.2,5.7-2.4s6.3-6.2,6.3-6.2s-11.6-5.4-12.5-9.2s0.9-25.1,0.9-26.2C106.9,30.8,106.6-14.4,66.7,10z"/>
			<path class="st4" d="M64.1,31.2c0,0,4.9,17.8,9.5,22.6c4.6,4.8,16.1,7.7,18,6.7c1.9-0.9,12.1-17,8.4-28.5
				c-3.6-11.5-5.5-12.3-5.5-12.3l-24.4-5.3L64.1,31.2z"/>
			<path class="st6" d="M73.2,20.3c0,0-1,3.5-2.2,8.7c-2.8,11.7-2.8,12-4,14.1c-1.2,2,2.5,15.2,2.5,15.2S58.2,37.7,58.3,31.1
				C58.5,24.5,72,8.8,72.4,8.2c0.4-0.5,21.5,4.2,21.5,4.2l9.6,19.9l-2,12.1c0,0-0.1-7.3-1.5-10.4c-1.5-3.1-14.8-7.8-20.7-10.6
				C76.4,21.9,73.2,20.3,73.2,20.3z"/>
			<path class="st4" d="M53.7,73.9c0,0,0.2,1.9,9.4-0.1s11.5-4.3,12-8.1c0.5-3.8,1-13.8,1-13.8l16.4,3.5c0,0-2.4,11.3-1.8,13.6
				c0.5,2.3,4.9,4.2,8,4.8c3.1,0.6,9.5-0.2,11.5,1.6s4.5,3.6,3.8,7.4c-0.7,3.8-1.5,12.5-1.5,12.5l-32,40.8l-21.8-33.9L53.7,73.9z"/>
			<path class="st4" d="M108.4,74.5c0,0,8.7,1.9,11.5,8c2.8,6.1,6.9,42,6.9,42l-11.3-4.9L110.2,89L108.4,74.5z"/>
			<path class="st3" d="M58.8,102.3c0,0,10.4-10.6,19.1-11.2c8.7-0.5,18.3-0.4,28.5-2.7c3.5-0.8,7.7,4.3,7.7,4.3s4.7,4.1,3.6,12.8
				c-1,8.7-3.6,11.8-3.6,11.8s13.6,8.8,15.6,20.2c2,11.4,0,26.9-2.8,35.2c-1,3-3.8,9-4,10.3c-0.3,1.3-70.8-1.8-70.8-1.8L69.9,131
				L58.8,102.3z"/>
			<path class="st4" d="M42.7,105.6c0,0-0.3-21,3.6-26.1c3.8-5.1,10-7.6,13.3-3.7c3.3,3.8-2.8,63.9-2.8,63.9s19,14.9,25.9,19
				c6.9,4.1,17.9,3.6,22,3.6c4.1,0,4.9,0,4.9,0s0.8,2.1-0.8,2.4c-1.5,0.3-8.2,0.9-8.2,0.9s3.9,3.2,6.4,3.4
				c2.5,0.3,11.5,0.2,11.5,1.4c0,1.3-12.2,1.5-12.2,1.5s12,1.8,12.2,2.6c0.3,0.8-11.5,0.4-11.5,0.4s15,2.2,7.7,2.9
				c-1.5,0.2-9.2,0-9.2,0l-2.1-0.5l2,1.3c0,0,6.1,0.4,6.9,1.3c1.5,1.5-7.4,1.2-8.7,1.2c-1.3,0-8.5-6.7-10-8.5s-8.7-6.1-8.7-6.1
				s-40.1-15.6-40.8-17.2S42.7,105.6,42.7,105.6z"/>
			<path class="st3" d="M57.1,74.3l9.7-1.5c0,0,4.2,3.5,5.8,8.6c1.5,5.1,3.6,13.8,3.6,13.8l-6.9,2.9C69.3,98.2,70.2,84.2,57.1,74.3z
				"/>
			<path class="st3" d="M98.7,73.8l8.3,0.5c0,0,2,2.1,3.5,7.2c1.5,5.1,3.5,18.5,3.5,18.5l-5.5,1.7C108.5,101.7,108.9,86.8,98.7,73.8
				z"/>
			<path class="st4" d="M122.4,119.2c-2.5-0.6-4.7,0.1-10.1,2c-1.9,0.7-4.4,2.3-3.3,2.3s10.5-1.8,10.5-1.8s-11.9,4.6-10.9,6.9
				c0.6,1.4,12.1-4.8,12.1-4.8s-10.7,8.4-10,9c1.9,1.5,11.5-6,11.5-6s-6.1,7.9-4.6,7.5s7.4-6.8,7.4-6.8l2.1,3.5l-0.3-6.5
				C126.9,124.5,126.4,120.2,122.4,119.2z"/>
			<path class="st39" d="M80.6,117.8c0,0,10.7,4.2,16.3,3.3s9.2-1.6,9.2-1.6l7.9-2.2c0,0-7.9,4-13.2,7.2S77.7,131,77.7,131l-4.6-6.5
				L80.6,117.8z"/>
			<path class="st40" d="M75.4,61.7c0,0,3.6,5.6,8.6,7.3c7.3,2.5,6.7,0,6.7,0l0.8-8.5c0,0-4.2-0.2-5.5-0.5
				C83.4,59.3,76,55.7,76,55.7L75.4,61.7z"/>
		</g>
	</g>
</g>
<g id="Layer_5" class="st7">
	<g class="st8">
		<circle class="st3" cx="89.7" cy="98.5" r="82.2"/>
		<g>
			<defs>
				<path id="SVGID_9_" d="M140.7,34.3c2.4-8.9,5.3-19.7,5.1-21.4c-0.2-3-8.4-23.6-8.4-23.6L25.8-8.2l5.4,49.3
					C16.6,56,7.6,76.3,7.6,98.7c0,45.4,36.8,82.2,82.2,82.2s82.2-36.8,82.2-82.2C171.9,72.6,159.7,49.3,140.7,34.3z"/>
			</defs>
			<clipPath id="SVGID_10_">
				<use xlink:href="#SVGID_9_"  style="overflow:visible;"/>
			</clipPath>
			<polygon class="st41" points="126.5,124.3 38.3,124.3 45.6,13 127.1,13 			"/>
			<polygon class="st42" points="51.2,17.4 45.1,117.1 119.5,117.1 121.4,16.7 			"/>
			<polygon class="st43" points="75.6,21.9 75.6,10.4 102,10.4 103,21.9 			"/>
			<polygon class="st43" points="61,41.9 60.7,43.9 101.8,44 101.6,42 			"/>
			<polygon class="st43" points="60.1,48.9 59.8,51 102.5,51 102.3,48.9 			"/>
			<polygon class="st43" points="57.8,65.4 57.5,67.8 104.1,67.7 103.9,65.3 			"/>
			<polygon class="st43" points="56.3,72 56,73.8 104.8,73.7 104.5,71.9 			"/>
			<polygon class="st43" points="54.8,88.8 54.4,90.6 106.4,90.5 106.1,88.7 			"/>
			<polygon class="st43" points="53.3,100.1 52.8,102.1 107.5,101.9 107.2,99.9 			"/>
			<polyline class="st44" points="106.7,42.5 108.7,45.8 114.5,38.5 			"/>
			<polyline class="st44" points="106.7,65.8 108.7,69 114.5,61.7 			"/>
			<path class="st43" d="M89.3,0.9C83,1,82,11.7,82,11.7h15.5C97.5,11.7,98.7,0.7,89.3,0.9z M90,10.4c-2,0-3.6-1.4-3.6-3.1
				s1.6-3.1,3.6-3.1c2,0,3.6,1.4,3.6,3.1S92,10.4,90,10.4z"/>
			<path class="st45" d="M128.3,155.7c0,0,0.6-14.8-4-18.5s-8.8-2.2-13-6.2c-4.1-4-10.5-29.1-8.7-31.1c1.8-2,5.4,0.6,8.8,8.6
				c3.5,8,3.5,7.1,3.5,7.1s-7.8-38.9-7-41.5c0.8-2.6,3.4-3.4,6.1-2.7c2.7,0.6,8,34.7,8,34.7s-2.2-10,2.6-10.4
				c5.3-0.4,6.7,4.8,6.7,4.8s-1.7-5.6,3.6-5.9c3.3-0.1,5.1,5.2,5.1,5.2s0.8-6.5,5.3-4.9c4.6,1.6,6.7,25.1,7.7,30
				c1,4.9-3.4,6.6-3.4,11c0,3.6,2.7,15.3,2.7,15.3L128.3,155.7z"/>
			<path class="st45" d="M31.1,139c0,0-2.7-17.3-5.4-25.7s-5.3-24.9,1.3-29c6.5-4.2,14.4-7.7,14.4-7.7l-1.4,25.5
				c0,0,2.8,4.7,7.7,1.3c4.9-3.4,4.9-9.3,7.2-10.8c2.3-1.5,6.1-1.4,5.8,2.1c-0.4,3.5-4.8,16.6-6.4,20.2c-1.5,3.6-8.2,10.5-8.2,10.5
				l2,17l-3.6,2.9H29.2L31.1,139z"/>
			<path class="st46" d="M125.5,172.8l-1.6-27.1c0,0,7.8,2.2,17.7-0.2c9.9-2.4,14.1-4.9,14.1-4.9l1.6,18.8L125.5,172.8z"/>
			<path class="st46" d="M20.1,157.6l5.4-20.1c0,0,4.2,2.1,15.3,2.7c11.2,0.6,12.8,0,12.8,0l-1.3,37.6L20.1,157.6z"/>
		</g>
	</g>
</g>
<g id="Layer_6" class="st7">
	<g class="st8">
		<g>
			<defs>
				<path id="SVGID_11_" d="M187.4,25.8l-6.8-10.6l-13-4.7l-22.8,29.1c-15-16.4-36.6-26.6-60.6-26.6C39,12.9,2.2,49.7,2.2,95.1
					c0,45.4,36.8,82.2,82.2,82.2s82.2-36.8,82.2-82.2c0-7.3-0.9-14.3-2.7-21l7-5.9l5.6-4.8l5.8-14.3l6.9-13.3L187.4,25.8z"/>
			</defs>
			<clipPath id="SVGID_12_">
				<use xlink:href="#SVGID_11_"  style="overflow:visible;"/>
			</clipPath>
			<circle class="st47" cx="84" cy="94.7" r="82.2"/>
			<path class="st48" d="M4,103.9c0.3-0.3,0.8-10.3,0.8-10.3s4.6-3.3,15.8-3.6c11.2-0.2,12.2,2.2,21.9-7.8S53.3,69.3,60.3,64
				c7.1-5.3,13-6.3,27.1-2.1s-54.9,49.6-54.9,49.6l-27.4-5.6l-2.1-0.7L4,103.9z"/>
			<path class="st49" d="M1.2,124.3c0,0,9.8-29.1,25-27.4c18.4,2.1,18.9-2.7,28.3-15.3s22.6-21.6,33-19.7
				c10.4,1.9,17.1,8.7,19.3,11.9c3.9,5.5,13.6,13.6,15.1,25c0.8,6.3,4.5,28.6-16.8,37.8s-21.9,6.8-24.8,16
				c-8.6,27.1-22.4,26.6-24.8,27.4C44.7,183.9,1.2,124.3,1.2,124.3z"/>
			<path class="st50" d="M97.9,122.6c-4.5,10.5-15.1,16.6-25.4,13c-10.3-3.6-15.6-15.2-11.9-25.9c3.7-10.7,16.5-18.5,26.8-14.9
				S102.7,111.3,97.9,122.6z"/>
			<path class="st51" d="M144.9,62.2c0,0,7.3,7.8,7.5,6.2c0.2-1.6,4.6-1.3,4.6-1.3s-14.2,12.4-19.4,15.6c-5.2,3.2-20,4.9-20,4.9
				L144.9,62.2z"/>
			<path class="st48" d="M36.1,139.9c2.6-1.8,125.5-107.1,125.5-107.1s-2.6-4.9-2.3-5.8c0.3-0.9,10.4-11.5,11.7-11.4
				c1.3,0.1,8,2.6,10.5,7.9c2.5,5.2-1.8,7.6-1.8,7.6l-9.7,10.7l-2.7-0.9L50.4,152.7L36.1,139.9z"/>
			
				<ellipse transform="matrix(0.9446 0.3281 -0.3281 0.9446 42.2906 -19.953)" class="st48" cx="80.3" cy="115.4" rx="14.2" ry="14.2"/>
			<path class="st52" d="M41.6,141.3C43,139.1,164,32.4,164,32.4l8.4-13.2"/>
			<polyline class="st52" points="44.7,143.5 165.4,34 174.6,21.3 			"/>
			<polyline class="st52" points="46.6,147 167,35.7 177.3,23.9 			"/>
			<polyline class="st52" points="49.2,149.5 168.4,37.4 178.9,25.8 			"/>
			<path class="st53" d="M47.4,111.7c0-1.2,7.4,0.1,7.4,0.1s10.7-2.7,13.4-2.4s7.6,1.2,9.1,0.9c1.5-0.4,7-2.2,7.8-1.1
				c0.8,1.2-1.7,4.8-4.4,5.7c-2.7,0.9-8.8,1.8-8.8,1.8s2,3,5.2,3.9c3.2,0.9,6.9,2.6,8.8,3.2c1.9,0.7,3.4,2.1,3.2,4.1
				c-0.2,2.1-2.9,2.8-2.9,2.8s1.7,0.7,1.7,2.1s-0.9,5.1-4.1,3.5c-1-0.5,2.7,2.6,1.3,4.7c-1.4,2.1-4,2.9-4.7,2.1s1.4,4.7-1.2,5.1
				c-2.6,0.3-12.3-3.8-14.1-4.9c-1.7-1.1-15.5-10.9-17.9-12.1c-2.4-1.2-6.9-2.9-6.9-2.9S47.4,118.8,47.4,111.7z"/>
			<path class="st51" d="M-0.2,91c2.3,1.3,48.3,11.9,48.3,11.9s7.1,11.2-2.3,20.9s-9.3,9.8-9.3,9.8l-40.4-11.9L-0.2,91z"/>
			<path class="st51" d="M95.4,64.6l15.9,1.1l20.2-7l-21.9,18.9C109.5,77.6,105.3,70.7,95.4,64.6z"/>
			<path class="st53" d="M177.6,35.7c-6.3-3.1-8.7-5.3-8.4-6.8c0.4-1.5,12.5,4.5,13.4,5.6c0.8,1.1,1.3,2.1,0.3,3.4
				c-0.5,0.6-4.4,11.7-7,13.2c-2.9,1.7-2.7-3.2-2.7-3.2L177.6,35.7z"/>
			<polygon class="st50" points="36.1,139.9 40.1,137.4 52.9,150.9 50,154.4 			"/>
			<path class="st50" d="M163.3,25.4c0,0-3.4-1.9-2.9-2.5c0.5-0.6,1.4-1.1,1.4-1.1l2.2,2.9L163.3,25.4z"/>
			<path class="st50" d="M165.8,21.7c0,0-3.4-1.9-2.9-2.5s1.4-1.1,1.4-1.1l2.2,2.9L165.8,21.7z"/>
			<path class="st50" d="M168.8,18.8c0,0-3.4-1.9-2.9-2.5s1.4-1.1,1.4-1.1l2.2,2.9L168.8,18.8z"/>
			<path class="st53" d="M152,68.6c0.3-0.1,23.5-12,25.4-13.8s-0.9-13.3-1.1-14.7c-0.2-1.4-0.8-3.7-5.8-4.6
				c-5-0.9-11.3-1.1-11.7-0.7c-0.5,0.4-0.9,3.4,2,4s10.2,2.1,10.5,2c0.3-0.1,0,0-1,0.1c-1,0.1-13.2-2.5-14.3-2.1
				c-1.2,0.5-2.8,2.3,0,3.7c2.8,1.4,10.9,2.7,11,3.7c0.1,1-0.1,0.7-1.9,0.4c-1.8-0.3-12.1-3.3-13.3-2.7s-1.6,2.1-0.5,2.5
				c1.1,0.5,7.3,2.5,7.3,2.5l-14.5,13.8L152,68.6z"/>
			<path class="st53" d="M158.6,49.1l-8.3,8c0,0,6.1-1.4,10.1-2.7s4.7-2.8,4.7-2.8L158.6,49.1z"/>
			<polygon class="st53" points="177.6,35.7 176.3,39.5 177.3,45.8 179.2,39 			"/>
		</g>
		<path class="st6" d="M108.7,34.1c0,0,1.4-20.8,0-20.8c-1.4,0,15.6-4.4,15.6-4.4v17.9c0,0,2.5-1.5,4.8-0.8c2.2,0.8-1.3,4.2-3.8,5.7
			c-2.5,1.5-2.5,1.5-2.5,1.5l0.2-18.2l-12,3.7l-0.6,18.8c0,0-7,1.9-8.3,0C100.7,35.6,100.4,33.3,108.7,34.1z"/>
		<path class="st6" d="M132.2,36.4l4.2,0.4l-5.3-2.4l-2.6,12.3c0,0-4.7-2.9-5.1-1.1c-0.8,4,5.7,3.6,5.7,3.6L132.2,36.4z"/>
	</g>
</g>
<g id="Layer_7" class="st7">
	<g class="st8">
		<defs>
			<path id="SVGID_13_" d="M203.4,3.6h-28.6h-72.5l-43.3,8.7H25.7l-39.5,18.5c0,0-6.8,13.4,0,39.6c3.6,14,13.3,20.7,22.3,24.2
				c-0.1,1.4-0.1,2.8-0.1,4.3c0,45.4,36.8,82.2,82.2,82.2c45.4,0,82.2-36.8,82.2-82.2c0-10.4-1.9-20.3-5.4-29.4l32.1,5.9l10.3-21.7
				l9.1-37.1L203.4,3.6z"/>
		</defs>
		<clipPath id="SVGID_14_">
			<use xlink:href="#SVGID_13_"  style="overflow:visible;"/>
		</clipPath>
		<circle class="st54" cx="90.9" cy="98.6" r="82.2"/>
		<polygon class="st55" points="122.7,68.6 119.3,24.2 196.7,18.8 194.5,59 128.7,63.1 		"/>
		<path class="st56" d="M66.6,60.8c0-15.5-15.2-28.1-34-28.1s-34,12.6-34,28.1s15.2,28.1,34,28.1c4.7,0,9.3-0.8,13.4-2.2l6.1,6.1
			l3.6-11.3C62.4,76.3,66.6,69,66.6,60.8z"/>
		<path class="st57" d="M70,147.8l2.3-16.1c0,0,5-2.8,6.3-8.2c1.3-5.3,1.5-16.1,1.5-16.1s0.6-8.5,0.6-12.9s-0.5-7.2-1.9-6.9
			c-1.4,0.3-1.3,0.9-1.7,2.4c-0.4,1.5-1.2,13.8-1.2,13.8s0,1.8-0.5,1.7c-0.7-0.1,0.4-6.8,0.9-13c0.5-6.2,0.3-9.4,0.1-11
			c-0.2-1.6-3.1-3.5-3.7,0.4c-0.5,3.9-2.2,19.8-2.3,20.3c-0.2,0.5-0.1,2.7-0.7,1.9c-0.4-0.5,2.4-25.5,2.5-26.5
			c0.1-1.1-1.7-3.2-3.4-2c-0.8,0.6-1,2.3-1.1,3.3c-0.1,1.1-3.2,23.1-3.4,23.6c-0.5,1.1-0.6,0.3-0.6,0.3s2.2-21,1.6-22
			c-0.6-1-3.5-2.5-3.9,1.3c-0.3,2.6-1.6,13.2-2.9,20.2c-0.6,3.1-1.5,5.5-1.6,6.1c-0.4,2-1.8,4.6-1.8,4.6s-1.8-4-1.6-5.3
			c0.1-1.2,0.6-3.7,0.7-5.6s-0.7-3.7-1-4c-0.2-0.3-1.9-0.8-3.3,3.3c-1.3,4.1-1.9,7.2-2,8.1c0,0.7,1.2,6.4,1.6,8.5
			c1.9,8.4,8.8,10.6,8.8,10.6s0.4,5.2,0.4,5.5c0,0.3-1.4,13.9-1.5,14.2C57.3,148.3,68.3,151,70,147.8z"/>
		<path class="st55" d="M72.8,181c0.1-0.9,1.9-41.2,1.9-41.2s-4.6,1.8-10.6,1.1s-10.1-2.8-10.1-2.8l-1,42.9H72.8z"/>
		<g class="st58">
			<path class="st3" d="M78.3,107.7c-6-2.9-12.5-4.4-19.4-4.3"/>
		</g>
		<line class="st59" x1="68.5" y1="106.8" x2="68.3" y2="107.2"/>
		<path class="st60" d="M16.6,51.6c0.8,0.6,35.4-1.3,35.4-1.3l-1.1,3.2H14.7L16.6,51.6z"/>
		<path class="st60" d="M50.1,63.1c-0.8-0.6-35.4,1.3-35.4,1.3l1.1-3.2h36.1L50.1,63.1z"/>
		<path class="st60" d="M50.1,72.3c-0.8-0.6-35.4,1.3-35.4,1.3l1.1-3.2h36.1L50.1,72.3z"/>
		<g class="st61">
			<path class="st62" d="M105.7,142.3l-3-20.6c0,0-6.4-3.6-8.1-10.4c-1.7-6.8-1.9-20.6-1.9-20.6s-0.8-10.8-0.8-16.5
				c0-5.7,0.7-9.2,2.5-8.9c1.8,0.3,1.7,1.2,2.2,3C97,70.2,98.1,86,98.1,86s0,2.3,0.6,2.2c0.8-0.1-0.5-8.6-1.1-16.6
				c-0.6-8-0.4-12-0.1-14c0.3-2,4-4.5,4.7,0.5c0.7,5,2.8,25.3,3,26c0.2,0.7,0.1,3.5,0.9,2.4c0.5-0.7-3.1-32.7-3.2-33.8
				c-0.2-1.5,2.2-4,4.3-2.6c1.1,0.7,1.3,2.9,1.4,4.2c0.1,1.3,4.1,29.6,4.3,30.2c0.6,1.4,0.8,0.4,0.8,0.4s-2.9-26.8-2.1-28.2
				c0.8-1.3,4.5-3.2,5,1.6c0.4,3.4,2.1,16.9,3.7,25.8c0.7,4,1.9,7,2.1,7.8c0.5,2.5,2.3,5.9,2.3,5.9s2.3-5.2,2.1-6.7
				c-0.2-1.6-0.8-4.8-0.9-7.2c-0.1-2.4,0.9-4.7,1.2-5.1c0.3-0.4,2.4-1,4.2,4.2c1.7,5.2,2.5,9.1,2.6,10.4c0.1,0.9-1.5,8.2-2.1,10.9
				c-2.4,10.7-11.3,13.6-11.3,13.6s-0.5,6.6-0.5,7c0,0.4,1.8,17.8,1.9,18.1C121.9,143,107.8,146.4,105.7,142.3z"/>
			<path class="st0" d="M99.7,181c-0.1-1.1,0-49,0-49s5.9,2.3,13.6,1.4c7.7-0.8,12.9-3.6,12.9-3.6l-0.9,51.1H99.7z"/>
			<g class="st63">
				<path class="st3" d="M95,91.1c7.6-3.8,16-5.6,24.8-5.5"/>
			</g>
			<line class="st64" x1="107.5" y1="89.9" x2="107.8" y2="90.5"/>
		</g>
		<path class="st60" d="M132.7,36.1c0,0,49.8-3.7,50.9-3.4c1.1,0.3,1.6,1.2-1.7,1.8c-3.3,0.6-49.2,3.5-49.2,3.5L132.7,36.1z"/>
		<path class="st60" d="M132.2,44.2c0,0,49.8-3.7,50.9-3.4c1.1,0.3,1.6,1.2-1.7,1.8s-49.2,3.5-49.2,3.5L132.2,44.2z"/>
	</g>
</g>
<g id="Layer_8" class="st7">
	<circle class="st65" cx="82.5" cy="93.5" r="82.2"/>
	<g class="st8">
		<defs>
			<path id="SVGID_15_" d="M183.5,71.8l-6.8-31l-8-9.8c0,0-14.7,6.1-23.7,9.4C130,22.4,107.4,11.1,82.2,11.1
				C36.8,11.1,0,47.8,0,93.2s36.8,82.2,82.2,82.2s82.2-36.8,82.2-82.2c0-1,0-2-0.1-3l15.9-10.7L183.5,71.8z"/>
		</defs>
		<clipPath id="SVGID_16_">
			<use xlink:href="#SVGID_15_"  style="overflow:visible;"/>
		</clipPath>
		<path class="st66" d="M160.7,56.8l-24.7,6.9c0,0-5.8-1.8-12.8-4c-7.1-2.1-12-1-13.1-2c-1.1-1-11-2.4-12.8-4.2
			c-1.8-1.8-4.7-2-5.7-0.1c-1,1.9,2.8,7,8.6,9.5c5.8,2.5,9.1,4.6,9.1,4.6s-4.3,5.7-9.1,6.5c-4.8,0.8-16.6,5.5-20.5,7.6
			s-6.5,5.7-4,6.6c2.6,0.9,5.9,0.4,6.8,0.1c0.9-0.3,20.1-5.6,20.1-5.6S80.7,96.9,79,99.3c-1.7,2.4-2.9,6.6,0.8,6.1
			S107.1,91,107.1,91s-22.4,18.1-21.3,19.4c1.1,1.3,0.3,3.9,3.4,3c3.1-0.9,22-15.9,23.5-16.6c1.5-0.7-15,15-14.3,17s4.3,3.4,7.1,1.2
			s11.8-11.9,13.8-12.9c2-1.1,17.3-12.7,21.2-14.2c3.9-1.5,20.9-6.9,20.9-6.9S163.7,60.5,160.7,56.8z"/>
		<path class="st67" d="M104.5,76.4c0,0-2.3,12.3,13.5,21.5"/>
		<path class="st68" d="M10.2,134.6L24,121.5c0,0-0.7-6.6,3.5-11.5c4.2-4.9,14.3-12.3,14.3-12.3s5.7-5.5,9.9-8.4s7.2-4.3,7.9-2.8
			c0.7,1.5,0,1.9-1.1,3.2c-1.1,1.3-10.4,9.6-10.4,9.6s-1.7,1.2-1.3,1.6c0.5,0.6,6.5-3.9,12.1-8.6c5.6-4.7,11.9-7.6,13.5-8.4
			c1.6-0.9,5.5,0.6,2.1,3.7c-3.4,3.2-20.8,15.3-21.2,15.9c-0.4,0.5-2.5,1.9-1.4,1.9c0.7,0,24.3-13.9,25.1-14.6c1-0.9,5-1.1,5.1,1.3
			c0,1.2-1.5,2.5-2.4,3.3c-0.9,0.8-22.4,13.6-22.7,14.1c-0.7,1.2,0.1,0.8,0.1,0.8s20.5-11.9,21.9-12c1.4-0.1,4.8,1.6,1.4,4.6
			c-2.3,2-11.5,6.2-19.3,12c-3,2.2-4.2,5.1-4.7,5.7c-1.6,1.7-3.2,4.8-3.2,4.8s5-1,6.1-2c1.1-1,3.1-3.1,4.9-4.4
			c1.7-1.3,4-1.8,4.5-1.8c0.5,0,2,1.3-0.9,5.3c-2.9,4-5.5,6.7-6.4,7.4c-0.6,0.5-6.9,3.2-9.2,4.2c-9.2,3.8-16-1.2-16-1.2
			s-5.1,3.1-5.5,3.4c-0.3,0.2-12.2,10.7-12.5,11C18.3,147.1,8.3,138.4,10.2,134.6z"/>
		<path class="st69" d="M6,130.6l10.5-9.4c0,0,1.5,5.5,6.3,10.8s9.6,7.6,9.6,7.6S21,152.7,17.3,150C2.5,139.1,6,130.6,6,130.6z"/>
		<path class="st67" d="M116.9,86.6c0,0-1.9-6.4,1.6-12.7c3.5-6.3,3.5-6.3,3.5-6.3"/>
		<path class="st70" d="M142.6,58.2c0,0,6.4,5.5,8.8,13.8s1.7,16.9,1.7,16.9l26-11.8c0,0-3.9-22.1-10.6-29.9
			C166,44.3,142.6,58.2,142.6,58.2z"/>
		<g class="st71">
			<g>
				<path class="st0" d="M103.5,127.6c-0.3,2.1-0.6,4.2-0.9,6.4c-0.3,1.9,2.6,2.7,2.9,0.8c0.3-2.1,0.6-4.2,0.9-6.4
					C106.6,126.5,103.7,125.7,103.5,127.6L103.5,127.6z"/>
			</g>
		</g>
		<g class="st71">
			<g>
				<path class="st0" d="M118.3,124c1.4,1.4,2.5,3,3.1,4.9c0.7,1.8,3.6,1,2.9-0.8c-0.9-2.3-2.1-4.4-3.9-6.2
					C119.1,120.5,117,122.6,118.3,124L118.3,124z"/>
			</g>
		</g>
		<g class="st71">
			<g>
				<path class="st0" d="M131.1,114.5c0.7,0.6,1.5,1.2,2.2,1.9c0.6,0.5,1.5,0.6,2.1,0c0.5-0.5,0.6-1.6,0-2.1
					c-0.7-0.6-1.5-1.2-2.2-1.9c-0.6-0.5-1.5-0.6-2.1,0C130.5,112.9,130.4,114,131.1,114.5L131.1,114.5z"/>
			</g>
		</g>
		<g class="st71">
			<g>
				<path class="st0" d="M62.4,63c2.3,1.3,4.4,2.7,6.5,4.4c1.5,1.2,3.6-0.9,2.1-2.1c-2.2-1.8-4.6-3.4-7.1-4.8
					C62.2,59.4,60.7,62,62.4,63L62.4,63z"/>
			</g>
		</g>
		<g class="st71">
			<g>
				<path class="st0" d="M77.6,52.3c0.7,1.4,1.5,2.8,2.2,4.1c0.9,1.7,3.5,0.2,2.6-1.5c-0.7-1.4-1.5-2.8-2.2-4.1
					C79.3,49,76.7,50.5,77.6,52.3L77.6,52.3z"/>
			</g>
		</g>
		<g class="st71">
			<g>
				<path class="st0" d="M88.5,44c0.4,0.9,0.5,1.9,0.4,2.8c-0.1,0.8,0.2,1.6,1.1,1.8c0.7,0.2,1.7-0.2,1.8-1.1c0.3-1.5,0.2-3-0.4-4.4
					c-0.3-0.8-1-1.3-1.8-1.1C88.8,42.3,88.2,43.2,88.5,44L88.5,44z"/>
			</g>
		</g>
	</g>
</g>
</svg>
