<?xml version="1.0" encoding="utf-8"?>
<!-- Generator: Adobe Illustrator 19.1.0, SVG Export Plug-In . SVG Version: 6.00 Build 0)  -->
<svg version="1.1" id="Layer_1" xmlns="http://www.w3.org/2000/svg" xmlns:xlink="http://www.w3.org/1999/xlink" x="0px" y="0px"
	 viewBox="0 0 150 124" style="enable-background:new 0 0 150 124;" xml:space="preserve">
<style type="text/css">
	.st0{opacity:0.42;fill:none;stroke:#00AEEF;stroke-width:2.1142;stroke-miterlimit:10;}
	.st1{fill:#C52375;}
	.st2{fill:#E3DBC3;}
	.st3{opacity:0.67;fill:#E3DBC3;}
	.st4{fill:#FFFFFF;}
	.st5{fill:#E0CE4B;}
	.st6{fill:#00AEEF;}
</style>
<circle class="st0" cx="119.5" cy="65" r="10"/>
<path class="st1" d="M0.1,91.5c1,7.1,7.4,12.6,10.7,18.6c1.1,2.1,2.1,4.2,3,6.3H149c2.2-5.5-0.6-13.2,0.5-20.6
	c1-6.4,0.3-12.6-0.4-19.4c-0.7-6.6,0.5-13.3-1.7-19.7c-2.2-6.4-3.8-11.2-7.4-16.9c-3.8-5.9-6.8-12.4-12-17
	c-5.3-4.7-15.3-6.4-22.1-9.3c-6.5-2.7-12.5-5.9-20.3-6.4c-7.2-0.5-14.3-3.4-20.7-2.5c-7,1-13.6,4.1-19.5,6.6
	c-6.2,2.7-10.8,7.6-15.8,11.7c-5,4.1-8.8,8.9-12.5,14.1c-3.6,5.1-10,9.2-12.3,15.1C2.6,57.7,6,64.7,5.1,70.9C4,78-0.8,84.9,0.1,91.5
	z"/>
<path class="st2" d="M140.1,27.1l-21.6,6.5c0,0-5.1-1.5-11.3-3.3s-10.6-0.7-11.6-1.5s-9.7-1.9-11.3-3.4s-4.2-1.7-5,0
	c-0.8,1.7,2.6,6.1,7.7,8.2c5.2,2.1,8.1,3.9,8.1,3.9s-3.7,5.1-7.9,5.8c-4.2,0.8-14.5,5.1-17.9,7.1c-3.4,1.9-5.6,5.2-3.4,5.9
	s5.2,0.2,6,0c0.8-0.2,17.6-5.2,17.6-5.2S70.6,63.8,69.1,65.9c-1.5,2.1-2.4,5.8,0.8,5.3c3.2-0.5,23.7-13.1,23.7-13.1
	S74.3,74.5,75.3,75.6c1,1.1,0.3,3.4,3.1,2.6s19-14.4,20.3-15S85.7,76.6,86.4,78.3s3.9,2.9,6.3,1c2.4-1.9,10.2-10.6,11.9-11.6
	c1.8-1,15-11.4,18.4-12.8s18.3-6.4,18.3-6.4S142.9,30.3,140.1,27.1z"/>
<path class="st3" d="M91.1,45.3c0,0-1.8,10.8,12.2,18.6"/>
<path class="st4" d="M1.8,103.6l13.3-13.2c0,0-0.8-6.5,3.2-11.4c4-4.9,13.8-12.4,13.8-12.4s5.5-5.5,9.6-8.5c4.1-3,7-4.4,7.7-3
	c0.7,1.5,0.1,1.8-1,3.2c-1.1,1.3-10.1,9.6-10.1,9.6s-1.6,1.2-1.3,1.6c0.5,0.6,6.3-4,11.8-8.7c5.4-4.7,11.6-7.7,13.2-8.5
	c1.6-0.9,5.4,0.5,2.1,3.6C61,59.3,44,71.7,43.6,72.2c-0.4,0.5-2.5,1.9-1.3,1.9c0.7,0,23.6-14.2,24.4-14.9c1-0.9,4.9-1.2,5.1,1.1
	c0.1,1.1-1.4,2.5-2.3,3.3c-0.9,0.8-21.7,13.8-22,14.3c-0.7,1.2,0.1,0.8,0.1,0.8s20-12.1,21.3-12.3c1.4-0.1,4.7,1.5,1.5,4.5
	c-2.2,2.1-11.2,6.4-18.8,12.1c-2.9,2.2-4,5.1-4.5,5.7c-1.6,1.7-3.1,4.8-3.1,4.8s4.9-1.1,6-2.1c1-1,3-3.1,4.7-4.4
	c1.7-1.3,3.9-1.8,4.4-1.8c0.5,0,2,1.2-0.8,5.2c-2.8,4-5.3,6.7-6.1,7.4c-0.6,0.5-6.7,3.3-9,4.3c-9,3.9-15.8-0.9-15.8-0.9
	s-5,3.2-5.3,3.4c-0.3,0.2-11.8,10.8-12.1,11C10,115.7,0,107.4,1.8,103.6z"/>
<path class="st5" d="M0,98.6c0.8-0.6,8.8-7.8,8.8-7.8s1.5,5.4,6.2,10.6s9.5,7.4,9.5,7.4L5.3,122L0,98.6z"/>
<path class="st3" d="M102.2,54.1c0,0-1.8-5.6,1.2-11.2s3-5.6,3-5.6"/>
<path class="st6" d="M124.2,28.7c0,0,5.7,4.8,8,12c2.2,7.2,1.8,14.8,1.8,14.8l13.4-8.2c0,0-4.9-19.2-6.3-22.3S124.2,28.7,124.2,28.7
	z"/>
<g>
	<g>
		<path class="st6" d="M90.5,90.6c-0.3,1.9-0.5,3.7-0.8,5.6c-0.2,1.7,2.3,2.4,2.5,0.7c0.3-1.9,0.5-3.7,0.8-5.6
			C93.3,89.7,90.7,89,90.5,90.6L90.5,90.6z"/>
	</g>
</g>
<g>
	<g>
		<path class="st6" d="M103.6,87.5c1.2,1.2,2.2,2.7,2.8,4.3c0.6,1.6,3.1,0.9,2.5-0.7c-0.8-2.1-1.9-3.9-3.4-5.4
			C104.2,84.4,102.4,86.3,103.6,87.5L103.6,87.5z"/>
	</g>
</g>
<g>
	<g>
		<path class="st6" d="M115.1,78.3c0.7,0.5,1.3,1.1,2,1.6c0.6,0.4,1.3,0.5,1.9,0c0.5-0.5,0.6-1.4,0-1.9c-0.7-0.5-1.3-1.1-2-1.6
			c-0.6-0.4-1.3-0.5-1.9,0C114.6,76.9,114.5,77.9,115.1,78.3L115.1,78.3z"/>
	</g>
</g>
<g>
	<g>
		<path class="st6" d="M53.9,34.3c2,1.1,4,2.3,5.8,3.7c1.3,1,3.2-0.8,1.9-1.9c-2-1.6-4.1-2.9-6.3-4.1C53.7,31.2,52.4,33.5,53.9,34.3
			L53.9,34.3z"/>
	</g>
</g>
<g>
	<g>
		<path class="st6" d="M67,24.6c0.7,1.2,1.3,2.4,2,3.6c0.8,1.5,3.1,0.2,2.3-1.3c-0.7-1.2-1.3-2.4-2-3.6C68.5,21.7,66.2,23.1,67,24.6
			L67,24.6z"/>
	</g>
</g>
<g>
	<g>
		<path class="st6" d="M76.4,17.1c0.3,0.8,0.5,1.6,0.4,2.5c-0.1,0.7,0.2,1.4,0.9,1.6c0.6,0.2,1.5-0.2,1.6-0.9
			c0.2-1.3,0.1-2.6-0.4-3.9c-0.3-0.7-0.9-1.1-1.6-0.9C76.7,15.6,76.2,16.4,76.4,17.1L76.4,17.1z"/>
	</g>
</g>
</svg>
