<?xml version="1.0" encoding="utf-8"?>
<!-- Generator: Adobe Illustrator 19.1.0, SVG Export Plug-In . SVG Version: 6.00 Build 0)  -->
<svg version="1.1" xmlns="http://www.w3.org/2000/svg" xmlns:xlink="http://www.w3.org/1999/xlink" x="0px" y="0px"
	 viewBox="0 0 150 150" style="enable-background:new 0 0 150 150;" xml:space="preserve">
<style type="text/css">
	.st0{display:none;}
	.st1{display:inline;}
	.st2{fill:#FAF39D;}
	.st3{clip-path:url(#SVGID_2_);fill:none;stroke:#000000;stroke-width:0.7173;stroke-miterlimit:10;}
	.st4{clip-path:url(#SVGID_2_);fill:#02929E;}
	.st5{clip-path:url(#SVGID_2_);fill:#ED2387;}
	.st6{clip-path:url(#SVGID_2_);fill:#E3DBC3;}
	.st7{opacity:0.4;clip-path:url(#SVGID_2_);fill:#02929E;}
	.st8{clip-path:url(#SVGID_2_);fill:none;stroke:#02929E;stroke-width:1.1833;stroke-miterlimit:10;}
	.st9{clip-path:url(#SVGID_2_);fill:none;stroke:#02929E;stroke-width:1.3047;stroke-linejoin:round;stroke-miterlimit:10;}
	.st10{clip-path:url(#SVGID_2_);fill:#FFFFFF;stroke:#02929E;stroke-width:1.3047;stroke-linejoin:round;stroke-miterlimit:10;}
	.st11{fill:#ED2387;}
	.st12{opacity:0.4;fill:#02929E;}
	.st13{fill:#02929E;}
	.st14{clip-path:url(#SVGID_4_);fill:#00AEEF;}
	.st15{clip-path:url(#SVGID_4_);fill:#E3DBC3;}
	.st16{opacity:0.4;clip-path:url(#SVGID_4_);fill:#02929E;}
	.st17{clip-path:url(#SVGID_4_);fill:none;stroke:#02929E;stroke-width:1.4012;stroke-miterlimit:10;}
	.st18{clip-path:url(#SVGID_4_);fill:#02929E;}
	.st19{clip-path:url(#SVGID_4_);fill:#ED2387;}
</style>
<g id="Layer_1" class="st0">
	<g class="st1">
		<circle class="st2" cx="75" cy="75" r="70.8"/>
		<g>
			<defs>
				<circle id="SVGID_1_" cx="75" cy="75" r="70.8"/>
			</defs>
			<clipPath id="SVGID_2_">
				<use xlink:href="#SVGID_1_"  style="overflow:visible;"/>
			</clipPath>
			<path class="st3" d="M76.2,111.3"/>
			<path class="st4" d="M105.2,145.8c0,0,1.3-22-12.3-26.1s-52.7-3.6-56.8-2.8s-8.2,5-9.2,16c-0.6,7.3,0.3,10.8,0.3,10.8
				S90.1,169.4,105.2,145.8z"/>
			<path class="st5" d="M91.7,50.4c0,0-3.6-17.9-27.3-17.9s-26.7,8.7-28.5,14c-8.9,26.3,16.9,56.3,16.9,56.3l21.1-2.9
				c0,0,12.4-3.3,23-16.2C104,75.1,105.8,52.1,91.7,50.4z"/>
			<path class="st6" d="M73.5,97.2c-0.1,0.1,0.1,1.1,0.4,2.6c1.1,5.9,4.2,19.7,4.2,19.7s-4.8,3.8-15,7.1c-5.3,1.7-8.5-0.4-8.5-0.4
				l2.5-23.7L73.5,97.2"/>
			<path class="st7" d="M74.3,102.8c0,0-4.9,8.1-12.1,11.1c-7.2,3-7.2,3-7.2,3l2-14.3l16.5-5.3L74.3,102.8z"/>
			<path class="st6" d="M77.9,53.8c-0.3-1.1,0.4,12.1,0.4,12.1l-7.5-1.4l-4.4-11.4L66,64.3l-25.8-1.9c0,0-1-7.6-0.9-8.8
				c0,0-1.3,20.4-1,30c0.2,10.8,12.4,22.5,19.4,22.2s15.4-4.4,21.8-12.3c4.9-6.1,3.8-12.4,3.8-12.4s8-2.9,8-5.4s-2.2-5.5-3.6-6.1
				c-2-0.8-4,2.9-4,2.9S81.5,67.6,77.9,53.8z"/>
			<path class="st8" d="M55,69.3c0.8,3.2,0.2,4.6-2.2,8.4c-2.4,3.8-2.5,4.4-2.4,6c0.1,0.9,2.3,2.8,2.3,2.8"/>
			<path class="st4" d="M61.8,92.8c0,0-1.6,0.3-4.4-0.6c-2.9-0.9-6.7-1.5-7.9-0.8s-0.3,2.2,0.2,2.4C50.1,94,59.1,97.2,61.8,92.8z"/>
			<ellipse class="st4" cx="64.5" cy="76.2" rx="1.5" ry="2.3"/>
			<ellipse class="st4" cx="47.5" cy="75.1" rx="1.2" ry="1.8"/>
			<path class="st9" d="M70.9,72c-0.8-3.7-6.4-2.6-6.4-2.6"/>
			<path class="st10" d="M48.6,69.6c0,0-2.3-1.5-4.5,0"/>
		</g>
		<path class="st11" d="M82.7,37.7c0,0,7.2-7.2,13.1-5.5c5.9,1.7,9.2,2.8,12.5,9c6.2,11.7,0,19.8,0,19.8s-6,3.8-6.1,4.9"/>
		<path class="st12" d="M82.7,37.9c0.7,0,12.9,2.3,19.2,14.6c2.5,4.8,0.7,12.7,0.7,12.7s-3.9-10.3-11.5-19.4
			C89.3,43.6,82.7,37.9,82.7,37.9z"/>
	</g>
</g>
<g id="Layer_2">
	<g>
		<circle class="st13" cx="75" cy="75" r="70.8"/>
		<g>
			<defs>
				<circle id="SVGID_3_" cx="75" cy="75" r="70.8"/>
			</defs>
			<clipPath id="SVGID_4_">
				<use xlink:href="#SVGID_3_"  style="overflow:visible;"/>
			</clipPath>
			<path class="st14" d="M112.5,141.4c1.4-1.2,6.9-21.8,0-24.7c-6.9-2.9-21.5-3.4-21.5-3.4s-52.3-2-57,3.4
				c-4.7,5.4-3.6,26.7-3.6,26.7S92.4,157.7,112.5,141.4z"/>
			<path class="st15" d="M85.4,102.7l1.9,22.5c0,0-7.2,2.9-16.8,0c-9.6-2.9-9.8-4.6-9.8-4.6l3.8-23.8L85.4,102.7z"/>
			<polygon class="st16" points="85.4,102.7 86.4,113.7 63.6,102.7 64.6,96.8 			"/>
			<path class="st15" d="M96.4,51.2l2.8,24.6c0.5,2.8-1.2,13.1-3.5,17.8c-2.9,5.9-9.4,12.5-18.4,11.5c-10-1.1-16.8-5.7-22.2-13.4
				c-2.5-3.6-5.3-9-6.1-10.3c-0.5-0.8-1.5-1.1-2.4-0.7c-0.9,0.5-2.3,0.7-3.7,0c-2.8-1.4-4.3-3.8-3.4-6c0.5-1.2,2.2-1.4,3.6-1.4
				c1,0,1.9-0.8,2-1.8c0.2-6.3,1.3-25.3,5.6-28.7c4.6-3.7,37.8,5,44.4,6.7C95.8,49.9,96.3,50.5,96.4,51.2z"/>
			<path class="st17" d="M82.5,60.4c0.7,1.1,4.8,17.3,3.7,17.8C85,78.7,79,79.3,79,79.3"/>
			<circle class="st18" cx="91.3" cy="69" r="1.9"/>
			
				<ellipse transform="matrix(-0.998 -6.324247e-02 6.324247e-02 -0.998 135.3468 150.0037)" class="st18" cx="70" cy="72.9" rx="2.1" ry="2.2"/>
			<path class="st17" d="M86.3,83.8c0,0,0.3,3.5-5.7,3.7c-3.5,0.2-7.1-1.9-7.1-1.9"/>
			<path class="st17" d="M92,57.9c0,0-0.8-2.6-4-2.2c-1.9,0.3-2.7,0.8-2.7,0.8"/>
			<path class="st17" d="M67.7,59c0,0-3.8-1.7-5.9,3.2"/>
			<path class="st19" d="M44.7,75c1.3,0.3,6.7,3.4,6.7,3.4l4.1-1.6c0,0-2-3.7-1.8-6.2c0.2-2.5,3.5-24.5,3.5-24.5s10.9,4.3,15.8,5.4
				c4.9,1-3.9-2.7-3.9-2.7s12.9,2.5,16.1,3.5c3.2,1,16.2,3,16.2,3L97.4,49c0,0,5.4,5.9,5.8,6.3s3.5-19.9-2.5-26.1
				c-6.2-6.4-56.2,7-56.2,7s-3.1,1-4.1,3.7c-1,2.7-2.1,15.2-2.1,15.2s-0.1,18.3,1,18.6C40.4,74,44.7,75,44.7,75z"/>
			<path class="st19" d="M43,80.8c0,0,0.1,6.2-1.1,7.8c-1.2,1.7,4.8-3,4.8-3l2.3,7.1l2.5-2.9l3.1,3.7l0.7-1.8l-6.1-11.2L43,80.8z"/>
		</g>
	</g>
</g>
</svg>
