<?xml version="1.0" encoding="utf-8"?>
<!-- Generator: Adobe Illustrator 19.1.0, SVG Export Plug-In . SVG Version: 6.00 Build 0)  -->
<svg version="1.1" xmlns="http://www.w3.org/2000/svg" xmlns:xlink="http://www.w3.org/1999/xlink" x="0px" y="0px"
	 viewBox="0 0 150 150" style="enable-background:new 0 0 150 150;" xml:space="preserve">
<style type="text/css">
	.st0{display:none;}
	.st1{display:inline;}
	.st2{fill:#FAF39D;}
	.st3{clip-path:url(#SVGID_2_);fill:none;stroke:#000000;stroke-width:0.7173;stroke-miterlimit:10;}
	.st4{clip-path:url(#SVGID_2_);fill:#02929E;}
	.st5{clip-path:url(#SVGID_2_);fill:#ED2387;}
	.st6{clip-path:url(#SVGID_2_);fill:#E3DBC3;}
	.st7{opacity:0.4;clip-path:url(#SVGID_2_);fill:#02929E;}
	.st8{clip-path:url(#SVGID_2_);fill:none;stroke:#02929E;stroke-width:1.1833;stroke-miterlimit:10;}
	.st9{clip-path:url(#SVGID_2_);fill:none;stroke:#02929E;stroke-width:1.3047;stroke-linejoin:round;stroke-miterlimit:10;}
	.st10{clip-path:url(#SVGID_2_);fill:#FFFFFF;stroke:#02929E;stroke-width:1.3047;stroke-linejoin:round;stroke-miterlimit:10;}
	.st11{fill:#ED2387;}
	.st12{opacity:0.4;fill:#02929E;}
	.st13{fill:#02929E;}
	.st14{clip-path:url(#SVGID_4_);fill:#00AEEF;}
	.st15{clip-path:url(#SVGID_4_);fill:#E3DBC3;}
	.st16{opacity:0.4;clip-path:url(#SVGID_4_);fill:#02929E;}
	.st17{clip-path:url(#SVGID_4_);fill:none;stroke:#02929E;stroke-width:1.4012;stroke-miterlimit:10;}
	.st18{clip-path:url(#SVGID_4_);fill:#02929E;}
	.st19{clip-path:url(#SVGID_4_);fill:#ED2387;}
	.st20{clip-path:url(#SVGID_6_);fill:none;stroke:#000000;stroke-width:0.7173;stroke-miterlimit:10;}
	.st21{clip-path:url(#SVGID_6_);fill:#FAF39D;}
	.st22{clip-path:url(#SVGID_6_);fill:#02929E;}
	.st23{clip-path:url(#SVGID_6_);fill:#BCB39C;}
	.st24{opacity:0.4;clip-path:url(#SVGID_6_);fill:#02929E;}
	.st25{clip-path:url(#SVGID_6_);fill:none;stroke:#02929E;stroke-width:1.1833;stroke-miterlimit:10;}
	.st26{clip-path:url(#SVGID_6_);fill:none;stroke:#02929E;stroke-width:1.3047;stroke-linejoin:round;stroke-miterlimit:10;}
	.st27{clip-path:url(#SVGID_6_);fill:none;stroke:#02929E;stroke-width:1.4012;stroke-miterlimit:10;}
	.st28{clip-path:url(#SVGID_6_);fill:none;stroke:#02929E;stroke-width:1.2112;stroke-miterlimit:10;}
	.st29{clip-path:url(#SVGID_6_);}
	.st30{fill:#00AEEF;}
	.st31{clip-path:url(#SVGID_8_);fill:#ED2387;}
	.st32{clip-path:url(#SVGID_8_);fill:#E3DBC3;}
	.st33{opacity:0.4;clip-path:url(#SVGID_8_);fill:#02929E;}
	.st34{clip-path:url(#SVGID_8_);fill:#FAF39D;}
	.st35{clip-path:url(#SVGID_8_);fill:none;stroke:#02929E;stroke-width:1.196;stroke-miterlimit:10;}
	.st36{clip-path:url(#SVGID_8_);fill:#02929E;}
	.st37{clip-path:url(#SVGID_8_);fill:none;stroke:#02929E;stroke-width:1.4012;stroke-miterlimit:10;}
</style>
<g id="Layer_1" class="st0">
	<g class="st1">
		<circle class="st2" cx="75" cy="75" r="70.8"/>
		<g>
			<defs>
				<circle id="SVGID_1_" cx="75" cy="75" r="70.8"/>
			</defs>
			<clipPath id="SVGID_2_">
				<use xlink:href="#SVGID_1_"  style="overflow:visible;"/>
			</clipPath>
			<path class="st3" d="M76.2,111.3"/>
			<path class="st4" d="M105.2,145.8c0,0,1.3-22-12.3-26.1s-52.7-3.6-56.8-2.8s-8.2,5-9.2,16c-0.6,7.3,0.3,10.8,0.3,10.8
				S90.1,169.4,105.2,145.8z"/>
			<path class="st5" d="M91.7,50.4c0,0-3.6-17.9-27.3-17.9s-26.7,8.7-28.5,14c-8.9,26.3,16.9,56.3,16.9,56.3l21.1-2.9
				c0,0,12.4-3.3,23-16.2C104,75.1,105.8,52.1,91.7,50.4z"/>
			<path class="st6" d="M73.5,97.2c-0.1,0.1,0.1,1.1,0.4,2.6c1.1,5.9,4.2,19.7,4.2,19.7s-4.8,3.8-15,7.1c-5.3,1.7-8.5-0.4-8.5-0.4
				l2.5-23.7L73.5,97.2"/>
			<path class="st7" d="M74.3,102.8c0,0-4.9,8.1-12.1,11.1c-7.2,3-7.2,3-7.2,3l2-14.3l16.5-5.3L74.3,102.8z"/>
			<path class="st6" d="M77.9,53.8c-0.3-1.1,0.4,12.1,0.4,12.1l-7.5-1.4l-4.4-11.4L66,64.3l-25.8-1.9c0,0-1-7.6-0.9-8.8
				c0,0-1.3,20.4-1,30c0.2,10.8,12.4,22.5,19.4,22.2s15.4-4.4,21.8-12.3c4.9-6.1,3.8-12.4,3.8-12.4s8-2.9,8-5.4s-2.2-5.5-3.6-6.1
				c-2-0.8-4,2.9-4,2.9S81.5,67.6,77.9,53.8z"/>
			<path class="st8" d="M55,69.3c0.8,3.2,0.2,4.6-2.2,8.4c-2.4,3.8-2.5,4.4-2.4,6c0.1,0.9,2.3,2.8,2.3,2.8"/>
			<path class="st4" d="M61.8,92.8c0,0-1.6,0.3-4.4-0.6c-2.9-0.9-6.7-1.5-7.9-0.8s-0.3,2.2,0.2,2.4C50.1,94,59.1,97.2,61.8,92.8z"/>
			<ellipse class="st4" cx="64.5" cy="76.2" rx="1.5" ry="2.3"/>
			<ellipse class="st4" cx="47.5" cy="75.1" rx="1.2" ry="1.8"/>
			<path class="st9" d="M70.9,72c-0.8-3.7-6.4-2.6-6.4-2.6"/>
			<path class="st10" d="M48.6,69.6c0,0-2.3-1.5-4.5,0"/>
		</g>
		<path class="st11" d="M82.7,37.7c0,0,7.2-7.2,13.1-5.5c5.9,1.7,9.2,2.8,12.5,9c6.2,11.7,0,19.8,0,19.8s-6,3.8-6.1,4.9"/>
		<path class="st12" d="M82.7,37.9c0.7,0,12.9,2.3,19.2,14.6c2.5,4.8,0.7,12.7,0.7,12.7s-3.9-10.3-11.5-19.4
			C89.3,43.6,82.7,37.9,82.7,37.9z"/>
	</g>
</g>
<g id="Layer_2" class="st0">
	<g class="st1">
		<circle class="st13" cx="75" cy="75" r="70.8"/>
		<g>
			<defs>
				<circle id="SVGID_3_" cx="75" cy="75" r="70.8"/>
			</defs>
			<clipPath id="SVGID_4_">
				<use xlink:href="#SVGID_3_"  style="overflow:visible;"/>
			</clipPath>
			<path class="st14" d="M112.5,141.4c1.4-1.2,6.9-21.8,0-24.7c-6.9-2.9-21.5-3.4-21.5-3.4s-52.3-2-57,3.4
				c-4.7,5.4-3.6,26.7-3.6,26.7S92.4,157.7,112.5,141.4z"/>
			<path class="st15" d="M85.4,102.7l1.9,22.5c0,0-7.2,2.9-16.8,0c-9.6-2.9-9.8-4.6-9.8-4.6l3.8-23.8L85.4,102.7z"/>
			<polygon class="st16" points="85.4,102.7 86.4,113.7 63.6,102.7 64.6,96.8 			"/>
			<path class="st15" d="M96.4,51.2l2.8,24.6c0.5,2.8-1.2,13.1-3.5,17.8c-2.9,5.9-9.4,12.5-18.4,11.5c-10-1.1-16.8-5.7-22.2-13.4
				c-2.5-3.6-5.3-9-6.1-10.3c-0.5-0.8-1.5-1.1-2.4-0.7c-0.9,0.5-2.3,0.7-3.7,0c-2.8-1.4-4.3-3.8-3.4-6c0.5-1.2,2.2-1.4,3.6-1.4
				c1,0,1.9-0.8,2-1.8c0.2-6.3,1.3-25.3,5.6-28.7c4.6-3.7,37.8,5,44.4,6.7C95.8,49.9,96.3,50.5,96.4,51.2z"/>
			<path class="st17" d="M82.5,60.4c0.7,1.1,4.8,17.3,3.7,17.8C85,78.7,79,79.3,79,79.3"/>
			<circle class="st18" cx="91.3" cy="69" r="1.9"/>
			
				<ellipse transform="matrix(-0.998 -6.324247e-02 6.324247e-02 -0.998 135.3468 150.0037)" class="st18" cx="70" cy="72.9" rx="2.1" ry="2.2"/>
			<path class="st17" d="M86.3,83.8c0,0,0.3,3.5-5.7,3.7c-3.5,0.2-7.1-1.9-7.1-1.9"/>
			<path class="st17" d="M92,57.9c0,0-0.8-2.6-4-2.2c-1.9,0.3-2.7,0.8-2.7,0.8"/>
			<path class="st17" d="M67.7,59c0,0-3.8-1.7-5.9,3.2"/>
			<path class="st19" d="M44.7,75c1.3,0.3,6.7,3.4,6.7,3.4l4.1-1.6c0,0-2-3.7-1.8-6.2c0.2-2.5,3.5-24.5,3.5-24.5s10.9,4.3,15.8,5.4
				c4.9,1-3.9-2.7-3.9-2.7s12.9,2.5,16.1,3.5c3.2,1,16.2,3,16.2,3L97.4,49c0,0,5.4,5.9,5.8,6.3s3.5-19.9-2.5-26.1
				c-6.2-6.4-56.2,7-56.2,7s-3.1,1-4.1,3.7c-1,2.7-2.1,15.2-2.1,15.2s-0.1,18.3,1,18.6C40.4,74,44.7,75,44.7,75z"/>
			<path class="st19" d="M43,80.8c0,0,0.1,6.2-1.1,7.8c-1.2,1.7,4.8-3,4.8-3l2.3,7.1l2.5-2.9l3.1,3.7l0.7-1.8l-6.1-11.2L43,80.8z"/>
		</g>
	</g>
</g>
<g id="Layer_3" class="st0">
	<g class="st1">
		<circle class="st11" cx="75" cy="74.9" r="70.8"/>
		<g>
			<defs>
				<circle id="SVGID_5_" cx="75" cy="75.1" r="70.8"/>
			</defs>
			<clipPath id="SVGID_6_">
				<use xlink:href="#SVGID_5_"  style="overflow:visible;"/>
			</clipPath>
			<path class="st20" d="M88.6,108.6"/>
			<path class="st21" d="M113.5,134c0,0,5.4-12.9-8.2-17s-52.7-3.6-56.8-2.8c-4.1,0.8-8.2,5-9.2,16c-0.6,7.3,0.3,10.8,0.3,10.8
				S98.4,157.6,113.5,134z"/>
			<path class="st22" d="M99.2,41.8c-2.7-1.9,1.8-4.6-1.2-7.3c-1.4-1.3-3.8-2.3-6-3.5c-1.7-1-4.7-0.8-7-1.6
				c-1.9-0.6-4.6,3.4-6.9,3.1c-2-0.3-2.2-4.7-4.5-4.7c-2.5,0-5.4,2.9-7.4,3.2c-2.5,0.3-4.8,0.5-6.7,1.2c-2.4,0.8-4.2,2.2-5.9,3.4
				c-2.1,1.5-4,7.4-5.1,9c-1.6,2.3-2.2,0.5-2.7,2c-0.7,2-1.4,4-1.8,6.2c-0.4,2.1-2,4.2-2.2,6.4c-0.2,2.1,1.2,4.4,1.2,6.6
				c0,2.2,1.9,3.7,2.1,5.9c0.1,2.2,5.2,5.2,5.4,7.4c0.2,2.2,9.3,3.5,9.7,5.6c0.3,2.2,0.1,4.5,0.5,6.6c0.4,2.3,0.4,4.6,0.8,6.5
				c0.5,2.4,11.8-1.6,12.3,0.2c1,3.9,7.3,10.9,10.3,12.3c2.8,1.3,3.8-2.1,6.8-1.7c3,0.4,3,0.6,6,1s-31.4,3.3-28.4,3.6
				c3,0.4,3,0.7,6,1.1c3,0.4,2.9,1.1,6,1.5c3,0.4,3,0.8,6,1.2c3,0.4,3.4-2.3,6.4-1.9c3,0.4,3,0.5,6,0.9c3,0.4,2.9,1.8,5.8,1.1
				c3-0.7,1.6-1.5,2.4-5.1c0.4-1.7-1.6-4.3-1.1-6.5c0.4-1.9-5.3-2.6-4.8-4.6c0.4-1.9,2.1-3.6,2.5-5.7c0.4-2,0.3-4.1,0.7-6.1
				c0.4-2,2.1-3.8,2.4-5.8c0.3-2.1,0.3-4.2,0.5-6.1c0.3-2.3,3.6-6.4,3.6-8.1c0-2.3,1.3-5.6,1.3-7.7c0-2.3,0.1-4.2-0.2-6.2
				c-0.3-2.3-1.7-3.9-2.6-5.7c-1-2-4.2-5.6-6.1-6.8C101.8,41.8,101.7,42.1,99.2,41.8z"/>
			<path class="st23" d="M85.9,94.5c-0.1,0.1,0.1,1.1,0.4,2.6c1.1,5.9,4.2,19.7,4.2,19.7s-4.8,3.8-15,7.1c-5.3,1.7-8.5-0.4-8.5-0.4
				l2.5-23.7L85.9,94.5"/>
			<path class="st24" d="M86.6,100.1c0,0-4.9,8.1-12.1,11.1c-7.2,3-7.2,3-7.2,3l2-14.3l16.5-5.3L86.6,100.1z"/>
			<path class="st23" d="M65.2,47.4c-1.1-0.1-10.6,0-10.9,10c-0.1,3.5-0.9,22.2-0.6-7.8c0,0-0.3,31.4-0.7,37.8
				c-0.7,10.7,10.1,16.1,17.1,15.8s15.4-4.4,21.8-12.3c4.9-6.1,5.2-11.1,5.2-11.1s6.6-1.9,6.6-4.4c0-2.5-2.2-5.5-3.6-6.1
				c-2-0.8-4,2.9-4,2.9S94.4,49.6,65.2,47.4z"/>
			<path class="st25" d="M67.4,62.5c0.8,3.2,1.3,9-1.1,12.8c-2.4,3.8-3,4.7-2.3,6.2c0.4,0.8,4.2,1,4.2,1"/>
			<path class="st22" d="M75,89.1c0,0-2.5,1.3-5.3,0.4c-2.9-0.9-6.7-1.5-7.9-0.8s-0.3,2.2,0.2,2.4S72.3,93.4,75,89.1z"/>
			<ellipse class="st22" cx="76.8" cy="72.8" rx="1.5" ry="1.8"/>
			<ellipse class="st22" cx="59.9" cy="71.9" rx="1.2" ry="1.4"/>
			<path class="st26" d="M85,64c-3.6-3.9-8-1.5-8-1.5"/>
			<path class="st26" d="M61.6,63.1c0,0-3.6-2.6-6.3,0"/>
			<path class="st27" d="M71.1,72.8c0,4,3.2,7.3,7.3,7.3s9.6-6,9.6-10c0-4-6.9-3.5-10.9-3.5S71.1,68.8,71.1,72.8z"/>
			<path class="st28" d="M64.7,71.9c-0.3,3.4-3.4,6-6.8,5.7c-3.4-0.3-7.8-5.9-7.4-9.4c0.3-3.4,6.3-2.4,9.7-2.1
				C63.6,66.4,65,68.5,64.7,71.9z"/>
			<path class="st28" d="M71.1,71.2c0,0-1.5-3-6.4,0"/>
			<line class="st27" x1="96.1" y1="71.2" x2="87.9" y2="70"/>
			<path class="st22" d="M87.3,54.5l3.1,9.5l0.6,4.9v4.6c0,0-2.8,3.8-1.8,7.5c1,3.7,1,3.7,1,3.7l0.8,3.2c2.9-6.2,1.9-1.6,2.9-6.2
				c1-4.6-0.3-0.6,1-4.6s1.1-3.3,1.1-3.3l1.9-14.5"/>
			<g class="st29">
				<path class="st13" d="M85.2,107.5c0.5,4.4,1.5,4.1,1.4,8.5c0,3.6,2.6,8.4,1.2,9.7c-3.1,2.9-4.5,3.7-4.9,10
					c-0.4,5.1-0.2,5.6,4.1,6.4c2.2,0.4,5.2,0.3,8.7-1c3.2-1.2,7.9-1.2,9.4-3.3c3.2-4.3,0.4-6.9,1.1-13.5c0.4-3.6,4.3-3.4,4.3-7
					c0-5.1,0.4-4.6,1.2-9.6c1-5.9-0.8-6.1,0.1-12c1-6.6-2-6.6-2.1-13.2c0-4.6,5.8-4.7,5.7-9.3c-0.1-4.6-0.1-4.6-0.2-9.2l-3.1-2.6"/>
			</g>
		</g>
	</g>
</g>
<g id="Layer_4">
	<g>
		<circle class="st30" cx="75" cy="75" r="70.8"/>
		<g>
			<defs>
				<circle id="SVGID_7_" cx="75" cy="75" r="70.8"/>
			</defs>
			<clipPath id="SVGID_8_">
				<use xlink:href="#SVGID_7_"  style="overflow:visible;"/>
			</clipPath>
			<path class="st31" d="M112.1,141.4c1.3-1.2,6.4-21.8,0-24.7s-19.9-3.4-19.9-3.4s-48.5-2-52.8,3.4c-4.3,5.4-3.3,26.7-3.3,26.7
				S93.6,157.7,112.1,141.4z"/>
			<path class="st32" d="M91.2,102.7l1.9,22.5c0,0-7.2,2.9-16.8,0s-9.8-4.6-9.8-4.6l3.8-23.8L91.2,102.7z"/>
			<polygon class="st33" points="91.2,102.7 92.1,113.7 69.3,102.7 70.3,96.8 			"/>
			<path class="st32" d="M102.9,51.8l8.6,43.2c0,0-11.8,6.7-24.7,8.1c-8.6,0.9-16.4,0.3-22.3-7c-5.9-7.3-6.1-8.6-6.1-8.6
				s-2.2,2.7-5.1,1.5c-2.9-1.2-6.1-6.6-5.4-8.8s5.4-1.5,5.4-1.5S52.1,52,57,47.6S102.9,51.8,102.9,51.8z"/>
			<path class="st34" d="M60.2,48.9c0,0,18.5,8.9,20.3,3.2c1.8-5.8-1.5-11-4.9-11.1s-3.6,9.8,6.5,11s12.1-7.4,8.8-11
				c-3.3-3.6-7.1-1.2-5.5,2.2c1.6,3.3,2.2,8.7,11.1,9.2s17.5-2.5,17.5-2.5s-4.6-12.4-13.8-17.5s-40-8.5-49.7,8.2s-2.1,30.8-1.8,32
				s6,6.7,6,6.7s10-6.4,8.1-16.7C60.9,52.2,60.2,48.9,60.2,48.9z"/>
			<path class="st35" d="M85,64c0.7,0.9,8.3,14.8,7.3,15.3c-1,0.5-4.4,1.1-4.4,1.1"/>
			<circle class="st36" cx="96.4" cy="70.5" r="1.7"/>
			<ellipse class="st36" cx="79.7" cy="74" rx="2.1" ry="2.2"/>
			<path class="st37" d="M95.1,86.1c0,0,0.5,3.4-5.5,4.1c-3.5,0.4-7.2-1.4-7.2-1.4"/>
			<path class="st37" d="M100.6,62.8c0,0-1-2.5-4.1-2c-1.2,0.2-2.6,1-2.6,1"/>
			<path class="st37" d="M75,62.5c0,0-3.9-1.5-5.7,3.6"/>
		</g>
	</g>
</g>
</svg>
