<?xml version="1.0" encoding="utf-8"?>
<!-- Generator: Adobe Illustrator 19.1.0, SVG Export Plug-In . SVG Version: 6.00 Build 0)  -->
<svg version="1.1" id="Layer_1" xmlns="http://www.w3.org/2000/svg" xmlns:xlink="http://www.w3.org/1999/xlink" x="0px" y="0px"
	 viewBox="0 0 150 150" style="enable-background:new 0 0 150 150;" xml:space="preserve">
<style type="text/css">
	.st0{opacity:0.4;fill:#ED2387;}
	.st1{fill:#02929E;}
	.st2{fill:#ED2387;stroke:#02929E;stroke-width:1.3;stroke-miterlimit:10;}
	.st3{fill:#E3DBC3;}
	.st4{opacity:0.4;fill:#02929E;}
	.st5{fill:none;stroke:#02929E;stroke-width:1.1833;stroke-miterlimit:10;}
	.st6{fill:none;stroke:#02929E;stroke-width:1.3047;stroke-linejoin:round;stroke-miterlimit:10;}
	.st7{fill:#FFFFFF;stroke:#02929E;stroke-width:1.3047;stroke-linejoin:round;stroke-miterlimit:10;}
</style>
<g>
	<circle class="st0" cx="75" cy="75" r="70.8"/>
	<path class="st1" d="M36.5,132.6c0,0-5.4-12.9,8.2-17s52.7-3.6,56.8-2.8c4.1,0.8,8.2,5,9.2,16c0.6,7.3-0.3,10.8-0.3,10.8
		S51.6,156.2,36.5,132.6z"/>
	<path class="st2" d="M44.7,38.5c0,0,8.3-14.9,31.9-14.9s28.5,12.4,30.3,17.6c8.9,26.3-5.3,71.6-5.3,71.6l-60.8,7.8
		c0,0-9.9-37.7-10.2-53.1S30.6,40.2,44.7,38.5z"/>
	<path class="st3" d="M64.1,93.1c0.1,0.1-0.1,1.1-0.4,2.6c-1.1,5.9-4.2,19.7-4.2,19.7s4.8,3.8,15,7.1c5.3,1.7,8.5-0.4,8.5-0.4
		l-2.5-23.7L64.1,93.1"/>
	<path class="st4" d="M63.4,98.7c0,0,4.9,8.1,12.1,11.1c7.2,3,7.2,3,7.2,3l-2-14.3l-16.5-5.3L63.4,98.7z"/>
	<path class="st3" d="M59.6,49.8c-0.2-1.1,5.7,3.1,17.9,4.6c9.8,1.2,18.8-1.4,18.8-6.2c0,0,0.3,31.4,0.7,37.8
		c0.7,10.7-10.1,16.1-17.1,15.8s-15.4-4.4-21.8-12.3C53.2,83.4,52.9,76,52.9,76s-6.6-1.9-6.6-4.4c0-2.5,2.2-5.5,3.6-6.1
		c2-0.8,4,2.9,4,2.9S62.3,63.4,59.6,49.8z"/>
	<path class="st5" d="M83.8,62.6c-0.8,3.2-2.4,7.5,0,11.3c2.4,3.8,3.6,4,3.4,5.7c-0.1,0.9-2.3,2.8-2.3,2.8"/>
	<path class="st1" d="M75,87.7c0,0,2.5,1.3,5.3,0.4c2.9-0.9,6.7-1.5,7.9-0.8s0.3,2.2-0.2,2.4C87.5,89.9,77.7,92.1,75,87.7z"/>
	<ellipse class="st1" cx="73.2" cy="72.1" rx="1.5" ry="2.3"/>
	<ellipse class="st1" cx="90.1" cy="70.9" rx="1.2" ry="1.8"/>
	<path class="st6" d="M68.2,65.9c0.8-3.7,6.4-2.6,6.4-2.6"/>
	<path class="st7" d="M89,63.4c0,0,2.3-1.5,4.5,0"/>
</g>
</svg>
