<?xml version="1.0" encoding="utf-8"?>
<!-- Generator: Adobe Illustrator 19.1.0, SVG Export Plug-In . SVG Version: 6.00 Build 0)  -->
<svg version="1.1" id="Layer_1" xmlns="http://www.w3.org/2000/svg" xmlns:xlink="http://www.w3.org/1999/xlink" x="0px" y="0px"
	 viewBox="0 0 150 150" style="enable-background:new 0 0 150 150;" xml:space="preserve">
<style type="text/css">
	.st0{opacity:0.4;fill:#02929E;}
	.st1{fill:#ED2387;}
	.st2{fill:#E3DBC3;}
	.st3{fill:#FAF39D;}
	.st4{fill:none;stroke:#02929E;stroke-width:1.4012;stroke-miterlimit:10;}
	.st5{fill:#02929E;}
</style>
<g>
	<circle class="st0" cx="75" cy="75" r="70.8"/>
	<path class="st1" d="M40.8,136.6c-1.3-1.2-6.4-21.8,0-24.7s19.9-3.4,19.9-3.4s48.5-2,52.8,3.4c4.3,5.4,3.3,26.7,3.3,26.7
		S59.4,152.9,40.8,136.6z"/>
	<path class="st2" d="M61.8,97.8l-1.9,22.5c0,0,7.2,2.9,16.8,0c9.6-2.9,9.8-4.6,9.8-4.6L82.7,92L61.8,97.8z"/>
	<polygon class="st0" points="61.8,97.8 60.9,108.8 83.6,97.8 82.7,92 	"/>
	<path class="st2" d="M51.8,40.7l-9.3,48.1c0,0,11.8,8.7,24.7,8.1c10-0.5,17.1-4.6,23-12c5.9-7.3,6.1-8.6,6.1-8.6s2.2,2.7,5.1,1.5
		c2.9-1.2,6.1-6.6,5.4-8.8c-0.7-2.2-5.4-1.5-5.4-1.5s1.2-26.6-3.7-31C92.9,32.2,51.8,40.7,51.8,40.7z"/>
	<path class="st3" d="M94.6,37.8c0,0-18.5,8.9-20.3,3.2c-1.8-5.8,1.5-11,4.9-11.1s3.6,9.8-6.5,11s-12.1-7.4-8.8-11s7.1-1.2,5.5,2.2
		c-1.6,3.3-2.2,8.7-11.1,9.2s-17.5-2.5-17.5-2.5s4.6-12.4,13.8-17.5s40-8.5,49.7,8.2s2.1,30.8,1.8,32c-0.3,1.2-6,6.7-6,6.7
		s-10-6.4-8.1-16.7C93.8,41.1,94.6,37.8,94.6,37.8z"/>
	<path class="st4" d="M68,52.3c-0.7,1.1-9.4,18-8.3,18.6c1.1,0.6,5,1.3,5,1.3"/>
	<circle class="st5" cx="55.6" cy="60" r="2.2"/>
	<ellipse class="st5" cx="76.5" cy="65.1" rx="2.1" ry="2.2"/>
	<path class="st4" d="M59.7,75c0,0-0.5,3.4,5.5,4.1c3.5,0.4,7.2-1.4,7.2-1.4"/>
	<path class="st4" d="M55.6,48.9c0,0,0.9-2.4,4.1-2c3.2,0.4,2.6,1,2.6,1"/>
	<path class="st4" d="M79.7,51.5c0,0,3.9-1.5,5.7,3.6"/>
	<path class="st4" d="M52.2,51L66,54.5l-4.4,10.7C61.6,65.1,47.8,71.9,52.2,51z"/>
	<path class="st4" d="M66,54.5l7,2l1.5,0.4l14.6,4.1c0,0-6.6,16.1-17.4,7.8c-3.6-2.8,1.8-13,1.8-13"/>
	<path class="st4" d="M94.6,37.8c0,0-18.5,8.9-20.3,3.2c-1.8-5.8,1.5-11,4.9-11.1s3.6,9.8-6.5,11s-12.1-7.4-8.8-11s7.1-1.2,5.5,2.2
		c-1.6,3.3-2.2,8.7-11.1,9.2s-17.5-2.5-17.5-2.5s4.6-12.4,13.8-17.5s40-8.5,49.7,8.2s2.1,30.8,1.8,32c-0.3,1.2-6,6.7-6,6.7
		s-10-6.4-8.1-16.7S94.6,37.8,94.6,37.8z"/>
</g>
</svg>
