<?xml version="1.0" encoding="utf-8"?>
<!-- Generator: Adobe Illustrator 19.1.0, SVG Export Plug-In . SVG Version: 6.00 Build 0)  -->
<svg version="1.1" id="Layer_1" xmlns="http://www.w3.org/2000/svg" xmlns:xlink="http://www.w3.org/1999/xlink" x="0px" y="0px"
	 viewBox="0 0 255.5 61.5" style="enable-background:new 0 0 255.5 61.5;" xml:space="preserve">
<style type="text/css">
	.st0{fill:#02929E;}
</style>
<g>
	<g>
		<g>
			<path class="st0" d="M2.2,5.2h6.7c6.7,0,11.5,4.5,11.5,10.9S15.6,27,8.9,27H2.2V5.2z M8.7,23c4.8,0,7.1-2.9,7.1-7s-2.2-7-7.1-7
				h-2V23H8.7z"/>
			<path class="st0" d="M24.2,5.2h14.4v3.9h-9.9V16h8.8v3.8h-8.8V23H39V27H24.2V5.2z"/>
			<path class="st0" d="M59.3,27h-5.2l-3.6-5.5c-0.4,0.1-0.9,0.1-1.3,0.1h-1.5V27h-4.5V5.2h6c6.1,0,9.7,2.9,9.7,8.2
				c0,3.4-1.5,5.5-4.2,6.8L59.3,27z M49.1,17.6c3.7,0,5.3-1.2,5.3-4.2c0-3.1-1.7-4.3-5.3-4.3h-1.4v8.5H49.1z"/>
			<path class="st0" d="M62.9,5.2h14.4v3.9h-9.9V16h8.8v3.8h-8.8V23h10.4V27H62.9V5.2z"/>
			<path class="st0" d="M80.9,16.1c0-6.4,5-11.2,11.2-11.2c3.9,0,6.8,1.4,8.7,4.5l-3.4,2.4c-1-1.7-2.8-2.9-5.3-2.9
				c-3.9,0-6.6,3-6.6,7.1s2.7,7.2,6.6,7.2c2.8,0,4.4-1.3,5.6-3.2l3.5,2.4c-1.9,2.9-4.9,4.8-9.1,4.8C85.9,27.2,80.9,22.5,80.9,16.1z"
				/>
			<path class="st0" d="M104.5,5.2h4.5v11.2h9.3V5.2h4.5V27h-4.5v-6.6H109V27h-4.5V5.2z"/>
			<path class="st0" d="M126.7,16.1c0-6.4,5-11.2,11.3-11.2c6.3,0,11.3,4.7,11.3,11.2s-5,11.2-11.3,11.2
				C131.7,27.2,126.7,22.5,126.7,16.1z M144.6,16.1c0-4.1-2.7-7.2-6.7-7.2c-4,0-6.7,3.1-6.7,7.2s2.7,7.2,6.7,7.2
				C141.9,23.2,144.6,20.1,144.6,16.1z"/>
			<path class="st0" d="M151,22.7l3.7-2.1c1,1.6,2.2,2.7,4.4,2.7c1.9,0,3-0.9,3-2.2c0-1.5-1.2-2.1-3.3-3l-1.1-0.5
				c-3.2-1.4-5.4-3.1-5.4-6.8c0-3.4,2.6-5.9,6.6-5.9c2.9,0,4.9,1,6.4,3.6l-3.5,2.2c-0.8-1.4-1.6-1.9-2.9-1.9c-1.3,0-2.1,0.8-2.1,1.9
				c0,1.3,0.8,1.9,2.8,2.7l1.1,0.5c3.8,1.6,6,3.3,6,7.1c0,4-3.2,6.3-7.4,6.3C155,27.2,152.3,25.3,151,22.7z"/>
		</g>
		<g>
			<path class="st0" d="M2.2,35.9h6.7c6.7,0,11.5,4.5,11.5,10.9S15.6,57.7,8.9,57.7H2.2V35.9z M8.7,53.8c4.8,0,7.1-2.9,7.1-7
				s-2.2-7-7.1-7h-2v13.9H8.7z"/>
			<path class="st0" d="M24.2,35.9h14.4v3.9h-9.9v6.9h8.8v3.8h-8.8v3.1H39v3.9H24.2V35.9z"/>
			<path class="st0" d="M43.2,35.9h4.5v17.9h9.9v3.9H43.2V35.9z"/>
			<path class="st0" d="M68.3,35.9h14.4v3.9h-9.9v6.9h8.8v3.8h-8.8v3.1h10.4v3.9H68.3V35.9z"/>
			<path class="st0" d="M85.6,53.4l3.7-2.1c1,1.6,2.2,2.7,4.4,2.7c1.9,0,3-0.9,3-2.2c0-1.5-1.2-2.1-3.3-3l-1.1-0.5
				c-3.2-1.4-5.4-3.1-5.4-6.8c0-3.4,2.6-5.9,6.6-5.9c2.9,0,4.9,1,6.4,3.6l-3.5,2.2c-0.8-1.4-1.6-1.9-2.9-1.9c-1.3,0-2.1,0.8-2.1,1.9
				c0,1.3,0.8,1.9,2.8,2.7l1.1,0.5c3.8,1.6,6,3.3,6,7.1c0,4-3.2,6.3-7.4,6.3C89.6,58,86.9,56,85.6,53.4z"/>
			<path class="st0" d="M109,39.8h-6.2v-3.9h16.9v3.9h-6.2v17.9H109V39.8z"/>
			<path class="st0" d="M122.9,49.8V35.9h4.5v13.7c0,3.2,1.4,4.4,4.4,4.4c2.9,0,4.3-1.2,4.3-4.4V35.9h4.5v13.9
				c0,5.5-3.8,8.2-8.8,8.2C126.8,58,122.9,55.3,122.9,49.8z"/>
			<path class="st0" d="M145,35.9h6.7c6.7,0,11.5,4.5,11.5,10.9s-4.7,10.9-11.5,10.9H145V35.9z M151.5,53.8c4.8,0,7.1-2.9,7.1-7
				s-2.2-7-7.1-7h-2v13.9H151.5z"/>
			<path class="st0" d="M167.1,35.9h4.5v21.8h-4.5V35.9z"/>
			<path class="st0" d="M184.2,35.7h0.4l10,22h-4.7l-1-2.5h-8.8l-1,2.5h-4.3L184.2,35.7z M187.2,51.5l-1.6-3.8
				c-0.6-1.5-1.3-3.9-1.3-3.9s-0.6,2.4-1.3,3.9l-1.6,3.8H187.2z"/>
			<path class="st0" d="M203.9,47.6c-1.1-1-2.6-3-2.6-3s0.3,2.4,0.3,4v9.1h-4.2v-22h0.4l11,10.3c1.1,1,2.6,3,2.6,3s-0.3-2.5-0.3-4
				v-9.1h4.2v22h-0.4L203.9,47.6z"/>
			<path class="st0" d="M224.9,39.8h-6.2v-3.9h16.9v3.9h-6.2v17.9h-4.5V39.8z"/>
			<path class="st0" d="M238.9,35.9h14.4v3.9h-9.9v6.9h8.7v3.8h-8.7v3.1h10.4v3.9h-14.9V35.9z"/>
		</g>
		<g>
			<path class="st0" d="M257,55.7"/>
		</g>
	</g>
</g>
</svg>
