<?xml version="1.0" encoding="utf-8"?>
<!-- Generator: Adobe Illustrator 19.1.0, SVG Export Plug-In . SVG Version: 6.00 Build 0)  -->
<svg version="1.1" id="Layer_1" xmlns="http://www.w3.org/2000/svg" xmlns:xlink="http://www.w3.org/1999/xlink" x="0px" y="0px"
	 viewBox="0 0 113.5 58.2" style="enable-background:new 0 0 113.5 58.2;" xml:space="preserve">
<style type="text/css">
	.st0{fill:#FFFFFF;}
	.st1{fill:#EB2227;}
	.st2{fill:#F48220;}
	.st3{fill:#FED307;}
	.st4{fill:#51B748;}
	.st5{fill:#90298D;}
	.st6{fill:#184788;}
</style>
<g>
	<path class="st0" d="M23.2,41.6c0.5,0,0.6,0.4,0.6,0.8l0,0l0.6-0.1l0,0l0,0c0-0.3-0.2-1.3-1.3-1.3c-1.2,0-1.4,1.3-1.4,2
		c0,0.7,0.2,2,1.4,2c1.1,0,1.2-1,1.3-1.3l0,0l-0.6-0.1l0,0c-0.1,0.6-0.3,0.8-0.6,0.8c-0.5,0-0.7-0.5-0.7-1.4
		C22.5,42.1,22.7,41.6,23.2,41.6"/>
	<path class="st0" d="M25.9,42c-0.7,0-1.1,0.5-1.1,1.5c0,0.7,0.2,1.5,1.1,1.5c0.8,0,1.1-0.5,1.1-1.5C27,42.9,26.9,42,25.9,42
		 M25.9,42.5c0.3,0,0.5,0.3,0.5,1c0,0.7-0.1,1-0.5,1s-0.5-0.3-0.5-1C25.4,42.8,25.6,42.5,25.9,42.5"/>
	<path class="st0" d="M28.8,42c-0.4,0-0.6,0.2-0.7,0.4v-0.3h-0.6v2.9h0.6v-1.6c0-0.3,0-0.8,0.4-0.8c0.3,0,0.3,0.2,0.3,0.6v1.8h0.6
		v-1.8c0-0.3,0-0.6-0.1-0.7C29.3,42.1,29.1,42,28.8,42"/>
	<path class="st0" d="M31.1,43.2c-0.4-0.1-0.5-0.2-0.5-0.4c0-0.2,0.1-0.3,0.3-0.3c0.3,0,0.4,0.3,0.4,0.4l0,0l0.5-0.1l0,0
		c-0.1-0.2-0.2-0.7-0.9-0.7c-0.6,0-1,0.5-1,0.9c0,0.6,0.5,0.7,0.9,0.9c0.2,0.1,0.5,0.1,0.5,0.4c0,0,0,0.3-0.4,0.3
		c-0.4,0-0.5-0.3-0.5-0.5l0,0l-0.5,0.1l0,0l0,0c0,0.2,0.2,0.8,1,0.8c0.7,0,1.1-0.5,1.1-0.9C32,43.5,31.5,43.3,31.1,43.2"/>
	<path class="st0" d="M34.5,44.1L33.9,44l0,0c0,0.2-0.1,0.5-0.5,0.5c-0.5,0-0.5-0.6-0.5-0.9l1.6,0v0c0-0.3,0-0.7-0.2-1.1
		c-0.1-0.2-0.4-0.5-0.9-0.5c-0.7,0-1.1,0.6-1.1,1.5c0,0.4,0.1,1.5,1.1,1.5C34.2,45,34.4,44.3,34.5,44.1L34.5,44.1z M33.8,42.8
		c0,0.1,0.1,0.3,0.1,0.4h-0.9c0-0.5,0.2-0.7,0.5-0.7C33.4,42.5,33.7,42.5,33.8,42.8"/>
	<rect x="34.9" y="41.1" class="st0" width="0.7" height="0.7"/>
	<path class="st0" d="M34.9,44.8c0,0.5,0,0.6-0.3,0.6c-0.1,0-0.1,0-0.2,0l0,0v0.5l0.1,0c0.1,0,0.2,0,0.3,0c0.7,0,0.7-0.6,0.7-1.1
		v-2.7h-0.6V44.8z"/>
	<path class="st0" d="M37.2,42c-0.7,0-1.1,0.5-1.1,1.5c0,0.7,0.2,1.5,1.1,1.5c0.8,0,1.1-0.5,1.1-1.5C38.3,42.9,38.1,42,37.2,42
		 M37.2,42.5c0.3,0,0.5,0.3,0.5,1c0,0.7-0.1,1-0.5,1c-0.3,0-0.5-0.3-0.5-1C36.7,42.8,36.8,42.5,37.2,42.5"/>
	<path class="st0" d="M41.7,42.3c-0.1-0.1-0.3-0.3-0.6-0.3c-0.6,0-1,0.6-1,1.5c0,0.3,0.1,1.5,1,1.5c0.4,0,0.6-0.2,0.7-0.4v0.3h0.6
		v-3.9h-0.6V42.3z M41.2,44.5c-0.4,0-0.5-0.5-0.5-1c0-0.4,0-1,0.5-1c0.2,0,0.3,0.1,0.4,0.2c0.1,0.2,0.1,0.3,0.1,0.5v0.5
		c0,0.3,0,0.4-0.1,0.5C41.5,44.4,41.3,44.5,41.2,44.5"/>
	<path class="st0" d="M45,43.6c0-0.3,0-0.7-0.2-1.1c-0.1-0.2-0.4-0.5-0.9-0.5c-0.7,0-1.1,0.6-1.1,1.5c0,0.4,0.1,1.5,1.1,1.5
		c0.8,0,1-0.7,1.1-0.9l0,0L44.4,44l0,0c0,0.2-0.1,0.5-0.5,0.5c-0.5,0-0.5-0.6-0.5-0.9L45,43.6L45,43.6z M44.3,42.8
		c0,0.1,0,0.3,0.1,0.4h-0.9c0-0.5,0.2-0.7,0.5-0.7C44,42.5,44.2,42.5,44.3,42.8"/>
	<polygon class="st0" points="47.6,43.2 48.8,43.2 48.8,42.7 47.6,42.7 47.6,41.6 49.1,41.6 49.1,41.1 46.9,41.1 46.9,44.9 
		49.2,44.9 49.2,44.4 47.6,44.4 	"/>
	<path class="st0" d="M51,42.3c-0.1-0.1-0.3-0.3-0.6-0.3c-0.6,0-1,0.6-1,1.5c0,0.3,0.1,1.5,1,1.5c0.4,0,0.6-0.2,0.7-0.4v0.3h0.6
		v-3.9H51V42.3z M50.5,44.5c-0.4,0-0.5-0.5-0.5-1c0-0.4,0-1,0.5-1c0.2,0,0.3,0.1,0.4,0.2c0.1,0.2,0.1,0.3,0.1,0.5v0.5
		c0,0.3,0,0.4-0.1,0.5C50.8,44.4,50.6,44.5,50.5,44.5"/>
	<path class="st0" d="M53.6,43.4c0,0.5,0,1-0.4,1c-0.3,0-0.3-0.2-0.3-0.6v-1.8h-0.6v1.8c0,0.5,0,1.1,0.7,1.1c0.4,0,0.6-0.2,0.7-0.4
		v0.3h0.6v-2.9h-0.6V43.4z"/>
	<path class="st0" d="M55.8,42.5c0.3,0,0.4,0.3,0.4,0.6l0,0l0.6-0.1l0,0c0-0.3-0.1-1-1-1c-0.9,0-1.1,0.8-1.1,1.5
		c0,0.7,0.2,1.5,1.1,1.5c0.9,0,1-0.7,1.1-1.1l0,0l-0.6-0.1l0,0c0,0.3-0.1,0.6-0.4,0.6c-0.5,0-0.5-0.7-0.5-0.9
		C55.4,42.8,55.5,42.5,55.8,42.5"/>
	<path class="st0" d="M59.2,44.1v-1c0-0.3,0-0.7-0.2-0.9c-0.1-0.1-0.4-0.3-0.8-0.3c-0.3,0-1,0.1-1.1,0.8l0,0l0.6,0.1l0,0
		c0-0.1,0.1-0.4,0.4-0.4c0.4,0,0.4,0.4,0.4,0.6v0.1c0,0-0.1,0-0.1,0c-0.3,0-0.6,0-0.8,0.1c-0.4,0.1-0.6,0.5-0.6,0.9
		c0,0.5,0.3,0.8,0.8,0.8c0.4,0,0.6-0.3,0.8-0.5c0,0.2,0,0.3,0,0.4l0,0h0.6l0,0C59.2,44.7,59.2,44.4,59.2,44.1 M58,44.5
		c-0.2,0-0.4-0.1-0.4-0.4c0-0.2,0.1-0.6,0.7-0.6c0,0,0.1,0,0.1,0v0.1C58.6,44.3,58.3,44.5,58,44.5"/>
	<path class="st0" d="M60.8,42.5c0.3,0,0.4,0.3,0.4,0.6l0,0l0.6-0.1l0,0c0-0.3-0.1-1-1-1c-0.9,0-1.1,0.8-1.1,1.5
		c0,0.7,0.2,1.5,1.1,1.5c0.9,0,1-0.7,1.1-1.1l0,0l-0.6-0.1l0,0c0,0.3-0.1,0.6-0.4,0.6c-0.5,0-0.5-0.7-0.5-0.9
		C60.3,42.8,60.5,42.5,60.8,42.5"/>
	<rect x="62.1" y="41.1" class="st0" width="0.7" height="0.7"/>
	<rect x="62.1" y="42.1" class="st0" width="0.6" height="2.9"/>
	<path class="st0" d="M64.4,42c-0.7,0-1.1,0.5-1.1,1.5c0,0.7,0.2,1.5,1.1,1.5c0.8,0,1.1-0.5,1.1-1.5C65.5,42.9,65.4,42,64.4,42
		 M64.4,42.5c0.3,0,0.5,0.3,0.5,1c0,0.7-0.1,1-0.5,1s-0.5-0.3-0.5-1C63.9,42.8,64.1,42.5,64.4,42.5"/>
	<polygon class="st0" points="65.4,41.1 65,40.7 64.1,41.5 64.3,41.8 	"/>
	<path class="st0" d="M67.3,42c-0.4,0-0.6,0.2-0.7,0.4v-0.3H66v2.9h0.6v-1.6c0-0.3,0-0.8,0.4-0.8c0.3,0,0.3,0.2,0.3,0.6v1.8H68v-1.8
		c0-0.3,0-0.6-0.1-0.7C67.8,42.1,67.6,42,67.3,42"/>
	<path class="st0" d="M71.4,42.6L71.4,42.6c-0.5-0.2-0.7-0.3-0.7-0.6c0-0.2,0.1-0.5,0.5-0.5c0.4,0,0.5,0.2,0.6,0.6l0,0l0.6-0.2l0,0
		c-0.1-0.3-0.3-0.9-1.2-0.9c-0.8,0-1.2,0.6-1.2,1.1c0,0.4,0.2,0.7,0.4,0.8c0.2,0.2,0.4,0.3,0.8,0.4c0.3,0.1,0.6,0.3,0.6,0.6
		c0,0.1,0,0.5-0.6,0.5c-0.6,0-0.7-0.5-0.8-0.7l0,0l-0.6,0.2l0,0l0,0c0.1,0.3,0.3,1.1,1.3,1.1c0.9,0,1.3-0.6,1.3-1.2
		C72.5,43,71.9,42.8,71.4,42.6"/>
	<path class="st0" d="M75.1,43.6c0-0.3,0-0.7-0.2-1.1C74.7,42.3,74.4,42,74,42c-0.7,0-1.1,0.6-1.1,1.5C72.8,44,73,45,74,45
		c0.8,0,1-0.7,1.1-0.9l0,0L74.5,44l0,0c0,0.2-0.1,0.5-0.5,0.5c-0.5,0-0.5-0.6-0.5-0.9L75.1,43.6L75.1,43.6z M74.4,42.8
		c0,0.1,0,0.3,0.1,0.4h-0.9c0-0.5,0.2-0.7,0.5-0.7C74,42.5,74.3,42.5,74.4,42.8"/>
	<path class="st0" d="M76.5,42.5c0.3,0,0.4,0.3,0.4,0.6l0,0l0.6-0.1l0,0c0-0.3-0.1-1-1-1c-0.9,0-1.1,0.8-1.1,1.5
		c0,0.7,0.2,1.5,1.1,1.5c0.9,0,1-0.7,1.1-1.1l0,0l-0.6-0.1l0,0c0,0.3-0.1,0.6-0.4,0.6c-0.5,0-0.5-0.7-0.5-0.9
		C76,42.8,76.2,42.5,76.5,42.5"/>
	<path class="st0" d="M79.2,43.4c0,0.5,0,1-0.4,1c-0.3,0-0.3-0.2-0.3-0.6v-1.8h-0.6v1.8c0,0.5,0,1.1,0.7,1.1c0.4,0,0.6-0.2,0.7-0.4
		v0.3h0.6v-2.9h-0.6V43.4z"/>
	<path class="st0" d="M81.7,42c-0.4,0-0.6,0.2-0.7,0.4v-0.3h-0.6v2.9h0.6v-1.6c0-0.3,0-0.8,0.4-0.8c0.3,0,0.3,0.2,0.3,0.6v1.8h0.6
		v-1.8c0-0.3,0-0.6-0.1-0.7C82.3,42.1,82,42,81.7,42"/>
	<path class="st0" d="M84.6,42.3c-0.1-0.1-0.3-0.3-0.6-0.3c-0.6,0-1,0.6-1,1.5c0,0.3,0.1,1.5,1,1.5c0.4,0,0.6-0.2,0.7-0.4v0.3h0.6
		v-3.9h-0.6V42.3z M84.1,44.5c-0.4,0-0.5-0.5-0.5-1c0-0.4,0-1,0.5-1c0.2,0,0.3,0.1,0.4,0.2c0.1,0.2,0.1,0.3,0.1,0.5v0.5
		c0,0.3,0,0.4-0.1,0.5C84.3,44.4,84.2,44.5,84.1,44.5"/>
	<path class="st0" d="M87.8,44.1v-1c0-0.3,0-0.7-0.2-0.9c-0.1-0.1-0.4-0.3-0.8-0.3c-0.3,0-1,0.1-1.1,0.8l0,0l0.6,0.1l0,0
		c0-0.1,0.1-0.4,0.4-0.4c0.4,0,0.4,0.4,0.4,0.6v0.1c0,0-0.1,0-0.1,0c-0.3,0-0.6,0-0.8,0.1c-0.4,0.1-0.6,0.5-0.6,0.9
		c0,0.5,0.3,0.8,0.8,0.8c0.4,0,0.6-0.3,0.8-0.5c0,0.2,0,0.3,0,0.4l0,0h0.6l0,0C87.8,44.7,87.8,44.4,87.8,44.1 M86.7,44.5
		c-0.2,0-0.4-0.1-0.4-0.4c0-0.2,0.1-0.6,0.7-0.6c0,0,0.1,0,0.1,0v0.1C87.2,44.3,86.9,44.5,86.7,44.5"/>
	<path class="st0" d="M89.7,42c-0.3,0-0.5,0.2-0.7,0.6v-0.5h-0.6v2.9h0.6v-1.5c0-0.2,0-0.4,0.1-0.6c0.1-0.2,0.3-0.3,0.5-0.3
		c0,0,0.1,0,0.1,0l0,0V42l0,0C89.7,42,89.7,42,89.7,42"/>
	<rect x="90" y="41.1" class="st0" width="0.7" height="0.7"/>
	<rect x="90" y="42.1" class="st0" width="0.6" height="2.9"/>
	<path class="st0" d="M93.3,44.9c0-0.2,0-0.5,0-0.8v-1c0-0.3,0-0.7-0.2-0.9C93,42.2,92.7,42,92.3,42c-0.3,0-1,0.1-1.1,0.8l0,0
		l0.6,0.1l0,0c0-0.1,0.1-0.4,0.4-0.4c0.4,0,0.4,0.4,0.4,0.6v0.1c0,0-0.1,0-0.1,0c-0.3,0-0.6,0-0.8,0.1c-0.4,0.1-0.6,0.5-0.6,0.9
		c0,0.5,0.3,0.8,0.8,0.8c0.4,0,0.6-0.3,0.8-0.5c0,0.2,0,0.3,0,0.4l0,0L93.3,44.9L93.3,44.9z M92.1,44.5c-0.2,0-0.4-0.1-0.4-0.4
		c0-0.2,0.1-0.6,0.7-0.6c0,0,0.1,0,0.1,0v0.1C92.6,44.3,92.4,44.5,92.1,44.5"/>
	<path class="st0" d="M56,25.2c-0.3-2.4-0.7-4.4-3-4.4c-2.9,0-3.6,2.8-3.6,7.7c0,1.8,0,6.7,3.6,6.7c2.6,0,2.9-2.7,3-4.4l4,0.4
		c-0.3,2.5-1,7.4-7.4,7.4c-6.5,0-7.6-6.3-7.6-10.5c0-4.7,1.3-10.6,7.9-10.6c6,0,6.8,5.1,7.1,7.3L56,25.2z"/>
	<path class="st0" d="M66.1,28.7c0,2.3,0,6.8,3.9,6.8c2.7,0,3.2-2.3,3.6-3.8l3.8,0.5c-0.4,1.5-1.5,6.4-7.4,6.4c-6,0-8-5-8-10.3
		c0-7.4,3.6-10.9,8.1-10.9c3.3,0,5.3,1.9,6.1,3.5c1.4,2.7,1.4,5.2,1.5,7.7H66.1z M73.3,25.9c0-0.8,0-1.7-0.4-2.9
		c-0.7-2-2.3-2.5-3.1-2.5c-2.5,0-3.4,2.6-3.6,5.3H73.3z"/>
	<path class="st0" d="M89.8,23.6c-0.3-0.9-1-3-3.4-3c-1.7,0-2.6,1.2-2.6,2.5c0,1.8,1.3,2.3,4.1,3.2c2.4,0.8,6,2,6,6.1
		c0,3.1-2.3,6.4-7.4,6.4c-6.2,0-7-4.4-7.3-5.9l3.6-0.7c0.2,0.9,0.7,3.5,3.9,3.5c2.7,0,3.2-1.9,3.2-2.7c0-2-1.8-2.5-3.6-3.1
		c-2.8-0.9-6.3-2-6.3-6.1c0-3.2,2.5-6.2,6.7-6.2c5.1,0,6.2,3.8,6.5,5.2L89.8,23.6z"/>
	<path class="st1" d="M29.9,16.9c0,0.8,0.6,1.4,1.4,1.4c0.8,0,1.4-0.6,1.4-1.4c0-0.8-0.6-1.4-1.4-1.4C30.5,15.5,29.9,16.1,29.9,16.9
		"/>
	<path class="st1" d="M36.3,16.7c-2,0.6-3.9,2.5-5,3.9c-1.1-1.4-3-3.3-5-3.9l5,9.8l0,0l0,0l0,0L36.3,16.7z"/>
	<path class="st2" d="M30.4,27L30.4,27l-6-9.2c-0.5,2,0.2,4.6,0.9,6.3c-1.8,0.3-4.4,1-5.9,2.4L30.4,27L30.4,27
		C30.4,27,30.4,27,30.4,27"/>
	<path class="st2" d="M21.3,23.4c0.7,0.4,1.5,0.2,1.9-0.5c0.4-0.7,0.2-1.5-0.5-1.9c-0.7-0.4-1.5-0.2-1.9,0.5
		C20.4,22.2,20.6,23,21.3,23.4"/>
	<path class="st3" d="M32.2,27l11-0.5c-1.5-1.4-4.1-2.1-5.9-2.4c0.6-1.7,1.4-4.3,0.9-6.3L32.2,27L32.2,27C32.1,27,32.2,27,32.2,27
		C32.2,27,32.1,27,32.2,27L32.2,27z"/>
	<path class="st3" d="M41.2,23.4c0.7-0.4,0.9-1.2,0.5-1.9c-0.4-0.7-1.2-0.9-1.9-0.5c-0.7,0.4-0.9,1.2-0.5,1.9
		C39.7,23.6,40.5,23.8,41.2,23.4"/>
	<path class="st4" d="M31.2,36.8c-0.8,0-1.4,0.6-1.4,1.4c0,0.8,0.6,1.4,1.4,1.4c0.8,0,1.4-0.6,1.4-1.4C32.6,37.4,32,36.8,31.2,36.8"
		/>
	<path class="st4" d="M36.3,38.4l-5-9.8l0,0l0,0c0,0,0,0,0,0c0,0,0,0,0,0l0,0l-5,9.7c0,0,0,0,0,0c0,0,0,0,0,0l0,0l0,0
		c2-0.6,3.8-2.5,5-3.9l0,0C32.4,35.8,34.3,37.8,36.3,38.4L36.3,38.4L36.3,38.4z"/>
	<path class="st5" d="M37.2,31L37.2,31L37.2,31c1.8-0.3,4.4-1,5.9-2.4l0,0h0c0,0,0,0,0,0c0,0,0,0,0,0L32.2,28l0,0c0,0,0,0,0,0
		c0,0,0,0,0,0l0,0l5.9,9.2c0,0,0,0,0,0c0,0,0,0,0,0l0,0l0,0C38.6,35.3,37.9,32.7,37.2,31"/>
	<path class="st5" d="M41.2,31.7c-0.7-0.4-1.5-0.2-1.9,0.5c-0.4,0.7-0.2,1.5,0.5,1.9c0.7,0.4,1.5,0.2,1.9-0.5
		C42.1,32.9,41.9,32,41.2,31.7"/>
	<path class="st6" d="M21.3,31.7c-0.7,0.4-0.9,1.2-0.5,1.9c0.4,0.7,1.2,0.9,1.9,0.5c0.7-0.4,0.9-1.2,0.5-1.9
		C22.8,31.5,22,31.3,21.3,31.7"/>
	<path class="st6" d="M30.4,28.1L30.4,28.1L30.4,28.1L30.4,28.1C30.3,28.1,30.3,28.1,30.4,28.1L30.4,28.1l-11,0.5c0,0,0,0,0,0
		c1.5,1.4,4.1,2.1,5.9,2.4l0,0c-0.6,1.7-1.4,4.3-0.9,6.3c0,0,0,0,0,0l0,0L30.4,28.1z"/>
</g>
</svg>
