<?xml version="1.0" encoding="utf-8"?>
<!-- Generator: Adobe Illustrator 19.1.0, SVG Export Plug-In . SVG Version: 6.00 Build 0)  -->
<svg version="1.1" id="Layer_1" xmlns="http://www.w3.org/2000/svg" xmlns:xlink="http://www.w3.org/1999/xlink" x="0px" y="0px"
	 viewBox="-176 374.3 262.5 96" style="enable-background:new -176 374.3 262.5 96;" xml:space="preserve">
<style type="text/css">
	.st0{clip-path:url(#SVGID_2_);}
	.st1{fill:#FFFFFF;}
	.st2{clip-path:url(#SVGID_6_);}
	.st3{clip-path:url(#SVGID_8_);}
	.st4{fill-rule:evenodd;clip-rule:evenodd;fill:#FFFFFF;}
	.st5{clip-path:url(#SVGID_10_);}
</style>
<g>
	<g>
		<g>
			<defs>
				<polygon id="SVGID_1_" points="-145,400.7 -148.3,398.5 -153,401.3 -153,404.9 -145,412.9 -137,404.9 -137,401.3 -141.7,398.5 
									"/>
			</defs>
			<use xlink:href="#SVGID_1_"  style="overflow:visible;fill:#FFFFFF;"/>
			<clipPath id="SVGID_2_">
				<use xlink:href="#SVGID_1_"  style="overflow:visible;"/>
			</clipPath>
			<g class="st0">
				<defs>
					<rect id="SVGID_3_" x="-238.8" y="288.5" width="316.8" height="316.8"/>
				</defs>
				<use xlink:href="#SVGID_3_"  style="overflow:visible;fill:#FFFFFF;"/>
				<clipPath id="SVGID_4_">
					<use xlink:href="#SVGID_3_"  style="overflow:visible;"/>
				</clipPath>
			</g>
		</g>
	</g>
	<g>
		<g>
			<g>
				<path class="st1" d="M-110.3,411.7h5c5,0,8.6,3.3,8.6,8.1c0,4.8-3.5,8.1-8.6,8.1h-5V411.7z M-105.4,425c3.6,0,5.3-2.2,5.3-5.2
					c0-3-1.7-5.2-5.3-5.2h-1.5V425H-105.4z"/>
			</g>
			<g>
				<path class="st1" d="M-93.9,411.7h10.8v2.9h-7.4v5.2h6.5v2.9h-6.5v2.3h7.8v2.9h-11.1V411.7z"/>
			</g>
			<g>
				<path class="st1" d="M-67.7,427.9h-3.9l-2.7-4.1c-0.3,0-0.6,0.1-1,0.1h-1.1v4h-3.3v-16.3h4.5c4.5,0,7.3,2.2,7.3,6.1
					c0,2.5-1.1,4.1-3.1,5L-67.7,427.9z M-75.3,421c2.7,0,3.9-0.9,3.9-3.2c0-2.3-1.2-3.2-3.9-3.2h-1.1v6.4H-75.3z"/>
			</g>
			<g>
				<path class="st1" d="M-65,411.7h10.8v2.9h-7.4v5.2h6.5v2.9h-6.5v2.3h7.8v2.9H-65V411.7z"/>
			</g>
			<g>
				<path class="st1" d="M-51.6,419.8c0-4.8,3.7-8.3,8.4-8.3c2.9,0,5,1.1,6.5,3.3l-2.6,1.8c-0.8-1.2-2.1-2.1-3.9-2.1
					c-2.9,0-4.9,2.3-4.9,5.3c0,3,2,5.4,4.9,5.4c2.1,0,3.3-1,4.2-2.4l2.6,1.8c-1.4,2.2-3.7,3.6-6.8,3.6
					C-47.8,428.2-51.6,424.6-51.6,419.8z"/>
			</g>
			<g>
				<path class="st1" d="M-33.9,411.7h3.3v8.3h7v-8.3h3.3v16.3h-3.3v-5h-7v5h-3.3V411.7z"/>
			</g>
			<g>
				<path class="st1" d="M-17.4,419.8c0-4.8,3.7-8.3,8.4-8.3c4.7,0,8.4,3.5,8.4,8.3c0,4.8-3.7,8.3-8.4,8.3
					C-13.7,428.2-17.4,424.6-17.4,419.8z M-4,419.8c0-3-2-5.4-5-5.4c-3,0-5,2.3-5,5.4c0,3,2,5.4,5,5.4C-6,425.2-4,422.8-4,419.8z"/>
			</g>
			<g>
				<path class="st1" d="M0.8,424.7l2.7-1.6c0.7,1.2,1.7,2,3.3,2c1.4,0,2.3-0.7,2.3-1.7c0-1.1-0.9-1.6-2.4-2.2L5.8,421
					c-2.4-1-4-2.3-4-5c0-2.5,1.9-4.4,4.9-4.4c2.1,0,3.7,0.7,4.8,2.7l-2.6,1.7c-0.6-1-1.2-1.4-2.2-1.4c-1,0-1.6,0.6-1.6,1.4
					c0,1,0.6,1.4,2.1,2l0.8,0.4c2.8,1.2,4.4,2.5,4.4,5.3c0,3-2.4,4.7-5.5,4.7C3.8,428.2,1.8,426.7,0.8,424.7z"/>
			</g>
		</g>
		<g>
			<g>
				<path class="st1" d="M-110.3,434.6h5c5,0,8.6,3.3,8.6,8.1s-3.5,8.1-8.6,8.1h-5V434.6z M-105.4,447.9c3.6,0,5.3-2.2,5.3-5.2
					s-1.7-5.2-5.3-5.2h-1.5v10.4H-105.4z"/>
			</g>
			<g>
				<path class="st1" d="M-93.9,434.6h10.8v2.9h-7.4v5.2h6.5v2.9h-6.5v2.3h7.8v2.9h-11.1V434.6z"/>
			</g>
			<g>
				<path class="st1" d="M-79.7,434.6h3.3v13.3h7.4v2.9h-10.7V434.6z"/>
			</g>
			<g>
				<path class="st1" d="M-61,434.6h10.8v2.9h-7.4v5.2h6.5v2.9h-6.5v2.3h7.8v2.9H-61V434.6z"/>
			</g>
			<g>
				<path class="st1" d="M-48.1,447.7l2.7-1.6c0.7,1.2,1.7,2,3.3,2c1.4,0,2.3-0.7,2.3-1.7c0-1.1-0.9-1.6-2.4-2.2l-0.8-0.4
					c-2.4-1-4-2.3-4-5c0-2.5,1.9-4.4,4.9-4.4c2.1,0,3.7,0.7,4.8,2.7l-2.6,1.7c-0.6-1-1.2-1.4-2.2-1.4c-1,0-1.6,0.6-1.6,1.4
					c0,1,0.6,1.4,2.1,2l0.8,0.4c2.8,1.2,4.4,2.5,4.4,5.3c0,3-2.4,4.7-5.5,4.7C-45.1,451.1-47.1,449.6-48.1,447.7z"/>
			</g>
			<g>
				<path class="st1" d="M-30.6,437.6h-4.6v-2.9h12.6v2.9h-4.6v13.3h-3.3V437.6z"/>
			</g>
			<g>
				<path class="st1" d="M-20.2,445v-10.4h3.3v10.2c0,2.4,1,3.3,3.3,3.3c2.2,0,3.2-0.9,3.2-3.3v-10.2H-7V445c0,4.1-2.8,6.1-6.6,6.1
					C-17.3,451.1-20.2,449.1-20.2,445z"/>
			</g>
			<g>
				<path class="st1" d="M-3.7,434.6h5c5,0,8.6,3.3,8.6,8.1s-3.5,8.1-8.6,8.1h-5V434.6z M1.1,447.9c3.6,0,5.3-2.2,5.3-5.2
					s-1.7-5.2-5.3-5.2h-1.5v10.4H1.1z"/>
			</g>
			<g>
				<path class="st1" d="M12.8,434.6h3.3v16.3h-3.3V434.6z"/>
			</g>
			<g>
				<path class="st1" d="M25.5,434.5h0.3l7.4,16.4h-3.5L29,449h-6.6l-0.8,1.8h-3.2L25.5,434.5z M27.8,446.2l-1.2-2.8
					c-0.5-1.1-1-2.9-1-2.9s-0.5,1.8-1,2.9l-1.2,2.8H27.8z"/>
			</g>
			<g>
				<path class="st1" d="M40.3,443.3c-0.8-0.8-1.9-2.2-1.9-2.2s0.2,1.8,0.2,3v6.8h-3.1v-16.4h0.3l8.2,7.7c0.8,0.7,1.9,2.2,1.9,2.2
					s-0.2-1.8-0.2-3v-6.8h3.1V451h-0.3L40.3,443.3z"/>
			</g>
			<g>
				<path class="st1" d="M55.9,437.6h-4.6v-2.9h12.6v2.9h-4.6v13.3h-3.3V437.6z"/>
			</g>
			<g>
				<path class="st1" d="M66.4,434.6h10.8v2.9h-7.4v5.2h6.5v2.9h-6.5v2.3h7.8v2.9H66.4V434.6z"/>
			</g>
		</g>
		<g>
			<g>
				<path class="st1" d="M79.9,449.4"/>
			</g>
		</g>
		<g>
			<g>
				<path class="st1" d="M-152.4,390.9c0.9-3.2,3.9-5.5,7.4-5.5c3.5,0,6.4,2.3,7.4,5.5c1.2,0.3,2.3,0.7,3.4,1.2
					c-0.5-5.5-5.1-9.8-10.7-9.8c-5.6,0-10.2,4.3-10.7,9.8C-154.7,391.6-153.6,391.2-152.4,390.9z"/>
			</g>
			<g>
				<path class="st1" d="M-140.8,387.2c-1.4-0.2-2.8-0.3-4.2-0.3c-1.4,0-2.8,0.1-4.2,0.3l-3.3,0.6c-9.8,2.5-16.8,9.5-16.8,17.9v40.6
					c0,2.5,2,4.6,4.6,4.6h39.6c2.5,0,4.6-2,4.6-4.6v-40.6c0-0.1,0-0.1,0-0.2c-0.1-8.3-7.1-15.3-16.8-17.7L-140.8,387.2z
					 M-123.7,446.2c0,0.8-0.7,1.5-1.5,1.5h-39.6c-0.8,0-1.5-0.7-1.5-1.5v-40.6c0-8.7,9.6-15.8,21.3-15.8s21.3,7.1,21.3,15.8V446.2z
					 M-129,419h-32c-0.8,0-1.5,0.7-1.5,1.5v22.8c0,0.8,0.7,1.5,1.5,1.5h32c0.8,0,1.5-0.7,1.5-1.5v-22.8
					C-127.5,419.7-128.2,419-129,419 M-159.5,424.2v-2.1h28.9v2.1v3v14.7h-28.9v-14.7"/>
			</g>
			<g>
				<path class="st1" d="M-156.8,428.2L-156.8,428.2c-0.1,0-0.2,0.1-0.2,0.2h0C-157,428.3-156.9,428.2-156.8,428.2"/>
			</g>
			<g>
				<path class="st1" d="M-157.6,428.4L-157.6,428.4c0-0.4,0.4-0.8,0.8-0.8s0.8,0.4,0.8,0.8h0l0,0.3h27.4v-1.2h-31.2v1.2h2.1
					L-157.6,428.4z"/>
			</g>
			<g>
				<polygon class="st1" points="-156.5,428.4 -156.5,428.4 -156.5,428.6 				"/>
			</g>
			<g>
				<polygon class="st1" points="-157,428.4 -157.3,428.4 -157.3,428.4 -157,428.4 -157,428.6 -157,428.6 				"/>
			</g>
			<g>
				<path class="st1" d="M-156,432.8c0,0.1,0,0.2-0.1,0.3c-0.1,0.3-0.4,0.5-0.7,0.5c-0.3,0-0.6-0.2-0.7-0.5
					c-0.1-0.1-0.1-0.2-0.1-0.3l0.5-4.2h-0.6l-0.5,4.1c0,0.8,0.6,1.4,1.4,1.4c0.8,0,1.4-0.7,1.4-1.4l-0.5-4.1h-0.6L-156,432.8z"/>
			</g>
			<g>
				<path class="st1" d="M-155.9,428.4c0-0.4-0.4-0.8-0.8-0.8s-0.8,0.4-0.8,0.8h0l0,0.3h0.6l0-0.2l-0.3,0h0h0.3
					c0-0.1,0.1-0.2,0.2-0.2h0c0.1,0,0.2,0.1,0.2,0.2h0.3h0l-0.3,0l0,0.2h0.6L-155.9,428.4L-155.9,428.4z"/>
			</g>
			<g>
				<path class="st1" d="M-157,428.6l-0.5,4.2c0,0.1,0,0.2,0.1,0.3c0-0.1,0-0.1,0-0.2c0-0.4,0.3-0.7,0.7-0.7c0.4,0,0.7,0.3,0.7,0.7
					c0,0.1,0,0.2,0,0.2c0.1-0.1,0.1-0.2,0.1-0.3l-0.5-4.2H-157z"/>
			</g>
			<g>
				<path class="st1" d="M-157,428.6h0.5l0-0.2v0l0.3,0h-0.3h0c0-0.1-0.1-0.2-0.2-0.2c-0.1,0-0.2,0.1-0.2,0.2h0h-0.3l0.3,0
					L-157,428.6z"/>
			</g>
			<g>
				<path class="st1" d="M-157.5,432.8c0,0.1,0,0.2,0.1,0.3v0C-157.5,433-157.5,432.9-157.5,432.8"/>
			</g>
			<g>
				<path class="st1" d="M-156.1,433.1c0.1-0.1,0.1-0.2,0.1-0.3C-156,432.9-156,433-156.1,433.1L-156.1,433.1"/>
			</g>
			<g>
				<path class="st1" d="M-156.5,428.4L-156.5,428.4c0-0.1-0.1-0.2-0.2-0.2C-156.6,428.2-156.5,428.3-156.5,428.4"/>
			</g>
			<g>
				
					<rect x="-156.5" y="428.4" transform="matrix(0.9927 -0.121 0.121 0.9927 -52.9952 -15.7772)" class="st1" width="0.3" height="0"/>
			</g>
			<g>
				<path class="st1" d="M-156.8,433.5c-0.3,0-0.5-0.2-0.7-0.4C-157.3,433.4-157.1,433.6-156.8,433.5c0.3,0.1,0.6-0.1,0.7-0.4
					C-156.2,433.4-156.5,433.5-156.8,433.5"/>
			</g>
			<g>
				<path class="st1" d="M-156.8,433.5c-0.3,0-0.5-0.2-0.7-0.4v0C-157.3,433.4-157.1,433.5-156.8,433.5c0.3,0,0.5-0.2,0.7-0.4v0
					C-156.2,433.4-156.5,433.5-156.8,433.5"/>
			</g>
			<g>
				<path class="st1" d="M-126.1,401.7L-126.1,401.7c-0.1,0-0.2,0-0.3,0.1l0,0C-126.3,401.7-126.2,401.6-126.1,401.7"/>
			</g>
			<g>
				<polygon class="st1" points="-125.9,402 -125.9,402 -126,402.2 				"/>
			</g>
			<g>
				<polygon class="st1" points="-126.4,401.8 -126.6,401.7 -126.6,401.7 -126.4,401.8 -126.4,402 -126.4,402 				"/>
			</g>
			<g>
				<path class="st1" d="M-127.1,406.3c0,0.1-0.1,0.2-0.2,0.3c-0.2,0.2-0.5,0.3-0.8,0.2c-0.3-0.1-0.5-0.4-0.4-0.7c0-0.1,0-0.2,0-0.3
					l2-3.7l-0.6-0.2l-2,3.6c-0.3,0.7,0,1.5,0.8,1.8c0.7,0.3,1.5-0.1,1.8-0.8l1-4l-0.6-0.2L-127.1,406.3z"/>
			</g>
			<g>
				<path class="st1" d="M-125.4,402.2c0.1-0.4-0.1-0.9-0.5-1c-0.4-0.2-0.9,0-1.1,0.4l0,0l-0.1,0.2l0.6,0.2l0.1-0.2l-0.3-0.1l0,0
					l0.3,0.1c0-0.1,0.2-0.2,0.3-0.1l0,0c0.1,0,0.2,0.2,0.1,0.3l0.3,0.1l0,0l-0.3-0.1l0,0.2l0.6,0.2L-125.4,402.2L-125.4,402.2z"/>
			</g>
			<g>
				<path class="st1" d="M-126.4,402l-2,3.7c0,0.1,0,0.2,0,0.3c0-0.1,0-0.1,0-0.2c0.1-0.4,0.6-0.5,0.9-0.4c0.4,0.1,0.5,0.6,0.4,0.9
					c0,0.1-0.1,0.1-0.1,0.2c0.1-0.1,0.2-0.2,0.2-0.3l1.1-4.1L-126.4,402z"/>
			</g>
			<g>
				<path class="st1" d="M-128.5,405.7c0,0.1,0,0.2,0,0.3l0,0C-128.5,405.9-128.5,405.8-128.5,405.7"/>
			</g>
			<g>
				<path class="st1" d="M-127.3,406.5c0.1-0.1,0.2-0.2,0.2-0.3C-127.1,406.4-127.2,406.5-127.3,406.5L-127.3,406.5z"/>
			</g>
			<g>
				<path class="st1" d="M-125.9,402L-125.9,402c0-0.1,0-0.2-0.1-0.3C-125.9,401.7-125.9,401.9-125.9,402"/>
			</g>
			<g>
				<rect x="-126" y="402" transform="matrix(0.9674 0.2533 -0.2533 0.9674 97.7418 44.9808)" class="st1" width="0.3" height="0"/>
			</g>
			<g>
				<path class="st1" d="M-128,406.7c-0.3-0.1-0.4-0.4-0.5-0.6C-128.5,406.3-128.4,406.6-128,406.7c0.3,0.2,0.6,0.1,0.8-0.1
					C-127.5,406.7-127.8,406.8-128,406.7"/>
			</g>
			<g>
				<path class="st1" d="M-128,406.7c-0.3-0.1-0.4-0.4-0.5-0.6l0,0C-128.5,406.3-128.3,406.6-128,406.7c0.3,0.1,0.6,0,0.8-0.1l0,0
					C-127.5,406.7-127.8,406.8-128,406.7"/>
			</g>
			<g>
				<path class="st1" d="M-165.5,448.1c-0.2,0-0.4-0.2-0.4-0.4v-0.5c0-0.2,0.2-0.4,0.4-0.4s0.4,0.2,0.4,0.4v0.5
					C-165.1,448-165.3,448.1-165.5,448.1z"/>
			</g>
			<g>
				<path class="st1" d="M-124.5,447.1c-0.2,0-0.4-0.2-0.4-0.4v-1.4c0-0.2,0.2-0.4,0.4-0.4s0.4,0.2,0.4,0.4v1.4
					C-124.2,446.9-124.3,447.1-124.5,447.1z M-165.5,446.6c-0.2,0-0.4-0.2-0.4-0.4v-1.4c0-0.2,0.2-0.4,0.4-0.4s0.4,0.2,0.4,0.4v1.4
					C-165.1,446.4-165.3,446.6-165.5,446.6z M-124.5,444.2c-0.2,0-0.4-0.2-0.4-0.4v-1.4c0-0.2,0.2-0.4,0.4-0.4s0.4,0.2,0.4,0.4v1.4
					C-124.2,444-124.3,444.2-124.5,444.2z M-165.5,443.7c-0.2,0-0.4-0.2-0.4-0.4v-1.4c0-0.2,0.2-0.4,0.4-0.4s0.4,0.2,0.4,0.4v1.4
					C-165.1,443.5-165.3,443.7-165.5,443.7z M-124.5,441.3c-0.2,0-0.4-0.2-0.4-0.4v-1.4c0-0.2,0.2-0.4,0.4-0.4s0.4,0.2,0.4,0.4v1.4
					C-124.2,441.2-124.3,441.3-124.5,441.3z M-165.5,440.8c-0.2,0-0.4-0.2-0.4-0.4V439c0-0.2,0.2-0.4,0.4-0.4s0.4,0.2,0.4,0.4v1.4
					C-165.1,440.7-165.3,440.8-165.5,440.8z M-124.5,438.4c-0.2,0-0.4-0.2-0.4-0.4v-1.4c0-0.2,0.2-0.4,0.4-0.4s0.4,0.2,0.4,0.4v1.4
					C-124.2,438.3-124.3,438.4-124.5,438.4z M-165.5,437.9c-0.2,0-0.4-0.2-0.4-0.4v-1.4c0-0.2,0.2-0.4,0.4-0.4s0.4,0.2,0.4,0.4v1.4
					C-165.1,437.8-165.3,437.9-165.5,437.9z M-124.5,435.6c-0.2,0-0.4-0.2-0.4-0.4v-1.4c0-0.2,0.2-0.4,0.4-0.4s0.4,0.2,0.4,0.4v1.4
					C-124.2,435.4-124.3,435.6-124.5,435.6z M-165.5,435.1c-0.2,0-0.4-0.2-0.4-0.4v-1.4c0-0.2,0.2-0.4,0.4-0.4s0.4,0.2,0.4,0.4v1.4
					C-165.1,434.9-165.3,435.1-165.5,435.1z M-124.5,432.7c-0.2,0-0.4-0.2-0.4-0.4v-1.4c0-0.2,0.2-0.4,0.4-0.4s0.4,0.2,0.4,0.4v1.4
					C-124.2,432.5-124.3,432.7-124.5,432.7z M-165.5,432.2c-0.2,0-0.4-0.2-0.4-0.4v-1.4c0-0.2,0.2-0.4,0.4-0.4s0.4,0.2,0.4,0.4v1.4
					C-165.1,432-165.3,432.2-165.5,432.2z M-124.5,429.8c-0.2,0-0.4-0.2-0.4-0.4V428c0-0.2,0.2-0.4,0.4-0.4s0.4,0.2,0.4,0.4v1.4
					C-124.2,429.6-124.3,429.8-124.5,429.8z M-165.5,429.3c-0.2,0-0.4-0.2-0.4-0.4v-1.4c0-0.2,0.2-0.4,0.4-0.4s0.4,0.2,0.4,0.4v1.4
					C-165.1,429.1-165.3,429.3-165.5,429.3z M-124.5,426.9c-0.2,0-0.4-0.2-0.4-0.4v-1.4c0-0.2,0.2-0.4,0.4-0.4s0.4,0.2,0.4,0.4v1.4
					C-124.2,426.7-124.3,426.9-124.5,426.9z M-165.5,426.4c-0.2,0-0.4-0.2-0.4-0.4v-1.4c0-0.2,0.2-0.4,0.4-0.4s0.4,0.2,0.4,0.4v1.4
					C-165.1,426.2-165.3,426.4-165.5,426.4z M-124.5,424c-0.2,0-0.4-0.2-0.4-0.4v-1.4c0-0.2,0.2-0.4,0.4-0.4s0.4,0.2,0.4,0.4v1.4
					C-124.2,423.9-124.3,424-124.5,424z M-165.5,423.5c-0.2,0-0.4-0.2-0.4-0.4v-1.4c0-0.2,0.2-0.4,0.4-0.4s0.4,0.2,0.4,0.4v1.4
					C-165.1,423.4-165.3,423.5-165.5,423.5z M-124.5,421.1c-0.2,0-0.4-0.2-0.4-0.4v-1.4c0-0.2,0.2-0.4,0.4-0.4s0.4,0.2,0.4,0.4v1.4
					C-124.2,421-124.3,421.1-124.5,421.1z M-165.5,420.6c-0.2,0-0.4-0.2-0.4-0.4v-1.4c0-0.2,0.2-0.4,0.4-0.4s0.4,0.2,0.4,0.4v1.4
					C-165.1,420.5-165.3,420.6-165.5,420.6z M-124.5,418.3c-0.2,0-0.4-0.2-0.4-0.4v-1.4c0-0.2,0.2-0.4,0.4-0.4s0.4,0.2,0.4,0.4v1.4
					C-124.2,418.1-124.3,418.3-124.5,418.3z M-165.5,417.8c-0.2,0-0.4-0.2-0.4-0.4V416c0-0.2,0.2-0.4,0.4-0.4s0.4,0.2,0.4,0.4v1.4
					C-165.1,417.6-165.3,417.8-165.5,417.8z M-124.5,415.4c-0.2,0-0.4-0.2-0.4-0.4v-1.4c0-0.2,0.2-0.4,0.4-0.4s0.4,0.2,0.4,0.4v1.4
					C-124.2,415.2-124.3,415.4-124.5,415.4z M-165.5,414.9c-0.2,0-0.4-0.2-0.4-0.4v-1.4c0-0.2,0.2-0.4,0.4-0.4s0.4,0.2,0.4,0.4v1.4
					C-165.1,414.7-165.3,414.9-165.5,414.9z M-124.5,412.5c-0.2,0-0.4-0.2-0.4-0.4v-1.4c0-0.2,0.2-0.4,0.4-0.4s0.4,0.2,0.4,0.4v1.4
					C-124.2,412.3-124.3,412.5-124.5,412.5z M-165.5,412c-0.2,0-0.4-0.2-0.4-0.4v-1.4c0-0.2,0.2-0.4,0.4-0.4s0.4,0.2,0.4,0.4v1.4
					C-165.1,411.8-165.3,412-165.5,412z M-124.5,409.6c-0.2,0-0.4-0.2-0.4-0.4v-1.4c0-0.2,0.2-0.4,0.4-0.4s0.4,0.2,0.4,0.4v1.4
					C-124.2,409.5-124.3,409.6-124.5,409.6z M-165.5,409.1c-0.2,0-0.4-0.2-0.4-0.4v-1.4c0-0.2,0.2-0.4,0.4-0.4s0.4,0.2,0.4,0.4v1.4
					C-165.1,409-165.3,409.1-165.5,409.1z M-124.5,406.7c-0.2,0-0.4-0.2-0.4-0.4v-0.2c0-0.4,0-0.8-0.1-1.2c0-0.2,0.1-0.4,0.3-0.4
					c0.2,0,0.4,0.1,0.4,0.3c0,0.4,0.1,0.9,0.1,1.3v0.2C-124.2,406.6-124.3,406.7-124.5,406.7z M-165.5,406.2
					C-165.5,406.2-165.5,406.2-165.5,406.2c-0.2,0-0.4-0.2-0.4-0.4c0-0.5,0.1-1,0.1-1.5c0-0.2,0.2-0.3,0.4-0.3
					c0.2,0,0.3,0.2,0.3,0.4c-0.1,0.5-0.1,0.9-0.1,1.4C-165.1,406.1-165.3,406.2-165.5,406.2z M-124.8,403.9c-0.2,0-0.3-0.1-0.4-0.3
					c-0.1-0.4-0.2-0.9-0.4-1.3c-0.1-0.2,0-0.4,0.2-0.5c0.2-0.1,0.4,0,0.5,0.2c0.2,0.5,0.3,0.9,0.4,1.4
					C-124.4,403.6-124.6,403.8-124.8,403.9C-124.8,403.9-124.8,403.9-124.8,403.9z M-165.1,403.4
					C-165.1,403.4-165.1,403.4-165.1,403.4c-0.3-0.1-0.4-0.3-0.3-0.5c0.1-0.5,0.3-0.9,0.5-1.4c0.1-0.2,0.3-0.3,0.5-0.2
					c0.2,0.1,0.3,0.3,0.2,0.5c-0.2,0.4-0.3,0.9-0.5,1.3C-164.8,403.3-164.9,403.4-165.1,403.4z M-125.8,401.2
					c-0.1,0-0.3-0.1-0.3-0.2c-0.2-0.4-0.4-0.8-0.7-1.2c-0.1-0.2-0.1-0.4,0.1-0.5c0.2-0.1,0.4-0.1,0.5,0.1c0.3,0.4,0.5,0.8,0.7,1.3
					c0.1,0.2,0,0.4-0.2,0.5C-125.7,401.2-125.8,401.2-125.8,401.2z M-164,400.7c-0.1,0-0.1,0-0.2,0c-0.2-0.1-0.2-0.3-0.1-0.5
					c0.2-0.4,0.5-0.8,0.8-1.2c0.1-0.2,0.3-0.2,0.5-0.1c0.2,0.1,0.2,0.3,0.1,0.5c-0.3,0.4-0.5,0.8-0.8,1.2
					C-163.7,400.7-163.8,400.7-164,400.7z M-127.4,398.8c-0.1,0-0.2,0-0.3-0.1c-0.3-0.4-0.6-0.7-0.9-1.1c-0.1-0.1-0.1-0.4,0-0.5
					c0.1-0.1,0.4-0.1,0.5,0c0.3,0.4,0.7,0.7,1,1.1c0.1,0.2,0.1,0.4-0.1,0.5C-127.3,398.8-127.3,398.8-127.4,398.8z M-162.3,398.4
					c-0.1,0-0.2,0-0.2-0.1c-0.2-0.1-0.2-0.4,0-0.5c0.3-0.4,0.7-0.7,1-1.1c0.1-0.1,0.4-0.1,0.5,0c0.1,0.1,0.1,0.4,0,0.5
					c-0.3,0.3-0.7,0.7-1,1C-162.1,398.4-162.2,398.4-162.3,398.4z M-129.4,396.7c-0.1,0-0.2,0-0.2-0.1c-0.3-0.3-0.7-0.6-1.1-0.9
					c-0.2-0.1-0.2-0.3-0.1-0.5c0.1-0.2,0.3-0.2,0.5-0.1c0.4,0.3,0.8,0.6,1.1,0.9c0.2,0.1,0.2,0.4,0,0.5
					C-129.2,396.7-129.3,396.7-129.4,396.7z M-160.2,396.4c-0.1,0-0.2,0-0.3-0.1c-0.1-0.2-0.1-0.4,0.1-0.5c0.4-0.3,0.8-0.6,1.2-0.9
					c0.2-0.1,0.4-0.1,0.5,0.1c0.1,0.2,0.1,0.4-0.1,0.5c-0.4,0.3-0.8,0.6-1.1,0.9C-160.1,396.4-160.1,396.4-160.2,396.4z M-131.7,395
					c-0.1,0-0.1,0-0.2-0.1c-0.4-0.2-0.8-0.5-1.2-0.7c-0.2-0.1-0.2-0.3-0.1-0.5c0.1-0.2,0.3-0.2,0.5-0.1c0.4,0.2,0.9,0.5,1.3,0.7
					c0.2,0.1,0.2,0.3,0.1,0.5C-131.5,394.9-131.6,395-131.7,395z M-157.9,394.7c-0.1,0-0.2-0.1-0.3-0.2c-0.1-0.2,0-0.4,0.1-0.5
					c0.4-0.2,0.8-0.5,1.3-0.7c0.2-0.1,0.4,0,0.5,0.2c0.1,0.2,0,0.4-0.2,0.5c-0.4,0.2-0.8,0.4-1.2,0.7
					C-157.7,394.7-157.8,394.7-157.9,394.7z M-134.3,393.6c-0.1,0-0.1,0-0.1,0c-0.4-0.2-0.9-0.4-1.3-0.5c-0.2-0.1-0.3-0.3-0.2-0.5
					c0.1-0.2,0.3-0.3,0.5-0.2c0.5,0.2,0.9,0.4,1.3,0.6c0.2,0.1,0.3,0.3,0.2,0.5C-134,393.6-134.1,393.6-134.3,393.6z M-155.3,393.4
					c-0.1,0-0.3-0.1-0.3-0.2c-0.1-0.2,0-0.4,0.2-0.5c0.4-0.2,0.9-0.4,1.4-0.5c0.2-0.1,0.4,0,0.5,0.2c0.1,0.2,0,0.4-0.2,0.5
					c-0.4,0.2-0.9,0.3-1.3,0.5C-155.2,393.4-155.3,393.4-155.3,393.4z M-137,392.6c0,0-0.1,0-0.1,0c-0.4-0.1-0.9-0.3-1.4-0.4
					c-0.2,0-0.3-0.2-0.3-0.4c0-0.2,0.2-0.3,0.4-0.3c0.5,0.1,0.9,0.3,1.4,0.4c0.2,0.1,0.3,0.3,0.2,0.5
					C-136.7,392.5-136.8,392.6-137,392.6z M-152.6,392.5c-0.2,0-0.3-0.1-0.3-0.3c-0.1-0.2,0.1-0.4,0.2-0.4c0.5-0.1,0.9-0.3,1.4-0.4
					c0.2,0,0.4,0.1,0.4,0.3c0,0.2-0.1,0.4-0.3,0.4c-0.5,0.1-0.9,0.2-1.4,0.4C-152.5,392.5-152.6,392.5-152.6,392.5z M-139.8,391.9
					C-139.8,391.9-139.8,391.9-139.8,391.9c-0.5-0.1-1-0.2-1.5-0.2c-0.2,0-0.3-0.2-0.3-0.4c0-0.2,0.2-0.3,0.4-0.3
					c0.5,0.1,1,0.1,1.4,0.2c0.2,0,0.3,0.2,0.3,0.4C-139.4,391.8-139.6,391.9-139.8,391.9z M-149.8,391.8c-0.2,0-0.3-0.1-0.4-0.3
					c0-0.2,0.1-0.4,0.3-0.4c0.5-0.1,1-0.2,1.4-0.2c0.2,0,0.4,0.1,0.4,0.3c0,0.2-0.1,0.4-0.3,0.4
					C-148.8,391.6-149.3,391.7-149.8,391.8C-149.7,391.8-149.8,391.8-149.8,391.8z M-142.6,391.5
					C-142.6,391.5-142.6,391.5-142.6,391.5c-0.5,0-1-0.1-1.5-0.1c-0.2,0-0.4-0.2-0.3-0.4c0-0.2,0.2-0.4,0.4-0.3c0.5,0,1,0,1.5,0.1
					c0.2,0,0.3,0.2,0.3,0.4C-142.3,391.3-142.4,391.5-142.6,391.5z M-146.9,391.5c-0.2,0-0.3-0.1-0.4-0.3c0-0.2,0.1-0.4,0.3-0.4
					c0.5,0,1-0.1,1.5-0.1c0.2,0,0.4,0.2,0.4,0.4c0,0.2-0.2,0.4-0.4,0.4C-146,391.4-146.4,391.4-146.9,391.5
					C-146.9,391.5-146.9,391.5-146.9,391.5z"/>
			</g>
			<g>
				<path class="st1" d="M-124.5,448.1c-0.2,0-0.4-0.2-0.4-0.4v-0.5c0-0.2,0.2-0.4,0.4-0.4s0.4,0.2,0.4,0.4v0.5
					C-124.2,448-124.3,448.1-124.5,448.1z"/>
			</g>
			<g>
				<polygon class="st1" points="-145,412.9 -137,404.9 -137,401.3 -141.7,398.5 -145,400.7 -148.3,398.5 -153,401.3 -153,404.9 
									"/>
			</g>
			<g>
				<defs>
					<polygon id="SVGID_5_" points="-145,400.7 -148.3,398.5 -153,401.3 -153,404.9 -145,412.9 -137,404.9 -137,401.3 -141.7,398.5 
											"/>
				</defs>
				<use xlink:href="#SVGID_5_"  style="overflow:visible;fill:#FFFFFF;"/>
				<clipPath id="SVGID_6_">
					<use xlink:href="#SVGID_5_"  style="overflow:visible;"/>
				</clipPath>
				<g class="st2">
					<defs>
						<rect id="SVGID_7_" x="-238.8" y="288.5" width="316.8" height="316.8"/>
					</defs>
					<use xlink:href="#SVGID_7_"  style="overflow:visible;fill:#FFFFFF;"/>
					<clipPath id="SVGID_8_">
						<use xlink:href="#SVGID_7_"  style="overflow:visible;"/>
					</clipPath>
					<g class="st3">
						<rect x="-153.4" y="396.6" class="st1" width="8.4" height="16.9"/>
					</g>
				</g>
			</g>
			<g>
				<polygon class="st4" points="-166.9,448.7 -159.1,460 -158.7,449 				"/>
			</g>
		</g>
	</g>
	<g>
		<g>
			<defs>
				<polygon id="SVGID_9_" points="-145,400.7 -148.3,398.5 -153,401.3 -153,404.9 -145,412.9 -137,404.9 -137,401.3 -141.7,398.5 
									"/>
			</defs>
			<use xlink:href="#SVGID_9_"  style="overflow:visible;fill:#FFFFFF;"/>
			<clipPath id="SVGID_10_">
				<use xlink:href="#SVGID_9_"  style="overflow:visible;"/>
			</clipPath>
			<g class="st5">
				<defs>
					<rect id="SVGID_11_" x="-238.8" y="288.5" width="316.8" height="316.8"/>
				</defs>
				<use xlink:href="#SVGID_11_"  style="overflow:visible;fill:#FFFFFF;"/>
				<clipPath id="SVGID_12_">
					<use xlink:href="#SVGID_11_"  style="overflow:visible;"/>
				</clipPath>
			</g>
		</g>
	</g>
</g>
</svg>
