<?xml version="1.0" encoding="utf-8"?>
<!-- Generator: Adobe Illustrator 19.1.0, SVG Export Plug-In . SVG Version: 6.00 Build 0)  -->
<svg version="1.1" id="Layer_1" xmlns="http://www.w3.org/2000/svg" xmlns:xlink="http://www.w3.org/1999/xlink" x="0px" y="0px"
	 viewBox="-17 46.8 113.5 58.2" style="enable-background:new -17 46.8 113.5 58.2;" xml:space="preserve">
<style type="text/css">
	.st0{fill:#FFFFFF;}
</style>
<g>
	<path class="st0" d="M6.2,88.4c0.5,0,0.6,0.4,0.6,0.8l0,0l0.6-0.1l0,0l0,0c0-0.3-0.2-1.3-1.3-1.3c-1.2,0-1.4,1.3-1.4,2
		c0,0.7,0.2,2,1.4,2c1.1,0,1.2-1,1.3-1.3l0,0l-0.6-0.1l0,0c-0.1,0.6-0.3,0.8-0.6,0.8c-0.5,0-0.7-0.5-0.7-1.4
		C5.5,88.9,5.7,88.4,6.2,88.4"/>
	<path class="st0" d="M8.9,88.8c-0.7,0-1.1,0.5-1.1,1.5c0,0.7,0.2,1.5,1.1,1.5c0.8,0,1.1-0.5,1.1-1.5C10,89.7,9.9,88.8,8.9,88.8
		 M8.9,89.3c0.3,0,0.5,0.3,0.5,1c0,0.7-0.1,1-0.5,1s-0.5-0.3-0.5-1C8.4,89.6,8.6,89.3,8.9,89.3"/>
	<path class="st0" d="M11.8,88.8c-0.4,0-0.6,0.2-0.7,0.4v-0.3h-0.6v2.9h0.6v-1.6c0-0.3,0-0.8,0.4-0.8c0.3,0,0.3,0.2,0.3,0.6v1.8h0.6
		V90c0-0.3,0-0.6-0.1-0.7C12.3,88.9,12.1,88.8,11.8,88.8"/>
	<path class="st0" d="M14.1,90c-0.4-0.1-0.5-0.2-0.5-0.4s0.1-0.3,0.3-0.3c0.3,0,0.4,0.3,0.4,0.4l0,0l0.5-0.1l0,0
		c-0.1-0.2-0.2-0.7-0.9-0.7c-0.6,0-1,0.5-1,0.9c0,0.6,0.5,0.7,0.9,0.9c0.2,0.1,0.5,0.1,0.5,0.4c0,0,0,0.3-0.4,0.3s-0.5-0.3-0.5-0.5
		l0,0L12.9,91l0,0l0,0c0,0.2,0.2,0.8,1,0.8c0.7,0,1.1-0.5,1.1-0.9C15,90.3,14.5,90.1,14.1,90"/>
	<path class="st0" d="M17.5,90.9l-0.6-0.1l0,0c0,0.2-0.1,0.5-0.5,0.5c-0.5,0-0.5-0.6-0.5-0.9h1.6l0,0c0-0.3,0-0.7-0.2-1.1
		c-0.1-0.2-0.4-0.5-0.9-0.5c-0.7,0-1.1,0.6-1.1,1.5c0,0.4,0.1,1.5,1.1,1.5C17.2,91.8,17.4,91.1,17.5,90.9L17.5,90.9z M16.8,89.6
		c0,0.1,0.1,0.3,0.1,0.4H16c0-0.5,0.2-0.7,0.5-0.7C16.4,89.3,16.7,89.3,16.8,89.6"/>
	<rect x="17.9" y="87.9" class="st0" width="0.7" height="0.7"/>
	<path class="st0" d="M17.9,91.6c0,0.5,0,0.6-0.3,0.6c-0.1,0-0.1,0-0.2,0l0,0v0.5h0.1c0.1,0,0.2,0,0.3,0c0.7,0,0.7-0.6,0.7-1.1v-2.7
		h-0.6V91.6z"/>
	<path class="st0" d="M20.2,88.8c-0.7,0-1.1,0.5-1.1,1.5c0,0.7,0.2,1.5,1.1,1.5c0.8,0,1.1-0.5,1.1-1.5
		C21.3,89.7,21.1,88.8,20.2,88.8 M20.2,89.3c0.3,0,0.5,0.3,0.5,1c0,0.7-0.1,1-0.5,1c-0.3,0-0.5-0.3-0.5-1
		C19.7,89.6,19.8,89.3,20.2,89.3"/>
	<path class="st0" d="M24.7,89.1c-0.1-0.1-0.3-0.3-0.6-0.3c-0.6,0-1,0.6-1,1.5c0,0.3,0.1,1.5,1,1.5c0.4,0,0.6-0.2,0.7-0.4v0.3h0.6
		v-3.9h-0.6v1.3H24.7z M24.2,91.3c-0.4,0-0.5-0.5-0.5-1c0-0.4,0-1,0.5-1c0.2,0,0.3,0.1,0.4,0.2c0.1,0.2,0.1,0.3,0.1,0.5v0.5
		c0,0.3,0,0.4-0.1,0.5C24.5,91.2,24.3,91.3,24.2,91.3"/>
	<path class="st0" d="M28,90.4c0-0.3,0-0.7-0.2-1.1c-0.1-0.2-0.4-0.5-0.9-0.5c-0.7,0-1.1,0.6-1.1,1.5c0,0.4,0.1,1.5,1.1,1.5
		c0.8,0,1-0.7,1.1-0.9l0,0l-0.6-0.1l0,0c0,0.2-0.1,0.5-0.5,0.5c-0.5,0-0.5-0.6-0.5-0.9H28L28,90.4z M27.3,89.6c0,0.1,0,0.3,0.1,0.4
		h-0.9c0-0.5,0.2-0.7,0.5-0.7C27,89.3,27.2,89.3,27.3,89.6"/>
	<polygon class="st0" points="30.6,90 31.8,90 31.8,89.5 30.6,89.5 30.6,88.4 32.1,88.4 32.1,87.9 29.9,87.9 29.9,91.7 32.2,91.7 
		32.2,91.2 30.6,91.2 	"/>
	<path class="st0" d="M34,89.1c-0.1-0.1-0.3-0.3-0.6-0.3c-0.6,0-1,0.6-1,1.5c0,0.3,0.1,1.5,1,1.5c0.4,0,0.6-0.2,0.7-0.4v0.3h0.6
		v-3.9H34V89.1z M33.5,91.3c-0.4,0-0.5-0.5-0.5-1c0-0.4,0-1,0.5-1c0.2,0,0.3,0.1,0.4,0.2C34,89.7,34,89.8,34,90v0.5
		c0,0.3,0,0.4-0.1,0.5C33.8,91.2,33.6,91.3,33.5,91.3"/>
	<path class="st0" d="M36.6,90.2c0,0.5,0,1-0.4,1c-0.3,0-0.3-0.2-0.3-0.6v-1.8h-0.6v1.8c0,0.5,0,1.1,0.7,1.1c0.4,0,0.6-0.2,0.7-0.4
		v0.3h0.6v-2.9h-0.6v1.5H36.6z"/>
	<path class="st0" d="M38.8,89.3c0.3,0,0.4,0.3,0.4,0.6l0,0l0.6-0.1l0,0c0-0.3-0.1-1-1-1s-1.1,0.8-1.1,1.5c0,0.7,0.2,1.5,1.1,1.5
		c0.9,0,1-0.7,1.1-1.1l0,0l-0.6-0.1l0,0c0,0.3-0.1,0.6-0.4,0.6c-0.5,0-0.5-0.7-0.5-0.9C38.4,89.6,38.5,89.3,38.8,89.3"/>
	<path class="st0" d="M42.2,90.9v-1c0-0.3,0-0.7-0.2-0.9c-0.1-0.1-0.4-0.3-0.8-0.3c-0.3,0-1,0.1-1.1,0.8l0,0l0.6,0.1l0,0
		c0-0.1,0.1-0.4,0.4-0.4c0.4,0,0.4,0.4,0.4,0.6v0.1h-0.1c-0.3,0-0.6,0-0.8,0.1c-0.4,0.1-0.6,0.5-0.6,0.9c0,0.5,0.3,0.8,0.8,0.8
		c0.4,0,0.6-0.3,0.8-0.5c0,0.2,0,0.3,0,0.4l0,0h0.6l0,0C42.2,91.5,42.2,91.2,42.2,90.9 M41,91.3c-0.2,0-0.4-0.1-0.4-0.4
		c0-0.2,0.1-0.6,0.7-0.6h0.1v0.1C41.6,91.1,41.3,91.3,41,91.3"/>
	<path class="st0" d="M43.8,89.3c0.3,0,0.4,0.3,0.4,0.6l0,0l0.6-0.1l0,0c0-0.3-0.1-1-1-1s-1.1,0.8-1.1,1.5c0,0.7,0.2,1.5,1.1,1.5
		c0.9,0,1-0.7,1.1-1.1l0,0l-0.6-0.1l0,0c0,0.3-0.1,0.6-0.4,0.6c-0.5,0-0.5-0.7-0.5-0.9C43.3,89.6,43.5,89.3,43.8,89.3"/>
	<rect x="45.1" y="87.9" class="st0" width="0.7" height="0.7"/>
	<rect x="45.1" y="88.9" class="st0" width="0.6" height="2.9"/>
	<path class="st0" d="M47.4,88.8c-0.7,0-1.1,0.5-1.1,1.5c0,0.7,0.2,1.5,1.1,1.5c0.8,0,1.1-0.5,1.1-1.5
		C48.5,89.7,48.4,88.8,47.4,88.8 M47.4,89.3c0.3,0,0.5,0.3,0.5,1c0,0.7-0.1,1-0.5,1s-0.5-0.3-0.5-1C46.9,89.6,47.1,89.3,47.4,89.3"
		/>
	<polygon class="st0" points="48.4,87.9 48,87.5 47.1,88.3 47.3,88.6 	"/>
	<path class="st0" d="M50.3,88.8c-0.4,0-0.6,0.2-0.7,0.4v-0.3H49v2.9h0.6v-1.6c0-0.3,0-0.8,0.4-0.8c0.3,0,0.3,0.2,0.3,0.6v1.8H51V90
		c0-0.3,0-0.6-0.1-0.7C50.8,88.9,50.6,88.8,50.3,88.8"/>
	<path class="st0" d="M54.4,89.4L54.4,89.4c-0.5-0.2-0.7-0.3-0.7-0.6c0-0.2,0.1-0.5,0.5-0.5s0.5,0.2,0.6,0.6l0,0l0.6-0.2l0,0
		c-0.1-0.3-0.3-0.9-1.2-0.9c-0.8,0-1.2,0.6-1.2,1.1c0,0.4,0.2,0.7,0.4,0.8c0.2,0.2,0.4,0.3,0.8,0.4c0.3,0.1,0.6,0.3,0.6,0.6
		c0,0.1,0,0.5-0.6,0.5s-0.7-0.5-0.8-0.7l0,0l-0.6,0.2l0,0l0,0c0.1,0.3,0.3,1.1,1.3,1.1c0.9,0,1.3-0.6,1.3-1.2
		C55.5,89.8,54.9,89.6,54.4,89.4"/>
	<path class="st0" d="M58.1,90.4c0-0.3,0-0.7-0.2-1.1c-0.2-0.2-0.5-0.5-0.9-0.5c-0.7,0-1.1,0.6-1.1,1.5c-0.1,0.5,0.1,1.5,1.1,1.5
		c0.8,0,1-0.7,1.1-0.9l0,0l-0.6-0.1l0,0c0,0.2-0.1,0.5-0.5,0.5c-0.5,0-0.5-0.6-0.5-0.9H58.1L58.1,90.4z M57.4,89.6
		c0,0.1,0,0.3,0.1,0.4h-0.9c0-0.5,0.2-0.7,0.5-0.7C57,89.3,57.3,89.3,57.4,89.6"/>
	<path class="st0" d="M59.5,89.3c0.3,0,0.4,0.3,0.4,0.6l0,0l0.6-0.1l0,0c0-0.3-0.1-1-1-1s-1.1,0.8-1.1,1.5c0,0.7,0.2,1.5,1.1,1.5
		s1-0.7,1.1-1.1l0,0L60,90.6l0,0c0,0.3-0.1,0.6-0.4,0.6c-0.5,0-0.5-0.7-0.5-0.9C59,89.6,59.2,89.3,59.5,89.3"/>
	<path class="st0" d="M62.2,90.2c0,0.5,0,1-0.4,1c-0.3,0-0.3-0.2-0.3-0.6v-1.8h-0.6v1.8c0,0.5,0,1.1,0.7,1.1c0.4,0,0.6-0.2,0.7-0.4
		v0.3h0.6v-2.9h-0.6L62.2,90.2L62.2,90.2z"/>
	<path class="st0" d="M64.7,88.8c-0.4,0-0.6,0.2-0.7,0.4v-0.3h-0.6v2.9H64v-1.6c0-0.3,0-0.8,0.4-0.8c0.3,0,0.3,0.2,0.3,0.6v1.8h0.6
		V90c0-0.3,0-0.6-0.1-0.7C65.3,88.9,65,88.8,64.7,88.8"/>
	<path class="st0" d="M67.6,89.1c-0.1-0.1-0.3-0.3-0.6-0.3c-0.6,0-1,0.6-1,1.5c0,0.3,0.1,1.5,1,1.5c0.4,0,0.6-0.2,0.7-0.4v0.3h0.6
		v-3.9h-0.6L67.6,89.1L67.6,89.1z M67.1,91.3c-0.4,0-0.5-0.5-0.5-1c0-0.4,0-1,0.5-1c0.2,0,0.3,0.1,0.4,0.2c0.1,0.2,0.1,0.3,0.1,0.5
		v0.5c0,0.3,0,0.4-0.1,0.5C67.3,91.2,67.2,91.3,67.1,91.3"/>
	<path class="st0" d="M70.8,90.9v-1c0-0.3,0-0.7-0.2-0.9c-0.1-0.1-0.4-0.3-0.8-0.3c-0.3,0-1,0.1-1.1,0.8l0,0l0.6,0.1l0,0
		c0-0.1,0.1-0.4,0.4-0.4c0.4,0,0.4,0.4,0.4,0.6v0.1H70c-0.3,0-0.6,0-0.8,0.1c-0.4,0.1-0.6,0.5-0.6,0.9c0,0.5,0.3,0.8,0.8,0.8
		c0.4,0,0.6-0.3,0.8-0.5c0,0.2,0,0.3,0,0.4l0,0h0.6l0,0C70.8,91.5,70.8,91.2,70.8,90.9 M69.7,91.3c-0.2,0-0.4-0.1-0.4-0.4
		c0-0.2,0.1-0.6,0.7-0.6h0.1v0.1C70.2,91.1,69.9,91.3,69.7,91.3"/>
	<path class="st0" d="M72.7,88.8c-0.3,0-0.5,0.2-0.7,0.6v-0.5h-0.6v2.9H72v-1.5c0-0.2,0-0.4,0.1-0.6s0.3-0.3,0.5-0.3h0.1l0,0V88.8
		L72.7,88.8L72.7,88.8"/>
	<rect x="73" y="87.9" class="st0" width="0.7" height="0.7"/>
	<rect x="73" y="88.9" class="st0" width="0.6" height="2.9"/>
	<path class="st0" d="M76.3,91.7c0-0.2,0-0.5,0-0.8v-1c0-0.3,0-0.7-0.2-0.9c-0.1,0-0.4-0.2-0.8-0.2c-0.3,0-1,0.1-1.1,0.8l0,0
		l0.6,0.1l0,0c0-0.1,0.1-0.4,0.4-0.4c0.4,0,0.4,0.4,0.4,0.6V90h-0.1c-0.3,0-0.6,0-0.8,0.1c-0.4,0.1-0.6,0.5-0.6,0.9
		c0,0.5,0.3,0.8,0.8,0.8c0.4,0,0.6-0.3,0.8-0.5c0,0.2,0,0.3,0,0.4l0,0H76.3L76.3,91.7z M75.1,91.3c-0.2,0-0.4-0.1-0.4-0.4
		c0-0.2,0.1-0.6,0.7-0.6h0.1v0.1C75.6,91.1,75.4,91.3,75.1,91.3"/>
	<path class="st0" d="M39,72c-0.3-2.4-0.7-4.4-3-4.4c-2.9,0-3.6,2.8-3.6,7.7c0,1.8,0,6.7,3.6,6.7c2.6,0,2.9-2.7,3-4.4l4,0.4
		c-0.3,2.5-1,7.4-7.4,7.4c-6.5,0-7.6-6.3-7.6-10.5c0-4.7,1.3-10.6,7.9-10.6c6,0,6.8,5.1,7.1,7.3L39,72z"/>
	<path class="st0" d="M49.1,75.5c0,2.3,0,6.8,3.9,6.8c2.7,0,3.2-2.3,3.6-3.8l3.8,0.5c-0.4,1.5-1.5,6.4-7.4,6.4c-6,0-8-5-8-10.3
		c0-7.4,3.6-10.9,8.1-10.9c3.3,0,5.3,1.9,6.1,3.5c1.4,2.7,1.4,5.2,1.5,7.7L49.1,75.5L49.1,75.5z M56.3,72.7c0-0.8,0-1.7-0.4-2.9
		c-0.7-2-2.3-2.5-3.1-2.5c-2.5,0-3.4,2.6-3.6,5.3L56.3,72.7L56.3,72.7z"/>
	<path class="st0" d="M72.8,70.4c-0.3-0.9-1-3-3.4-3c-1.7,0-2.6,1.2-2.6,2.5c0,1.8,1.3,2.3,4.1,3.2c2.4,0.8,6,2,6,6.1
		c0,3.1-2.3,6.4-7.4,6.4c-6.2,0-7-4.4-7.3-5.9l3.6-0.7c0.2,0.9,0.7,3.5,3.9,3.5c2.7,0,3.2-1.9,3.2-2.7c0-2-1.8-2.5-3.6-3.1
		c-2.8-0.9-6.3-2-6.3-6.1c0-3.2,2.5-6.2,6.7-6.2c5.1,0,6.2,3.8,6.5,5.2L72.8,70.4z"/>
	<path class="st0" d="M12.9,63.7c0,0.8,0.6,1.4,1.4,1.4s1.4-0.6,1.4-1.4c0-0.8-0.6-1.4-1.4-1.4S12.9,62.9,12.9,63.7"/>
	<path class="st0" d="M19.3,63.5c-2,0.6-3.9,2.5-5,3.9c-1.1-1.4-3-3.3-5-3.9l5,9.8l0,0l0,0l0,0L19.3,63.5z"/>
	<path class="st0" d="M13.4,73.8L13.4,73.8l-6-9.2c-0.5,2,0.2,4.6,0.9,6.3c-1.8,0.3-4.4,1-5.9,2.4L13.4,73.8L13.4,73.8L13.4,73.8"/>
	<path class="st0" d="M4.3,70.2c0.7,0.4,1.5,0.2,1.9-0.5c0.4-0.7,0.2-1.5-0.5-1.9c-0.7-0.4-1.5-0.2-1.9,0.5
		C3.4,69,3.6,69.8,4.3,70.2"/>
	<path class="st0" d="M15.2,73.8l11-0.5c-1.5-1.4-4.1-2.1-5.9-2.4c0.6-1.7,1.4-4.3,0.9-6.3L15.2,73.8L15.2,73.8
		C15.1,73.8,15.2,73.8,15.2,73.8S15.1,73.8,15.2,73.8L15.2,73.8z"/>
	<path class="st0" d="M24.2,70.2c0.7-0.4,0.9-1.2,0.5-1.9c-0.4-0.7-1.2-0.9-1.9-0.5c-0.7,0.4-0.9,1.2-0.5,1.9
		C22.7,70.4,23.5,70.6,24.2,70.2"/>
	<path class="st0" d="M14.2,83.6c-0.8,0-1.4,0.6-1.4,1.4s0.6,1.4,1.4,1.4s1.4-0.6,1.4-1.4C15.6,84.2,15,83.6,14.2,83.6"/>
	<path class="st0" d="M19.3,85.2l-5-9.8l0,0l0,0l0,0l0,0l0,0l-5,9.7l0,0l0,0l0,0l0,0c2-0.6,3.8-2.5,5-3.9l0,0
		C15.4,82.6,17.3,84.6,19.3,85.2L19.3,85.2L19.3,85.2z"/>
	<path class="st0" d="M20.2,77.8L20.2,77.8L20.2,77.8c1.8-0.3,4.4-1,5.9-2.4l0,0l0,0l0,0l0,0l-10.9-0.6l0,0l0,0l0,0l0,0l5.9,9.2l0,0
		l0,0l0,0l0,0C21.6,82.1,20.9,79.5,20.2,77.8"/>
	<path class="st0" d="M24.2,78.5c-0.7-0.4-1.5-0.2-1.9,0.5s-0.2,1.5,0.5,1.9s1.5,0.2,1.9-0.5C25.1,79.7,24.9,78.8,24.2,78.5"/>
	<path class="st0" d="M4.3,78.5c-0.7,0.4-0.9,1.2-0.5,1.9s1.2,0.9,1.9,0.5c0.7-0.4,0.9-1.2,0.5-1.9S5,78.1,4.3,78.5"/>
	<path class="st0" d="M13.4,74.9L13.4,74.9L13.4,74.9L13.4,74.9C13.3,74.9,13.3,74.9,13.4,74.9L13.4,74.9l-11,0.5l0,0
		c1.5,1.4,4.1,2.1,5.9,2.4l0,0c-0.6,1.7-1.4,4.3-0.9,6.3l0,0l0,0L13.4,74.9z"/>
</g>
</svg>
