<?xml version="1.0" encoding="utf-8"?>
<!-- Generator: Adobe Illustrator 19.1.0, SVG Export Plug-In . SVG Version: 6.00 Build 0)  -->
<svg version="1.1" id="Layer_1" xmlns="http://www.w3.org/2000/svg" xmlns:xlink="http://www.w3.org/1999/xlink" x="0px" y="0px"
	 viewBox="-17 46.8 113.5 58.2" style="enable-background:new -17 46.8 113.5 58.2;" xml:space="preserve">
<style type="text/css">
	.st0{display:none;}
	.st1{display:inline;}
	.st2{fill:#FFFFFF;}
	.st3{fill:#EB2227;}
	.st4{fill:#F48220;}
	.st5{fill:#FED307;}
	.st6{fill:#51B748;}
	.st7{fill:#90298D;}
	.st8{fill:#184788;}
	.st9{fill:#02929E;}
</style>
<g id="Layer_1_1_" class="st0">
	<g class="st1">
		<path class="st2" d="M-10.8,135.2c0.5,0,0.6,0.4,0.6,0.8l0,0l0.6-0.1l0,0l0,0c0-0.3-0.2-1.3-1.3-1.3c-1.2,0-1.4,1.3-1.4,2
			s0.2,2,1.4,2c1.1,0,1.2-1,1.3-1.3l0,0l-0.6-0.1l0,0c-0.1,0.6-0.3,0.8-0.6,0.8c-0.5,0-0.7-0.5-0.7-1.4S-11.3,135.2-10.8,135.2"/>
		<path class="st2" d="M-8.1,135.6c-0.7,0-1.1,0.5-1.1,1.5c0,0.7,0.2,1.5,1.1,1.5c0.8,0,1.1-0.5,1.1-1.5
			C-7,136.5-7.1,135.6-8.1,135.6 M-8.1,136.1c0.3,0,0.5,0.3,0.5,1s-0.1,1-0.5,1s-0.5-0.3-0.5-1C-8.6,136.4-8.4,136.1-8.1,136.1"/>
		<path class="st2" d="M-5.2,135.6c-0.4,0-0.6,0.2-0.7,0.4v-0.3h-0.6v2.9h0.6V137c0-0.3,0-0.8,0.4-0.8c0.3,0,0.3,0.2,0.3,0.6v1.8
			h0.6v-1.8c0-0.3,0-0.6-0.1-0.7C-4.7,135.7-4.9,135.6-5.2,135.6"/>
		<path class="st2" d="M-2.9,136.8c-0.4-0.1-0.5-0.2-0.5-0.4c0-0.2,0.1-0.3,0.3-0.3c0.3,0,0.4,0.3,0.4,0.4l0,0l0.5-0.1l0,0
			c-0.1-0.2-0.2-0.7-0.9-0.7c-0.6,0-1,0.5-1,0.9c0,0.6,0.5,0.7,0.9,0.9c0.2,0.1,0.5,0.1,0.5,0.4c0,0,0,0.3-0.4,0.3s-0.5-0.3-0.5-0.5
			l0,0l-0.5,0.1l0,0l0,0c0,0.2,0.2,0.8,1,0.8c0.7,0,1.1-0.5,1.1-0.9C-2,137.1-2.5,136.9-2.9,136.8"/>
		<path class="st2" d="M0.5,137.7l-0.6-0.1l0,0c0,0.2-0.1,0.5-0.5,0.5c-0.5,0-0.5-0.6-0.5-0.9h1.6l0,0c0-0.3,0-0.7-0.2-1.1
			c-0.1-0.2-0.4-0.5-0.9-0.5c-0.7,0-1.1,0.6-1.1,1.5c0,0.4,0.1,1.5,1.1,1.5C0.2,138.6,0.4,137.9,0.5,137.7L0.5,137.7z M-0.2,136.4
			c0,0.1,0.1,0.3,0.1,0.4H-1c0-0.5,0.2-0.7,0.5-0.7C-0.6,136.1-0.3,136.1-0.2,136.4"/>
		<rect x="0.9" y="134.7" class="st2" width="0.7" height="0.7"/>
		<path class="st2" d="M0.9,138.4c0,0.5,0,0.6-0.3,0.6c-0.1,0-0.1,0-0.2,0l0,0v0.5h0.1c0.1,0,0.2,0,0.3,0c0.7,0,0.7-0.6,0.7-1.1
			v-2.7H0.9V138.4z"/>
		<path class="st2" d="M3.2,135.6c-0.7,0-1.1,0.5-1.1,1.5c0,0.7,0.2,1.5,1.1,1.5c0.8,0,1.1-0.5,1.1-1.5
			C4.3,136.5,4.1,135.6,3.2,135.6 M3.2,136.1c0.3,0,0.5,0.3,0.5,1s-0.1,1-0.5,1c-0.3,0-0.5-0.3-0.5-1C2.7,136.4,2.8,136.1,3.2,136.1
			"/>
		<path class="st2" d="M7.7,135.9c-0.1-0.1-0.3-0.3-0.6-0.3c-0.6,0-1,0.6-1,1.5c0,0.3,0.1,1.5,1,1.5c0.4,0,0.6-0.2,0.7-0.4v0.3h0.6
			v-3.9H7.8v1.3H7.7z M7.2,138.1c-0.4,0-0.5-0.5-0.5-1c0-0.4,0-1,0.5-1c0.2,0,0.3,0.1,0.4,0.2c0.1,0.2,0.1,0.3,0.1,0.5v0.5
			c0,0.3,0,0.4-0.1,0.5C7.5,138,7.3,138.1,7.2,138.1"/>
		<path class="st2" d="M11,137.2c0-0.3,0-0.7-0.2-1.1c-0.1-0.2-0.4-0.5-0.9-0.5c-0.7,0-1.1,0.6-1.1,1.5c0,0.4,0.1,1.5,1.1,1.5
			c0.8,0,1-0.7,1.1-0.9l0,0l-0.6-0.1l0,0c0,0.2-0.1,0.5-0.5,0.5c-0.5,0-0.5-0.6-0.5-0.9H11L11,137.2z M10.3,136.4
			c0,0.1,0,0.3,0.1,0.4H9.5c0-0.5,0.2-0.7,0.5-0.7C10,136.1,10.2,136.1,10.3,136.4"/>
		<polygon class="st2" points="13.6,136.8 14.8,136.8 14.8,136.3 13.6,136.3 13.6,135.2 15.1,135.2 15.1,134.7 12.9,134.7 
			12.9,138.5 15.2,138.5 15.2,138 13.6,138 		"/>
		<path class="st2" d="M17,135.9c-0.1-0.1-0.3-0.3-0.6-0.3c-0.6,0-1,0.6-1,1.5c0,0.3,0.1,1.5,1,1.5c0.4,0,0.6-0.2,0.7-0.4v0.3h0.6
			v-3.9H17V135.9z M16.5,138.1c-0.4,0-0.5-0.5-0.5-1c0-0.4,0-1,0.5-1c0.2,0,0.3,0.1,0.4,0.2c0.1,0.2,0.1,0.3,0.1,0.5v0.5
			c0,0.3,0,0.4-0.1,0.5C16.8,138,16.6,138.1,16.5,138.1"/>
		<path class="st2" d="M19.6,137c0,0.5,0,1-0.4,1c-0.3,0-0.3-0.2-0.3-0.6v-1.8h-0.6v1.8c0,0.5,0,1.1,0.7,1.1c0.4,0,0.6-0.2,0.7-0.4
			v0.3h0.6v-2.9h-0.6v1.5H19.6z"/>
		<path class="st2" d="M21.8,136.1c0.3,0,0.4,0.3,0.4,0.6l0,0l0.6-0.1l0,0c0-0.3-0.1-1-1-1s-1.1,0.8-1.1,1.5s0.2,1.5,1.1,1.5
			c0.9,0,1-0.7,1.1-1.1l0,0l-0.6-0.1l0,0c0,0.3-0.1,0.6-0.4,0.6c-0.5,0-0.5-0.7-0.5-0.9C21.4,136.4,21.5,136.1,21.8,136.1"/>
		<path class="st2" d="M25.2,137.7v-1c0-0.3,0-0.7-0.2-0.9c-0.1-0.1-0.4-0.3-0.8-0.3c-0.3,0-1,0.1-1.1,0.8l0,0l0.6,0.1l0,0
			c0-0.1,0.1-0.4,0.4-0.4c0.4,0,0.4,0.4,0.4,0.6v0.1h-0.1c-0.3,0-0.6,0-0.8,0.1c-0.4,0.1-0.6,0.5-0.6,0.9c0,0.5,0.3,0.8,0.8,0.8
			c0.4,0,0.6-0.3,0.8-0.5c0,0.2,0,0.3,0,0.4l0,0h0.6l0,0C25.2,138.3,25.2,138,25.2,137.7 M24,138.1c-0.2,0-0.4-0.1-0.4-0.4
			c0-0.2,0.1-0.6,0.7-0.6h0.1v0.1C24.6,137.9,24.3,138.1,24,138.1"/>
		<path class="st2" d="M26.8,136.1c0.3,0,0.4,0.3,0.4,0.6l0,0l0.6-0.1l0,0c0-0.3-0.1-1-1-1s-1.1,0.8-1.1,1.5s0.2,1.5,1.1,1.5
			c0.9,0,1-0.7,1.1-1.1l0,0l-0.6-0.1l0,0c0,0.3-0.1,0.6-0.4,0.6c-0.5,0-0.5-0.7-0.5-0.9C26.3,136.4,26.5,136.1,26.8,136.1"/>
		<rect x="28.1" y="134.7" class="st2" width="0.7" height="0.7"/>
		<rect x="28.1" y="135.7" class="st2" width="0.6" height="2.9"/>
		<path class="st2" d="M30.4,135.6c-0.7,0-1.1,0.5-1.1,1.5c0,0.7,0.2,1.5,1.1,1.5c0.8,0,1.1-0.5,1.1-1.5
			C31.5,136.5,31.4,135.6,30.4,135.6 M30.4,136.1c0.3,0,0.5,0.3,0.5,1s-0.1,1-0.5,1s-0.5-0.3-0.5-1
			C29.9,136.4,30.1,136.1,30.4,136.1"/>
		<polygon class="st2" points="31.4,134.7 31,134.3 30.1,135.1 30.3,135.4 		"/>
		<path class="st2" d="M33.3,135.6c-0.4,0-0.6,0.2-0.7,0.4v-0.3H32v2.9h0.6V137c0-0.3,0-0.8,0.4-0.8c0.3,0,0.3,0.2,0.3,0.6v1.8H34
			v-1.8c0-0.3,0-0.6-0.1-0.7C33.8,135.7,33.6,135.6,33.3,135.6"/>
		<path class="st2" d="M37.4,136.2L37.4,136.2c-0.5-0.2-0.7-0.3-0.7-0.6c0-0.2,0.1-0.5,0.5-0.5s0.5,0.2,0.6,0.6l0,0l0.6-0.2l0,0
			c-0.1-0.3-0.3-0.9-1.2-0.9c-0.8,0-1.2,0.6-1.2,1.1c0,0.4,0.2,0.7,0.4,0.8c0.2,0.2,0.4,0.3,0.8,0.4c0.3,0.1,0.6,0.3,0.6,0.6
			c0,0.1,0,0.5-0.6,0.5s-0.7-0.5-0.8-0.7l0,0l-0.6,0.2l0,0l0,0c0.1,0.3,0.3,1.1,1.3,1.1c0.9,0,1.3-0.6,1.3-1.2
			C38.5,136.6,37.9,136.4,37.4,136.2"/>
		<path class="st2" d="M41.1,137.2c0-0.3,0-0.7-0.2-1.1c-0.2-0.2-0.5-0.5-0.9-0.5c-0.7,0-1.1,0.6-1.1,1.5c-0.1,0.5,0.1,1.5,1.1,1.5
			c0.8,0,1-0.7,1.1-0.9l0,0l-0.6-0.1l0,0c0,0.2-0.1,0.5-0.5,0.5c-0.5,0-0.5-0.6-0.5-0.9H41.1L41.1,137.2z M40.4,136.4
			c0,0.1,0,0.3,0.1,0.4h-0.9c0-0.5,0.2-0.7,0.5-0.7C40,136.1,40.3,136.1,40.4,136.4"/>
		<path class="st2" d="M42.5,136.1c0.3,0,0.4,0.3,0.4,0.6l0,0l0.6-0.1l0,0c0-0.3-0.1-1-1-1s-1.1,0.8-1.1,1.5s0.2,1.5,1.1,1.5
			s1-0.7,1.1-1.1l0,0l-0.6-0.1l0,0c0,0.3-0.1,0.6-0.4,0.6c-0.5,0-0.5-0.7-0.5-0.9C42,136.4,42.2,136.1,42.5,136.1"/>
		<path class="st2" d="M45.2,137c0,0.5,0,1-0.4,1c-0.3,0-0.3-0.2-0.3-0.6v-1.8h-0.6v1.8c0,0.5,0,1.1,0.7,1.1c0.4,0,0.6-0.2,0.7-0.4
			v0.3h0.6v-2.9h-0.6L45.2,137L45.2,137z"/>
		<path class="st2" d="M47.7,135.6c-0.4,0-0.6,0.2-0.7,0.4v-0.3h-0.6v2.9H47V137c0-0.3,0-0.8,0.4-0.8c0.3,0,0.3,0.2,0.3,0.6v1.8h0.6
			v-1.8c0-0.3,0-0.6-0.1-0.7C48.3,135.7,48,135.6,47.7,135.6"/>
		<path class="st2" d="M50.6,135.9c-0.1-0.1-0.3-0.3-0.6-0.3c-0.6,0-1,0.6-1,1.5c0,0.3,0.1,1.5,1,1.5c0.4,0,0.6-0.2,0.7-0.4v0.3h0.6
			v-3.9h-0.6L50.6,135.9L50.6,135.9z M50.1,138.1c-0.4,0-0.5-0.5-0.5-1c0-0.4,0-1,0.5-1c0.2,0,0.3,0.1,0.4,0.2
			c0.1,0.2,0.1,0.3,0.1,0.5v0.5c0,0.3,0,0.4-0.1,0.5C50.3,138,50.2,138.1,50.1,138.1"/>
		<path class="st2" d="M53.8,137.7v-1c0-0.3,0-0.7-0.2-0.9c-0.1-0.1-0.4-0.3-0.8-0.3c-0.3,0-1,0.1-1.1,0.8l0,0l0.6,0.1l0,0
			c0-0.1,0.1-0.4,0.4-0.4c0.4,0,0.4,0.4,0.4,0.6v0.1H53c-0.3,0-0.6,0-0.8,0.1c-0.4,0.1-0.6,0.5-0.6,0.9c0,0.5,0.3,0.8,0.8,0.8
			c0.4,0,0.6-0.3,0.8-0.5c0,0.2,0,0.3,0,0.4l0,0h0.6l0,0C53.8,138.3,53.8,138,53.8,137.7 M52.7,138.1c-0.2,0-0.4-0.1-0.4-0.4
			c0-0.2,0.1-0.6,0.7-0.6h0.1v0.1C53.2,137.9,52.9,138.1,52.7,138.1"/>
		<path class="st2" d="M55.7,135.6c-0.3,0-0.5,0.2-0.7,0.6v-0.5h-0.6v2.9H55v-1.5c0-0.2,0-0.4,0.1-0.6c0.1-0.2,0.3-0.3,0.5-0.3h0.1
			l0,0V135.6L55.7,135.6L55.7,135.6"/>
		<rect x="56" y="134.7" class="st2" width="0.7" height="0.7"/>
		<rect x="56" y="135.7" class="st2" width="0.6" height="2.9"/>
		<path class="st2" d="M59.3,138.5c0-0.2,0-0.5,0-0.8v-1c0-0.3,0-0.7-0.2-0.9c-0.1,0-0.4-0.2-0.8-0.2c-0.3,0-1,0.1-1.1,0.8l0,0
			l0.6,0.1l0,0c0-0.1,0.1-0.4,0.4-0.4c0.4,0,0.4,0.4,0.4,0.6v0.1h-0.1c-0.3,0-0.6,0-0.8,0.1c-0.4,0.1-0.6,0.5-0.6,0.9
			c0,0.5,0.3,0.8,0.8,0.8c0.4,0,0.6-0.3,0.8-0.5c0,0.2,0,0.3,0,0.4l0,0H59.3L59.3,138.5z M58.1,138.1c-0.2,0-0.4-0.1-0.4-0.4
			c0-0.2,0.1-0.6,0.7-0.6h0.1v0.1C58.6,137.9,58.4,138.1,58.1,138.1"/>
		<path class="st2" d="M22,118.8c-0.3-2.4-0.7-4.4-3-4.4c-2.9,0-3.6,2.8-3.6,7.7c0,1.8,0,6.7,3.6,6.7c2.6,0,2.9-2.7,3-4.4l4,0.4
			c-0.3,2.5-1,7.4-7.4,7.4c-6.5,0-7.6-6.3-7.6-10.5c0-4.7,1.3-10.6,7.9-10.6c6,0,6.8,5.1,7.1,7.3L22,118.8z"/>
		<path class="st2" d="M32.1,122.3c0,2.3,0,6.8,3.9,6.8c2.7,0,3.2-2.3,3.6-3.8l3.8,0.5c-0.4,1.5-1.5,6.4-7.4,6.4c-6,0-8-5-8-10.3
			c0-7.4,3.6-10.9,8.1-10.9c3.3,0,5.3,1.9,6.1,3.5c1.4,2.7,1.4,5.2,1.5,7.7L32.1,122.3L32.1,122.3z M39.3,119.5c0-0.8,0-1.7-0.4-2.9
			c-0.7-2-2.3-2.5-3.1-2.5c-2.5,0-3.4,2.6-3.6,5.3L39.3,119.5L39.3,119.5z"/>
		<path class="st2" d="M55.8,117.2c-0.3-0.9-1-3-3.4-3c-1.7,0-2.6,1.2-2.6,2.5c0,1.8,1.3,2.3,4.1,3.2c2.4,0.8,6,2,6,6.1
			c0,3.1-2.3,6.4-7.4,6.4c-6.2,0-7-4.4-7.3-5.9l3.6-0.7c0.2,0.9,0.7,3.5,3.9,3.5c2.7,0,3.2-1.9,3.2-2.7c0-2-1.8-2.5-3.6-3.1
			c-2.8-0.9-6.3-2-6.3-6.1c0-3.2,2.5-6.2,6.7-6.2c5.1,0,6.2,3.8,6.5,5.2L55.8,117.2z"/>
		<path class="st3" d="M-4.1,110.5c0,0.8,0.6,1.4,1.4,1.4s1.4-0.6,1.4-1.4s-0.6-1.4-1.4-1.4S-4.1,109.7-4.1,110.5"/>
		<path class="st3" d="M2.3,110.3c-2,0.6-3.9,2.5-5,3.9c-1.1-1.4-3-3.3-5-3.9l5,9.8l0,0l0,0l0,0L2.3,110.3z"/>
		<path class="st4" d="M-3.6,120.6L-3.6,120.6l-6-9.2c-0.5,2,0.2,4.6,0.9,6.3c-1.8,0.3-4.4,1-5.9,2.4L-3.6,120.6L-3.6,120.6
			L-3.6,120.6"/>
		<path class="st4" d="M-12.7,117c0.7,0.4,1.5,0.2,1.9-0.5c0.4-0.7,0.2-1.5-0.5-1.9c-0.7-0.4-1.5-0.2-1.9,0.5
			C-13.6,115.8-13.4,116.6-12.7,117"/>
		<path class="st5" d="M-1.8,120.6l11-0.5c-1.5-1.4-4.1-2.1-5.9-2.4c0.6-1.7,1.4-4.3,0.9-6.3L-1.8,120.6L-1.8,120.6
			C-1.9,120.6-1.8,120.6-1.8,120.6S-1.9,120.6-1.8,120.6L-1.8,120.6z"/>
		<path class="st5" d="M7.2,117c0.7-0.4,0.9-1.2,0.5-1.9c-0.4-0.7-1.2-0.9-1.9-0.5c-0.7,0.4-0.9,1.2-0.5,1.9S6.5,117.4,7.2,117"/>
		<path class="st6" d="M-2.8,130.4c-0.8,0-1.4,0.6-1.4,1.4s0.6,1.4,1.4,1.4s1.4-0.6,1.4-1.4C-1.4,131-2,130.4-2.8,130.4"/>
		<path class="st6" d="M2.3,132l-5-9.8l0,0l0,0l0,0l0,0l0,0l-5,9.7l0,0l0,0l0,0l0,0c2-0.6,3.8-2.5,5-3.9l0,0
			C-1.6,129.4,0.3,131.4,2.3,132L2.3,132L2.3,132z"/>
		<path class="st7" d="M3.2,124.6L3.2,124.6L3.2,124.6c1.8-0.3,4.4-1,5.9-2.4l0,0l0,0l0,0l0,0l-10.9-0.6l0,0l0,0l0,0l0,0l5.9,9.2
			l0,0l0,0l0,0l0,0C4.6,128.9,3.9,126.3,3.2,124.6"/>
		<path class="st7" d="M7.2,125.3c-0.7-0.4-1.5-0.2-1.9,0.5s-0.2,1.5,0.5,1.9s1.5,0.2,1.9-0.5C8.1,126.5,7.9,125.6,7.2,125.3"/>
		<path class="st8" d="M-12.7,125.3c-0.7,0.4-0.9,1.2-0.5,1.9s1.2,0.9,1.9,0.5c0.7-0.4,0.9-1.2,0.5-1.9
			C-11.2,125.1-12,124.9-12.7,125.3"/>
		<path class="st8" d="M-3.6,121.7L-3.6,121.7L-3.6,121.7L-3.6,121.7C-3.7,121.7-3.7,121.7-3.6,121.7L-3.6,121.7l-11,0.5l0,0
			c1.5,1.4,4.1,2.1,5.9,2.4l0,0c-0.6,1.7-1.4,4.3-0.9,6.3l0,0l0,0L-3.6,121.7z"/>
	</g>
</g>
<g id="Layer_2">
	<g>
		<path class="st9" d="M6.2,86.8c0.5,0,0.6,0.4,0.6,0.8l0,0h0.6l0,0l0,0c0-0.3-0.2-1.3-1.3-1.3c-1.2,0-1.4,1.3-1.4,2s0.2,2,1.4,2
			c1.1,0,1.2-1,1.3-1.3l0,0l-0.6-0.1l0,0c-0.1,0.5-0.2,0.7-0.6,0.7c-0.5,0-0.7-0.5-0.7-1.4S5.8,86.8,6.2,86.8"/>
		<path class="st9" d="M8.9,87.2c-0.7,0-1.1,0.5-1.1,1.5c0,0.7,0.2,1.5,1.1,1.5c0.8,0,1.1-0.5,1.1-1.5C10.1,88.1,9.9,87.2,8.9,87.2
			 M8.9,87.7c0.3,0,0.5,0.3,0.5,1s-0.1,1-0.5,1c-0.3,0-0.5-0.3-0.5-1S8.7,87.7,8.9,87.7"/>
		<path class="st9" d="M11.9,87.2c-0.4,0-0.6,0.2-0.7,0.4v-0.3h-0.6v2.9h0.6v-1.6c0-0.3,0-0.8,0.4-0.8c0.3,0,0.3,0.2,0.3,0.6v1.8
			h0.6v-1.8c0-0.3,0-0.6-0.1-0.7C12.4,87.3,12.2,87.2,11.9,87.2"/>
		<path class="st9" d="M14.2,88.4c-0.4-0.1-0.5-0.2-0.5-0.4c0-0.2,0.1-0.3,0.3-0.3c0.3,0,0.4,0.3,0.4,0.4l0,0l0.5-0.1l0,0
			c-0.1-0.2-0.2-0.7-0.9-0.7c-0.6,0-1,0.5-1,0.9c0,0.6,0.5,0.7,0.9,0.9c0.2,0.1,0.5,0.1,0.5,0.4c0,0,0,0.3-0.4,0.3s-0.5-0.3-0.5-0.5
			l0,0L13,89.4l0,0l0,0c0,0.2,0.2,0.8,1,0.8c0.7,0,1.1-0.5,1.1-0.9C15.1,88.7,14.6,88.5,14.2,88.4"/>
		<path class="st9" d="M17.6,89.3L17,89.2l0,0c0,0.2-0.1,0.5-0.5,0.5c-0.5,0-0.5-0.6-0.5-0.9h1.6l0,0c0-0.3,0-0.7-0.2-1.1
			c-0.1-0.2-0.4-0.5-0.9-0.5c-0.7,0-1.1,0.6-1.1,1.5c0,0.4,0.1,1.5,1.1,1.5C17.3,90.2,17.5,89.5,17.6,89.3L17.6,89.3z M16.9,88
			c0,0.1,0.1,0.3,0.1,0.4h-0.9c0-0.5,0.2-0.7,0.5-0.7C16.5,87.7,16.8,87.7,16.9,88"/>
		<rect x="18" y="86.3" class="st9" width="0.7" height="0.7"/>
		<path class="st9" d="M18,90c0,0.5,0,0.6-0.3,0.6c-0.1,0-0.1,0-0.2,0l0,0v0.5h0.1c0.1,0,0.2,0,0.3,0c0.7,0,0.7-0.6,0.7-1.1v-2.7H18
			V90z"/>
		<path class="st9" d="M20.3,87.2c-0.7,0-1.1,0.5-1.1,1.5c0,0.7,0.2,1.5,1.1,1.5c0.8,0,1.1-0.5,1.1-1.5
			C21.4,88.1,21.3,87.2,20.3,87.2 M20.3,87.7c0.3,0,0.5,0.3,0.5,1s-0.1,1-0.5,1c-0.3,0-0.5-0.3-0.5-1S19.9,87.7,20.3,87.7"/>
		<path class="st9" d="M24.8,87.5c-0.1-0.1-0.3-0.3-0.6-0.3c-0.6,0-1,0.6-1,1.5c0,0.3,0.1,1.5,1,1.5c0.4,0,0.6-0.2,0.7-0.4v0.3h0.6
			v-3.8h-0.6v1.2H24.8z M24.3,89.7c-0.4,0-0.5-0.5-0.5-1c0-0.4,0-1,0.5-1c0.2,0,0.3,0.1,0.4,0.2c0.1,0.2,0.1,0.3,0.1,0.5v0.5
			c0,0.3,0,0.4-0.1,0.5C24.6,89.6,24.5,89.7,24.3,89.7"/>
		<path class="st9" d="M28.1,88.8c0-0.3,0-0.7-0.2-1.1c-0.1-0.2-0.4-0.5-0.9-0.5c-0.7,0-1.1,0.6-1.1,1.5c0,0.4,0.1,1.5,1.1,1.5
			c0.8,0,1-0.7,1.1-0.9l0,0l-0.6-0.1l0,0c0,0.2-0.1,0.5-0.5,0.5c-0.5,0-0.5-0.6-0.5-0.9H28.1L28.1,88.8z M27.4,88
			c0,0.1,0,0.3,0.1,0.4h-0.9c0-0.5,0.2-0.7,0.5-0.7C27.1,87.7,27.3,87.7,27.4,88"/>
		<polygon class="st9" points="30.7,88.4 31.9,88.4 31.9,87.9 30.7,87.9 30.7,86.9 32.1,86.9 32.1,86.3 30,86.3 30,90.1 32.2,90.1 
			32.2,89.6 30.7,89.6 		"/>
		<path class="st9" d="M34,87.5c-0.1-0.1-0.3-0.3-0.6-0.3c-0.6,0-1,0.6-1,1.5c0,0.3,0.1,1.5,1,1.5c0.4,0,0.6-0.2,0.7-0.4v0.3h0.6
			v-3.8H34V87.5z M33.5,89.7c-0.4,0-0.5-0.5-0.5-1c0-0.4,0-1,0.5-1c0.2,0,0.3,0.1,0.4,0.2c0.1,0.2,0.1,0.3,0.1,0.5v0.5
			c0,0.3,0,0.4-0.1,0.5C33.8,89.6,33.8,89.7,33.5,89.7"/>
		<path class="st9" d="M36.6,88.7c0,0.5,0,1-0.4,1c-0.3,0-0.3-0.2-0.3-0.6v-1.8h-0.6v1.8c0,0.5,0,1.1,0.7,1.1c0.4,0,0.6-0.2,0.7-0.4
			v0.3h0.6v-2.9h-0.6v1.5H36.6z"/>
		<path class="st9" d="M39,87.7c0.3,0,0.4,0.3,0.4,0.6l0,0l0.6-0.1l0,0c0-0.3-0.1-1-1-1s-1.1,0.8-1.1,1.5s0.2,1.5,1.1,1.5
			c0.9,0,1-0.7,1.1-1.1l0,0L39.5,89l0,0c0,0.3-0.1,0.6-0.4,0.6c-0.5,0-0.5-0.7-0.5-0.9C38.5,88,38.5,87.7,39,87.7"/>
		<path class="st9" d="M42.2,89.3v-0.9c0-0.3,0-0.7-0.2-0.9c-0.1-0.1-0.4-0.3-0.8-0.3c-0.3,0-1,0.1-1.1,0.8l0,0l0.6,0.1l0,0
			c0-0.1,0.1-0.4,0.4-0.4c0.4,0,0.4,0.4,0.4,0.6v0.1h-0.1c-0.3,0-0.6,0-0.8,0.1c-0.4,0.1-0.6,0.5-0.6,0.9c0,0.5,0.3,0.8,0.8,0.8
			s0.6-0.3,0.8-0.5c0,0.2,0,0.3,0,0.4l0,0h0.6l0,0C42.2,89.9,42.2,89.6,42.2,89.3 M41.1,89.7c-0.2,0-0.4-0.1-0.4-0.4
			c0-0.2,0.1-0.6,0.7-0.6h0.1v0.1C41.6,89.5,41.3,89.7,41.1,89.7"/>
		<path class="st9" d="M43.8,87.7c0.3,0,0.4,0.3,0.4,0.6l0,0l0.6-0.1l0,0c0-0.3-0.1-1-1-1s-1.1,0.8-1.1,1.5s0.2,1.5,1.1,1.5
			c0.9,0,1-0.7,1.1-1.1l0,0L44.3,89l0,0c0,0.3-0.1,0.6-0.4,0.6c-0.5,0-0.5-0.7-0.5-0.9C43.3,88,43.5,87.7,43.8,87.7"/>
		<rect x="45.1" y="86.3" class="st9" width="0.7" height="0.7"/>
		<rect x="45.2" y="87.3" class="st9" width="0.6" height="2.9"/>
		<path class="st9" d="M47.5,87.2c-0.7,0-1.1,0.5-1.1,1.5c0,0.7,0.2,1.5,1.1,1.5c0.8,0,1.1-0.5,1.1-1.5
			C48.5,88.1,48.5,87.2,47.5,87.2 M47.5,87.7c0.3,0,0.5,0.3,0.5,1s-0.1,1-0.5,1s-0.5-0.3-0.5-1C47,88,47.1,87.7,47.5,87.7"/>
		<polygon class="st9" points="48.5,86.4 48,85.9 47.1,86.8 47.3,87 		"/>
		<path class="st9" d="M50.3,87.2c-0.4,0-0.6,0.2-0.7,0.4v-0.3H49v2.9h0.6v-1.6c0-0.3,0-0.8,0.4-0.8c0.3,0,0.3,0.2,0.3,0.6v1.8h0.6
			v-1.8c0-0.3,0-0.6-0.1-0.7C50.8,87.3,50.6,87.2,50.3,87.2"/>
		<path class="st9" d="M54.5,87.9L54.5,87.9c-0.5-0.2-0.7-0.3-0.7-0.6c0-0.2,0.1-0.5,0.5-0.5s0.5,0.2,0.6,0.6l0,0l0.6-0.2l0,0
			c-0.1-0.3-0.3-0.9-1.2-0.9c-0.8,0-1.2,0.6-1.2,1.1c0,0.4,0.2,0.7,0.4,0.8c0.2,0.2,0.4,0.3,0.8,0.4c0.3,0.1,0.6,0.3,0.6,0.6
			c0,0.1,0,0.5-0.6,0.5s-0.7-0.5-0.8-0.7l0,0l-0.6,0.2l0,0l0,0c0.1,0.3,0.3,1.1,1.3,1.1c0.9,0,1.3-0.6,1.3-1.2
			C55.5,88.3,55,88,54.5,87.9"/>
		<path class="st9" d="M58.1,88.8c0-0.3,0-0.7-0.2-1.1c-0.1-0.2-0.4-0.5-0.9-0.5c-0.7,0-1.1,0.6-1.1,1.5c0,0.4,0.1,1.5,1.1,1.5
			c0.8,0,1-0.7,1.1-0.9l0,0l-0.6-0.1l0,0c0,0.2-0.1,0.5-0.5,0.5c-0.5,0-0.5-0.6-0.5-0.9H58.1L58.1,88.8z M57.5,88
			c0,0.1,0,0.3,0.1,0.4h-0.9c0-0.5,0.2-0.7,0.5-0.7C57.1,87.7,57.3,87.7,57.5,88"/>
		<path class="st9" d="M59.5,87.7c0.3,0,0.4,0.3,0.4,0.6l0,0l0.6-0.1l0,0c0-0.3-0.1-1-1-1s-1.1,0.8-1.1,1.5s0.2,1.5,1.1,1.5
			c0.9,0,1-0.7,1.1-1.1l0,0L60,89l0,0c0,0.3-0.1,0.6-0.4,0.6c-0.5,0-0.5-0.7-0.5-0.9C59.1,88,59.2,87.7,59.5,87.7"/>
		<path class="st9" d="M62.2,88.7c0,0.5,0,1-0.4,1c-0.3,0-0.3-0.2-0.3-0.6v-1.8H61v1.8c0,0.5,0,1.1,0.7,1.1c0.4,0,0.6-0.2,0.7-0.4
			v0.3H63v-2.9h-0.6v1.5H62.2z"/>
		<path class="st9" d="M64.8,87.2c-0.4,0-0.6,0.2-0.7,0.4v-0.3h-0.6v2.9H64v-1.6c0-0.3,0-0.8,0.4-0.8c0.3,0,0.3,0.2,0.3,0.6v1.8h0.6
			v-1.8c0-0.3,0-0.6-0.1-0.7C65.4,87.3,65.2,87.2,64.8,87.2"/>
		<path class="st9" d="M67.7,87.5c-0.1-0.1-0.3-0.3-0.6-0.3c-0.6,0-1,0.6-1,1.5c0,0.3,0.1,1.5,1,1.5c0.4,0,0.6-0.2,0.7-0.4v0.3h0.6
			v-3.8h-0.6L67.7,87.5L67.7,87.5z M67.2,89.7c-0.4,0-0.5-0.5-0.5-1c0-0.4,0-1,0.5-1c0.2,0,0.3,0.1,0.4,0.2c0.1,0.2,0.1,0.3,0.1,0.5
			v0.5c0,0.3,0,0.4-0.1,0.5C67.5,89.6,67.2,89.7,67.2,89.7"/>
		<path class="st9" d="M71,89.3v-0.9c0-0.3,0-0.7-0.2-0.9c-0.1-0.1-0.4-0.3-0.8-0.3c-0.3,0-1,0.1-1.1,0.8l0,0l0.6,0.1l0,0
			c0-0.1,0.1-0.4,0.4-0.4c0.4,0,0.4,0.4,0.4,0.6v0.1h-0.1c-0.3,0-0.6,0-0.8,0.1c-0.4,0.1-0.6,0.5-0.6,0.9c0,0.5,0.3,0.8,0.8,0.8
			s0.6-0.3,0.8-0.5c0,0.2,0,0.3,0,0.4l0,0H71l0,0C71,89.9,71,89.6,71,89.3 M69.8,89.7c-0.2,0-0.4-0.1-0.4-0.4c0-0.2,0.1-0.6,0.7-0.6
			h0.1v0.1C70.2,89.5,70.1,89.7,69.8,89.7"/>
		<path class="st9" d="M72.8,87.2c-0.3,0-0.5,0.2-0.7,0.6v-0.5h-0.6v2.9h0.6v-1.5c0-0.2,0-0.4,0.1-0.6s0.3-0.3,0.5-0.3h0.1l0,0V87.2
			L72.8,87.2C72.9,87.2,72.8,87.2,72.8,87.2"/>
		<rect x="73.1" y="86.3" class="st9" width="0.7" height="0.7"/>
		<rect x="73.1" y="87.3" class="st9" width="0.6" height="2.9"/>
		<path class="st9" d="M76.5,90.1c0-0.2,0-0.5,0-0.8v-0.9c0-0.3,0-0.7-0.2-0.9c-0.1-0.1-0.4-0.3-0.8-0.3c-0.3,0-1,0.1-1.1,0.8l0,0
			l0.6,0.1l0,0c0-0.1,0.1-0.4,0.4-0.4c0.4,0,0.4,0.4,0.4,0.6v0.1h-0.1c-0.3,0-0.6,0-0.8,0.1c-0.4,0.1-0.6,0.5-0.6,0.9
			c0,0.5,0.3,0.8,0.8,0.8c0.4,0,0.6-0.3,0.8-0.5c0,0.2,0,0.3,0,0.4l0,0L76.5,90.1L76.5,90.1z M75.2,89.7c-0.2,0-0.4-0.1-0.4-0.4
			c0-0.2,0.1-0.6,0.7-0.6h0.1v0.1C75.8,89.5,75.5,89.7,75.2,89.7"/>
		<path class="st9" d="M39,70.4C38.8,68,38.3,66,36,66c-2.9,0-3.6,2.8-3.6,7.7c0,1.8,0,6.7,3.6,6.7c2.6,0,2.9-2.7,3-4.4l4,0.4
			c-0.3,2.5-1,7.4-7.4,7.4c-6.5,0-7.6-6.2-7.6-10.5c0-4.7,1.3-10.6,7.9-10.6c6,0,6.8,5.1,7.1,7.3L39,70.4z"/>
		<path class="st9" d="M49.1,74c0,2.2,0,6.8,3.9,6.8c2.7,0,3.2-2.3,3.6-3.8l3.8,0.5c-0.4,1.5-1.5,6.4-7.5,6.4s-8-5-8-10.2
			c0-7.4,3.6-10.9,8.1-10.9c3.3,0,5.3,1.9,6.1,3.5c1.4,2.7,1.4,5.2,1.5,7.7H49.1z M56.3,71.1c0-0.8,0-1.7-0.4-2.9
			c-0.7-2-2.3-2.4-3.1-2.4c-2.5,0-3.4,2.6-3.6,5.3H56.3z"/>
		<path class="st9" d="M73,68.9c-0.3-0.9-1-3-3.4-3c-1.7,0-2.6,1.2-2.6,2.5c0,1.8,1.3,2.2,4.1,3.1c2.4,0.8,6,2,6,6
			c0,3.1-2.3,6.4-7.4,6.4c-6.2,0-7-4.4-7.3-5.8l3.6-0.7c0.2,0.9,0.7,3.5,3.9,3.5c2.7,0,3.2-1.9,3.2-2.7c0-2-1.8-2.5-3.6-3.1
			c-2.8-0.9-6.3-2-6.3-6.1c0-3.2,2.5-6.2,6.7-6.2c5.1,0,6.2,3.8,6.5,5.2L73,68.9z"/>
		<path class="st9" d="M12.9,62.1c0,0.8,0.6,1.4,1.4,1.4c0.8,0,1.4-0.6,1.4-1.4c0-0.8-0.6-1.4-1.4-1.4
			C13.6,60.8,12.9,61.4,12.9,62.1"/>
		<path class="st9" d="M19.4,62c-2,0.6-3.9,2.5-5,3.9c-1.1-1.4-3-3.3-5-3.9l5,9.8l0,0l0,0l0,0L19.4,62z"/>
		<path class="st9" d="M13.4,72.3L13.4,72.3l-6-9.2c-0.5,2,0.2,4.6,0.9,6.3c-1.8,0.3-4.4,1-5.9,2.4L13.4,72.3L13.4,72.3L13.4,72.3"
			/>
		<path class="st9" d="M4.4,68.7c0.7,0.4,1.5,0.2,1.9-0.5c0.4-0.7,0.2-1.5-0.5-1.9s-1.5-0.2-1.9,0.5C3.5,67.4,3.7,68.3,4.4,68.7"/>
		<path class="st9" d="M15.2,72.3l11-0.5c-1.5-1.4-4.1-2.1-5.9-2.4c0.6-1.7,1.4-4.3,0.9-6.3L15.2,72.3L15.2,72.3L15.2,72.3
			L15.2,72.3L15.2,72.3z"/>
		<path class="st9" d="M24.3,68.7c0.7-0.4,0.9-1.2,0.5-1.9c-0.4-0.7-1.2-0.9-1.9-0.5c-0.7,0.4-0.9,1.2-0.5,1.9
			C22.8,68.8,23.6,69.1,24.3,68.7"/>
		<path class="st9" d="M14.4,82.1c-0.8,0-1.4,0.6-1.4,1.4s0.6,1.4,1.4,1.4c0.8,0,1.4-0.6,1.4-1.4C15.7,82.7,15.1,82.1,14.4,82.1"/>
		<path class="st9" d="M19.4,83.6l-5-9.8l0,0l0,0l0,0l0,0l0,0l-5,9.7l0,0l0,0l0,0l0,0c2-0.6,3.8-2.5,5-3.8l0,0
			C15.4,81.1,17.4,83,19.4,83.6L19.4,83.6L19.4,83.6z"/>
		<path class="st9" d="M20.4,76.3L20.4,76.3L20.4,76.3c1.8-0.3,4.4-1,5.9-2.4l0,0l0,0l0,0l0,0l-10.9-0.5l0,0l0,0l0,0l0,0l5.9,9.2
			l0,0l0,0l0,0l0,0C21.7,80.5,21,77.9,20.4,76.3"/>
		<path class="st9" d="M24.3,76.9c-0.7-0.4-1.5-0.2-1.9,0.5s-0.2,1.5,0.5,1.9s1.5,0.2,1.9-0.5C25.2,78.1,25,77.3,24.3,76.9"/>
		<path class="st9" d="M4.4,76.9c-0.7,0.4-0.9,1.2-0.5,1.9c0.4,0.7,1.2,0.9,1.9,0.5c0.7-0.4,0.9-1.2,0.5-1.9
			C5.9,76.8,5.1,76.5,4.4,76.9"/>
		<path class="st9" d="M13.4,73.3L13.4,73.3L13.4,73.3L13.4,73.3L13.4,73.3L13.4,73.3l-11,0.5l0,0c1.5,1.4,4.1,2.1,5.9,2.4l0,0
			c-0.6,1.7-1.4,4.3-0.9,6.3l0,0l0,0L13.4,73.3z"/>
	</g>
</g>
</svg>
