<?xml version="1.0" encoding="utf-8"?>
<!-- Generator: Adobe Illustrator 19.1.0, SVG Export Plug-In . SVG Version: 6.00 Build 0)  -->
<svg version="1.1" id="Layer_1" xmlns="http://www.w3.org/2000/svg" xmlns:xlink="http://www.w3.org/1999/xlink" x="0px" y="0px"
	 viewBox="-240 391.7 113.5 58.2" style="enable-background:new -240 391.7 113.5 58.2;" xml:space="preserve">
<style type="text/css">
	.st0{fill:#FFFFFF;}
</style>
<g>
	<g>
		<path class="st0" d="M-222,442.8V417"/>
		<path class="st0" d="M-195.3,442.8V417"/>
		<path class="st0" d="M-171.6,442.8V417"/>
	</g>
	<g>
		<path class="st0" d="M-238.7,425.1h1.9c1.5,0,2.7,0.2,3.9,1.2c1.1,1,1.6,2.4,1.6,3.9c0,1.5-0.5,2.8-1.6,3.8
			c-1.2,1.1-2.4,1.3-3.9,1.3h-1.8V425.1z M-236.8,434.2c1.2,0,2.2-0.2,3.1-1c0.8-0.8,1.2-1.8,1.2-3c0-1.2-0.4-2.3-1.3-3
			c-0.9-0.8-1.9-1-3.1-1h-0.8v8H-236.8z"/>
		<path class="st0" d="M-210.9,432.3l-1.2,2.9h-1.2l4.6-10.6l4.5,10.6h-1.2l-1.2-2.9H-210.9z M-208.7,427.2l-1.7,4.1h3.4
			L-208.7,427.2z"/>
		<path class="st0" d="M-183,435.2h-1.1v-9.1h-2.4v-1h5.9v1h-2.4V435.2z"/>
		<path class="st0" d="M-160.5,432.3l-1.2,2.9h-1.2l4.6-10.6l4.5,10.6h-1.2l-1.2-2.9H-160.5z M-158.4,427.2l-1.7,4.1h3.4
			L-158.4,427.2z"/>
	</g>
	<path class="st0" d="M-140.2,416.9c-3-2.2-6-4.1-9.1-5.7c4.5,7.6,7.9,16.5,9.5,26.4C-139.1,430.7-139.2,423.7-140.2,416.9z"/>
	<path class="st0" d="M-143.9,398.8c6.3,6.4,11.9,14.3,16.2,23.4c-3.2,7.1-7.2,13.4-11.7,19C-137.3,426.5-139,411.9-143.9,398.8z"/>
</g>
</svg>
