<?xml version="1.0" encoding="utf-8"?>
<!-- Generator: Adobe Illustrator 19.1.0, SVG Export Plug-In . SVG Version: 6.00 Build 0)  -->
<svg version="1.1" id="Layer_1" xmlns="http://www.w3.org/2000/svg" xmlns:xlink="http://www.w3.org/1999/xlink" x="0px" y="0px"
	 viewBox="-17 46.8 113.5 58.2" style="enable-background:new -17 46.8 113.5 58.2;" xml:space="preserve">
<style type="text/css">
	.st0{fill:#02919D;}
</style>
<g id="Layer_1_1_">
</g>
<g>
	<g>
		<path class="st0" d="M1.1,97.8V72.1"/>
		<path class="st0" d="M27.7,97.8V72.1"/>
		<path class="st0" d="M51.4,97.8V72.1"/>
	</g>
	<g>
		<path class="st0" d="M-15.6,80.2h1.9c1.5,0,2.7,0.2,3.9,1.2c1.1,1,1.6,2.4,1.6,3.9c0,1.5-0.5,2.8-1.6,3.8
			c-1.2,1.1-2.4,1.3-3.9,1.3h-1.8V80.2z M-13.7,89.2c1.2,0,2.2-0.2,3.1-1c0.8-0.8,1.2-1.8,1.2-3c0-1.2-0.4-2.3-1.3-3
			c-0.9-0.8-1.9-1-3.1-1h-0.8v8H-13.7z"/>
		<path class="st0" d="M12.2,87.4L11,90.3H9.8l4.6-10.6l4.4,10.6h-1.2l-1.2-2.9H12.2z M14.3,82.3l-1.7,4.1H16L14.3,82.3z"/>
		<path class="st0" d="M40,90.3h-1.1v-9.1h-2.4v-1h5.9v1H40V90.3z"/>
		<path class="st0" d="M62.4,87.4l-1.2,2.9H60l4.6-10.6l4.4,10.6h-1.2l-1.2-2.9H62.4z M64.6,82.3l-1.7,4.1h3.3L64.6,82.3z"/>
	</g>
	<path class="st0" d="M82.7,72c-2.9-2.2-6-4.1-9.1-5.7c4.5,7.6,7.9,16.5,9.5,26.4C83.8,85.8,83.7,78.8,82.7,72z"/>
	<path class="st0" d="M79,54c6.3,6.4,11.9,14.2,16.2,23.4c-3.2,7-7.1,13.4-11.6,18.9C85.6,81.6,83.9,67.1,79,54z"/>
</g>
</svg>
