<?xml version="1.0" encoding="utf-8"?>
<!-- Generator: Adobe Illustrator 19.1.0, SVG Export Plug-In . SVG Version: 6.00 Build 0)  -->
<svg version="1.1" id="Layer_1" xmlns="http://www.w3.org/2000/svg" xmlns:xlink="http://www.w3.org/1999/xlink" x="0px" y="0px"
	 viewBox="0 0 593.3 186.7" style="enable-background:new 0 0 593.3 186.7;" xml:space="preserve">
<style type="text/css">
	.st0{clip-path:url(#SVGID_2_);}
	.st1{fill:#FFFFFF;}
	.st2{fill:#527493;}
	.st3{fill:#29ABE2;}
	.st4{fill:none;stroke:#FFFFFF;stroke-width:1.684;stroke-linecap:round;stroke-linejoin:round;stroke-dasharray:3.361,3.361;}
	.st5{clip-path:url(#SVGID_6_);}
	.st6{clip-path:url(#SVGID_8_);fill:#FFFFFF;}
	.st7{fill-rule:evenodd;clip-rule:evenodd;fill:#FFFFFF;}
	.st8{clip-path:url(#SVGID_10_);}
</style>
<g>
	<g>
		<g>
			<defs>
				<polygon id="SVGID_1_" points="66.5,46.5 58.7,41.3 47.8,47.8 47.8,56.3 66.5,74.9 85.1,56.3 85.1,47.8 74.2,41.3 				"/>
			</defs>
			<clipPath id="SVGID_2_">
				<use xlink:href="#SVGID_1_"  style="overflow:visible;"/>
			</clipPath>
			<g class="st0">
				<defs>
					<rect id="SVGID_3_" x="-152.3" y="-215.3" width="738.7" height="738.7"/>
				</defs>
				<clipPath id="SVGID_4_">
					<use xlink:href="#SVGID_3_"  style="overflow:visible;"/>
				</clipPath>
			</g>
		</g>
	</g>
	<g>
		<g>
			<path class="st1" d="M147.5,72.1h11.7c11.7,0,20,7.8,20,19s-8.3,19-20,19h-11.7V72.1z M158.8,103.1c8.4,0,12.3-5,12.3-12.1
				c0-7.1-3.8-12.1-12.3-12.1h-3.5v24.2H158.8z"/>
			<path class="st1" d="M185.7,72.1h25.1v6.9h-17.3v12h15.2v6.7h-15.2v5.5h18.1v6.9h-25.9V72.1z"/>
			<path class="st1" d="M246.9,110h-9l-6.2-9.6c-0.7,0.1-1.5,0.2-2.2,0.2h-2.7v9.4h-7.8V72.1h10.5c10.6,0,17,5.1,17,14.3
				c0,5.9-2.6,9.7-7.3,11.8L246.9,110z M229.1,93.8c6.4,0,9.1-2,9.1-7.4c0-5.4-2.9-7.5-9.1-7.5h-2.5v14.8H229.1z"/>
			<path class="st1" d="M253.1,72.1h25.1v6.9h-17.3v12h15.2v6.7h-15.2v5.5H279v6.9h-25.9V72.1z"/>
			<path class="st1" d="M284.5,91c0-11.2,8.6-19.4,19.5-19.4c6.9,0,11.8,2.5,15.2,7.8l-6,4.2c-1.8-2.9-4.9-5-9.2-5
				c-6.9,0-11.5,5.3-11.5,12.4c0,7.1,4.6,12.5,11.5,12.5c4.9,0,7.6-2.3,9.8-5.6l6.1,4.2c-3.3,5.1-8.5,8.4-15.8,8.4
				C293.1,110.5,284.5,102.3,284.5,91z"/>
			<path class="st1" d="M325.6,72.1h7.8v19.4h16.2V72.1h7.8V110h-7.8V98.5h-16.2V110h-7.8V72.1z"/>
			<path class="st1" d="M364.1,91c0-11.2,8.7-19.5,19.6-19.5c10.9,0,19.6,8.3,19.6,19.5s-8.7,19.5-19.6,19.5
				C372.8,110.5,364.1,102.3,364.1,91z M395.4,91c0-7.1-4.7-12.5-11.6-12.5c-6.9,0-11.6,5.4-11.6,12.5c0,7.1,4.7,12.5,11.6,12.5
				C390.7,103.5,395.4,98.1,395.4,91z"/>
			<path class="st1" d="M406.5,102.5l6.4-3.7c1.7,2.7,3.8,4.7,7.7,4.7c3.2,0,5.3-1.6,5.3-3.8c0-2.7-2.1-3.6-5.7-5.2l-2-0.8
				c-5.6-2.4-9.4-5.4-9.4-11.8c0-5.9,4.5-10.3,11.4-10.3c5,0,8.5,1.7,11.1,6.2l-6.1,3.9c-1.3-2.4-2.8-3.3-5-3.3
				c-2.3,0-3.7,1.4-3.7,3.3c0,2.3,1.5,3.3,4.8,4.7l2,0.8c6.6,2.8,10.4,5.7,10.4,12.3c0,7-5.5,10.9-12.9,10.9
				C413.5,110.5,408.8,107.1,406.5,102.5z"/>
		</g>
		<g>
			<path class="st1" d="M147.5,125.6h11.7c11.7,0,20,7.8,20,19c0,11.2-8.3,19-20,19h-11.7V125.6z M158.8,156.6
				c8.4,0,12.3-5,12.3-12.1s-3.8-12.1-12.3-12.1h-3.5v24.2H158.8z"/>
			<path class="st1" d="M185.7,125.6h25.1v6.9h-17.3v12h15.2v6.7h-15.2v5.5h18.1v6.9h-25.9V125.6z"/>
			<path class="st1" d="M218.9,125.6h7.8v31.1h17.2v6.9h-25V125.6z"/>
			<path class="st1" d="M262.5,125.6h25.1v6.9h-17.3v12h15.2v6.7h-15.2v5.5h18.1v6.9h-25.9V125.6z"/>
			<path class="st1" d="M292.6,156l6.4-3.7c1.7,2.7,3.8,4.7,7.7,4.7c3.2,0,5.3-1.6,5.3-3.8c0-2.7-2.1-3.6-5.7-5.2l-2-0.8
				c-5.6-2.4-9.4-5.4-9.4-11.8c0-5.9,4.5-10.3,11.4-10.3c5,0,8.5,1.7,11.1,6.2l-6.1,3.9c-1.3-2.4-2.8-3.3-5-3.3
				c-2.3,0-3.7,1.4-3.7,3.3c0,2.3,1.5,3.3,4.8,4.7l2,0.8c6.6,2.8,10.4,5.7,10.4,12.3c0,7-5.5,10.9-12.9,10.9
				C299.6,164,294.9,160.5,292.6,156z"/>
			<path class="st1" d="M333.4,132.4h-10.8v-6.9h29.5v6.9h-10.8v31.1h-7.8V132.4z"/>
			<path class="st1" d="M357.6,149.8v-24.2h7.8v23.8c0,5.5,2.4,7.6,7.6,7.6c5.1,0,7.5-2.1,7.5-7.6v-23.8h7.8v24.2
				c0,9.6-6.6,14.2-15.3,14.2C364.3,164,357.6,159.4,357.6,149.8z"/>
			<path class="st1" d="M396.1,125.6h11.7c11.7,0,20,7.8,20,19c0,11.2-8.3,19-20,19h-11.7V125.6z M407.3,156.6
				c8.4,0,12.3-5,12.3-12.1s-3.8-12.1-12.3-12.1h-3.5v24.2H407.3z"/>
			<path class="st1" d="M434.4,125.6h7.8v37.9h-7.8V125.6z"/>
			<path class="st1" d="M464.2,125.2h0.7l17.3,38.3H474l-1.8-4.3h-15.4l-1.8,4.3h-7.5L464.2,125.2z M469.4,152.7l-2.7-6.6
				c-1.1-2.7-2.3-6.8-2.3-6.8s-1.1,4.1-2.2,6.8l-2.7,6.6H469.4z"/>
			<path class="st1" d="M498.6,145.9c-1.9-1.8-4.5-5.2-4.5-5.2s0.6,4.2,0.6,6.9v15.9h-7.3v-38.3h0.8l19.1,18
				c1.8,1.7,4.5,5.2,4.5,5.2s-0.5-4.3-0.5-6.9v-15.9h7.3v38.3h-0.8L498.6,145.9z"/>
			<path class="st1" d="M535.1,132.4h-10.8v-6.9h29.5v6.9h-10.8v31.1h-7.8V132.4z"/>
			<path class="st1" d="M559.5,125.6h25.1v6.9h-17.3v12h15.2v6.7h-15.2v5.5h18.1v6.9h-25.9V125.6z"/>
		</g>
		<g>
			<path class="st2" d="M591,160"/>
		</g>
		<g>
			<path class="st1" d="M49.3,23.6c2.2-7.4,9.1-12.9,17.2-12.9c8.1,0,15,5.4,17.2,12.9c2.7,0.7,5.3,1.7,7.8,2.7
				c-1.2-12.8-12-22.8-25-22.8c-13.1,0-23.9,10-25,22.8C43.9,25.3,46.5,24.3,49.3,23.6z"/>
			<path class="st1" d="M76.3,14.9c-3.2-0.4-6.4-0.7-9.8-0.7c-3.3,0-6.6,0.2-9.8,0.7l-7.8,1.5C26.2,22.1,9.7,38.6,9.7,58.1v94.6
				c0,5.9,4.8,10.7,10.7,10.7h92.3c5.9,0,10.7-4.8,10.7-10.7V58.1c0-0.1,0-0.2,0-0.4c-0.2-19.3-16.6-35.7-39.2-41.4L76.3,14.9z
				 M116.2,152.7c0,2-1.6,3.6-3.6,3.6H20.3c-2,0-3.6-1.6-3.6-3.6V58.1c0-20.3,22.3-36.8,49.7-36.8s49.7,16.5,49.7,36.8V152.7z
				 M103.8,89.2H29.2c-2,0-3.6,1.6-3.6,3.6V146c0,2,1.6,3.6,3.6,3.6h74.6c2,0,3.6-1.6,3.6-3.6V92.8
				C107.3,90.8,105.7,89.2,103.8,89.2 M32.8,101.2v-4.9h67.5v4.9v7.1v34.2H32.8v-34.2"/>
			<path class="st1" d="M39.1,110.6L39.1,110.6c-0.3,0-0.5,0.2-0.5,0.5h0C38.6,110.8,38.8,110.6,39.1,110.6"/>
			<path class="st1" d="M37.2,111L37.2,111c0-1,0.9-1.9,1.9-1.9c1,0,1.9,0.8,1.9,1.9h0l0.1,0.6h64v-2.9H32.3v2.9h4.8L37.2,111z"/>
			<polygon class="st1" points="39.6,111.2 39.6,111.2 39.6,111.6 			"/>
			<polygon class="st1" points="38.6,111.2 37.9,111.1 37.9,111.1 38.6,111.2 38.5,111.6 38.5,111.6 			"/>
			<path class="st1" d="M40.9,121.3c0,0.3-0.1,0.5-0.2,0.8c-0.2,0.7-0.8,1.1-1.6,1.1c-0.7,0-1.3-0.5-1.6-1.1
				c-0.1-0.2-0.2-0.5-0.2-0.8l1.2-9.7h-1.4l-1.2,9.6c0,1.8,1.4,3.3,3.2,3.3c1.8,0,3.2-1.5,3.2-3.3l-1.2-9.6h-1.4L40.9,121.3z"/>
			<path class="st1" d="M41,111c0-1-0.9-1.9-1.9-1.9c-1,0-1.9,0.8-1.9,1.9h0l-0.1,0.6h1.4l0.1-0.4l-0.7-0.1h0h0.7
				c0-0.3,0.2-0.5,0.5-0.5h0c0.3,0,0.5,0.2,0.5,0.5h0.7h0l-0.7,0.1l0.1,0.4h1.4L41,111L41,111z"/>
			<path class="st1" d="M38.5,111.6l-1.2,9.7c0,0.3,0.1,0.5,0.2,0.8c-0.1-0.2-0.1-0.3-0.1-0.5c0-0.9,0.7-1.7,1.7-1.7
				c0.9,0,1.7,0.7,1.7,1.7c0,0.2,0,0.4-0.1,0.5c0.1-0.2,0.2-0.5,0.2-0.8l-1.2-9.7H38.5z"/>
			<path class="st1" d="M38.5,111.6h1.1l-0.1-0.4v0l0.7-0.1h-0.7h0c0-0.3-0.2-0.5-0.5-0.5c-0.3,0-0.5,0.2-0.5,0.5h0h-0.7l0.7,0.1
				L38.5,111.6z"/>
			<path class="st1" d="M37.3,121.3c0,0.3,0.1,0.5,0.2,0.8v0C37.4,121.9,37.3,121.6,37.3,121.3"/>
			<path class="st1" d="M40.6,122.1c0.1-0.2,0.2-0.5,0.2-0.8C40.9,121.6,40.8,121.9,40.6,122.1L40.6,122.1"/>
			<path class="st1" d="M39.6,111.1L39.6,111.1c0-0.3-0.2-0.5-0.5-0.5C39.4,110.6,39.6,110.8,39.6,111.1"/>
			<rect x="39.6" y="111.1" transform="matrix(0.9927 -0.121 0.121 0.9927 -13.1525 5.6517)" class="st1" width="0.7" height="0"/>
			<path class="st1" d="M39.1,123.1c-0.7,0-1.3-0.4-1.6-1c0.2,0.7,0.8,1.1,1.6,1.1c0.7,0,1.3-0.5,1.6-1.1
				C40.4,122.7,39.8,123.1,39.1,123.1"/>
			<path class="st1" d="M39.1,123.1c-0.7,0-1.3-0.4-1.6-1v0C37.8,122.7,38.4,123.1,39.1,123.1c0.7,0,1.3-0.4,1.6-1v0
				C40.4,122.7,39.8,123.1,39.1,123.1"/>
			<path class="st3" d="M110.7,48.8L110.7,48.8c-0.3-0.1-0.6,0-0.7,0.3l0,0C110.1,48.8,110.4,48.7,110.7,48.8"/>
			<polygon class="st3" points="111,49.5 111,49.5 110.8,49.9 			"/>
			<polygon class="st3" points="110,49.2 109.4,48.8 109.4,48.8 110,49.1 109.8,49.5 109.8,49.5 			"/>
			<path class="st1" d="M108.4,59.4c-0.1,0.3-0.3,0.5-0.5,0.6c-0.4,0.5-1.2,0.8-1.9,0.5c-0.7-0.3-1.1-0.9-1-1.6c0-0.3,0-0.5,0.1-0.8
				l4.7-8.6l-1.3-0.5l-4.6,8.5c-0.7,1.6,0.1,3.6,1.8,4.2c1.6,0.6,3.5-0.2,4.2-1.9l2.4-9.4l-1.3-0.5L108.4,59.4z"/>
			<path class="st1" d="M112.3,49.9c0.3-1-0.1-2.1-1.1-2.4c-1-0.4-2.1,0.1-2.5,1l0,0l-0.3,0.5l1.3,0.5l0.2-0.4l-0.6-0.3l0,0l0.6,0.3
				c0.1-0.3,0.4-0.4,0.7-0.3l0,0c0.3,0.1,0.4,0.4,0.3,0.7l0.6,0.3l0,0l-0.7-0.2l-0.1,0.4l1.3,0.5L112.3,49.9L112.3,49.9z"/>
			<path class="st1" d="M109.8,49.5l-4.7,8.6c-0.1,0.3-0.1,0.5-0.1,0.8c0-0.2,0-0.3,0.1-0.5c0.3-0.9,1.3-1.3,2.2-0.9
				c0.9,0.3,1.3,1.3,0.9,2.2c-0.1,0.2-0.2,0.3-0.3,0.4c0.2-0.2,0.4-0.4,0.5-0.6l2.5-9.5L109.8,49.5z"/>
			<path class="st1" d="M105.1,58.1c-0.1,0.3-0.1,0.5-0.1,0.8l0,0C105,58.7,105,58.4,105.1,58.1"/>
			<path class="st1" d="M107.9,60.1c0.2-0.2,0.4-0.4,0.5-0.6C108.3,59.7,108.1,59.9,107.9,60.1L107.9,60.1z"/>
			<path class="st3" d="M111,49.4L111,49.4c0.1-0.3,0-0.6-0.3-0.7C111,48.9,111.1,49.2,111,49.4"/>
			
				<rect x="110.9" y="49.6" transform="matrix(0.9674 0.2533 -0.2533 0.9674 16.1984 -26.5741)" class="st3" width="0.7" height="0"/>
			<path class="st1" d="M106.1,60.4c-0.6-0.3-1-0.8-1.1-1.5c0,0.7,0.3,1.4,1,1.6c0.7,0.3,1.4,0,1.9-0.5
				C107.4,60.5,106.7,60.7,106.1,60.4"/>
			<path class="st1" d="M106.1,60.4c-0.6-0.3-1-0.8-1.1-1.5l0,0C105.1,59.6,105.4,60.2,106.1,60.4c0.6,0.3,1.3,0.1,1.8-0.3l0,0
				C107.4,60.5,106.7,60.7,106.1,60.4"/>
			<line class="st4" x1="18.7" y1="156.2" x2="18.7" y2="155"/>
			<path class="st4" d="M18.7,152.6V59.3c0-19.5,21.4-35.4,47.8-35.4c26.4,0,47.8,15.9,47.8,35.4v94.6"/>
			<line class="st4" x1="114.3" y1="155" x2="114.3" y2="156.2"/>
			<polygon class="st3" points="66.5,74.9 85.1,56.3 85.1,47.8 74.2,41.3 66.5,46.5 58.7,41.3 47.8,47.8 47.8,56.3 			"/>
			<g>
				<defs>
					<polygon id="SVGID_5_" points="66.5,46.5 58.7,41.3 47.8,47.8 47.8,56.3 66.5,74.9 85.1,56.3 85.1,47.8 74.2,41.3 					"/>
				</defs>
				<use xlink:href="#SVGID_5_"  style="overflow:visible;fill:#FFFFFF;"/>
				<clipPath id="SVGID_6_">
					<use xlink:href="#SVGID_5_"  style="overflow:visible;"/>
				</clipPath>
				<g class="st5">
					<defs>
						<rect id="SVGID_7_" x="-152.3" y="-215.3" width="738.7" height="738.7"/>
					</defs>
					<use xlink:href="#SVGID_7_"  style="overflow:visible;fill:#FFFFFF;"/>
					<clipPath id="SVGID_8_">
						<use xlink:href="#SVGID_7_"  style="overflow:visible;"/>
					</clipPath>
					<rect x="46.9" y="36.9" class="st6" width="19.6" height="39.3"/>
				</g>
			</g>
			<polygon class="st7" points="15.4,158.3 33.6,184.8 34.7,159.1 			"/>
		</g>
	</g>
	<g>
		<g>
			<defs>
				<polygon id="SVGID_9_" points="66.5,46.5 58.7,41.3 47.8,47.8 47.8,56.3 66.5,74.9 85.1,56.3 85.1,47.8 74.2,41.3 				"/>
			</defs>
			<clipPath id="SVGID_10_">
				<use xlink:href="#SVGID_9_"  style="overflow:visible;"/>
			</clipPath>
			<g class="st8">
				<defs>
					<rect id="SVGID_11_" x="-152.3" y="-215.3" width="738.7" height="738.7"/>
				</defs>
				<clipPath id="SVGID_12_">
					<use xlink:href="#SVGID_11_"  style="overflow:visible;"/>
				</clipPath>
			</g>
		</g>
	</g>
</g>
</svg>
