<?xml version="1.0" encoding="utf-8"?>
<!-- Generator: Adobe Illustrator 19.1.0, SVG Export Plug-In . SVG Version: 6.00 Build 0)  -->
<svg version="1.1" id="Layer_1" xmlns="http://www.w3.org/2000/svg" xmlns:xlink="http://www.w3.org/1999/xlink" x="0px" y="0px"
	 viewBox="0 0 113.5 58.2" style="enable-background:new 0 0 113.5 58.2;" xml:space="preserve">
<style type="text/css">
	.st0{fill:none;stroke:#FFFFFF;stroke-miterlimit:10;}
	.st1{fill:#FFFFFF;}
	.st2{fill:url(#SVGID_1_);}
</style>
<g>
	<g>
		<path class="st0" d="M17.2,44.4v-26"/>
		<path class="st0" d="M44.2,44.4v-26"/>
		<path class="st0" d="M68.2,44.4v-26"/>
	</g>
	<g>
		<path class="st1" d="M0.2,26.5h1.9c1.5,0,2.7,0.2,3.9,1.2c1.1,1,1.7,2.4,1.7,3.9c0,1.5-0.5,2.8-1.6,3.8c-1.2,1.1-2.4,1.3-4,1.3
			H0.2V26.5z M2.1,35.7c1.2,0,2.3-0.2,3.2-1.1c0.8-0.8,1.3-1.9,1.3-3c0-1.2-0.4-2.3-1.3-3.1c-0.9-0.8-1.9-1-3.1-1H1.3v8.1H2.1z"/>
		<path class="st1" d="M28.4,33.8l-1.2,2.9H26L30.6,26l4.5,10.8h-1.2l-1.2-2.9H28.4z M30.6,28.7l-1.7,4.1h3.4L30.6,28.7z"/>
		<path class="st1" d="M56.6,36.8h-1.1v-9.2h-2.4v-1.1h6v1.1h-2.4V36.8z"/>
		<path class="st1" d="M79.4,33.8l-1.2,2.9H77L81.6,26l4.5,10.8h-1.2l-1.2-2.9H79.4z M81.6,28.7l-1.7,4.1h3.4L81.6,28.7z"/>
	</g>
	<g>
		<linearGradient id="SVGID_1_" gradientUnits="userSpaceOnUse" x1="90.791" y1="27.3819" x2="108.4281" y2="27.3819">
			<stop  offset="0" style="stop-color:#3499CD"/>
			<stop  offset="0.2512" style="stop-color:#3398CC"/>
			<stop  offset="0.3496" style="stop-color:#3294C8"/>
			<stop  offset="0.4213" style="stop-color:#2F8CC2"/>
			<stop  offset="0.48" style="stop-color:#2C81B9"/>
			<stop  offset="0.5307" style="stop-color:#2774AF"/>
			<stop  offset="0.5759" style="stop-color:#2066A3"/>
			<stop  offset="0.616" style="stop-color:#195597"/>
			<stop  offset="0.6413" style="stop-color:#18488E"/>
		</linearGradient>
		<path class="st2" d="M90.8,12.4c6.2,3.3,12.1,7.6,17.6,12.9c-2,6.1-4.5,11.8-7.6,17C99.5,31,95.8,20.9,90.8,12.4z"/>
		<path class="st1" d="M96.2-0.1c6.4,6.5,12,14.4,16.4,23.7c-3.2,7.2-7.3,13.6-11.8,19.2C102.9,28,101.1,13.2,96.2-0.1z"/>
	</g>
</g>
</svg>
