<?xml version="1.0" encoding="utf-8"?>
<!-- Generator: Adobe Illustrator 19.1.0, SVG Export Plug-In . SVG Version: 6.00 Build 0)  -->
<svg version="1.1" id="Layer_1" xmlns="http://www.w3.org/2000/svg" xmlns:xlink="http://www.w3.org/1999/xlink" x="0px" y="0px"
	 viewBox="53 45.5 255.5 61.5" style="enable-background:new 53 45.5 255.5 61.5;" xml:space="preserve">
<style type="text/css">
	.st0{fill:#FFFFFF;}
</style>
<g>
	<g>
		<g>
			<path class="st0" d="M55.2,50.7h6.7c6.7,0,11.5,4.5,11.5,10.9s-4.8,10.9-11.5,10.9h-6.7V50.7z M61.7,68.5c4.8,0,7.1-2.9,7.1-7
				s-2.2-7-7.1-7h-2v14H61.7z"/>
			<path class="st0" d="M77.2,50.7h14.4v3.9h-9.9v6.9h8.8v3.8h-8.8v3.2H92v4H77.2V50.7z"/>
			<path class="st0" d="M112.3,72.5h-5.2l-3.6-5.5c-0.4,0.1-0.9,0.1-1.3,0.1h-1.5v5.4h-4.5V50.7h6c6.1,0,9.7,2.9,9.7,8.2
				c0,3.4-1.5,5.5-4.2,6.8L112.3,72.5z M102.1,63.1c3.7,0,5.3-1.2,5.3-4.2c0-3.1-1.7-4.3-5.3-4.3h-1.4v8.5H102.1z"/>
			<path class="st0" d="M115.9,50.7h14.4v3.9h-9.9v6.9h8.8v3.8h-8.8v3.2h10.4v4h-14.9V50.7z"/>
			<path class="st0" d="M133.9,61.6c0-6.4,5-11.2,11.2-11.2c3.9,0,6.8,1.4,8.7,4.5l-3.4,2.4c-1-1.7-2.8-2.9-5.3-2.9
				c-3.9,0-6.6,3-6.6,7.1c0,4.1,2.7,7.2,6.6,7.2c2.8,0,4.4-1.3,5.6-3.2l3.5,2.4c-1.9,2.9-4.9,4.8-9.1,4.8
				C138.9,72.7,133.9,68,133.9,61.6z"/>
			<path class="st0" d="M157.5,50.7h4.5v11.2h9.3V50.7h4.5v21.8h-4.5v-6.6H162v6.6h-4.5V50.7z"/>
			<path class="st0" d="M179.7,61.6c0-6.4,5-11.2,11.3-11.2s11.3,4.7,11.3,11.2s-5,11.2-11.3,11.2C184.7,72.7,179.7,68,179.7,61.6z
				 M197.6,61.6c0-4.1-2.7-7.2-6.7-7.2s-6.7,3.1-6.7,7.2s2.7,7.2,6.7,7.2C194.9,68.7,197.6,65.6,197.6,61.6z"/>
			<path class="st0" d="M204,68.2l3.7-2.1c1,1.6,2.2,2.7,4.4,2.7c1.9,0,3-0.9,3-2.2c0-1.5-1.2-2.1-3.3-3l-1.1-0.5
				c-3.2-1.4-5.4-3.1-5.4-6.8c0-3.4,2.6-5.9,6.6-5.9c2.9,0,4.9,1,6.4,3.6l-3.5,2.2c-0.8-1.4-1.6-1.9-2.9-1.9c-1.3,0-2.1,0.8-2.1,1.9
				c0,1.3,0.8,1.9,2.8,2.7l1.1,0.5c3.8,1.6,6,3.3,6,7.1c0,4-3.2,6.3-7.4,6.3C208,72.7,205.3,70.8,204,68.2z"/>
		</g>
		<g>
			<path class="st0" d="M55.2,81.4h6.7c6.7,0,11.5,4.5,11.5,10.9s-4.8,10.9-11.5,10.9h-6.7V81.4z M61.7,99.3c4.8,0,7.1-2.9,7.1-7
				c0-4.1-2.2-7-7.1-7h-2v13.9h2V99.3z"/>
			<path class="st0" d="M77.2,81.4h14.4v3.9h-9.9v6.9h8.8V96h-8.8v3.1H92v3.9H77.2V81.4z"/>
			<path class="st0" d="M96.2,81.4h4.5v17.9h9.9v3.9H96.2V81.4z"/>
			<path class="st0" d="M121.3,81.4h14.4v3.9h-9.9v6.9h8.8V96h-8.8v3.1h10.4v3.9h-14.9V81.4z"/>
			<path class="st0" d="M138.6,98.9l3.7-2.1c1,1.6,2.2,2.7,4.4,2.7c1.9,0,3-0.9,3-2.2c0-1.5-1.2-2.1-3.3-3l-1.1-0.5
				c-3.2-1.4-5.4-3.1-5.4-6.8c0-3.4,2.6-5.9,6.6-5.9c2.9,0,4.9,1,6.4,3.6l-3.5,2.2c-0.8-1.4-1.6-1.9-2.9-1.9c-1.3,0-2.1,0.8-2.1,1.9
				c0,1.3,0.8,1.9,2.8,2.7l1.1,0.5c3.8,1.6,6,3.3,6,7.1c0,4-3.2,6.3-7.4,6.3C142.6,103.5,139.9,101.5,138.6,98.9z"/>
			<path class="st0" d="M162,85.3h-6.2v-3.9h16.9v3.9h-6.2v17.9H162V85.3z"/>
			<path class="st0" d="M175.9,95.3V81.4h4.5v13.7c0,3.2,1.4,4.4,4.4,4.4c2.9,0,4.3-1.2,4.3-4.4V81.4h4.5v13.9
				c0,5.5-3.8,8.2-8.8,8.2S175.9,100.8,175.9,95.3z"/>
			<path class="st0" d="M198,81.4h6.7c6.7,0,11.5,4.5,11.5,10.9s-4.7,10.9-11.5,10.9H198V81.4z M204.5,99.3c4.8,0,7.1-2.9,7.1-7
				c0-4.1-2.2-7-7.1-7h-2v13.9h2V99.3z"/>
			<path class="st0" d="M220.1,81.4h4.5v21.8h-4.5V81.4z"/>
			<path class="st0" d="M237.2,81.2h0.4l10,22h-4.7l-1-2.5h-8.8l-1,2.5h-4.3L237.2,81.2z M240.2,97l-1.6-3.8
				c-0.6-1.5-1.3-3.9-1.3-3.9s-0.6,2.4-1.3,3.9l-1.6,3.8H240.2z"/>
			<path class="st0" d="M256.9,93.1c-1.1-1-2.6-3-2.6-3s0.3,2.4,0.3,4v9.1h-4.2v-22h0.4l11,10.3c1.1,1,2.6,3,2.6,3s-0.3-2.5-0.3-4
				v-9.1h4.2v22h-0.4L256.9,93.1z"/>
			<path class="st0" d="M277.9,85.3h-6.2v-3.9h16.9v3.9h-6.2v17.9h-4.5V85.3z"/>
			<path class="st0" d="M291.9,81.4h14.4v3.9h-9.9v6.9h8.7V96h-8.7v3.1h10.4v3.9h-14.9V81.4z"/>
		</g>
		<g>
			<path class="st0" d="M310,101.2"/>
		</g>
	</g>
</g>
</svg>
