<?xml version="1.0" encoding="utf-8"?>
<!-- Generator: Adobe Illustrator 19.1.0, SVG Export Plug-In . SVG Version: 6.00 Build 0)  -->
<svg version="1.1" id="Layer_1" xmlns="http://www.w3.org/2000/svg" xmlns:xlink="http://www.w3.org/1999/xlink" x="0px" y="0px"
	 viewBox="-169 384.8 255.5 86.5" style="enable-background:new -169 384.8 255.5 86.5;" xml:space="preserve">
<style type="text/css">
	.st0{clip-path:url(#SVGID_2_);}
	.st1{fill:#02929E;}
	.st2{clip-path:url(#SVGID_6_);}
	.st3{clip-path:url(#SVGID_8_);}
	.st4{fill-rule:evenodd;clip-rule:evenodd;fill:#02929E;}
	.st5{clip-path:url(#SVGID_10_);}
</style>
<g>
	<g>
		<g>
			<defs>
				<polygon id="SVGID_1_" points="-141.5,407.6 -144.8,405.4 -149.5,408.2 -149.5,411.8 -141.5,419.8 -133.5,411.8 -133.5,408.2 
					-138.2,405.4 				"/>
			</defs>
			<use xlink:href="#SVGID_1_"  style="overflow:visible;fill:#02929E;"/>
			<clipPath id="SVGID_2_">
				<use xlink:href="#SVGID_1_"  style="overflow:visible;"/>
			</clipPath>
			<g class="st0">
				<defs>
					<rect id="SVGID_3_" x="-235.3" y="295.4" width="316.8" height="316.8"/>
				</defs>
				<use xlink:href="#SVGID_3_"  style="overflow:visible;fill:#02929E;"/>
				<clipPath id="SVGID_4_">
					<use xlink:href="#SVGID_3_"  style="overflow:visible;"/>
				</clipPath>
			</g>
		</g>
	</g>
	<g>
		<g>
			<g>
				<path class="st1" d="M-106.8,418.6h5c5,0,8.6,3.3,8.6,8.1s-3.5,8.1-8.6,8.1h-5V418.6z M-101.9,431.9c3.6,0,5.3-2.2,5.3-5.2
					s-1.7-5.2-5.3-5.2h-1.5v10.4H-101.9z"/>
			</g>
			<g>
				<path class="st1" d="M-90.4,418.6h10.8v2.9H-87v5.2h6.5v2.9H-87v2.3h7.8v2.9h-11.1V418.6z"/>
			</g>
			<g>
				<path class="st1" d="M-64.2,434.8H-68l-2.7-4.1c-0.3,0-0.6,0.1-1,0.1h-1.1v4h-3.3v-16.3h4.5c4.5,0,7.3,2.2,7.3,6.1
					c0,2.5-1.1,4.1-3.1,5L-64.2,434.8z M-71.8,427.9c2.7,0,3.9-0.9,3.9-3.2c0-2.3-1.2-3.2-3.9-3.2h-1.1v6.4H-71.8z"/>
			</g>
			<g>
				<path class="st1" d="M-61.5,418.6h10.8v2.9h-7.4v5.2h6.5v2.9h-6.5v2.3h7.8v2.9h-11.1V418.6z"/>
			</g>
			<g>
				<path class="st1" d="M-48.1,426.7c0-4.8,3.7-8.3,8.4-8.3c2.9,0,5,1.1,6.5,3.3l-2.6,1.8c-0.8-1.2-2.1-2.1-3.9-2.1
					c-2.9,0-4.9,2.3-4.9,5.3s2,5.4,4.9,5.4c2.1,0,3.3-1,4.2-2.4l2.6,1.8c-1.4,2.2-3.7,3.6-6.8,3.6C-44.3,435-48.1,431.5-48.1,426.7z
					"/>
			</g>
			<g>
				<path class="st1" d="M-30.4,418.6h3.3v8.3h7v-8.3h3.3v16.3h-3.3v-5h-7v5h-3.3V418.6z"/>
			</g>
			<g>
				<path class="st1" d="M-13.9,426.7c0-4.8,3.7-8.3,8.4-8.3c4.7,0,8.4,3.5,8.4,8.3s-3.7,8.3-8.4,8.3
					C-10.2,435-13.9,431.5-13.9,426.7z M-0.5,426.7c0-3-2-5.4-5-5.4c-3,0-5,2.3-5,5.4s2,5.4,5,5.4C-2.5,432.1-0.5,429.7-0.5,426.7z"
					/>
			</g>
			<g>
				<path class="st1" d="M4.3,431.6L7,430c0.7,1.2,1.7,2,3.3,2c1.4,0,2.3-0.7,2.3-1.7c0-1.1-0.9-1.6-2.4-2.2l-0.8-0.4
					c-2.4-1-4-2.3-4-5c0-2.5,1.9-4.4,4.9-4.4c2.1,0,3.7,0.7,4.8,2.7l-2.6,1.7c-0.6-1-1.2-1.4-2.2-1.4c-1,0-1.6,0.6-1.6,1.4
					c0,1,0.6,1.4,2.1,2l0.8,0.4c2.8,1.2,4.4,2.5,4.4,5.3c0,3-2.4,4.7-5.5,4.7C7.3,435,5.3,433.6,4.3,431.6z"/>
			</g>
		</g>
		<g>
			<g>
				<path class="st1" d="M-106.8,441.5h5c5,0,8.6,3.3,8.6,8.1c0,4.8-3.5,8.1-8.6,8.1h-5V441.5z M-101.9,454.8c3.6,0,5.3-2.2,5.3-5.2
					c0-3-1.7-5.2-5.3-5.2h-1.5v10.4H-101.9z"/>
			</g>
			<g>
				<path class="st1" d="M-90.4,441.5h10.8v2.9H-87v5.2h6.5v2.9H-87v2.3h7.8v2.9h-11.1V441.5z"/>
			</g>
			<g>
				<path class="st1" d="M-76.2,441.5h3.3v13.3h7.4v2.9h-10.7V441.5z"/>
			</g>
			<g>
				<path class="st1" d="M-57.5,441.5h10.8v2.9h-7.4v5.2h6.5v2.9h-6.5v2.3h7.8v2.9h-11.1V441.5z"/>
			</g>
			<g>
				<path class="st1" d="M-44.6,454.6l2.7-1.6c0.7,1.2,1.7,2,3.3,2c1.4,0,2.3-0.7,2.3-1.7c0-1.1-0.9-1.6-2.4-2.2l-0.8-0.4
					c-2.4-1-4-2.3-4-5c0-2.5,1.9-4.4,4.9-4.4c2.1,0,3.7,0.7,4.8,2.7l-2.6,1.7c-0.6-1-1.2-1.4-2.2-1.4c-1,0-1.6,0.6-1.6,1.4
					c0,1,0.6,1.4,2.1,2l0.8,0.4c2.8,1.2,4.4,2.5,4.4,5.3c0,3-2.4,4.7-5.5,4.7C-41.6,458-43.6,456.5-44.6,454.6z"/>
			</g>
			<g>
				<path class="st1" d="M-27.1,444.4h-4.6v-2.9h12.6v2.9h-4.6v13.3h-3.3V444.4z"/>
			</g>
			<g>
				<path class="st1" d="M-16.7,451.9v-10.4h3.3v10.2c0,2.4,1,3.3,3.3,3.3c2.2,0,3.2-0.9,3.2-3.3v-10.2h3.3v10.4
					c0,4.1-2.8,6.1-6.6,6.1C-13.8,458-16.7,456-16.7,451.9z"/>
			</g>
			<g>
				<path class="st1" d="M-0.2,441.5h5c5,0,8.6,3.3,8.6,8.1c0,4.8-3.5,8.1-8.6,8.1h-5V441.5z M4.6,454.8c3.6,0,5.3-2.2,5.3-5.2
					c0-3-1.7-5.2-5.3-5.2H3.2v10.4H4.6z"/>
			</g>
			<g>
				<path class="st1" d="M16.3,441.5h3.3v16.3h-3.3V441.5z"/>
			</g>
			<g>
				<path class="st1" d="M29,441.4h0.3l7.4,16.4h-3.5l-0.8-1.8h-6.6l-0.8,1.8h-3.2L29,441.4z M31.3,453.1l-1.2-2.8
					c-0.5-1.1-1-2.9-1-2.9s-0.5,1.8-1,2.9l-1.2,2.8H31.3z"/>
			</g>
			<g>
				<path class="st1" d="M43.8,450.2c-0.8-0.8-1.9-2.2-1.9-2.2s0.2,1.8,0.2,3v6.8h-3.1v-16.4h0.3l8.2,7.7c0.8,0.7,1.9,2.2,1.9,2.2
					s-0.2-1.8-0.2-3v-6.8h3.1v16.4H52L43.8,450.2z"/>
			</g>
			<g>
				<path class="st1" d="M59.4,444.4h-4.6v-2.9h12.6v2.9h-4.6v13.3h-3.3V444.4z"/>
			</g>
			<g>
				<path class="st1" d="M69.9,441.5h10.8v2.9h-7.4v5.2h6.5v2.9h-6.5v2.3H81v2.9H69.9V441.5z"/>
			</g>
		</g>
		<g>
			<g>
				<path class="st1" d="M83.4,456.3"/>
			</g>
		</g>
		<g>
			<g>
				<path class="st1" d="M-148.9,397.8c0.9-3.2,3.9-5.5,7.4-5.5c3.5,0,6.4,2.3,7.4,5.5c1.2,0.3,2.3,0.7,3.4,1.2
					c-0.5-5.5-5.1-9.8-10.7-9.8c-5.6,0-10.2,4.3-10.7,9.8C-151.2,398.5-150.1,398.1-148.9,397.8z"/>
			</g>
			<g>
				<path class="st1" d="M-137.3,394.1c-1.4-0.2-2.8-0.3-4.2-0.3c-1.4,0-2.8,0.1-4.2,0.3l-3.3,0.6c-9.8,2.5-16.8,9.5-16.8,17.9v40.6
					c0,2.5,2,4.6,4.6,4.6h39.6c2.5,0,4.6-2,4.6-4.6v-40.6c0-0.1,0-0.1,0-0.2c-0.1-8.3-7.1-15.3-16.8-17.7L-137.3,394.1z
					 M-120.2,453.1c0,0.8-0.7,1.5-1.5,1.5h-39.6c-0.8,0-1.5-0.7-1.5-1.5v-40.6c0-8.7,9.6-15.8,21.3-15.8s21.3,7.1,21.3,15.8V453.1z
					 M-125.5,425.9h-32c-0.8,0-1.5,0.7-1.5,1.5v22.8c0,0.8,0.7,1.5,1.5,1.5h32c0.8,0,1.5-0.7,1.5-1.5v-22.8
					C-124,426.6-124.7,425.9-125.5,425.9 M-156,431.1V429h28.9v2.1v3v14.7H-156v-14.7"/>
			</g>
			<g>
				<path class="st1" d="M-153.3,435.1L-153.3,435.1c-0.1,0-0.2,0.1-0.2,0.2h0C-153.5,435.2-153.4,435.1-153.3,435.1"/>
			</g>
			<g>
				<path class="st1" d="M-154.1,435.2L-154.1,435.2c0-0.4,0.4-0.8,0.8-0.8s0.8,0.4,0.8,0.8h0l0,0.3h27.4v-1.2h-31.2v1.2h2.1
					L-154.1,435.2z"/>
			</g>
			<g>
				<polygon class="st1" points="-153,435.3 -153,435.3 -153,435.5 				"/>
			</g>
			<g>
				<polygon class="st1" points="-153.5,435.3 -153.8,435.3 -153.8,435.3 -153.5,435.3 -153.5,435.5 -153.5,435.5 				"/>
			</g>
			<g>
				<path class="st1" d="M-152.5,439.7c0,0.1,0,0.2-0.1,0.3c-0.1,0.3-0.4,0.5-0.7,0.5c-0.3,0-0.6-0.2-0.7-0.5
					c-0.1-0.1-0.1-0.2-0.1-0.3l0.5-4.2h-0.6l-0.5,4.1c0,0.8,0.6,1.4,1.4,1.4c0.8,0,1.4-0.7,1.4-1.4l-0.5-4.1h-0.6L-152.5,439.7z"/>
			</g>
			<g>
				<path class="st1" d="M-152.4,435.2c0-0.4-0.4-0.8-0.8-0.8s-0.8,0.4-0.8,0.8h0l0,0.3h0.6l0-0.2l-0.3,0h0h0.3
					c0-0.1,0.1-0.2,0.2-0.2h0c0.1,0,0.2,0.1,0.2,0.2h0.3h0l-0.3,0l0,0.2h0.6L-152.4,435.2L-152.4,435.2z"/>
			</g>
			<g>
				<path class="st1" d="M-153.5,435.5l-0.5,4.2c0,0.1,0,0.2,0.1,0.3c0-0.1,0-0.1,0-0.2c0-0.4,0.3-0.7,0.7-0.7
					c0.4,0,0.7,0.3,0.7,0.7c0,0.1,0,0.2,0,0.2c0.1-0.1,0.1-0.2,0.1-0.3l-0.5-4.2H-153.5z"/>
			</g>
			<g>
				<path class="st1" d="M-153.5,435.5h0.5l0-0.2v0l0.3,0h-0.3h0c0-0.1-0.1-0.2-0.2-0.2c-0.1,0-0.2,0.1-0.2,0.2h0h-0.3l0.3,0
					L-153.5,435.5z"/>
			</g>
			<g>
				<path class="st1" d="M-154,439.7c0,0.1,0,0.2,0.1,0.3v0C-154,439.9-154,439.8-154,439.7"/>
			</g>
			<g>
				<path class="st1" d="M-152.6,440c0.1-0.1,0.1-0.2,0.1-0.3C-152.5,439.8-152.5,439.9-152.6,440L-152.6,440"/>
			</g>
			<g>
				<path class="st1" d="M-153,435.3L-153,435.3c0-0.1-0.1-0.2-0.2-0.2C-153.1,435.1-153,435.2-153,435.3"/>
			</g>
			<g>
				
					<rect x="-153" y="435.3" transform="matrix(0.9927 -0.121 0.121 0.9927 -53.8032 -15.303)" class="st1" width="0.3" height="0"/>
			</g>
			<g>
				<path class="st1" d="M-153.3,440.4c-0.3,0-0.5-0.2-0.7-0.4C-153.8,440.3-153.6,440.5-153.3,440.4c0.3,0.1,0.6-0.1,0.7-0.4
					C-152.7,440.3-153,440.4-153.3,440.4"/>
			</g>
			<g>
				<path class="st1" d="M-153.3,440.4c-0.3,0-0.5-0.2-0.7-0.4v0C-153.8,440.3-153.6,440.4-153.3,440.4c0.3,0,0.5-0.2,0.7-0.4v0
					C-152.7,440.3-153,440.4-153.3,440.4"/>
			</g>
			<g>
				<path class="st1" d="M-122.6,408.6L-122.6,408.6c-0.1,0-0.2,0-0.3,0.1l0,0C-122.8,408.6-122.7,408.5-122.6,408.6"/>
			</g>
			<g>
				<polygon class="st1" points="-122.4,408.9 -122.4,408.9 -122.5,409.1 				"/>
			</g>
			<g>
				<polygon class="st1" points="-122.9,408.7 -123.1,408.6 -123.1,408.6 -122.9,408.7 -122.9,408.9 -122.9,408.9 				"/>
			</g>
			<g>
				<path class="st1" d="M-123.6,413.2c0,0.1-0.1,0.2-0.2,0.3c-0.2,0.2-0.5,0.3-0.8,0.2c-0.3-0.1-0.5-0.4-0.4-0.7c0-0.1,0-0.2,0-0.3
					l2-3.7l-0.6-0.2l-2,3.6c-0.3,0.7,0,1.5,0.8,1.8c0.7,0.3,1.5-0.1,1.8-0.8l1-4l-0.6-0.2L-123.6,413.2z"/>
			</g>
			<g>
				<path class="st1" d="M-121.9,409.1c0.1-0.4-0.1-0.9-0.5-1c-0.4-0.2-0.9,0-1.1,0.4l0,0l-0.1,0.2l0.6,0.2l0.1-0.2l-0.3-0.1l0,0
					l0.3,0.1c0-0.1,0.2-0.2,0.3-0.1l0,0c0.1,0,0.2,0.2,0.1,0.3l0.3,0.1l0,0l-0.3-0.1l0,0.2l0.6,0.2L-121.9,409.1L-121.9,409.1z"/>
			</g>
			<g>
				<path class="st1" d="M-122.9,408.9l-2,3.7c0,0.1,0,0.2,0,0.3c0-0.1,0-0.1,0-0.2c0.1-0.4,0.6-0.5,0.9-0.4
					c0.4,0.1,0.5,0.6,0.4,0.9c0,0.1-0.1,0.1-0.1,0.2c0.1-0.1,0.2-0.2,0.2-0.3l1.1-4.1L-122.9,408.9z"/>
			</g>
			<g>
				<path class="st1" d="M-125,412.6c0,0.1,0,0.2,0,0.3l0,0C-125,412.8-125,412.7-125,412.6"/>
			</g>
			<g>
				<path class="st1" d="M-123.8,413.4c0.1-0.1,0.2-0.2,0.2-0.3C-123.6,413.3-123.7,413.4-123.8,413.4L-123.8,413.4z"/>
			</g>
			<g>
				<path class="st1" d="M-122.4,408.9L-122.4,408.9c0-0.1,0-0.2-0.1-0.3C-122.4,408.6-122.4,408.8-122.4,408.9"/>
			</g>
			<g>
				
					<rect x="-122.5" y="408.9" transform="matrix(0.9674 0.2533 -0.2533 0.9674 99.6013 44.3189)" class="st1" width="0.3" height="0"/>
			</g>
			<g>
				<path class="st1" d="M-124.5,413.6c-0.3-0.1-0.4-0.4-0.5-0.6C-125,413.2-124.9,413.5-124.5,413.6c0.3,0.2,0.6,0.1,0.8-0.1
					C-124,413.6-124.3,413.7-124.5,413.6"/>
			</g>
			<g>
				<path class="st1" d="M-124.5,413.6c-0.3-0.1-0.4-0.4-0.5-0.6l0,0C-125,413.2-124.8,413.5-124.5,413.6c0.3,0.1,0.6,0,0.8-0.1l0,0
					C-124,413.6-124.3,413.7-124.5,413.6"/>
			</g>
			<g>
				<path class="st1" d="M-162,455c-0.2,0-0.4-0.2-0.4-0.4v-0.5c0-0.2,0.2-0.4,0.4-0.4s0.4,0.2,0.4,0.4v0.5
					C-161.6,454.9-161.8,455-162,455z"/>
			</g>
			<g>
				<path class="st1" d="M-121,454c-0.2,0-0.4-0.2-0.4-0.4v-1.4c0-0.2,0.2-0.4,0.4-0.4s0.4,0.2,0.4,0.4v1.4
					C-120.7,453.8-120.8,454-121,454z M-162,453.5c-0.2,0-0.4-0.2-0.4-0.4v-1.4c0-0.2,0.2-0.4,0.4-0.4s0.4,0.2,0.4,0.4v1.4
					C-161.6,453.3-161.8,453.5-162,453.5z M-121,451.1c-0.2,0-0.4-0.2-0.4-0.4v-1.4c0-0.2,0.2-0.4,0.4-0.4s0.4,0.2,0.4,0.4v1.4
					C-120.7,450.9-120.8,451.1-121,451.1z M-162,450.6c-0.2,0-0.4-0.2-0.4-0.4v-1.4c0-0.2,0.2-0.4,0.4-0.4s0.4,0.2,0.4,0.4v1.4
					C-161.6,450.4-161.8,450.6-162,450.6z M-121,448.2c-0.2,0-0.4-0.2-0.4-0.4v-1.4c0-0.2,0.2-0.4,0.4-0.4s0.4,0.2,0.4,0.4v1.4
					C-120.7,448-120.8,448.2-121,448.2z M-162,447.7c-0.2,0-0.4-0.2-0.4-0.4v-1.4c0-0.2,0.2-0.4,0.4-0.4s0.4,0.2,0.4,0.4v1.4
					C-161.6,447.5-161.8,447.7-162,447.7z M-121,445.3c-0.2,0-0.4-0.2-0.4-0.4v-1.4c0-0.2,0.2-0.4,0.4-0.4s0.4,0.2,0.4,0.4v1.4
					C-120.7,445.2-120.8,445.3-121,445.3z M-162,444.8c-0.2,0-0.4-0.2-0.4-0.4V443c0-0.2,0.2-0.4,0.4-0.4s0.4,0.2,0.4,0.4v1.4
					C-161.6,444.7-161.8,444.8-162,444.8z M-121,442.4c-0.2,0-0.4-0.2-0.4-0.4v-1.4c0-0.2,0.2-0.4,0.4-0.4s0.4,0.2,0.4,0.4v1.4
					C-120.7,442.3-120.8,442.4-121,442.4z M-162,441.9c-0.2,0-0.4-0.2-0.4-0.4v-1.4c0-0.2,0.2-0.4,0.4-0.4s0.4,0.2,0.4,0.4v1.4
					C-161.6,441.8-161.8,441.9-162,441.9z M-121,439.6c-0.2,0-0.4-0.2-0.4-0.4v-1.4c0-0.2,0.2-0.4,0.4-0.4s0.4,0.2,0.4,0.4v1.4
					C-120.7,439.4-120.8,439.6-121,439.6z M-162,439.1c-0.2,0-0.4-0.2-0.4-0.4v-1.4c0-0.2,0.2-0.4,0.4-0.4s0.4,0.2,0.4,0.4v1.4
					C-161.6,438.9-161.8,439.1-162,439.1z M-121,436.7c-0.2,0-0.4-0.2-0.4-0.4v-1.4c0-0.2,0.2-0.4,0.4-0.4s0.4,0.2,0.4,0.4v1.4
					C-120.7,436.5-120.8,436.7-121,436.7z M-162,436.2c-0.2,0-0.4-0.2-0.4-0.4v-1.4c0-0.2,0.2-0.4,0.4-0.4s0.4,0.2,0.4,0.4v1.4
					C-161.6,436-161.8,436.2-162,436.2z M-121,433.8c-0.2,0-0.4-0.2-0.4-0.4V432c0-0.2,0.2-0.4,0.4-0.4s0.4,0.2,0.4,0.4v1.4
					C-120.7,433.6-120.8,433.8-121,433.8z M-162,433.3c-0.2,0-0.4-0.2-0.4-0.4v-1.4c0-0.2,0.2-0.4,0.4-0.4s0.4,0.2,0.4,0.4v1.4
					C-161.6,433.1-161.8,433.3-162,433.3z M-121,430.9c-0.2,0-0.4-0.2-0.4-0.4v-1.4c0-0.2,0.2-0.4,0.4-0.4s0.4,0.2,0.4,0.4v1.4
					C-120.7,430.8-120.8,430.9-121,430.9z M-162,430.4c-0.2,0-0.4-0.2-0.4-0.4v-1.4c0-0.2,0.2-0.4,0.4-0.4s0.4,0.2,0.4,0.4v1.4
					C-161.6,430.3-161.8,430.4-162,430.4z M-121,428c-0.2,0-0.4-0.2-0.4-0.4v-1.4c0-0.2,0.2-0.4,0.4-0.4s0.4,0.2,0.4,0.4v1.4
					C-120.7,427.9-120.8,428-121,428z M-162,427.5c-0.2,0-0.4-0.2-0.4-0.4v-1.4c0-0.2,0.2-0.4,0.4-0.4s0.4,0.2,0.4,0.4v1.4
					C-161.6,427.4-161.8,427.5-162,427.5z M-121,425.1c-0.2,0-0.4-0.2-0.4-0.4v-1.4c0-0.2,0.2-0.4,0.4-0.4s0.4,0.2,0.4,0.4v1.4
					C-120.7,425-120.8,425.1-121,425.1z M-162,424.7c-0.2,0-0.4-0.2-0.4-0.4v-1.4c0-0.2,0.2-0.4,0.4-0.4s0.4,0.2,0.4,0.4v1.4
					C-161.6,424.5-161.8,424.7-162,424.7z M-121,422.3c-0.2,0-0.4-0.2-0.4-0.4v-1.4c0-0.2,0.2-0.4,0.4-0.4s0.4,0.2,0.4,0.4v1.4
					C-120.7,422.1-120.8,422.3-121,422.3z M-162,421.8c-0.2,0-0.4-0.2-0.4-0.4V420c0-0.2,0.2-0.4,0.4-0.4s0.4,0.2,0.4,0.4v1.4
					C-161.6,421.6-161.8,421.8-162,421.8z M-121,419.4c-0.2,0-0.4-0.2-0.4-0.4v-1.4c0-0.2,0.2-0.4,0.4-0.4s0.4,0.2,0.4,0.4v1.4
					C-120.7,419.2-120.8,419.4-121,419.4z M-162,418.9c-0.2,0-0.4-0.2-0.4-0.4v-1.4c0-0.2,0.2-0.4,0.4-0.4s0.4,0.2,0.4,0.4v1.4
					C-161.6,418.7-161.8,418.9-162,418.9z M-121,416.5c-0.2,0-0.4-0.2-0.4-0.4v-1.4c0-0.2,0.2-0.4,0.4-0.4s0.4,0.2,0.4,0.4v1.4
					C-120.7,416.3-120.8,416.5-121,416.5z M-162,416c-0.2,0-0.4-0.2-0.4-0.4v-1.4c0-0.2,0.2-0.4,0.4-0.4s0.4,0.2,0.4,0.4v1.4
					C-161.6,415.8-161.8,416-162,416z M-121,413.6c-0.2,0-0.4-0.2-0.4-0.4v-0.2c0-0.4,0-0.8-0.1-1.2c0-0.2,0.1-0.4,0.3-0.4
					c0.2,0,0.4,0.1,0.4,0.3c0,0.4,0.1,0.9,0.1,1.3v0.2C-120.7,413.5-120.8,413.6-121,413.6z M-162,413.1
					C-162,413.1-162,413.1-162,413.1c-0.2,0-0.4-0.2-0.4-0.4c0-0.5,0.1-1,0.1-1.5c0-0.2,0.2-0.3,0.4-0.3c0.2,0,0.3,0.2,0.3,0.4
					c-0.1,0.5-0.1,0.9-0.1,1.4C-161.6,413-161.8,413.1-162,413.1z M-121.3,410.8c-0.2,0-0.3-0.1-0.4-0.3c-0.1-0.4-0.2-0.9-0.4-1.3
					c-0.1-0.2,0-0.4,0.2-0.5c0.2-0.1,0.4,0,0.5,0.2c0.2,0.5,0.3,0.9,0.4,1.4C-120.9,410.5-121.1,410.7-121.3,410.8
					C-121.3,410.8-121.3,410.8-121.3,410.8z M-161.6,410.3C-161.6,410.3-161.6,410.3-161.6,410.3c-0.3-0.1-0.4-0.3-0.3-0.5
					c0.1-0.5,0.3-0.9,0.5-1.4c0.1-0.2,0.3-0.3,0.5-0.2c0.2,0.1,0.3,0.3,0.2,0.5c-0.2,0.4-0.3,0.9-0.5,1.3
					C-161.3,410.2-161.4,410.3-161.6,410.3z M-122.3,408.1c-0.1,0-0.3-0.1-0.3-0.2c-0.2-0.4-0.4-0.8-0.7-1.2
					c-0.1-0.2-0.1-0.4,0.1-0.5c0.2-0.1,0.4-0.1,0.5,0.1c0.3,0.4,0.5,0.8,0.7,1.3c0.1,0.2,0,0.4-0.2,0.5
					C-122.2,408.1-122.3,408.1-122.3,408.1z M-160.5,407.6c-0.1,0-0.1,0-0.2,0c-0.2-0.1-0.2-0.3-0.1-0.5c0.2-0.4,0.5-0.8,0.8-1.2
					c0.1-0.2,0.3-0.2,0.5-0.1c0.2,0.1,0.2,0.3,0.1,0.5c-0.3,0.4-0.5,0.8-0.8,1.2C-160.2,407.6-160.3,407.6-160.5,407.6z
					 M-123.9,405.7c-0.1,0-0.2,0-0.3-0.1c-0.3-0.4-0.6-0.7-0.9-1.1c-0.1-0.1-0.1-0.4,0-0.5c0.1-0.1,0.4-0.1,0.5,0
					c0.3,0.4,0.7,0.7,1,1.1c0.1,0.2,0.1,0.4-0.1,0.5C-123.8,405.6-123.8,405.7-123.9,405.7z M-158.8,405.3c-0.1,0-0.2,0-0.2-0.1
					c-0.2-0.1-0.2-0.4,0-0.5c0.3-0.4,0.7-0.7,1-1.1c0.1-0.1,0.4-0.1,0.5,0c0.1,0.1,0.1,0.4,0,0.5c-0.3,0.3-0.7,0.7-1,1
					C-158.6,405.2-158.7,405.3-158.8,405.3z M-125.9,403.6c-0.1,0-0.2,0-0.2-0.1c-0.3-0.3-0.7-0.6-1.1-0.9c-0.2-0.1-0.2-0.3-0.1-0.5
					c0.1-0.2,0.3-0.2,0.5-0.1c0.4,0.3,0.8,0.6,1.1,0.9c0.2,0.1,0.2,0.4,0,0.5C-125.7,403.6-125.8,403.6-125.9,403.6z M-156.7,403.3
					c-0.1,0-0.2,0-0.3-0.1c-0.1-0.2-0.1-0.4,0.1-0.5c0.4-0.3,0.8-0.6,1.2-0.9c0.2-0.1,0.4-0.1,0.5,0.1c0.1,0.2,0.1,0.4-0.1,0.5
					c-0.4,0.3-0.8,0.6-1.1,0.9C-156.6,403.3-156.6,403.3-156.7,403.3z M-128.2,401.9c-0.1,0-0.1,0-0.2-0.1c-0.4-0.2-0.8-0.5-1.2-0.7
					c-0.2-0.1-0.2-0.3-0.1-0.5c0.1-0.2,0.3-0.2,0.5-0.1c0.4,0.2,0.9,0.5,1.3,0.7c0.2,0.1,0.2,0.3,0.1,0.5
					C-128,401.8-128.1,401.9-128.2,401.9z M-154.4,401.6c-0.1,0-0.2-0.1-0.3-0.2c-0.1-0.2,0-0.4,0.1-0.5c0.4-0.2,0.8-0.5,1.3-0.7
					c0.2-0.1,0.4,0,0.5,0.2c0.1,0.2,0,0.4-0.2,0.5c-0.4,0.2-0.8,0.4-1.2,0.7C-154.2,401.6-154.3,401.6-154.4,401.6z M-130.8,400.5
					c-0.1,0-0.1,0-0.1,0c-0.4-0.2-0.9-0.4-1.3-0.5c-0.2-0.1-0.3-0.3-0.2-0.5c0.1-0.2,0.3-0.3,0.5-0.2c0.5,0.2,0.9,0.4,1.3,0.6
					c0.2,0.1,0.3,0.3,0.2,0.5C-130.5,400.5-130.6,400.5-130.8,400.5z M-151.8,400.3c-0.1,0-0.3-0.1-0.3-0.2c-0.1-0.2,0-0.4,0.2-0.5
					c0.4-0.2,0.9-0.4,1.4-0.5c0.2-0.1,0.4,0,0.5,0.2c0.1,0.2,0,0.4-0.2,0.5c-0.4,0.2-0.9,0.3-1.3,0.5
					C-151.7,400.3-151.8,400.3-151.8,400.3z M-133.5,399.5c0,0-0.1,0-0.1,0c-0.4-0.1-0.9-0.3-1.4-0.4c-0.2,0-0.3-0.2-0.3-0.4
					c0-0.2,0.2-0.3,0.4-0.3c0.5,0.1,0.9,0.3,1.4,0.4c0.2,0.1,0.3,0.3,0.2,0.5C-133.2,399.4-133.3,399.5-133.5,399.5z M-149.1,399.3
					c-0.2,0-0.3-0.1-0.3-0.3c-0.1-0.2,0.1-0.4,0.2-0.4c0.5-0.1,0.9-0.3,1.4-0.4c0.2,0,0.4,0.1,0.4,0.3c0,0.2-0.1,0.4-0.3,0.4
					c-0.5,0.1-0.9,0.2-1.4,0.4C-149,399.3-149.1,399.3-149.1,399.3z M-136.3,398.8C-136.3,398.8-136.3,398.8-136.3,398.8
					c-0.5-0.1-1-0.2-1.5-0.2c-0.2,0-0.3-0.2-0.3-0.4c0-0.2,0.2-0.3,0.4-0.3c0.5,0.1,1,0.1,1.4,0.2c0.2,0,0.3,0.2,0.3,0.4
					C-135.9,398.7-136.1,398.8-136.3,398.8z M-146.3,398.7c-0.2,0-0.3-0.1-0.4-0.3c0-0.2,0.1-0.4,0.3-0.4c0.5-0.1,1-0.2,1.4-0.2
					c0.2,0,0.4,0.1,0.4,0.3c0,0.2-0.1,0.4-0.3,0.4C-145.3,398.5-145.8,398.6-146.3,398.7C-146.2,398.7-146.3,398.7-146.3,398.7z
					 M-139.1,398.4C-139.1,398.4-139.1,398.4-139.1,398.4c-0.5,0-1-0.1-1.5-0.1c-0.2,0-0.4-0.2-0.3-0.4c0-0.2,0.2-0.4,0.4-0.3
					c0.5,0,1,0,1.5,0.1c0.2,0,0.3,0.2,0.3,0.4C-138.8,398.2-138.9,398.4-139.1,398.4z M-143.4,398.3c-0.2,0-0.3-0.1-0.4-0.3
					c0-0.2,0.1-0.4,0.3-0.4c0.5,0,1-0.1,1.5-0.1c0.2,0,0.4,0.2,0.4,0.4c0,0.2-0.2,0.4-0.4,0.4C-142.5,398.3-142.9,398.3-143.4,398.3
					C-143.4,398.3-143.4,398.3-143.4,398.3z"/>
			</g>
			<g>
				<path class="st1" d="M-121,455c-0.2,0-0.4-0.2-0.4-0.4v-0.5c0-0.2,0.2-0.4,0.4-0.4s0.4,0.2,0.4,0.4v0.5
					C-120.7,454.9-120.8,455-121,455z"/>
			</g>
			<g>
				<polygon class="st1" points="-141.5,419.8 -133.5,411.8 -133.5,408.2 -138.2,405.4 -141.5,407.6 -144.8,405.4 -149.5,408.2 
					-149.5,411.8 				"/>
			</g>
			<g>
				<defs>
					<polygon id="SVGID_5_" points="-141.5,407.6 -144.8,405.4 -149.5,408.2 -149.5,411.8 -141.5,419.8 -133.5,411.8 -133.5,408.2 
						-138.2,405.4 					"/>
				</defs>
				<use xlink:href="#SVGID_5_"  style="overflow:visible;fill:#02929E;"/>
				<clipPath id="SVGID_6_">
					<use xlink:href="#SVGID_5_"  style="overflow:visible;"/>
				</clipPath>
				<g class="st2">
					<defs>
						<rect id="SVGID_7_" x="-235.3" y="295.4" width="316.8" height="316.8"/>
					</defs>
					<use xlink:href="#SVGID_7_"  style="overflow:visible;fill:#02929E;"/>
					<clipPath id="SVGID_8_">
						<use xlink:href="#SVGID_7_"  style="overflow:visible;"/>
					</clipPath>
					<g class="st3">
						<rect x="-149.9" y="403.5" class="st1" width="8.4" height="16.9"/>
					</g>
				</g>
			</g>
			<g>
				<polygon class="st4" points="-163.4,455.6 -155.6,466.9 -155.2,455.9 				"/>
			</g>
		</g>
	</g>
	<g>
		<g>
			<defs>
				<polygon id="SVGID_9_" points="-141.5,407.6 -144.8,405.4 -149.5,408.2 -149.5,411.8 -141.5,419.8 -133.5,411.8 -133.5,408.2 
					-138.2,405.4 				"/>
			</defs>
			<use xlink:href="#SVGID_9_"  style="overflow:visible;fill:#02929E;"/>
			<clipPath id="SVGID_10_">
				<use xlink:href="#SVGID_9_"  style="overflow:visible;"/>
			</clipPath>
			<g class="st5">
				<defs>
					<rect id="SVGID_11_" x="-235.3" y="295.4" width="316.8" height="316.8"/>
				</defs>
				<use xlink:href="#SVGID_11_"  style="overflow:visible;fill:#02929E;"/>
				<clipPath id="SVGID_12_">
					<use xlink:href="#SVGID_11_"  style="overflow:visible;"/>
				</clipPath>
			</g>
		</g>
	</g>
</g>
</svg>
