<?xml version="1.0" encoding="utf-8"?>
<!-- Generator: Adobe Illustrator 19.1.0, SVG Export Plug-In . SVG Version: 6.00 Build 0)  -->
<svg version="1.1" id="Layer_1" xmlns="http://www.w3.org/2000/svg" xmlns:xlink="http://www.w3.org/1999/xlink" x="0px" y="0px"
	 viewBox="-240 391.7 113.5 58.2" style="enable-background:new -240 391.7 113.5 58.2;" xml:space="preserve">
<style type="text/css">
	.st0{fill:none;stroke:#FFFFFF;stroke-miterlimit:10;}
	.st1{fill:#FFFFFF;}
	.st2{fill:#FCFCFC;}
</style>
<g>
	<g>
		<path class="st0" d="M-222.8,436.1v-26"/>
		<path class="st0" d="M-195.8,436.1v-26"/>
		<path class="st0" d="M-171.8,436.1v-26"/>
	</g>
	<g>
		<path class="st1" d="M-239.8,418.2h1.9c1.5,0,2.7,0.2,3.9,1.2c1.1,1,1.7,2.4,1.7,3.9s-0.5,2.8-1.6,3.8c-1.2,1.1-2.4,1.3-4,1.3
			h-1.9V418.2z M-237.9,427.4c1.2,0,2.3-0.2,3.2-1.1c0.8-0.8,1.3-1.9,1.3-3c0-1.2-0.4-2.3-1.3-3.1c-0.9-0.8-1.9-1-3.1-1h-0.9v8.1
			h0.8V427.4z"/>
		<path class="st1" d="M-211.6,425.5l-1.2,2.9h-1.2l4.6-10.7l4.5,10.8h-1.2l-1.2-2.9h-4.3V425.5z M-209.4,420.4l-1.7,4.1h3.4
			L-209.4,420.4z"/>
		<path class="st1" d="M-183.4,428.5h-1.1v-9.2h-2.4v-1.1h6v1.1h-2.4L-183.4,428.5L-183.4,428.5z"/>
		<path class="st1" d="M-160.6,425.5l-1.2,2.9h-1.2l4.6-10.7l4.5,10.8h-1.2l-1.2-2.9h-4.3V425.5z M-158.4,420.4l-1.7,4.1h3.4
			L-158.4,420.4z"/>
	</g>
	<g>
		<path class="st2" d="M-149.2,404.1c6.2,3.3,12.1,7.6,17.6,12.9c-2,6.1-4.5,11.8-7.6,17C-140.5,422.7-144.2,412.6-149.2,404.1z"/>
		<path class="st1" d="M-143.8,391.6c6.4,6.5,12,14.4,16.4,23.7c-3.2,7.2-7.3,13.6-11.8,19.2C-137.1,419.7-138.9,404.9-143.8,391.6z
			"/>
	</g>
</g>
</svg>
