<?xml version="1.0" encoding="utf-8"?>
<!-- Generator: Adobe Illustrator 19.1.0, SVG Export Plug-In . SVG Version: 6.00 Build 0)  -->
<svg version="1.1" id="Layer_1" xmlns="http://www.w3.org/2000/svg" xmlns:xlink="http://www.w3.org/1999/xlink" x="0px" y="0px"
	 viewBox="0 0 150 150" style="enable-background:new 0 0 150 150;" xml:space="preserve">
<style type="text/css">
	.st0{fill:#C52375;}
	.st1{fill:#E0CE4B;}
	.st2{fill:#FFFFFF;}
	.st3{fill:#E3DBC3;}
	.st4{fill:#00AEEF;}
</style>
<g>
	<circle class="st0" cx="77.5" cy="76.2" r="70.8"/>
	<g>
		<g>
			<polygon class="st1" points="139.1,68 136.2,23.6 58.9,29.1 66.7,68.6 132.4,63.4 			"/>
			<path class="st2" d="M124.7,37.3c0,0-49.8,3.3-50.8,3.8s-1.4,1.4,2,1.5c3.3,0.2,49.2-3.5,49.2-3.5L124.7,37.3z"/>
			<path class="st2" d="M126.3,45.2c0,0-49.8,3.3-50.8,3.8s-1.4,1.4,2,1.5c3.3,0.2,49.2-3.5,49.2-3.5L126.3,45.2z"/>
		</g>
		<g>
			<path class="st3" d="M16.5,96.6L36.1,92c0,0,2.8-11.7,5.3-14.8c6.8-8.6,6.4-22.4,8.2-23.1s4,3,4.8,6.2c1,4.6,0.5,9.6-2.6,17.1
				c-2.4,5.9,2.7,4.1,2.7,4.1s16.2-4.2,18.6-3.7c4.7,1,1.6,6.9,1.6,6.9s4.3,0.4,4.7,3.7c0.4,3.3-2.2,5.8-2.2,5.8s3.2-1.3,4.2,3.3
				c0.9,4-2.5,4.8-2.5,4.8s2.3,0.5,3.3,2.2c1,1.7,0.6,4.6-1.1,5.9c-3.5,2.5-22.4,7.2-24.3,7.1c-7.4-0.4-17.6-1.5-20-1.5
				c-6.7-0.1-20,4.9-16.8,4.1L16.5,96.6z"/>
			<path class="st4" d="M3.7,92.3c1,0,19.5-3.8,19.5-3.8s5.8,5.8,6.8,12.9s1.5,18.9,1.5,18.9l-21,5.4L3.7,92.3z"/>
		</g>
	</g>
</g>
</svg>
