<?xml version="1.0" encoding="utf-8"?>
<!-- Generator: Adobe Illustrator 19.1.0, SVG Export Plug-In . SVG Version: 6.00 Build 0)  -->
<svg version="1.1" id="Layer_1" xmlns="http://www.w3.org/2000/svg" xmlns:xlink="http://www.w3.org/1999/xlink" x="0px" y="0px"
	 viewBox="0 0 209.5 151.5" style="enable-background:new 0 0 209.5 151.5;" xml:space="preserve">
<style type="text/css">
	.st0{fill:none;}
	.st1{clip-path:url(#SVGID_2_);}
	.st2{fill:none;stroke:#FAF39D;stroke-width:0.8;stroke-miterlimit:10;}
	.st3{fill:#FAF39D;}
	.st4{fill:url(#SVGID_3_);stroke:url(#SVGID_4_);stroke-miterlimit:10;}
	.st5{fill:#FFFFFF;}
	.st6{fill:url(#SVGID_5_);}
</style>
<pattern  x="32.5" y="1" width="40" height="40" patternUnits="userSpaceOnUse" id="Nueva_muestra_de_motivo_16" viewBox="23 -63 40 40" style="overflow:visible;">
	<g>
		<polygon class="st0" points="23,-63 63,-63 63,-23 23,-23 		"/>
		<g>
			<defs>
				<rect id="SVGID_1_" x="23" y="-63" width="40" height="40"/>
			</defs>
			<clipPath id="SVGID_2_">
				<use xlink:href="#SVGID_1_"  style="overflow:visible;"/>
			</clipPath>
			<g class="st1">
				<line class="st2" x1="0.3" y1="-40.3" x2="45.8" y2="-85.8"/>
				<line class="st2" x1="4.3" y1="-36.3" x2="49.8" y2="-81.8"/>
				<line class="st2" x1="8.3" y1="-32.3" x2="53.8" y2="-77.8"/>
				<line class="st2" x1="12.3" y1="-28.3" x2="57.8" y2="-73.8"/>
				<line class="st2" x1="16.3" y1="-24.3" x2="61.8" y2="-69.8"/>
				<line class="st2" x1="20.3" y1="-20.3" x2="65.8" y2="-65.8"/>
				<line class="st2" x1="24.3" y1="-16.3" x2="69.8" y2="-61.8"/>
				<line class="st2" x1="28.3" y1="-12.3" x2="73.8" y2="-57.8"/>
				<line class="st2" x1="32.3" y1="-8.3" x2="77.8" y2="-53.8"/>
				<line class="st2" x1="36.3" y1="-4.3" x2="81.8" y2="-49.8"/>
				<line class="st2" x1="40.3" y1="-0.3" x2="85.8" y2="-45.8"/>
			</g>
		</g>
	</g>
</pattern>
<g>
	<path class="st3" d="M181.5,98.3c-2,0-3.6,1.6-3.6,3.6v0.3v3.5v33v3.5v0.6c0,2,1.6,3.6,3.6,3.6h25.6V98.3H181.5z"/>
	<pattern  id="SVGID_3_" xlink:href="#Nueva_muestra_de_motivo_16" patternTransform="matrix(1 0 0 1 34.1359 -64.1668)">
	</pattern>
	<pattern  id="SVGID_4_" xlink:href="#Nueva_muestra_de_motivo_16" patternTransform="matrix(1 0 0 1 34.1359 -64.1668)">
	</pattern>
	<path class="st4" d="M140,105.3c0,0,6-0.1,6-0.1c0.8,0,2.3,0.1,2.5,0.1h0.7c0.8-0.1,1.5-0.7,1.6-1.6c0.1-0.5-0.8-2.8-0.8-2.8
		c-0.6-3-2-10.1-1-15c0.5-2.6,1.7-4.7,3-5.4c0.4-0.2,1.1-0.5,2.1,0c2.8,1.1,3,3.1,2.5,6.9l0,0.3c-0.4,3.1-0.3,5.8,4.8,12.9
		c5,6.9,6.4,13.7,6.4,13.8c0.2,0.8,0.9,1.5,1.8,1.5h8c0,0,0,0,0,0l3.7,0c0.1,6.5,0.1,20,0,25.8c-2.4-0.1-5.5-0.1-7.9,0.2
		c-2.8,0.3-5,2-6.3,3.4c-0.8,0.8-1.8,1.3-2.9,1.3c-2.5,0-6.9,0.1-11.5,0.1c0-0.1-5.8-0.2-5.8-0.2h-5.6h-4.5h-0.4
		c-1.8,0-3.2-1.4-3.2-3.2c0-1.5,1.1-2.8,2.5-3.1h1.1V136h-6.1c-1.7,0-3.1-1.4-3.1-3.1v-0.8c0-1.7,1.4-3.1,3.1-3.1h0.1v-4.2v-0.7
		h-2.5c-1.7,0-3.1-1.4-3.1-3.1v-0.8c0-1.7,1.4-3.1,3.1-3.1h2.5v-4.5h-1.3c-1.7,0-3.1-1.4-3.1-3.1v-0.8c0-1.7,1.4-3.1,3.1-3.1h1.3
		H140z"/>
	<path class="st5" d="M133.1,143.3c-3.7,0-6.7-3-6.7-6.8c0-1.1,0.3-2.2,0.8-3.2c-3.6-0.1-6.6-3.1-6.6-6.8v-0.8c0-1.9,0.8-3.6,2-4.8
		c-2.5-1-4.3-3.5-4.3-6.3v-0.8c0-2.5,1.3-4.6,3.3-5.8c-1.3-1.3-2.1-3-2.1-4.9v-0.8c0-3.8,3.1-6.8,6.8-6.8h10.6c0.3,0,0.6,0,0.9,0.1
		c2.2,0,4.2,0,5.6-0.1l0-0.1c-0.6-3.2-2.1-10.8-1-16.4c0.3-1.4,1.4-6.1,4.8-7.9c1.6-0.8,3.4-0.9,5.2-0.1c5.8,2.4,5,7.8,4.7,10.7
		l0,0.3c-0.3,1.9-0.5,3.8,4.2,10.2c4.2,5.7,6,11.2,6.7,13.8h6.6l3.6-0.1c0.1,0.4,0.1,1.7,0.2,3.6l-3.7,0c0,0,0,0,0,0h-8
		c-0.9,0-1.6-0.6-1.8-1.5c0-0.1-1.3-6.9-6.4-13.8c-5.2-7.1-5.3-9.8-4.8-12.9l0-0.3c0.5-3.8,0.3-5.8-2.5-6.9c-1.1-0.5-1.7-0.2-2.1,0
		c-1.3,0.7-2.5,2.9-3,5.4c-1,4.9,0.5,12,1,15c0,0,0.9,2.3,0.8,2.8c-0.2,0.9-0.8,1.5-1.6,1.6h-0.7c-0.1,0-1.6-0.1-2.5-0.1
		c0,0-6,0.1-6,0.1h-9.3h-1.3c-1.7,0-3.1,1.4-3.1,3.1v0.8c0,1.7,1.4,3.1,3.1,3.1h1.3v4.5H125c-1.7,0-3.1,1.4-3.1,3.1v0.8
		c0,1.7,1.4,3.1,3.1,3.1h2.5v0.7v4.2h-0.1c-1.7,0-3.1,1.4-3.1,3.1v0.8c0,1.7,1.4,3.1,3.1,3.1h6.1v3.7h-1.1c-1.5,0.3-2.5,1.6-2.5,3.1
		c0,1.8,1.4,3.2,3.2,3.2h0.4h4.5h5.6c0,0,5.8,0.2,5.8,0.2c4.6,0,9,0,11.5-0.1c1.1,0,2.1-0.5,2.9-1.3c1.3-1.4,3.5-3.1,6.3-3.4
		c2.4-0.3,5.5-0.2,7.9-0.2c0,1.7-0.1,2.7-0.2,2.7v0.9c-2.2-0.1-5.2-0.1-7.3,0.1c-1.7,0.2-3.2,1.4-4.1,2.3c-1.5,1.5-3.4,2.4-5.4,2.4
		c-2.7,0-7.4,0.1-12.3,0.1c-4.4,0-8.9,0-12.2-0.2c-1,0-1.9-0.1-2.7-0.1L133.1,143.3z"/>
	<path class="st0" d="M132.9,143.3h0.2l0.7,0c0.8,0,1.7,0.1,2.7,0.1c3.3,0.1,7.8,0.2,12.2,0.2c4.9,0,9.6,0,12.3-0.1
		c2,0,4-0.9,5.4-2.4c0.9-1,2.4-2.1,4.1-2.3c2.1-0.2,5.1-0.2,7.3-0.1"/>
	<path class="st0" d="M177.9,105.7l-3.6,0.1h-6.6c-0.7-2.6-2.5-8.1-6.7-13.8c-4.7-6.5-4.5-8.3-4.2-10.2l0-0.3
		c0.4-2.9,1.1-8.3-4.7-10.7c-1.8-0.8-3.6-0.7-5.2,0.1c-3.4,1.8-4.5,6.5-4.8,7.9c-1.1,5.6,0.4,13.2,1,16.4l0,0.1
		c-1.4,0-3.4,0.1-5.6,0.1c-0.3,0-0.6-0.1-0.9-0.1h-10.6c-3.8,0-6.8,3.1-6.8,6.8v0.8c0,1.9,0.8,3.7,2.1,4.9c-2,1.2-3.3,3.4-3.3,5.8
		v0.8c0,2.9,1.8,5.3,4.3,6.3c-1.2,1.2-2,2.9-2,4.8v0.8c0,3.7,2.9,6.7,6.6,6.8c-0.5,0.9-0.8,2-0.8,3.2c0,3.7,3,6.8,6.7,6.8"/>
	<path class="st0" d="M136.8,99c0,0,6-0.1,6-0.1c0.8,0,2.3,0.1,2.5,0.1h0.7c0.8-0.1,1.5-0.7,1.6-1.6c0.1-0.5-0.8-2.8-0.8-2.8
		c-0.6-3-2-10.1-1-15c0.5-2.6,1.7-4.7,3-5.4c0.4-0.2,1.1-0.5,2.1,0c2.8,1.1,3,3.1,2.5,6.9l0,0.3c-0.4,3.1-0.3,5.8,4.8,12.9
		c5,6.9,6.4,13.7,6.4,13.8c0.2,0.8,0.9,1.5,1.8,1.5h8c0,0,0,0,0,0l3.7,0"/>
	<line class="st0" x1="138" y1="99" x2="136.8" y2="99"/>
	<path class="st0" d="M178.1,135.1c-2.4-0.1-5.5-0.1-7.9,0.2c-2.8,0.3-5,2-6.3,3.4c-0.8,0.8-1.8,1.3-2.9,1.3
		c-2.5,0-6.9,0.1-11.5,0.1c0-0.1-5.8-0.2-5.8-0.2H138h-4.5h-0.4c-1.8,0-3.2-1.4-3.2-3.2c0-1.5,1.1-2.8,2.5-3.1h1.1v-3.7h-6.1
		c-1.7,0-3.1-1.4-3.1-3.1v-0.8c0-1.7,1.4-3.1,3.1-3.1h0.1v-4.2v-0.7H125c-1.7,0-3.1-1.4-3.1-3.1v-0.8c0-1.7,1.4-3.1,3.1-3.1h2.5
		v-4.5h-1.3c-1.7,0-3.1-1.4-3.1-3.1v-0.8c0-1.7,1.4-3.1,3.1-3.1h1.3h9.3"/>
	<pattern  id="SVGID_5_" xlink:href="#Nueva_muestra_de_motivo_16" patternTransform="matrix(1 0 0 1 34.1359 -64.1668)">
	</pattern>
	<path class="st6" d="M118.9,14H25c-5.9,0-10.7,4.8-10.7,10.7v36.8c0,5.9,4.8,10.7,10.7,10.7h7.8v20.1L60,72.2h58.9
		c5.9,0,10.7-4.8,10.7-10.7V24.7C129.6,18.8,124.8,14,118.9,14z"/>
	<path class="st3" d="M97.5,33.7H30.6c-1.3,0-2.3-1-2.3-2.3v0c0-1.3,1-2.3,2.3-2.3h66.9c1.3,0,2.3,1,2.3,2.3v0
		C99.8,32.7,98.7,33.7,97.5,33.7z"/>
	<path class="st3" d="M72.4,43.8H30.6c-1.3,0-2.3-1-2.3-2.3v0c0-1.3,1-2.3,2.3-2.3h41.8c1.3,0,2.3,1,2.3,2.3v0
		C74.7,42.7,73.6,43.8,72.4,43.8z"/>
	<g>
		<path class="st5" d="M28.3,89.6c-0.3,0-0.6-0.1-0.8-0.2c-0.6-0.3-1-1-1-1.7V69.5h-5.9c-6.9,0-12.5-5.6-12.5-12.5V20.1
			c0-6.9,5.6-12.5,12.5-12.5h93.9c6.9,0,12.5,5.6,12.5,12.5v36.8c0,6.9-5.6,12.5-12.5,12.5H56.1L29.4,89.2
			C29,89.4,28.6,89.6,28.3,89.6z M20.5,11.3c-4.9,0-8.8,3.9-8.8,8.8v36.8c0,4.9,3.9,8.8,8.8,8.8h7.8c1,0,1.9,0.8,1.9,1.9V84
			l24.2-17.9c0.3-0.2,0.7-0.4,1.1-0.4h58.9c4.9,0,8.8-3.9,8.8-8.8V20.1c0-4.8-3.9-8.8-8.8-8.8H20.5z"/>
	</g>
</g>
</svg>
