<?xml version="1.0" encoding="utf-8"?>
<!-- Generator: Adobe Illustrator 19.1.0, SVG Export Plug-In . SVG Version: 6.00 Build 0)  -->
<svg version="1.1" id="Capa_1" xmlns="http://www.w3.org/2000/svg" xmlns:xlink="http://www.w3.org/1999/xlink" x="0px" y="0px"
	 viewBox="732.3 331.2 180 180" style="enable-background:new 732.3 331.2 180 180;" xml:space="preserve">
<style type="text/css">
	.st0{display:none;}
	.st1{display:inline;}
	.st2{fill:#C52375;}
	.st3{clip-path:url(#SVGID_2_);fill:#E6E8EA;}
	.st4{clip-path:url(#SVGID_4_);fill:#E3DBC3;}
	.st5{opacity:0.4;clip-path:url(#SVGID_6_);fill:#02929E;enable-background:new    ;}
	.st6{clip-path:url(#SVGID_8_);fill:#E3DBC3;}
	.st7{clip-path:url(#SVGID_10_);fill:#02929E;}
	.st8{clip-path:url(#SVGID_12_);fill:#2C2827;}
	.st9{clip-path:url(#SVGID_14_);fill:#B6B9BB;}
	.st10{clip-path:url(#SVGID_16_);fill:#94999B;}
	.st11{clip-path:url(#SVGID_18_);fill:#A7A9AC;}
	.st12{clip-path:url(#SVGID_20_);fill:#A7A9AC;}
	.st13{clip-path:url(#SVGID_22_);fill:#9E1F63;}
	.st14{clip-path:url(#SVGID_24_);fill:#9E1F63;}
	.st15{clip-path:url(#SVGID_26_);fill:none;stroke:#02929E;stroke-width:1.296;stroke-miterlimit:10;}
	.st16{clip-path:url(#SVGID_28_);fill:#A7A9AC;}
	.st17{clip-path:url(#SVGID_30_);fill:#A7A9AC;}
	.st18{clip-path:url(#SVGID_32_);fill:#2C2827;}
	.st19{clip-path:url(#SVGID_34_);}
	.st20{fill:#2C2827;}
	.st21{fill:#B6B9BB;}
	.st22{clip-path:url(#SVGID_36_);fill:#E6E8EA;}
	.st23{clip-path:url(#SVGID_38_);fill:#9AC3C1;}
	.st24{clip-path:url(#SVGID_40_);fill:#9E9EA1;}
	.st25{clip-path:url(#SVGID_42_);fill:#E3DBC3;}
	.st26{clip-path:url(#SVGID_44_);fill:#CED1D3;}
	.st27{clip-path:url(#SVGID_46_);fill:#E6E8EA;}
	.st28{clip-path:url(#SVGID_48_);fill:#B3B7BA;}
	.st29{clip-path:url(#SVGID_50_);fill:#CED1D3;}
	.st30{clip-path:url(#SVGID_52_);fill:#E6E8EA;}
	.st31{clip-path:url(#SVGID_54_);fill:#B3B7BA;}
	.st32{clip-path:url(#SVGID_56_);fill:#CED1D3;}
	.st33{clip-path:url(#SVGID_58_);fill:#E6E8EA;}
	.st34{clip-path:url(#SVGID_60_);fill:#B3B7BA;}
	.st35{clip-path:url(#SVGID_62_);fill:#CED1D3;}
	.st36{clip-path:url(#SVGID_64_);fill:#E6E8EA;}
	.st37{clip-path:url(#SVGID_66_);fill:#B3B7BA;}
	.st38{clip-path:url(#SVGID_68_);fill:#CED1D3;}
	.st39{clip-path:url(#SVGID_70_);fill:#E6E8EA;}
	.st40{clip-path:url(#SVGID_72_);fill:#B3B7BA;}
	.st41{clip-path:url(#SVGID_74_);fill:#CED1D3;}
	.st42{clip-path:url(#SVGID_76_);fill:#E6E8EA;}
	.st43{clip-path:url(#SVGID_78_);fill:#B3B7BA;}
	.st44{clip-path:url(#SVGID_80_);fill:#CED1D3;}
	.st45{clip-path:url(#SVGID_82_);fill:#E6E8EA;}
	.st46{clip-path:url(#SVGID_84_);fill:#B3B7BA;}
	.st47{clip-path:url(#SVGID_86_);fill:#CED1D3;}
	.st48{clip-path:url(#SVGID_88_);fill:#E6E8EA;}
	.st49{clip-path:url(#SVGID_90_);fill:#B3B7BA;}
	.st50{clip-path:url(#SVGID_92_);fill:#E0CE4B;}
	.st51{clip-path:url(#SVGID_94_);fill:#00AEEF;}
	.st52{clip-path:url(#SVGID_96_);fill:#0A7393;}
	.st53{opacity:0.22;clip-path:url(#SVGID_98_);fill:#5D5E5E;enable-background:new    ;}
	.st54{clip-path:url(#SVGID_100_);fill:#5D5E5E;}
	.st55{clip-path:url(#SVGID_102_);fill:#95D8EA;}
	.st56{clip-path:url(#SVGID_104_);fill:#0A7393;}
	.st57{clip-path:url(#SVGID_106_);fill:#00AEEF;}
	.st58{clip-path:url(#SVGID_108_);fill:#FFFFFF;}
	.st59{clip-path:url(#SVGID_110_);fill:#E3DBC3;}
	.st60{clip-path:url(#SVGID_112_);fill:#E3DBC3;}
	.st61{clip-path:url(#SVGID_114_);fill:#E0CE4B;}
	.st62{clip-path:url(#SVGID_116_);fill:#FFFFFF;}
	.st63{clip-path:url(#SVGID_118_);fill:#FFFFFF;}
	.st64{clip-path:url(#SVGID_120_);fill:#FFFFFF;}
	.st65{clip-path:url(#SVGID_122_);fill:#FFFFFF;}
	.st66{clip-path:url(#SVGID_124_);fill:#FFFFFF;}
	.st67{clip-path:url(#SVGID_126_);fill:#FFFFFF;}
	.st68{clip-path:url(#SVGID_128_);fill:#FFFFFF;}
	.st69{clip-path:url(#SVGID_130_);fill:#FFFFFF;}
	.st70{clip-path:url(#SVGID_132_);fill:#ED2387;}
	.st71{clip-path:url(#SVGID_134_);fill:#ED2387;}
	.st72{display:inline;fill:#00AEEF;}
	.st73{clip-path:url(#SVGID_136_);fill:none;}
	.st74{clip-path:url(#SVGID_138_);fill:#C52375;}
	.st75{clip-path:url(#SVGID_140_);}
	.st76{fill:#E3DBC3;}
	.st77{fill:#02929E;}
	.st78{opacity:0.19;enable-background:new    ;}
	.st79{opacity:0.4;fill:#02929E;enable-background:new    ;}
	.st80{clip-path:url(#SVGID_142_);fill:#C52375;}
	.st81{clip-path:url(#SVGID_144_);fill:#FFFFFF;}
	.st82{clip-path:url(#SVGID_146_);}
	.st83{clip-path:url(#SVGID_148_);}
	.st84{clip-path:url(#SVGID_150_);}
	.st85{clip-path:url(#SVGID_152_);}
	.st86{clip-path:url(#SVGID_154_);}
	.st87{clip-path:url(#SVGID_156_);}
	.st88{clip-path:url(#SVGID_158_);}
	
		.st89{clip-path:url(#SVGID_160_);fill:none;stroke:#02929E;stroke-width:1.249;stroke-linecap:round;stroke-linejoin:round;stroke-miterlimit:10;}
	
		.st90{clip-path:url(#SVGID_162_);fill:none;stroke:#02929E;stroke-width:1.249;stroke-linecap:round;stroke-linejoin:round;stroke-miterlimit:10;}
	.st91{clip-path:url(#SVGID_164_);}
	.st92{clip-path:url(#SVGID_166_);fill:#E3DBC3;}
	.st93{clip-path:url(#SVGID_168_);fill:#E3DBC3;}
	.st94{clip-path:url(#SVGID_170_);fill:#00AEEF;}
	.st95{clip-path:url(#SVGID_172_);fill:#00AEEF;}
	.st96{clip-path:url(#SVGID_174_);fill:#E0CE4B;}
	.st97{clip-path:url(#SVGID_176_);fill:#81184D;}
	.st98{clip-path:url(#SVGID_178_);fill:#C52375;}
	.st99{clip-path:url(#SVGID_180_);fill:#02929E;}
	.st100{clip-path:url(#SVGID_182_);fill:#FFFFFF;}
	.st101{clip-path:url(#SVGID_184_);fill:#81184D;}
	.st102{clip-path:url(#SVGID_186_);fill:#81184D;}
	.st103{clip-path:url(#SVGID_188_);fill:none;stroke:#02929E;stroke-width:0.4243;stroke-miterlimit:10;}
	.st104{clip-path:url(#SVGID_190_);fill:none;stroke:#02929E;stroke-width:0.4243;stroke-miterlimit:10;}
	.st105{clip-path:url(#SVGID_192_);fill:none;stroke:#02929E;stroke-width:0.4243;stroke-miterlimit:10;}
	.st106{clip-path:url(#SVGID_194_);fill:none;stroke:#02929E;stroke-width:0.4243;stroke-miterlimit:10;}
	.st107{clip-path:url(#SVGID_196_);fill:#E3DBC3;}
	.st108{clip-path:url(#SVGID_198_);fill:#FFFFFF;}
	.st109{clip-path:url(#SVGID_200_);fill:#FFFFFF;}
	.st110{clip-path:url(#SVGID_202_);fill:#E3DBC3;}
	.st111{clip-path:url(#SVGID_204_);fill:#02929E;}
	.st112{clip-path:url(#SVGID_206_);fill:#02929E;}
	.st113{clip-path:url(#SVGID_208_);fill:#02929E;}
	.st114{clip-path:url(#SVGID_210_);fill:#02929E;}
	.st115{clip-path:url(#SVGID_212_);fill:#E3DBC3;}
	.st116{clip-path:url(#SVGID_214_);fill:#E3DBC3;}
	.st117{clip-path:url(#SVGID_216_);fill:#E3DBC3;}
	.st118{clip-path:url(#SVGID_218_);fill:#02929E;}
	.st119{clip-path:url(#SVGID_220_);fill:#C52375;}
	.st120{clip-path:url(#SVGID_222_);fill:#00AEEF;}
	.st121{opacity:0.65;clip-path:url(#SVGID_224_);fill:#FFFFFF;enable-background:new    ;}
	.st122{clip-path:url(#SVGID_226_);fill:#C52375;}
	.st123{opacity:0.4;clip-path:url(#SVGID_228_);}
	.st124{clip-path:url(#SVGID_230_);fill:none;}
	.st125{clip-path:url(#SVGID_232_);fill:#FFFFFF;}
	.st126{clip-path:url(#SVGID_234_);fill:#FFFFFF;}
	.st127{clip-path:url(#SVGID_236_);fill:#FFFFFF;}
	.st128{clip-path:url(#SVGID_238_);}
	.st129{fill:#FFFFFF;}
	.st130{fill:#00AEEF;}
	.st131{opacity:0.4;}
	.st132{fill:none;}
	.st133{clip-path:url(#SVGID_240_);fill:#FFFFFF;}
	.st134{clip-path:url(#SVGID_242_);fill:#FFFFFF;}
	.st135{display:inline;fill:#C52375;}
	.st136{clip-path:url(#SVGID_244_);fill:#E3DBC3;}
	.st137{opacity:0.67;clip-path:url(#SVGID_246_);fill:#E3DBC3;enable-background:new    ;}
	.st138{clip-path:url(#SVGID_248_);fill:#FFFFFF;}
	.st139{clip-path:url(#SVGID_250_);fill:#E0CE4B;}
	.st140{opacity:0.67;clip-path:url(#SVGID_252_);fill:#E3DBC3;enable-background:new    ;}
	.st141{clip-path:url(#SVGID_254_);fill:#00AEEF;}
	.st142{clip-path:url(#SVGID_256_);}
	.st143{clip-path:url(#SVGID_258_);}
	.st144{clip-path:url(#SVGID_260_);}
	.st145{clip-path:url(#SVGID_262_);}
	.st146{clip-path:url(#SVGID_264_);}
	.st147{clip-path:url(#SVGID_266_);}
	.st148{fill:#02919D;}
	.st149{fill:#C42275;}
	.st150{clip-path:url(#SVGID_268_);fill:#C42275;}
	.st151{clip-path:url(#SVGID_268_);fill:#FFFFFF;}
	.st152{clip-path:url(#SVGID_268_);fill:#231F20;}
	
		.st153{clip-path:url(#SVGID_268_);fill:none;stroke:#02919D;stroke-width:1.249;stroke-linecap:round;stroke-linejoin:round;stroke-miterlimit:10;}
	.st154{clip-path:url(#SVGID_268_);fill:#E2DAC2;}
	.st155{clip-path:url(#SVGID_268_);fill:#00ADEE;}
	.st156{fill:#00ADEE;}
	.st157{clip-path:url(#SVGID_270_);fill:#02919D;}
	.st158{clip-path:url(#SVGID_270_);fill:#C42275;}
	.st159{clip-path:url(#SVGID_270_);fill:#00ADEE;}
	.st160{opacity:0.65;clip-path:url(#SVGID_270_);fill:#FFFFFF;}
	.st161{opacity:0.4;clip-path:url(#SVGID_270_);}
	.st162{clip-path:url(#SVGID_270_);fill:none;}
	.st163{clip-path:url(#SVGID_270_);fill:#FFFFFF;}
	.st164{clip-path:url(#SVGID_270_);}
	.st165{clip-path:url(#SVGID_272_);fill:#DFCD4B;}
	.st166{clip-path:url(#SVGID_272_);fill:#81184D;}
	.st167{clip-path:url(#SVGID_272_);fill:#C42275;}
	.st168{clip-path:url(#SVGID_272_);fill:#02919D;}
	.st169{clip-path:url(#SVGID_272_);fill:#FFFFFF;}
	.st170{clip-path:url(#SVGID_272_);fill:none;stroke:#02919D;stroke-width:0.4243;stroke-miterlimit:10;}
	.st171{clip-path:url(#SVGID_272_);fill:#E2DAC2;}
	.st172{clip-path:url(#SVGID_274_);fill:none;}
	.st173{clip-path:url(#SVGID_274_);fill:#C42275;}
	.st174{clip-path:url(#SVGID_274_);}
	.st175{fill:#E2DAC2;}
	.st176{fill:#0B7F82;}
	.st177{opacity:0.4;fill:#02919D;}
	.st178{clip-path:url(#SVGID_276_);fill:#E6E8E9;}
	.st179{clip-path:url(#SVGID_276_);fill:#E2DAC2;}
	.st180{opacity:0.4;clip-path:url(#SVGID_276_);fill:#02919D;}
	.st181{clip-path:url(#SVGID_276_);fill:#02919D;}
	.st182{clip-path:url(#SVGID_276_);fill:#2C2827;}
	.st183{clip-path:url(#SVGID_276_);fill:#B6B8BA;}
	.st184{clip-path:url(#SVGID_276_);fill:#93989A;}
	.st185{clip-path:url(#SVGID_276_);fill:#A6A8AB;}
	.st186{clip-path:url(#SVGID_276_);fill:#9E1F63;}
	.st187{clip-path:url(#SVGID_276_);fill:none;stroke:#02919D;stroke-width:1.296;stroke-miterlimit:10;}
	.st188{clip-path:url(#SVGID_276_);}
	.st189{fill:#B6B8BA;}
	.st190{clip-path:url(#SVGID_276_);fill:#99C3C0;}
	.st191{clip-path:url(#SVGID_276_);fill:#9D9DA1;}
	.st192{clip-path:url(#SVGID_276_);fill:#CDD1D3;}
	.st193{clip-path:url(#SVGID_276_);fill:#B3B7BA;}
	.st194{clip-path:url(#SVGID_278_);fill:#E2DAC2;}
	.st195{opacity:0.67;clip-path:url(#SVGID_278_);fill:#E2DAC2;}
	.st196{clip-path:url(#SVGID_278_);fill:#FFFFFF;}
	.st197{clip-path:url(#SVGID_278_);fill:#DFCD4B;}
	.st198{clip-path:url(#SVGID_278_);fill:#00ADEE;}
	.st199{clip-path:url(#SVGID_278_);}
	.st200{clip-path:url(#SVGID_280_);fill:#DFCD4B;}
	.st201{clip-path:url(#SVGID_280_);fill:#00ADEE;}
	.st202{clip-path:url(#SVGID_280_);fill:#097493;}
	.st203{opacity:0.22;clip-path:url(#SVGID_280_);fill:#5E5E5E;}
	.st204{clip-path:url(#SVGID_280_);fill:#5E5E5E;}
	.st205{clip-path:url(#SVGID_280_);fill:#93D7EA;}
	.st206{clip-path:url(#SVGID_280_);fill:#FFFFFF;}
	.st207{clip-path:url(#SVGID_280_);fill:#E2DAC2;}
	.st208{clip-path:url(#SVGID_280_);fill:#EC2386;}
	.st209{clip-path:url(#SVGID_282_);fill:#00ADEE;}
	.st210{clip-path:url(#SVGID_282_);fill:#F9F29C;}
	.st211{clip-path:url(#SVGID_282_);fill:#E2DAC2;}
	.st212{opacity:0.67;clip-path:url(#SVGID_282_);fill:#E2DAC2;}
	.st213{clip-path:url(#SVGID_282_);fill:#C42275;}
	.st214{clip-path:url(#SVGID_282_);fill:#DDD26C;}
	.st215{clip-path:url(#SVGID_282_);fill:none;stroke:#02919D;stroke-width:0.9262;stroke-miterlimit:10;}
	.st216{fill:#F9F29C;}
	.st217{clip-path:url(#SVGID_284_);fill:#00ADEE;}
	.st218{clip-path:url(#SVGID_284_);fill:#BCB29B;}
	.st219{opacity:0.4;clip-path:url(#SVGID_284_);fill:#02919D;}
	.st220{clip-path:url(#SVGID_284_);fill:none;stroke:#02919D;stroke-width:1.6272;stroke-miterlimit:10;}
	.st221{clip-path:url(#SVGID_284_);fill:#02919D;}
	.st222{fill:#EC2386;}
	.st223{clip-path:url(#SVGID_286_);fill:#F9F29C;}
	.st224{clip-path:url(#SVGID_286_);fill:#E2DAC2;}
	.st225{opacity:0.4;clip-path:url(#SVGID_286_);fill:#02919D;}
	.st226{clip-path:url(#SVGID_286_);fill:none;stroke:#02919D;stroke-width:1.6191;stroke-miterlimit:10;}
	.st227{clip-path:url(#SVGID_286_);fill:#02919D;}
	.st228{clip-path:url(#SVGID_286_);fill:#EC2386;}
	.st229{clip-path:url(#SVGID_286_);fill:none;stroke:#00ADEE;stroke-width:1.6191;stroke-miterlimit:10;}
	.st230{clip-path:url(#SVGID_286_);fill:none;stroke:#00ADEE;stroke-width:1.4393;stroke-miterlimit:10;}
	.st231{clip-path:url(#SVGID_286_);fill:none;stroke:#00ADEE;stroke-width:1.1151;stroke-miterlimit:10;}
	.st232{fill:#B61F70;}
	.st233{clip-path:url(#SVGID_288_);fill:none;stroke:#231F20;stroke-width:0.8882;stroke-miterlimit:10;}
	.st234{clip-path:url(#SVGID_288_);fill:#EC2386;}
	.st235{clip-path:url(#SVGID_288_);fill:#F9F29C;}
	.st236{clip-path:url(#SVGID_288_);fill:#BCB29B;}
	.st237{opacity:0.4;clip-path:url(#SVGID_288_);fill:#02919D;}
	.st238{clip-path:url(#SVGID_288_);fill:#DDD26C;}
	.st239{clip-path:url(#SVGID_288_);}
	.st240{fill:none;stroke:#02919D;stroke-width:1.4472;stroke-linejoin:round;stroke-miterlimit:10;}
	.st241{fill:#FFFFFF;stroke:#02919D;stroke-width:1.6155;stroke-linejoin:round;stroke-miterlimit:10;}
	.st242{fill:none;stroke:#02919D;stroke-width:1.2383;stroke-miterlimit:10;}
	.st243{clip-path:url(#SVGID_288_);fill:none;stroke:#02919D;stroke-width:0.9979;stroke-miterlimit:10;}
	.st244{clip-path:url(#SVGID_290_);fill:#F9F29C;}
	.st245{clip-path:url(#SVGID_290_);fill:#BCB29B;}
	.st246{opacity:0.4;clip-path:url(#SVGID_290_);fill:#02919D;}
	.st247{clip-path:url(#SVGID_290_);fill:none;stroke:#02919D;stroke-width:1.4902;stroke-miterlimit:10;}
	.st248{clip-path:url(#SVGID_290_);fill:#02919D;}
	.st249{clip-path:url(#SVGID_290_);fill:none;stroke:#02919D;stroke-width:1.1906;stroke-miterlimit:10;}
	.st250{clip-path:url(#SVGID_290_);fill:none;stroke:#02919D;stroke-width:1.6045;stroke-miterlimit:10;}
	.st251{clip-path:url(#SVGID_292_);fill:none;stroke:#231F20;stroke-width:0.8262;stroke-miterlimit:10;}
	.st252{clip-path:url(#SVGID_292_);fill:#02919D;}
	.st253{clip-path:url(#SVGID_292_);fill:#EC2386;}
	.st254{clip-path:url(#SVGID_292_);fill:#E2DAC2;}
	.st255{opacity:0.4;clip-path:url(#SVGID_292_);fill:#02919D;}
	.st256{clip-path:url(#SVGID_292_);fill:none;stroke:#02919D;stroke-width:1.3629;stroke-miterlimit:10;}
	.st257{clip-path:url(#SVGID_292_);fill:none;stroke:#02919D;stroke-width:1.5027;stroke-linejoin:round;stroke-miterlimit:10;}
	.st258{clip-path:url(#SVGID_292_);fill:#FFFFFF;stroke:#02919D;stroke-width:1.5027;stroke-linejoin:round;stroke-miterlimit:10;}
	.st259{fill:#DDD26C;}
	.st260{clip-path:url(#SVGID_294_);fill:none;stroke:#231F20;stroke-width:0.8318;stroke-miterlimit:10;}
	.st261{clip-path:url(#SVGID_294_);fill:#00ADEE;}
	.st262{clip-path:url(#SVGID_294_);fill:#F9F29C;}
	.st263{clip-path:url(#SVGID_294_);fill:#E2DAC2;}
	.st264{opacity:0.4;clip-path:url(#SVGID_294_);fill:#02919D;}
	.st265{clip-path:url(#SVGID_294_);fill:none;stroke:#02919D;stroke-width:1.3722;stroke-miterlimit:10;}
	.st266{clip-path:url(#SVGID_294_);fill:#02919D;}
	.st267{clip-path:url(#SVGID_294_);fill:none;stroke:#02919D;stroke-width:1.513;stroke-linejoin:round;stroke-miterlimit:10;}
	.st268{clip-path:url(#SVGID_294_);fill:#FFFFFF;stroke:#02919D;stroke-width:1.513;stroke-linejoin:round;stroke-miterlimit:10;}
	.st269{clip-path:url(#SVGID_294_);fill:none;stroke:#EC2386;stroke-width:1.6249;stroke-miterlimit:10;}
	.st270{clip-path:url(#SVGID_294_);fill:none;stroke:#EC2386;stroke-width:1.4045;stroke-miterlimit:10;}
	.st271{clip-path:url(#SVGID_294_);fill:#EC2386;}
	.st272{clip-path:url(#SVGID_294_);fill:#DDD26C;}
	.st273{clip-path:url(#SVGID_296_);fill:none;stroke:#02919D;stroke-width:1.6208;stroke-miterlimit:10;}
	.st274{clip-path:url(#SVGID_296_);fill:#EC2386;}
	.st275{clip-path:url(#SVGID_296_);fill:#E2DAC2;}
	.st276{opacity:0.4;clip-path:url(#SVGID_296_);fill:#02919D;}
	.st277{clip-path:url(#SVGID_296_);fill:#F9F29C;}
	.st278{clip-path:url(#SVGID_296_);fill:#02919D;}
	.st279{clip-path:url(#SVGID_296_);fill:none;stroke:#02919D;stroke-width:1.726;stroke-miterlimit:10;}
	.st280{clip-path:url(#SVGID_296_);fill:none;stroke:#02919D;stroke-width:1.8267;stroke-miterlimit:10;}
	.st281{clip-path:url(#SVGID_298_);}
	.st282{clip-path:url(#SVGID_298_);fill:#EC2386;}
	.st283{clip-path:url(#SVGID_298_);fill:none;stroke:#231F20;stroke-width:0.8237;stroke-miterlimit:10;}
	.st284{clip-path:url(#SVGID_298_);fill:#02919D;}
	.st285{clip-path:url(#SVGID_298_);fill:#E2DAC2;}
	.st286{opacity:0.4;clip-path:url(#SVGID_298_);fill:#02919D;}
	.st287{clip-path:url(#SVGID_298_);fill:none;stroke:#02919D;stroke-width:1.3587;stroke-miterlimit:10;}
	.st288{clip-path:url(#SVGID_298_);fill:none;stroke:#02919D;stroke-width:1.4981;stroke-linejoin:round;stroke-miterlimit:10;}
	.st289{clip-path:url(#SVGID_298_);fill:#FFFFFF;stroke:#02919D;stroke-width:1.4981;stroke-linejoin:round;stroke-miterlimit:10;}
	.st290{clip-path:url(#SVGID_298_);fill:none;stroke:#02919D;stroke-width:1.1482;stroke-miterlimit:10;}
	.st291{clip-path:url(#SVGID_298_);fill:none;stroke:#FFFFFF;stroke-width:0.5741;stroke-linecap:round;stroke-miterlimit:10;}
	.st292{clip-path:url(#SVGID_298_);fill:#0B7F82;}
	.st293{clip-path:url(#SVGID_298_);fill:#B61F70;}
	.st294{clip-path:url(#SVGID_300_);fill:#02919D;}
	.st295{clip-path:url(#SVGID_300_);fill:#0B7F82;}
	.st296{clip-path:url(#SVGID_300_);fill:none;stroke:#231F20;stroke-width:0.8338;stroke-miterlimit:10;}
	.st297{clip-path:url(#SVGID_300_);fill:#EC2386;}
	.st298{clip-path:url(#SVGID_300_);fill:#BCB29B;}
	.st299{opacity:0.4;clip-path:url(#SVGID_300_);fill:#02919D;}
	.st300{clip-path:url(#SVGID_300_);fill:none;stroke:#02919D;stroke-width:1.3755;stroke-miterlimit:10;}
	.st301{clip-path:url(#SVGID_300_);fill:none;stroke:#02919D;stroke-width:1.5165;stroke-linejoin:round;stroke-miterlimit:10;}
	.st302{clip-path:url(#SVGID_300_);fill:#FFFFFF;stroke:#02919D;stroke-width:1.5165;stroke-linejoin:round;stroke-miterlimit:10;}
	.st303{clip-path:url(#SVGID_300_);fill:none;stroke:#02919D;stroke-width:1.1624;stroke-miterlimit:10;}
	.st304{clip-path:url(#SVGID_300_);fill:none;stroke:#EC2386;stroke-width:1.1624;stroke-miterlimit:10;}
	.st305{clip-path:url(#SVGID_302_);fill:#00ADEE;}
	.st306{clip-path:url(#SVGID_302_);fill:#E2DAC2;}
	.st307{opacity:0.4;clip-path:url(#SVGID_302_);fill:#02919D;}
	.st308{clip-path:url(#SVGID_302_);fill:none;stroke:#02919D;stroke-width:1.6082;stroke-miterlimit:10;}
	.st309{clip-path:url(#SVGID_302_);fill:#02919D;}
	.st310{clip-path:url(#SVGID_302_);fill:#EC2386;}
	.st311{clip-path:url(#SVGID_302_);}
	.st312{clip-path:url(#SVGID_304_);}
	.st313{clip-path:url(#SVGID_306_);fill:none;stroke:#231F20;stroke-width:0.8288;stroke-miterlimit:10;}
	.st314{clip-path:url(#SVGID_306_);fill:#F9F29C;}
	.st315{clip-path:url(#SVGID_306_);fill:#02919D;}
	.st316{clip-path:url(#SVGID_306_);fill:#BCB29B;}
	.st317{opacity:0.4;clip-path:url(#SVGID_306_);fill:#02919D;}
	.st318{clip-path:url(#SVGID_306_);fill:none;stroke:#02919D;stroke-width:1.3672;stroke-miterlimit:10;}
	.st319{clip-path:url(#SVGID_306_);fill:none;stroke:#02919D;stroke-width:1.5075;stroke-linejoin:round;stroke-miterlimit:10;}
	.st320{clip-path:url(#SVGID_306_);fill:none;stroke:#00ADEE;stroke-width:1.619;stroke-miterlimit:10;}
	.st321{clip-path:url(#SVGID_306_);fill:none;stroke:#00ADEE;stroke-width:1.3995;stroke-miterlimit:10;}
	.st322{clip-path:url(#SVGID_306_);}
	.st323{clip-path:url(#SVGID_306_);fill:#0B7F82;}
	.st324{clip-path:url(#SVGID_306_);fill:#00ADEE;}
	.st325{clip-path:url(#SVGID_308_);fill:#EC2386;}
	.st326{clip-path:url(#SVGID_308_);fill:#E2DAC2;}
	.st327{opacity:0.4;clip-path:url(#SVGID_308_);fill:#02919D;}
	.st328{clip-path:url(#SVGID_308_);fill:#F9F29C;}
	.st329{clip-path:url(#SVGID_308_);fill:none;stroke:#02919D;stroke-width:1.37;stroke-miterlimit:10;}
	.st330{clip-path:url(#SVGID_308_);fill:#02919D;}
	.st331{clip-path:url(#SVGID_308_);fill:none;stroke:#02919D;stroke-width:1.6051;stroke-miterlimit:10;}
	.st332{clip-path:url(#SVGID_308_);fill:#DDD26C;}
</style>
<g>
	<defs>
		<path id="SVGID_269_" d="M935.5,334h-28.6h-72.5l-43.3,8.7h-33.2l-39.5,18.5c0,0-6.8,13.4,0,39.6c3.6,14,13.3,20.7,22.3,24.2
			c-0.1,1.4-0.1,2.8-0.1,4.3c0,45.4,36.8,82.2,82.2,82.2c45.4,0,82.2-36.8,82.2-82.2c0-10.4,3.1-20.4-0.4-29.5l27,6l10.3-21.7
			l9.1-37.1L935.5,334z"/>
	</defs>
	<clipPath id="SVGID_2_">
		<use xlink:href="#SVGID_269_"  style="overflow:visible;"/>
	</clipPath>
	<circle style="clip-path:url(#SVGID_2_);fill:#02919D;" cx="823" cy="429" r="82.2"/>
	<polygon style="clip-path:url(#SVGID_2_);fill:#C42275;" points="854.9,399 851.5,354.6 912.5,349.2 910.3,389.4 860.9,393.5 	"/>
	<path style="clip-path:url(#SVGID_2_);fill:#00ADEE;" d="M800.4,388.2c0-15.5-15.2-28.1-34-28.1c-18.8,0-34,12.6-34,28.1
		s15.2,28.1,34,28.1c4.7,0,9.3-0.8,13.4-2.2l6.1,6.1l3.6-11.3C796.2,403.7,800.4,396.4,800.4,388.2z"/>
	<path style="opacity:0.65;clip-path:url(#SVGID_2_);fill:#FFFFFF;" d="M802.2,478.2l2.3-16.1c0,0,5-2.8,6.3-8.2
		c1.3-5.3,1.5-16.1,1.5-16.1s0.6-8.5,0.6-12.9c0-4.4-0.5-7.2-1.9-6.9c-1.4,0.3-1.3,0.9-1.7,2.4c-0.4,1.5-1.2,13.8-1.2,13.8
		s0,1.8-0.5,1.7c-0.7-0.1,0.4-6.8,0.9-13c0.5-6.2,0.3-9.4,0.1-11c-0.2-1.6-3.1-3.5-3.7,0.4c-0.5,3.9-2.2,19.8-2.3,20.3
		c-0.2,0.5-0.1,2.7-0.7,1.9c-0.4-0.5,2.4-25.5,2.5-26.5c0.1-1.1-1.7-3.2-3.4-2c-0.8,0.6-1,2.3-1.1,3.3c-0.1,1.1-3.2,23.1-3.4,23.6
		c-0.5,1.1-0.6,0.3-0.6,0.3s2.2-21,1.6-22s-3.5-2.5-3.9,1.3c-0.3,2.6-1.6,13.2-2.9,20.2c-0.6,3.1-1.5,5.5-1.6,6.1
		c-0.4,2-1.8,4.6-1.8,4.6s-1.8-4-1.6-5.3c0.1-1.2,0.6-3.7,0.7-5.6c0.1-1.9-0.7-3.7-1-4c-0.2-0.3-1.9-0.8-3.3,3.3
		c-1.3,4.1-1.9,7.2-2,8.1c0,0.7,1.2,6.4,1.6,8.5c1.9,8.4,8.8,10.6,8.8,10.6s0.4,5.2,0.4,5.5s-1.4,13.9-1.5,14.2
		C789.5,478.8,800.5,481.4,802.2,478.2z"/>
	<path style="clip-path:url(#SVGID_2_);fill:#C42275;" d="M805,511.4c0.1-0.9,1.9-41.2,1.9-41.2s-4.6,1.8-10.6,1.1
		c-6.1-0.6-10.1-2.8-10.1-2.8l-1,42.9H805z"/>
	<g style="opacity:0.4;clip-path:url(#SVGID_2_);">
		<path class="st148" d="M810.5,438.1c-6-2.9-12.5-4.4-19.4-4.3"/>
	</g>
	<line style="clip-path:url(#SVGID_2_);fill:none;" x1="800.7" y1="437.2" x2="800.5" y2="437.6"/>
	<path style="clip-path:url(#SVGID_2_);fill:#FFFFFF;" d="M750.4,379c0.8,0.6,35.4-1.3,35.4-1.3l-1.1,3.2h-36.1L750.4,379z"/>
	<path style="clip-path:url(#SVGID_2_);fill:#FFFFFF;" d="M782.7,390.2c-0.8-0.2-35.4,0.5-35.4,0.5l2.8-2.4h36.1L782.7,390.2z"/>
	<path style="clip-path:url(#SVGID_2_);fill:#FFFFFF;" d="M783.9,399.7c-0.8-0.6-35.4,1.3-35.4,1.3l1.1-3.2h36.1L783.9,399.7z"/>
	<g style="clip-path:url(#SVGID_2_);">
		<path class="st129" d="M837.8,472.7l-3-20.6c0,0-6.4-3.6-8.1-10.4c-1.7-6.8-1.9-20.6-1.9-20.6s-0.8-10.8-0.8-16.5s0.7-9.2,2.5-8.9
			c1.8,0.3,1.7,1.2,2.2,3c0.5,1.9,1.6,17.7,1.6,17.7s0,2.3,0.6,2.2c0.8-0.1-0.5-8.6-1.1-16.6c-0.6-8-0.4-12-0.1-14
			c0.3-2,4-4.5,4.7,0.5c0.7,5,2.8,25.3,3,26s0.1,3.5,0.9,2.4c0.5-0.7-3.1-32.7-3.2-33.8c-0.2-1.5,2.2-4,4.3-2.6
			c1.1,0.7,1.3,2.9,1.4,4.2c0.1,1.3,4.1,29.6,4.3,30.2c0.6,1.4,0.8,0.4,0.8,0.4s-2.9-26.8-2.1-28.2c0.8-1.3,4.5-3.2,5,1.6
			c0.4,3.4,2.1,16.9,3.7,25.8c0.7,4,1.9,7,2.1,7.8c0.5,2.5,2.3,5.9,2.3,5.9s2.3-5.2,2.1-6.7c-0.2-1.6-0.8-4.8-0.9-7.2
			c-0.1-2.4,0.9-4.7,1.2-5.1c0.3-0.4,2.4-1,4.2,4.2c1.7,5.2,2.5,9.1,2.6,10.4c0.1,0.9-1.5,8.2-2.1,10.9
			c-2.4,10.7-11.3,13.6-11.3,13.6s-0.5,6.6-0.5,7c0,0.4,1.8,17.8,1.9,18.1C854,473.4,839.9,476.8,837.8,472.7z"/>
		<path class="st156" d="M831.8,511.4c-0.1-1.1,0-49,0-49s5.9,2.3,13.6,1.4s12.9-3.6,12.9-3.6l-0.9,51.1H831.8z"/>
		<g class="st131">
			<path class="st148" d="M827.2,421.5c7.6-3.8,16-5.6,24.8-5.5"/>
		</g>
		<line class="st132" x1="839.7" y1="420.3" x2="840" y2="420.9"/>
	</g>
	<path style="clip-path:url(#SVGID_2_);fill:#FFFFFF;" d="M862.7,368.3c0,0,38.7-4.4,39.5-4.1s1.2,1.2-1.4,1.8
		c-2.5,0.7-38.2,4.2-38.2,4.2L862.7,368.3z"/>
	<path style="clip-path:url(#SVGID_2_);fill:#FFFFFF;" d="M862.2,376.5c0,0,38.7-4.4,39.5-4.1s1.2,1.2-1.4,1.8
		c-2.5,0.7-38.2,4.2-38.2,4.2L862.2,376.5z"/>
</g>
</svg>
