<?xml version="1.0" encoding="utf-8"?>
<!-- Generator: Adobe Illustrator 19.1.0, SVG Export Plug-In . SVG Version: 6.00 Build 0)  -->
<svg version="1.1" id="Capa_1" xmlns="http://www.w3.org/2000/svg" xmlns:xlink="http://www.w3.org/1999/xlink" x="0px" y="0px"
	 viewBox="498.4 331.2 180 180" style="enable-background:new 498.4 331.2 180 180;" xml:space="preserve">
<style type="text/css">
	.st0{display:none;}
	.st1{display:inline;}
	.st2{fill:#C52375;}
	.st3{clip-path:url(#SVGID_2_);fill:#E6E8EA;}
	.st4{clip-path:url(#SVGID_4_);fill:#E3DBC3;}
	.st5{opacity:0.4;clip-path:url(#SVGID_6_);fill:#02929E;enable-background:new    ;}
	.st6{clip-path:url(#SVGID_8_);fill:#E3DBC3;}
	.st7{clip-path:url(#SVGID_10_);fill:#02929E;}
	.st8{clip-path:url(#SVGID_12_);fill:#2C2827;}
	.st9{clip-path:url(#SVGID_14_);fill:#B6B9BB;}
	.st10{clip-path:url(#SVGID_16_);fill:#94999B;}
	.st11{clip-path:url(#SVGID_18_);fill:#A7A9AC;}
	.st12{clip-path:url(#SVGID_20_);fill:#A7A9AC;}
	.st13{clip-path:url(#SVGID_22_);fill:#9E1F63;}
	.st14{clip-path:url(#SVGID_24_);fill:#9E1F63;}
	.st15{clip-path:url(#SVGID_26_);fill:none;stroke:#02929E;stroke-width:1.296;stroke-miterlimit:10;}
	.st16{clip-path:url(#SVGID_28_);fill:#A7A9AC;}
	.st17{clip-path:url(#SVGID_30_);fill:#A7A9AC;}
	.st18{clip-path:url(#SVGID_32_);fill:#2C2827;}
	.st19{clip-path:url(#SVGID_34_);}
	.st20{fill:#2C2827;}
	.st21{fill:#B6B9BB;}
	.st22{clip-path:url(#SVGID_36_);fill:#E6E8EA;}
	.st23{clip-path:url(#SVGID_38_);fill:#9AC3C1;}
	.st24{clip-path:url(#SVGID_40_);fill:#9E9EA1;}
	.st25{clip-path:url(#SVGID_42_);fill:#E3DBC3;}
	.st26{clip-path:url(#SVGID_44_);fill:#CED1D3;}
	.st27{clip-path:url(#SVGID_46_);fill:#E6E8EA;}
	.st28{clip-path:url(#SVGID_48_);fill:#B3B7BA;}
	.st29{clip-path:url(#SVGID_50_);fill:#CED1D3;}
	.st30{clip-path:url(#SVGID_52_);fill:#E6E8EA;}
	.st31{clip-path:url(#SVGID_54_);fill:#B3B7BA;}
	.st32{clip-path:url(#SVGID_56_);fill:#CED1D3;}
	.st33{clip-path:url(#SVGID_58_);fill:#E6E8EA;}
	.st34{clip-path:url(#SVGID_60_);fill:#B3B7BA;}
	.st35{clip-path:url(#SVGID_62_);fill:#CED1D3;}
	.st36{clip-path:url(#SVGID_64_);fill:#E6E8EA;}
	.st37{clip-path:url(#SVGID_66_);fill:#B3B7BA;}
	.st38{clip-path:url(#SVGID_68_);fill:#CED1D3;}
	.st39{clip-path:url(#SVGID_70_);fill:#E6E8EA;}
	.st40{clip-path:url(#SVGID_72_);fill:#B3B7BA;}
	.st41{clip-path:url(#SVGID_74_);fill:#CED1D3;}
	.st42{clip-path:url(#SVGID_76_);fill:#E6E8EA;}
	.st43{clip-path:url(#SVGID_78_);fill:#B3B7BA;}
	.st44{clip-path:url(#SVGID_80_);fill:#CED1D3;}
	.st45{clip-path:url(#SVGID_82_);fill:#E6E8EA;}
	.st46{clip-path:url(#SVGID_84_);fill:#B3B7BA;}
	.st47{clip-path:url(#SVGID_86_);fill:#CED1D3;}
	.st48{clip-path:url(#SVGID_88_);fill:#E6E8EA;}
	.st49{clip-path:url(#SVGID_90_);fill:#B3B7BA;}
	.st50{clip-path:url(#SVGID_92_);fill:#E0CE4B;}
	.st51{clip-path:url(#SVGID_94_);fill:#00AEEF;}
	.st52{clip-path:url(#SVGID_96_);fill:#0A7393;}
	.st53{opacity:0.22;clip-path:url(#SVGID_98_);fill:#5D5E5E;enable-background:new    ;}
	.st54{clip-path:url(#SVGID_100_);fill:#5D5E5E;}
	.st55{clip-path:url(#SVGID_102_);fill:#95D8EA;}
	.st56{clip-path:url(#SVGID_104_);fill:#0A7393;}
	.st57{clip-path:url(#SVGID_106_);fill:#00AEEF;}
	.st58{clip-path:url(#SVGID_108_);fill:#FFFFFF;}
	.st59{clip-path:url(#SVGID_110_);fill:#E3DBC3;}
	.st60{clip-path:url(#SVGID_112_);fill:#E3DBC3;}
	.st61{clip-path:url(#SVGID_114_);fill:#E0CE4B;}
	.st62{clip-path:url(#SVGID_116_);fill:#FFFFFF;}
	.st63{clip-path:url(#SVGID_118_);fill:#FFFFFF;}
	.st64{clip-path:url(#SVGID_120_);fill:#FFFFFF;}
	.st65{clip-path:url(#SVGID_122_);fill:#FFFFFF;}
	.st66{clip-path:url(#SVGID_124_);fill:#FFFFFF;}
	.st67{clip-path:url(#SVGID_126_);fill:#FFFFFF;}
	.st68{clip-path:url(#SVGID_128_);fill:#FFFFFF;}
	.st69{clip-path:url(#SVGID_130_);fill:#FFFFFF;}
	.st70{clip-path:url(#SVGID_132_);fill:#ED2387;}
	.st71{clip-path:url(#SVGID_134_);fill:#ED2387;}
	.st72{display:inline;fill:#00AEEF;}
	.st73{clip-path:url(#SVGID_136_);fill:none;}
	.st74{clip-path:url(#SVGID_138_);fill:#C52375;}
	.st75{clip-path:url(#SVGID_140_);}
	.st76{fill:#E3DBC3;}
	.st77{fill:#02929E;}
	.st78{opacity:0.19;enable-background:new    ;}
	.st79{opacity:0.4;fill:#02929E;enable-background:new    ;}
	.st80{clip-path:url(#SVGID_142_);fill:#C52375;}
	.st81{clip-path:url(#SVGID_144_);fill:#FFFFFF;}
	.st82{clip-path:url(#SVGID_146_);}
	.st83{clip-path:url(#SVGID_148_);}
	.st84{clip-path:url(#SVGID_150_);}
	.st85{clip-path:url(#SVGID_152_);}
	.st86{clip-path:url(#SVGID_154_);}
	.st87{clip-path:url(#SVGID_156_);}
	.st88{clip-path:url(#SVGID_158_);}
	
		.st89{clip-path:url(#SVGID_160_);fill:none;stroke:#02929E;stroke-width:1.249;stroke-linecap:round;stroke-linejoin:round;stroke-miterlimit:10;}
	
		.st90{clip-path:url(#SVGID_162_);fill:none;stroke:#02929E;stroke-width:1.249;stroke-linecap:round;stroke-linejoin:round;stroke-miterlimit:10;}
	.st91{clip-path:url(#SVGID_164_);}
	.st92{clip-path:url(#SVGID_166_);fill:#E3DBC3;}
	.st93{clip-path:url(#SVGID_168_);fill:#E3DBC3;}
	.st94{clip-path:url(#SVGID_170_);fill:#00AEEF;}
	.st95{clip-path:url(#SVGID_172_);fill:#00AEEF;}
	.st96{clip-path:url(#SVGID_174_);fill:#E0CE4B;}
	.st97{clip-path:url(#SVGID_176_);fill:#81184D;}
	.st98{clip-path:url(#SVGID_178_);fill:#C52375;}
	.st99{clip-path:url(#SVGID_180_);fill:#02929E;}
	.st100{clip-path:url(#SVGID_182_);fill:#FFFFFF;}
	.st101{clip-path:url(#SVGID_184_);fill:#81184D;}
	.st102{clip-path:url(#SVGID_186_);fill:#81184D;}
	.st103{clip-path:url(#SVGID_188_);fill:none;stroke:#02929E;stroke-width:0.4243;stroke-miterlimit:10;}
	.st104{clip-path:url(#SVGID_190_);fill:none;stroke:#02929E;stroke-width:0.4243;stroke-miterlimit:10;}
	.st105{clip-path:url(#SVGID_192_);fill:none;stroke:#02929E;stroke-width:0.4243;stroke-miterlimit:10;}
	.st106{clip-path:url(#SVGID_194_);fill:none;stroke:#02929E;stroke-width:0.4243;stroke-miterlimit:10;}
	.st107{clip-path:url(#SVGID_196_);fill:#E3DBC3;}
	.st108{clip-path:url(#SVGID_198_);fill:#FFFFFF;}
	.st109{clip-path:url(#SVGID_200_);fill:#FFFFFF;}
	.st110{clip-path:url(#SVGID_202_);fill:#E3DBC3;}
	.st111{clip-path:url(#SVGID_204_);fill:#02929E;}
	.st112{clip-path:url(#SVGID_206_);fill:#02929E;}
	.st113{clip-path:url(#SVGID_208_);fill:#02929E;}
	.st114{clip-path:url(#SVGID_210_);fill:#02929E;}
	.st115{clip-path:url(#SVGID_212_);fill:#E3DBC3;}
	.st116{clip-path:url(#SVGID_214_);fill:#E3DBC3;}
	.st117{clip-path:url(#SVGID_216_);fill:#E3DBC3;}
	.st118{clip-path:url(#SVGID_218_);fill:#02929E;}
	.st119{clip-path:url(#SVGID_220_);fill:#C52375;}
	.st120{clip-path:url(#SVGID_222_);fill:#00AEEF;}
	.st121{opacity:0.65;clip-path:url(#SVGID_224_);fill:#FFFFFF;enable-background:new    ;}
	.st122{clip-path:url(#SVGID_226_);fill:#C52375;}
	.st123{opacity:0.4;clip-path:url(#SVGID_228_);}
	.st124{clip-path:url(#SVGID_230_);fill:none;}
	.st125{clip-path:url(#SVGID_232_);fill:#FFFFFF;}
	.st126{clip-path:url(#SVGID_234_);fill:#FFFFFF;}
	.st127{clip-path:url(#SVGID_236_);fill:#FFFFFF;}
	.st128{clip-path:url(#SVGID_238_);}
	.st129{fill:#FFFFFF;}
	.st130{fill:#00AEEF;}
	.st131{opacity:0.4;}
	.st132{fill:none;}
	.st133{clip-path:url(#SVGID_240_);fill:#FFFFFF;}
	.st134{clip-path:url(#SVGID_242_);fill:#FFFFFF;}
	.st135{display:inline;fill:#C52375;}
	.st136{clip-path:url(#SVGID_244_);fill:#E3DBC3;}
	.st137{opacity:0.67;clip-path:url(#SVGID_246_);fill:#E3DBC3;enable-background:new    ;}
	.st138{clip-path:url(#SVGID_248_);fill:#FFFFFF;}
	.st139{clip-path:url(#SVGID_250_);fill:#E0CE4B;}
	.st140{opacity:0.67;clip-path:url(#SVGID_252_);fill:#E3DBC3;enable-background:new    ;}
	.st141{clip-path:url(#SVGID_254_);fill:#00AEEF;}
	.st142{clip-path:url(#SVGID_256_);}
	.st143{clip-path:url(#SVGID_258_);}
	.st144{clip-path:url(#SVGID_260_);}
	.st145{clip-path:url(#SVGID_262_);}
	.st146{clip-path:url(#SVGID_264_);}
	.st147{clip-path:url(#SVGID_266_);}
	.st148{fill:#02919D;}
	.st149{fill:#C42275;}
	.st150{clip-path:url(#SVGID_268_);fill:#C42275;}
	.st151{clip-path:url(#SVGID_268_);fill:#FFFFFF;}
	.st152{clip-path:url(#SVGID_268_);fill:#231F20;}
	
		.st153{clip-path:url(#SVGID_268_);fill:none;stroke:#02919D;stroke-width:1.249;stroke-linecap:round;stroke-linejoin:round;stroke-miterlimit:10;}
	.st154{clip-path:url(#SVGID_268_);fill:#E2DAC2;}
	.st155{clip-path:url(#SVGID_268_);fill:#00ADEE;}
	.st156{fill:#00ADEE;}
	.st157{clip-path:url(#SVGID_270_);fill:#F9F293;}
	.st158{clip-path:url(#SVGID_270_);fill:#81184D;}
	.st159{clip-path:url(#SVGID_270_);fill:#C42275;}
	.st160{clip-path:url(#SVGID_270_);fill:#02919D;}
	.st161{clip-path:url(#SVGID_270_);fill:#FFFFFF;}
	.st162{clip-path:url(#SVGID_270_);fill:none;stroke:#02919D;stroke-width:0.4243;stroke-miterlimit:10;}
	.st163{clip-path:url(#SVGID_270_);fill:#E2DAC2;}
	.st164{clip-path:url(#SVGID_270_);fill:#CEB993;}
	.st165{clip-path:url(#SVGID_272_);fill:none;}
	.st166{clip-path:url(#SVGID_272_);fill:#C42275;}
	.st167{clip-path:url(#SVGID_272_);}
	.st168{fill:#E2DAC2;}
	.st169{fill:#0B7F82;}
	.st170{opacity:0.4;fill:#02919D;}
	.st171{clip-path:url(#SVGID_274_);fill:#E6E8E9;}
	.st172{clip-path:url(#SVGID_274_);fill:#E2DAC2;}
	.st173{opacity:0.4;clip-path:url(#SVGID_274_);fill:#02919D;}
	.st174{clip-path:url(#SVGID_274_);fill:#02919D;}
	.st175{clip-path:url(#SVGID_274_);fill:#2C2827;}
	.st176{clip-path:url(#SVGID_274_);fill:#B6B8BA;}
	.st177{clip-path:url(#SVGID_274_);fill:#93989A;}
	.st178{clip-path:url(#SVGID_274_);fill:#A6A8AB;}
	.st179{clip-path:url(#SVGID_274_);fill:#9E1F63;}
	.st180{clip-path:url(#SVGID_274_);fill:none;stroke:#02919D;stroke-width:1.296;stroke-miterlimit:10;}
	.st181{clip-path:url(#SVGID_274_);}
	.st182{fill:#B6B8BA;}
	.st183{clip-path:url(#SVGID_274_);fill:#99C3C0;}
	.st184{clip-path:url(#SVGID_274_);fill:#9D9DA1;}
	.st185{clip-path:url(#SVGID_274_);fill:#CDD1D3;}
	.st186{clip-path:url(#SVGID_274_);fill:#B3B7BA;}
	.st187{fill:#CEB993;}
	.st188{fill:#DFCD4B;}
	.st189{clip-path:url(#SVGID_276_);fill:#F9F293;}
	.st190{clip-path:url(#SVGID_276_);fill:#00ADEE;}
	.st191{clip-path:url(#SVGID_276_);fill:#097493;}
	.st192{opacity:0.22;clip-path:url(#SVGID_276_);fill:#5E5E5E;}
	.st193{clip-path:url(#SVGID_276_);fill:#5E5E5E;}
	.st194{clip-path:url(#SVGID_276_);fill:#93D7EA;}
	.st195{clip-path:url(#SVGID_276_);fill:#FFFFFF;}
	.st196{clip-path:url(#SVGID_276_);fill:#E2DAC2;}
	.st197{clip-path:url(#SVGID_276_);fill:#DFCD4B;}
	.st198{clip-path:url(#SVGID_276_);fill:#EC2386;}
	.st199{fill:#F9F29C;}
	.st200{fill:#DDD26C;}
	.st201{fill:none;stroke:#02919D;stroke-width:0.9262;stroke-miterlimit:10;}
	.st202{clip-path:url(#SVGID_278_);fill:#00ADEE;}
	.st203{clip-path:url(#SVGID_278_);fill:#BCB29B;}
	.st204{opacity:0.4;clip-path:url(#SVGID_278_);fill:#02919D;}
	.st205{clip-path:url(#SVGID_278_);fill:none;stroke:#02919D;stroke-width:1.6272;stroke-miterlimit:10;}
	.st206{clip-path:url(#SVGID_278_);fill:#02919D;}
	.st207{fill:#EC2386;}
	.st208{clip-path:url(#SVGID_280_);fill:#F9F29C;}
	.st209{clip-path:url(#SVGID_280_);fill:#E2DAC2;}
	.st210{opacity:0.4;clip-path:url(#SVGID_280_);fill:#02919D;}
	.st211{clip-path:url(#SVGID_280_);fill:none;stroke:#02919D;stroke-width:1.6191;stroke-miterlimit:10;}
	.st212{clip-path:url(#SVGID_280_);fill:#02919D;}
	.st213{clip-path:url(#SVGID_280_);fill:#EC2386;}
	.st214{clip-path:url(#SVGID_280_);fill:none;stroke:#00ADEE;stroke-width:1.6191;stroke-miterlimit:10;}
	.st215{clip-path:url(#SVGID_280_);fill:none;stroke:#00ADEE;stroke-width:1.4393;stroke-miterlimit:10;}
	.st216{clip-path:url(#SVGID_280_);fill:none;stroke:#00ADEE;stroke-width:1.1151;stroke-miterlimit:10;}
	.st217{fill:#B61F70;}
	.st218{clip-path:url(#SVGID_282_);fill:none;stroke:#231F20;stroke-width:0.8882;stroke-miterlimit:10;}
	.st219{clip-path:url(#SVGID_282_);fill:#EC2386;}
	.st220{clip-path:url(#SVGID_282_);fill:#F9F29C;}
	.st221{clip-path:url(#SVGID_282_);fill:#BCB29B;}
	.st222{opacity:0.4;clip-path:url(#SVGID_282_);fill:#02919D;}
	.st223{clip-path:url(#SVGID_282_);fill:#DDD26C;}
	.st224{clip-path:url(#SVGID_282_);}
	.st225{fill:none;stroke:#02919D;stroke-width:1.4472;stroke-linejoin:round;stroke-miterlimit:10;}
	.st226{fill:#FFFFFF;stroke:#02919D;stroke-width:1.6155;stroke-linejoin:round;stroke-miterlimit:10;}
	.st227{fill:none;stroke:#02919D;stroke-width:1.2383;stroke-miterlimit:10;}
	.st228{clip-path:url(#SVGID_282_);fill:none;stroke:#02919D;stroke-width:0.9979;stroke-miterlimit:10;}
	.st229{clip-path:url(#SVGID_284_);fill:#F9F29C;}
	.st230{clip-path:url(#SVGID_284_);fill:#BCB29B;}
	.st231{opacity:0.4;clip-path:url(#SVGID_284_);fill:#02919D;}
	.st232{clip-path:url(#SVGID_284_);fill:none;stroke:#02919D;stroke-width:1.4902;stroke-miterlimit:10;}
	.st233{clip-path:url(#SVGID_284_);fill:#02919D;}
	.st234{clip-path:url(#SVGID_284_);fill:none;stroke:#02919D;stroke-width:1.1906;stroke-miterlimit:10;}
	.st235{clip-path:url(#SVGID_284_);fill:none;stroke:#02919D;stroke-width:1.6045;stroke-miterlimit:10;}
	.st236{clip-path:url(#SVGID_286_);fill:none;stroke:#231F20;stroke-width:0.8262;stroke-miterlimit:10;}
	.st237{clip-path:url(#SVGID_286_);fill:#02919D;}
	.st238{clip-path:url(#SVGID_286_);fill:#EC2386;}
	.st239{clip-path:url(#SVGID_286_);fill:#E2DAC2;}
	.st240{opacity:0.4;clip-path:url(#SVGID_286_);fill:#02919D;}
	.st241{clip-path:url(#SVGID_286_);fill:none;stroke:#02919D;stroke-width:1.3629;stroke-miterlimit:10;}
	.st242{clip-path:url(#SVGID_286_);fill:none;stroke:#02919D;stroke-width:1.5027;stroke-linejoin:round;stroke-miterlimit:10;}
	.st243{clip-path:url(#SVGID_286_);fill:#FFFFFF;stroke:#02919D;stroke-width:1.5027;stroke-linejoin:round;stroke-miterlimit:10;}
	.st244{clip-path:url(#SVGID_288_);fill:none;stroke:#231F20;stroke-width:0.8318;stroke-miterlimit:10;}
	.st245{clip-path:url(#SVGID_288_);fill:#00ADEE;}
	.st246{clip-path:url(#SVGID_288_);fill:#F9F29C;}
	.st247{clip-path:url(#SVGID_288_);fill:#E2DAC2;}
	.st248{opacity:0.4;clip-path:url(#SVGID_288_);fill:#02919D;}
	.st249{clip-path:url(#SVGID_288_);fill:none;stroke:#02919D;stroke-width:1.3722;stroke-miterlimit:10;}
	.st250{clip-path:url(#SVGID_288_);fill:#02919D;}
	.st251{clip-path:url(#SVGID_288_);fill:none;stroke:#02919D;stroke-width:1.513;stroke-linejoin:round;stroke-miterlimit:10;}
	.st252{clip-path:url(#SVGID_288_);fill:#FFFFFF;stroke:#02919D;stroke-width:1.513;stroke-linejoin:round;stroke-miterlimit:10;}
	.st253{clip-path:url(#SVGID_288_);fill:none;stroke:#EC2386;stroke-width:1.6249;stroke-miterlimit:10;}
	.st254{clip-path:url(#SVGID_288_);fill:none;stroke:#EC2386;stroke-width:1.4045;stroke-miterlimit:10;}
	.st255{clip-path:url(#SVGID_288_);fill:#EC2386;}
	.st256{clip-path:url(#SVGID_288_);fill:#DDD26C;}
	.st257{clip-path:url(#SVGID_290_);fill:none;stroke:#02919D;stroke-width:1.6208;stroke-miterlimit:10;}
	.st258{clip-path:url(#SVGID_290_);fill:#EC2386;}
	.st259{clip-path:url(#SVGID_290_);fill:#E2DAC2;}
	.st260{opacity:0.4;clip-path:url(#SVGID_290_);fill:#02919D;}
	.st261{clip-path:url(#SVGID_290_);fill:#F9F29C;}
	.st262{clip-path:url(#SVGID_290_);fill:#02919D;}
	.st263{clip-path:url(#SVGID_290_);fill:none;stroke:#02919D;stroke-width:1.726;stroke-miterlimit:10;}
	.st264{clip-path:url(#SVGID_290_);fill:none;stroke:#02919D;stroke-width:1.8267;stroke-miterlimit:10;}
	.st265{clip-path:url(#SVGID_292_);}
	.st266{clip-path:url(#SVGID_292_);fill:#EC2386;}
	.st267{clip-path:url(#SVGID_292_);fill:none;stroke:#231F20;stroke-width:0.8237;stroke-miterlimit:10;}
	.st268{clip-path:url(#SVGID_292_);fill:#02919D;}
	.st269{clip-path:url(#SVGID_292_);fill:#E2DAC2;}
	.st270{opacity:0.4;clip-path:url(#SVGID_292_);fill:#02919D;}
	.st271{clip-path:url(#SVGID_292_);fill:none;stroke:#02919D;stroke-width:1.3587;stroke-miterlimit:10;}
	.st272{clip-path:url(#SVGID_292_);fill:none;stroke:#02919D;stroke-width:1.4981;stroke-linejoin:round;stroke-miterlimit:10;}
	.st273{clip-path:url(#SVGID_292_);fill:#FFFFFF;stroke:#02919D;stroke-width:1.4981;stroke-linejoin:round;stroke-miterlimit:10;}
	.st274{clip-path:url(#SVGID_292_);fill:none;stroke:#02919D;stroke-width:1.1482;stroke-miterlimit:10;}
	.st275{clip-path:url(#SVGID_292_);fill:none;stroke:#FFFFFF;stroke-width:0.5741;stroke-linecap:round;stroke-miterlimit:10;}
	.st276{clip-path:url(#SVGID_292_);fill:#0B7F82;}
	.st277{clip-path:url(#SVGID_292_);fill:#B61F70;}
	.st278{clip-path:url(#SVGID_294_);fill:#02919D;}
	.st279{clip-path:url(#SVGID_294_);fill:#0B7F82;}
	.st280{clip-path:url(#SVGID_294_);fill:none;stroke:#231F20;stroke-width:0.8338;stroke-miterlimit:10;}
	.st281{clip-path:url(#SVGID_294_);fill:#EC2386;}
	.st282{clip-path:url(#SVGID_294_);fill:#BCB29B;}
	.st283{opacity:0.4;clip-path:url(#SVGID_294_);fill:#02919D;}
	.st284{clip-path:url(#SVGID_294_);fill:none;stroke:#02919D;stroke-width:1.3755;stroke-miterlimit:10;}
	.st285{clip-path:url(#SVGID_294_);fill:none;stroke:#02919D;stroke-width:1.5165;stroke-linejoin:round;stroke-miterlimit:10;}
	.st286{clip-path:url(#SVGID_294_);fill:#FFFFFF;stroke:#02919D;stroke-width:1.5165;stroke-linejoin:round;stroke-miterlimit:10;}
	.st287{clip-path:url(#SVGID_294_);fill:none;stroke:#02919D;stroke-width:1.1624;stroke-miterlimit:10;}
	.st288{clip-path:url(#SVGID_294_);fill:none;stroke:#EC2386;stroke-width:1.1624;stroke-miterlimit:10;}
	.st289{clip-path:url(#SVGID_296_);fill:#00ADEE;}
	.st290{clip-path:url(#SVGID_296_);fill:#E2DAC2;}
	.st291{opacity:0.4;clip-path:url(#SVGID_296_);fill:#02919D;}
	.st292{clip-path:url(#SVGID_296_);fill:none;stroke:#02919D;stroke-width:1.6082;stroke-miterlimit:10;}
	.st293{clip-path:url(#SVGID_296_);fill:#02919D;}
	.st294{clip-path:url(#SVGID_296_);fill:#EC2386;}
	.st295{clip-path:url(#SVGID_296_);}
	.st296{clip-path:url(#SVGID_298_);}
	.st297{clip-path:url(#SVGID_300_);fill:none;stroke:#231F20;stroke-width:0.8288;stroke-miterlimit:10;}
	.st298{clip-path:url(#SVGID_300_);fill:#F9F29C;}
	.st299{clip-path:url(#SVGID_300_);fill:#02919D;}
	.st300{clip-path:url(#SVGID_300_);fill:#BCB29B;}
	.st301{opacity:0.4;clip-path:url(#SVGID_300_);fill:#02919D;}
	.st302{clip-path:url(#SVGID_300_);fill:none;stroke:#02919D;stroke-width:1.3672;stroke-miterlimit:10;}
	.st303{clip-path:url(#SVGID_300_);fill:none;stroke:#02919D;stroke-width:1.5075;stroke-linejoin:round;stroke-miterlimit:10;}
	.st304{clip-path:url(#SVGID_300_);fill:none;stroke:#00ADEE;stroke-width:1.619;stroke-miterlimit:10;}
	.st305{clip-path:url(#SVGID_300_);fill:none;stroke:#00ADEE;stroke-width:1.3995;stroke-miterlimit:10;}
	.st306{clip-path:url(#SVGID_300_);}
	.st307{clip-path:url(#SVGID_300_);fill:#0B7F82;}
	.st308{clip-path:url(#SVGID_300_);fill:#00ADEE;}
	.st309{clip-path:url(#SVGID_302_);fill:#EC2386;}
	.st310{clip-path:url(#SVGID_302_);fill:#E2DAC2;}
	.st311{opacity:0.4;clip-path:url(#SVGID_302_);fill:#02919D;}
	.st312{clip-path:url(#SVGID_302_);fill:#F9F29C;}
	.st313{clip-path:url(#SVGID_302_);fill:none;stroke:#02919D;stroke-width:1.37;stroke-miterlimit:10;}
	.st314{clip-path:url(#SVGID_302_);fill:#02919D;}
	.st315{clip-path:url(#SVGID_302_);fill:none;stroke:#02919D;stroke-width:1.6051;stroke-miterlimit:10;}
	.st316{clip-path:url(#SVGID_302_);fill:#DDD26C;}
	.st317{fill:none;stroke:#FFFFFF;stroke-width:1.6513;stroke-miterlimit:10;}
	.st318{fill:none;stroke:#02919D;stroke-width:0.9188;stroke-miterlimit:10;}
	.st319{fill:none;stroke:#02919D;stroke-width:0.9892;stroke-miterlimit:10;}
	.st320{fill:#C2297D;}
	.st321{fill:#D2C5A6;}
	.st322{clip-path:url(#SVGID_304_);fill:#C42275;}
	.st323{clip-path:url(#SVGID_304_);fill:#FFFFFF;}
	.st324{clip-path:url(#SVGID_304_);fill:#231F20;}
	
		.st325{clip-path:url(#SVGID_304_);fill:none;stroke:#02919D;stroke-width:1.249;stroke-linecap:round;stroke-linejoin:round;stroke-miterlimit:10;}
	.st326{clip-path:url(#SVGID_304_);fill:#E2DAC2;}
	.st327{clip-path:url(#SVGID_304_);fill:#02919D;}
	.st328{clip-path:url(#SVGID_306_);fill:#F9F293;}
	.st329{clip-path:url(#SVGID_306_);fill:#00ADEE;}
	.st330{clip-path:url(#SVGID_306_);fill:#BCB29B;}
	.st331{clip-path:url(#SVGID_306_);fill:#C42275;}
	.st332{opacity:0.4;clip-path:url(#SVGID_306_);}
	.st333{clip-path:url(#SVGID_306_);fill:none;}
	.st334{clip-path:url(#SVGID_306_);fill:#FFFFFF;}
	.st335{clip-path:url(#SVGID_306_);}
	.st336{clip-path:url(#SVGID_308_);fill:#02919D;}
	.st337{clip-path:url(#SVGID_308_);fill:#C42275;}
	.st338{clip-path:url(#SVGID_308_);fill:#00ADEE;}
	.st339{opacity:0.65;clip-path:url(#SVGID_308_);fill:#FFFFFF;}
	.st340{opacity:0.4;clip-path:url(#SVGID_308_);}
	.st341{clip-path:url(#SVGID_308_);fill:none;}
	.st342{clip-path:url(#SVGID_308_);fill:#FFFFFF;}
	.st343{clip-path:url(#SVGID_308_);}
	.st344{fill:#F9F293;}
	.st345{clip-path:url(#SVGID_310_);}
	.st346{fill:#831B52;}
	.st347{clip-path:url(#SVGID_312_);}
	.st348{fill:#00779B;}
	.st349{opacity:0.15;fill:#00ADEE;}
	.st350{opacity:0.46;fill:#FFFFFF;}
</style>
<g>
	<defs>
		<path id="SVGID_269_" d="M683.7,359.7l-6.8-10.6l-13-4.7l-22.8,29.1c-15-16.4-36.6-26.6-60.6-26.6c-45.4,0-82.2,36.8-82.2,82.2
			c0,45.4,36.8,82.2,82.2,82.2c45.4,0,82.2-36.8,82.2-82.2c0-7.3-0.9-14.3-2.7-21l7-5.9l5.6-4.8l5.8-14.3l6.9-13.3L683.7,359.7z"/>
	</defs>
	<clipPath id="SVGID_2_">
		<use xlink:href="#SVGID_269_"  style="overflow:visible;"/>
	</clipPath>
	<circle style="clip-path:url(#SVGID_2_);fill:#F9F293;" cx="580.3" cy="428.6" r="82.2"/>
	<path style="clip-path:url(#SVGID_2_);fill:#81184D;" d="M500.4,437.8c0.3-0.3,0.8-10.3,0.8-10.3s4.6-3.3,15.8-3.6
		s12.2,2.2,21.9-7.8c9.7-10,10.8-12.9,17.8-18.2c7.1-5.3,13-6.3,27.1-2.1c14.1,4.2-54.9,49.6-54.9,49.6l-27.4-5.6l-2.1-0.7
		L500.4,437.8z"/>
	<path style="clip-path:url(#SVGID_2_);fill:#C42275;" d="M497.5,458.2c0,0,9.8-29.1,25-27.4c18.4,2.1,18.9-2.7,28.3-15.3
		c9.4-12.6,22.6-21.6,33-19.7c10.4,1.9,17.1,8.7,19.3,11.9c3.9,5.5,13.6,13.6,15.1,25c0.8,6.3,4.5,28.6-16.8,37.8
		c-21.3,9.2-21.9,6.8-24.8,16c-8.6,27.1-22.4,26.6-24.8,27.4C541,517.8,497.5,458.2,497.5,458.2z"/>
	<path style="clip-path:url(#SVGID_2_);fill:#02919D;" d="M594.2,456.5c-4.5,10.5-15.1,16.6-25.4,13c-10.3-3.6-15.6-15.2-11.9-25.9
		c3.7-10.7,16.5-18.5,26.8-14.9C594.1,432.2,599.1,445.2,594.2,456.5z"/>
	<path style="clip-path:url(#SVGID_2_);fill:#FFFFFF;" d="M641.2,396.1c0,0,7.3,7.8,7.5,6.2c0.2-1.6,4.6-1.3,4.6-1.3
		s-14.2,12.4-19.4,15.6c-5.2,3.2-20,4.9-20,4.9L641.2,396.1z"/>
	<path style="clip-path:url(#SVGID_2_);fill:#81184D;" d="M532.4,473.8c2.6-1.8,125.5-107.1,125.5-107.1s-2.6-4.9-2.3-5.8
		c0.3-0.9,10.4-11.5,11.7-11.4s8,2.6,10.5,7.9c2.5,5.2-1.8,7.6-1.8,7.6l-9.7,10.7l-2.7-0.9L546.8,486.6L532.4,473.8z"/>
	
		<ellipse transform="matrix(0.9446 0.3281 -0.3281 0.9446 179.3234 -164.32)" style="clip-path:url(#SVGID_2_);fill:#81184D;" cx="576.6" cy="449.3" rx="14.2" ry="14.2"/>
	<path style="clip-path:url(#SVGID_2_);fill:none;stroke:#02919D;stroke-width:0.4243;stroke-miterlimit:10;" d="M537.9,475.3
		c1.5-2.2,122.4-108.9,122.4-108.9l8.4-13.2"/>
	<polyline style="clip-path:url(#SVGID_2_);fill:none;stroke:#02919D;stroke-width:0.4243;stroke-miterlimit:10;" points="
		541,477.4 661.7,367.9 671,355.2 	"/>
	<polyline style="clip-path:url(#SVGID_2_);fill:none;stroke:#02919D;stroke-width:0.4243;stroke-miterlimit:10;" points="
		543,480.9 663.3,369.6 673.6,357.8 	"/>
	<polyline style="clip-path:url(#SVGID_2_);fill:none;stroke:#02919D;stroke-width:0.4243;stroke-miterlimit:10;" points="
		545.5,483.4 664.7,371.3 675.3,359.7 	"/>
	<path style="clip-path:url(#SVGID_2_);fill:#E2DAC2;" d="M543.8,445.6c0-1.2,7.4,0.1,7.4,0.1s10.7-2.7,13.4-2.4
		c2.7,0.2,7.6,1.2,9.1,0.9c1.5-0.4,7-2.2,7.8-1.1s-1.7,4.8-4.4,5.7s-8.8,1.8-8.8,1.8s2,3,5.2,3.9c3.2,0.9,6.9,2.6,8.8,3.2
		c1.9,0.7,3.4,2.1,3.2,4.1s-2.9,2.8-2.9,2.8s1.7,0.7,1.7,2.1c-0.1,1.4-0.9,5.1-4.1,3.5c-1-0.5,2.7,2.6,1.3,4.7
		c-1.4,2.1-4,2.9-4.7,2.1s1.4,4.7-1.2,5.1c-2.6,0.3-12.3-3.8-14.1-4.9c-1.7-1.1-15.5-10.9-17.9-12.1s-6.9-2.9-6.9-2.9
		S543.7,452.7,543.8,445.6z"/>
	<path style="clip-path:url(#SVGID_2_);fill:#FFFFFF;" d="M496.2,424.9c2.3,1.3,48.3,11.9,48.3,11.9s7.1,11.2-2.3,20.9
		c-9.3,9.8-9.3,9.8-9.3,9.8l-40.4-11.9L496.2,424.9z"/>
	<path style="clip-path:url(#SVGID_2_);fill:#FFFFFF;" d="M591.7,398.5l15.9,1.1l20.2-7l-21.9,18.9
		C605.9,411.5,601.6,404.6,591.7,398.5z"/>
	<path style="clip-path:url(#SVGID_2_);fill:#E2DAC2;" d="M672.5,369.6c-6.3-3.1-8.7-5.3-8.4-6.8c0.4-1.5,12.5,4.5,13.4,5.6
		c0.8,1.1,1.3,2.1,0.3,3.4c-0.5,0.6-4.4,11.7-7,13.2c-2.9,1.7-2.7-3.2-2.7-3.2L672.5,369.6z"/>
	<polygon style="clip-path:url(#SVGID_2_);fill:#02919D;" points="532.4,473.8 536.4,471.3 549.2,484.9 546.4,488.3 	"/>
	<path style="clip-path:url(#SVGID_2_);fill:#02919D;" d="M659.6,359.3c0,0-3.4-1.9-2.9-2.5c0.5-0.6,1.4-1.1,1.4-1.1l2.2,2.9
		L659.6,359.3z"/>
	<path style="clip-path:url(#SVGID_2_);fill:#02919D;" d="M662.1,355.6c0,0-3.4-1.9-2.9-2.5c0.5-0.6,1.4-1.1,1.4-1.1l2.2,2.9
		L662.1,355.6z"/>
	<path style="clip-path:url(#SVGID_2_);fill:#02919D;" d="M665.1,352.7c0,0-3.4-1.9-2.9-2.5c0.5-0.6,1.4-1.1,1.4-1.1l2.2,2.9
		L665.1,352.7z"/>
	<path style="clip-path:url(#SVGID_2_);fill:#E2DAC2;" d="M648.4,402.5c0.3-0.1,23.5-12,25.4-13.8c1.9-1.8-0.9-13.3-1.1-14.7
		c-0.2-1.4-0.8-3.7-5.8-4.6c-5-0.9-11.3-1.1-11.7-0.7s-0.9,3.4,2,4c2.9,0.6,10.2,2.1,10.5,2c0.3-0.1,0,0-1,0.1
		c-1,0.1-13.2-2.5-14.3-2.1c-1.2,0.5-2.8,2.3,0,3.7c2.8,1.4,10.9,2.7,11,3.7c0.1,1-0.1,0.7-1.9,0.4s-12.1-3.3-13.3-2.7
		s-1.6,2.1-0.5,2.5c1.1,0.5,7.3,2.5,7.3,2.5l-14.5,13.8L648.4,402.5z"/>
	<path style="clip-path:url(#SVGID_2_);fill:#CEB993;" d="M654.9,383l-8.3,8c0,0,6.1-1.4,10.1-2.7s4.7-2.8,4.7-2.8L654.9,383z"/>
	<polygon style="clip-path:url(#SVGID_2_);fill:#CEB993;" points="672.5,369.6 671.1,373.5 672.1,379.7 674.1,372.9 	"/>
</g>
<path class="st149" d="M605,368c0,0,1.4-20.8,0-20.8c-1.4,0,15.6-4.4,15.6-4.4v17.9c0,0,2.5-1.5,4.8-0.8c2.2,0.8-1.3,4.2-3.8,5.7
	c-2.5,1.5-2.5,1.5-2.5,1.5l0.2-18.2l-12,3.7l-0.6,18.8c0,0-7,1.9-8.3,0C597.1,369.5,596.7,367.2,605,368z"/>
<path class="st149" d="M628.6,370.3l4.2,0.4l-5.3-2.4l-2.6,12.3c0,0-4.7-2.9-5.1-1.1c-0.8,4,5.7,3.6,5.7,3.6L628.6,370.3z"/>
</svg>
