<?xml version="1.0" encoding="utf-8"?>
<!-- Generator: Adobe Illustrator 19.1.0, SVG Export Plug-In . SVG Version: 6.00 Build 0)  -->
<svg version="1.1" id="Layer_1" xmlns="http://www.w3.org/2000/svg" xmlns:xlink="http://www.w3.org/1999/xlink" x="0px" y="0px"
	 viewBox="0 0 113.5 58.2" style="enable-background:new 0 0 113.5 58.2;" xml:space="preserve">
<style type="text/css">
	.st0{fill:#FFFFFF;}
	.st1{fill-rule:evenodd;clip-rule:evenodd;fill:#FFFFFF;}
</style>
<g>
	<path class="st0" d="M94.6,15.6c-0.6,0.1-1.1,0.2-1.7,0.4c0.1,0.1,0.2,0.2,0.3,0.3C93.7,16.1,94.1,15.9,94.6,15.6z M104,19.6
		c-0.5-0.7-1.1-1.3-1.7-1.8c-0.3,0.3-0.6,0.5-1,0.7c0.5,0.6,0.9,1.2,1.2,1.9C103,20.2,103.5,19.9,104,19.6z M101.9,17.5
		c-0.7-0.5-1.4-0.9-2.2-1.2c-0.1,0.2-0.3,0.3-0.4,0.4c0.6,0.4,1.1,0.9,1.6,1.5C101.3,17.9,101.6,17.7,101.9,17.5z M99.3,16.1
		c-0.5-0.2-1.1-0.3-1.7-0.4c0.5,0.2,0.9,0.5,1.3,0.8C99.1,16.3,99.2,16.2,99.3,16.1z M96.1,15c5.6,0,10.2,4.6,10.2,10.3
		c0,5.7-4.6,10.3-10.2,10.3c-5.6,0-10.2-4.6-10.2-10.3C85.9,19.6,90.5,15,96.1,15z M97.8,17.1c0.3-0.1,0.5-0.2,0.8-0.4
		c-0.5-0.4-1.1-0.7-1.7-0.9C97.2,16.2,97.5,16.6,97.8,17.1z M96.3,17.4c0.4,0,0.7-0.1,1-0.2c-0.3-0.5-0.7-0.9-1-1.4V17.4z
		 M97.6,17.6c-0.4,0.1-0.8,0.2-1.3,0.2v1.7c0.7,0,1.5-0.1,2.1-0.3C98.2,18.7,97.9,18.1,97.6,17.6z M99,17c-0.3,0.2-0.6,0.4-0.9,0.5
		c0.3,0.5,0.6,1.1,0.9,1.6c0.6-0.2,1.1-0.4,1.7-0.7C100.1,17.9,99.5,17.4,99,17z M94.4,17.1c0.3-0.4,0.6-0.9,1-1.3
		c-0.6,0.2-1.2,0.5-1.7,0.9C93.9,16.8,94.1,17,94.4,17.1z M95.9,15.9c-0.4,0.4-0.7,0.9-1,1.4c0.3,0.1,0.7,0.1,1,0.2V15.9z
		 M90.4,33.1c0.2,0.1,0.5,0.2,0.9,0.2c0.5,0,1.2-0.3,1.9-0.5c0.7-0.2,2.4-0.7,2.8-0.7c0.4-0.1,0.5-0.3,0.6-0.4c0.1-0.2,0-0.4,0-0.8
		c0-0.3-0.1-0.8-0.1-1.3c0-0.5,0-0.9-0.8-1.3c-0.7-0.5-1.2-1-1.1-1.4c0-0.4,0.5-0.8,0.5-0.8s-0.1-0.3-0.1-0.5c0-0.1,0.5-0.1,0.5-0.1
		s-0.1-0.5,0-0.6c0-0.1,0.3-0.1,0.3-0.1l0.2-0.1c0,0-0.2-0.3-0.2-0.6c-0.1-0.2,0.1-0.4,0.3-0.4c0.3,0,0.6,0,1.4-0.2
		c0.8-0.2,1.1-1.7,3-2c1.8-0.3,3.3,1.1,3.3,1.1s2.9,2.8,1,5.9c-1.7,2.7-3.8,2-3.8,2s-0.4,0.2-0.2,1c0.2,0.8,1.3,1.4,1.3,1.4l0.1,0
		c2.3-1.8,3.7-4.6,3.7-7.7c0-2-0.6-3.8-1.6-5.3c-0.5,0.3-1,0.6-1.5,0.9c0.1,0.3,0.3,0.6,0.4,0.9c-0.2-0.1-0.4-0.2-0.6-0.3
		c-0.1-0.1-0.1-0.3-0.2-0.4c-0.2,0.1-0.3,0.1-0.5,0.2c-0.3-0.1-0.6-0.1-1-0.1c0.4-0.1,0.8-0.3,1.2-0.5c-0.3-0.7-0.8-1.3-1.2-1.9
		c-0.6,0.3-1.1,0.6-1.8,0.8c0.2,0.6,0.4,1.2,0.6,1.8c-0.2,0-0.3,0.1-0.4,0.2c-0.2-0.6-0.4-1.2-0.6-1.8c-0.7,0.2-1.5,0.3-2.3,0.3v1.9
		c0.9,0,1.8-0.1,2.6-0.3c-0.3,0.2-0.5,0.4-0.6,0.6c-0.6,0.1-1.3,0.1-2,0.2V23c-0.1,0-0.2,0-0.3,0c0,0-0.1,0-0.1,0V20
		c-0.4,0-0.7,0-1.1-0.1c-0.1-0.2-0.2-0.4-0.4-0.5c0.5,0.1,0.9,0.1,1.4,0.1v-1.7c-0.4,0-0.9-0.1-1.3-0.2c-0.2,0.4-0.5,0.8-0.7,1.2
		c-0.1-0.1-0.2-0.2-0.4-0.3c0.2-0.4,0.4-0.7,0.6-1.1c-0.3-0.1-0.6-0.3-0.9-0.5c-0.4,0.3-0.8,0.6-1.1,1c-0.2,0-0.4-0.1-0.5-0.1
		c0.4-0.4,0.9-0.8,1.3-1.2c-0.1-0.1-0.3-0.3-0.4-0.4c-0.8,0.3-1.5,0.7-2.2,1.2c-2.3,1.7-3.8,4.4-3.9,7.4c0.1-0.1,1-0.9,1.4-1
		c0.4-0.1,0.8-0.9,0.8-1c0-0.1-0.8-2.2,0.2-3.5c0.9-1.2,2.2-1.8,4.4-0.6c2.1,1.2,1.7,2.9,1.3,3.5c-0.4,0.6-0.6,0.7-0.5,1
		c0.1,0.3,0.3,0.5,0.2,0.6C94.1,24,93.7,24,93.7,24s0.1,0.3,0.1,0.4c0,0.1-0.2,0.1-0.2,0.1s0,0.2,0,0.3c0,0.1-0.4,0-0.4,0
		s0.1,0.7-0.8,0.6c-0.9-0.1-1.1-0.4-1.4-0.2c-0.3,0.2-0.2,0.5,0,1.3c0.2,0.8,0.3,2.7,0.3,2.7l0.6,0.4c0,0,0.9,0,1.1,0.1
		c0.2,0,0.4,0.1,0.6,0.1c0.1,0,0.7-0.4,1-0.5c0.3-0.1,0.4,0,0.4,0.1c0,0.1-0.1,0.3-0.1,0.3s0.5-0.2,0.6-0.1c0.2,0,0.3,0.2,0.1,0.8
		c-0.1,0.6-0.4,1-0.9,1c-0.5,0.1-0.9-0.2-1.2-0.2c-0.4,0-1.5,0.5-2.3,0.4c-0.9-0.1-1.1-0.4-1.1-0.4s-0.3,0.6-0.3,0.8
		c0,0.1,0,0.3,0,0.4C89.7,32.6,90,32.9,90.4,33.1z"/>
	<path class="st0" d="M91.2,36.4c-0.5,0.1-1.9-0.1-2.7-1c-0.7-0.8-1-2.8-0.9-2.8s1.1,0.7,2.1,1.6C90.8,35.1,91.8,36.3,91.2,36.4z
		 M88.8,36.6c-0.1,0.1-1.5,0.5-3.1-0.4c-1.6-0.9-2.3-2.6-2.3-2.7c0-0.1,1.1,0.1,3.1,1.2C88.5,35.8,88.9,36.4,88.8,36.6z M87.5,34.6
		c-0.1,0-1.5-0.6-1.9-2.4c-0.4-1.7,0.1-3,0.2-3c0.2-0.1,0.8,0.9,1.3,2.5C87.5,33.3,87.6,34.6,87.5,34.6z M85.7,33.9
		c-0.2,0.1-1.7-0.6-2.8-1.9c-0.9-1.1-1.4-3-1.3-3.1c0.1-0.1,1.4,1.1,2.4,2.2C85.1,32.3,85.9,33.8,85.7,33.9z M84.7,31.3
		c-0.2,0-0.9-0.8-0.8-2.7c0.1-1.2,1-2.7,1.2-2.7c0.2,0,0.3,1.1,0.2,2.6C85.2,30,85,31.4,84.7,31.3z M81.3,24.3
		c0.2-0.1,1,1.2,1.5,2.3c0.4,1,1,3,0.7,3.1c-0.1,0-1.3-0.7-1.9-2.4C81,26,81.2,24.4,81.3,24.3z M85.1,22.9c0.2,0,0.1,1.3-0.4,2.6
		c-0.5,1.3-1.1,2.4-1.2,2.3c-0.1-0.1-0.4-1.6,0-2.8C83.9,23.9,84.9,22.9,85.1,22.9z M83.4,23.9c-0.1-0.2-0.2-1.5,0.7-2.7
		c0.9-1.1,1.7-1.5,1.8-1.4c0.1,0.1-0.3,1.4-0.9,2.3C84.5,23,83.5,24.1,83.4,23.9z M83.2,21.6c-0.2-0.1-0.2-1.2,0.3-2.3
		c0.5-1,1.5-1.9,1.6-1.8c0.2,0.1-0.2,1.4-0.6,2.3C84.2,20.6,83.3,21.7,83.2,21.6z M82.3,20.1c0.2,0,0.6,1.2,0.7,2.8
		c0.1,1.6-0.1,2.9-0.2,2.9c-0.1,0-1-0.7-1-2.4C81.7,21.6,82.2,20.1,82.3,20.1z M99.3,41c-0.2,0.1-0.3-1-2.4-2.4
		c-0.3-0.2-0.6-0.4-0.9-0.6c-0.2,0.1-0.5,0.3-0.8,0.5c-2,1.4-2.1,2.4-2.4,2.4c-0.2-0.1-0.6-0.5-0.6-0.5s1.4-1.7,3.1-2.7
		c-1-0.4-1.5-0.4-1.5-0.4s-0.7,1.2-2.9,1c-2.2-0.1-3.3-0.6-3.7-0.9c-0.1-0.1-0.5-0.4,2.3-0.7c2.6-0.2,4.7-0.1,6.5,0.6
		c1.9-0.8,4-1,6.7-0.7c2.8,0.3,2.4,0.6,2.3,0.7c-0.4,0.2-1.5,0.7-3.7,0.9c-2.2,0.1-2.9-1-2.9-1s-0.6,0-1.7,0.5
		c1.7,0.9,3.2,2.8,3.2,2.8S99.5,41,99.3,41z M101,36.3c-0.5-0.1,0.4-1.3,1.5-2.2c1-0.9,2-1.7,2.1-1.6c0.1,0.1-0.3,2-0.9,2.8
		C102.8,36.2,101.5,36.4,101,36.3z M103.4,36.5c-0.1-0.1,0.3-0.8,2.3-1.9c2-1.1,3-1.4,3.1-1.2c0,0.1-0.7,1.8-2.3,2.7
		C104.9,37,103.5,36.6,103.4,36.5z M104.7,34.5c-0.2,0,0-1.3,0.4-2.9c0.5-1.6,1.1-2.6,1.3-2.5c0.1,0,0.7,1.3,0.2,3
		C106.2,33.9,104.8,34.6,104.7,34.5z M106.5,33.8c-0.2-0.1,0.6-1.6,1.7-2.7c1-1.2,2.3-2.3,2.4-2.2c0.1,0.1-0.4,1.9-1.3,3.1
		C108.2,33.2,106.7,33.8,106.5,33.8z M107.5,31.3c-0.2,0-0.5-1.4-0.6-2.8c-0.1-1.4,0-2.6,0.2-2.6c0.2,0,1.1,1.5,1.2,2.7
		C108.3,30.5,107.7,31.2,107.5,31.3z M110.9,24.3c0.1,0.1,0.2,1.7-0.3,3.1c-0.6,1.7-1.8,2.4-1.9,2.4c-0.2-0.1,0.3-2.1,0.7-3.1
		C110,25.5,110.8,24.1,110.9,24.3z M107.1,22.8c0.2,0,1.1,1,1.6,2.1c0.4,1.2,0.2,2.7,0,2.8c-0.1,0.1-0.8-1.1-1.2-2.3
		C107,24.1,107,22.9,107.1,22.8z M108.8,23.9c-0.1,0.1-1-0.9-1.6-1.8c-0.6-0.9-1.1-2.2-0.9-2.3c0.1-0.1,0.9,0.3,1.8,1.4
		C108.9,22.3,108.9,23.7,108.8,23.9z M109,21.6c-0.2,0.1-1.1-1-1.4-1.8c-0.4-0.9-0.8-2.3-0.6-2.3c0.2-0.1,1.2,0.9,1.6,1.8
		C109.2,20.4,109.2,21.4,109,21.6z M109.9,20c0.2,0,0.6,1.5,0.5,3.3c0,1.7-0.9,2.4-1,2.4c-0.1,0-0.3-1.3-0.2-2.9
		C109.3,21.2,109.7,19.9,109.9,20z"/>
	<path class="st1" d="M13,30.4c0,0.4,0,2.2-0.6,3.7c-0.6,1.6-2.3,2.2-3.5,2.2c-2.8,0-3.5-2-3.5-4.7v-9.3h-3v10.5
		c0,3.1,1.9,5.6,5.1,5.6c2.2,0,4.2-0.8,5.4-2.8h0.1V38H16V22.4h-3V30.4z"/>
	<path class="st1" d="M21.6,22.4h-2.9V38h3v-8.5c0-3.1,0.8-3.7,1.2-4.2c1.2-1.2,2.9-1.2,2.9-1.2c2.5,0,3.6,1.4,3.6,4V38h3V27.2
		c0-5-4.8-5.3-5.9-5.3c-1.6,0-3.7,0.8-4.7,2.8h-0.1V22.4z"/>
	<path class="st1" d="M37.7,38V22.4h-3V38H37.7z M34.5,18.7H38v-3.2h-3.5V18.7z"/>
	<path class="st1" d="M52.8,27.4c-0.2-3.4-2.6-5.5-5.9-5.5c-5,0-7.3,3.8-7.3,8.4c0,4.6,2,8.2,7,8.2c3.5,0,6.1-2.1,6.3-5.7h-3
		c-0.2,2.2-1.4,3.5-3.3,3.5c-2.8,0-3.9-2.5-3.9-6.1c0-3.7,1.1-6.1,3.9-6.1c2.1,0,3.1,1.4,3.2,3.3H52.8z"/>
	<path class="st1" d="M68,30.7v-1.5c0-4.3-2.2-7.3-6.9-7.4c-5,0-7.3,3.8-7.3,8.4c0,4.6,2,8.2,7,8.2c3.7,0,6.5-1.8,6.9-5.3h-3.1
		c-0.3,2.3-1.5,3.2-3.8,3.2c-3,0-4.1-2.8-3.9-5.6H68z M57,28.7c0-2.6,1.5-4.6,3.9-4.6c2.9,0,4,2,4,4.6H57z"/>
	<path class="st1" d="M74,38V24.4h3.6v-2.1H74v-2.5c-0.1-1.7,0.9-2.1,2.6-2.1c0.5,0,1,0.1,1.5,0.1v-2.5C77.4,15.2,76.7,15,76,15
		c-2.2,0-4.8,0.9-4.9,4.3v3H68v2.1h3.1V38H74z"/>
</g>
</svg>
