<?xml version="1.0" encoding="utf-8"?>
<!-- Generator: Adobe Illustrator 19.1.0, SVG Export Plug-In . SVG Version: 6.00 Build 0)  -->
<svg version="1.1" id="Layer_1" xmlns="http://www.w3.org/2000/svg" xmlns:xlink="http://www.w3.org/1999/xlink" x="0px" y="0px"
	 viewBox="-17 46.8 113.5 58.2" style="enable-background:new -17 46.8 113.5 58.2;" xml:space="preserve">
<style type="text/css">
	.st0{fill:#02919D;}
</style>
<g id="Layer_1_1_">
</g>
<g id="Layer_2">
	<g>
		<path class="st0" d="M77.6,63.5c-0.6,0.1-1.1,0.2-1.7,0.4c0.1,0.1,0.2,0.2,0.3,0.3C76.8,63.9,77.2,63.7,77.6,63.5z M87,67.4
			c-0.5-0.7-1.1-1.3-1.7-1.8c-0.3,0.3-0.6,0.5-1,0.7c0.5,0.6,0.9,1.2,1.2,1.9C86.1,68,86.6,67.7,87,67.4z M85,65.3
			c-0.7-0.5-1.4-0.9-2.2-1.2c-0.1,0.2-0.3,0.3-0.4,0.4c0.6,0.4,1.1,0.9,1.6,1.5C84.4,65.8,84.7,65.6,85,65.3z M82.4,63.9
			c-0.5-0.2-1.1-0.3-1.7-0.4c0.5,0.2,0.9,0.5,1.3,0.8C82.2,64.1,82.3,64,82.4,63.9z M79.2,62.8c5.6,0,10.2,4.6,10.2,10.3
			c0,5.7-4.6,10.3-10.2,10.3S69,78.8,69,73.1C69,67.4,73.6,62.8,79.2,62.8z M80.9,64.9c0.3-0.1,0.5-0.2,0.8-0.4
			c-0.5-0.4-1.1-0.7-1.7-0.9C80.3,64,80.6,64.5,80.9,64.9z M79.4,65.2c0.4,0,0.7-0.1,1-0.2c-0.3-0.5-0.7-0.9-1-1.4V65.2z M80.7,65.5
			c-0.4,0.1-0.8,0.2-1.3,0.2v1.7c0.7,0,1.5-0.1,2.1-0.3C81.3,66.5,81,66,80.7,65.5z M82.1,64.8c-0.3,0.2-0.6,0.4-0.9,0.5
			c0.3,0.5,0.6,1.1,0.9,1.6c0.6-0.2,1.1-0.4,1.7-0.7C83.2,65.7,82.6,65.2,82.1,64.8z M77.5,64.9c0.3-0.4,0.6-0.9,1-1.3
			c-0.6,0.2-1.2,0.5-1.7,0.9C77,64.7,77.2,64.8,77.5,64.9z M79,63.7c-0.4,0.4-0.7,0.9-1,1.4c0.3,0.1,0.7,0.1,1,0.2V63.7z M73.5,81
			c0.2,0.1,0.5,0.2,0.9,0.2c0.5,0,1.2-0.3,1.9-0.5c0.7-0.2,2.4-0.7,2.8-0.7c0.4-0.1,0.5-0.3,0.6-0.4c0.1-0.2,0-0.4,0-0.8
			c0-0.3-0.1-0.8-0.1-1.3s0-0.9-0.8-1.3c-0.7-0.5-1.2-1-1.1-1.4c0-0.4,0.5-0.8,0.5-0.8s-0.1-0.3-0.1-0.5c0-0.1,0.5-0.1,0.5-0.1
			s-0.1-0.5,0-0.6c0-0.1,0.3-0.1,0.3-0.1l0.2-0.1c0,0-0.2-0.3-0.2-0.6c-0.1-0.2,0.1-0.4,0.3-0.4c0.3,0,0.6,0,1.4-0.2s1.1-1.7,3-2
			c1.8-0.3,3.3,1.1,3.3,1.1s2.9,2.8,1,5.9c-1.7,2.7-3.8,2-3.8,2s-0.4,0.2-0.2,1c0.2,0.8,1.3,1.4,1.3,1.4h0.1
			c2.3-1.8,3.7-4.6,3.7-7.7c0-2-0.6-3.8-1.6-5.3c-0.5,0.3-1,0.6-1.5,0.9c0.1,0.3,0.3,0.6,0.4,0.9c-0.2-0.1-0.4-0.2-0.6-0.3
			c-0.1-0.1-0.1-0.3-0.2-0.4C85.3,69,85.2,69,85,69.1C84.7,69,84.4,69,84,69c0.4-0.1,0.8-0.3,1.2-0.5c-0.3-0.7-0.8-1.3-1.2-1.9
			c-0.6,0.3-1.1,0.6-1.8,0.8c0.2,0.6,0.4,1.2,0.6,1.8c-0.2,0-0.3,0.1-0.4,0.2c-0.2-0.6-0.4-1.2-0.6-1.8c-0.7,0.2-1.5,0.3-2.3,0.3
			v1.9c0.9,0,1.8-0.1,2.6-0.3c-0.3,0.2-0.5,0.4-0.6,0.6c-0.6,0.1-1.3,0.1-2,0.2V71c-0.1,0-0.2,0-0.3,0h-0.1v-3.1
			c-0.4,0-0.7,0-1.1-0.1c-0.1-0.2-0.2-0.4-0.4-0.5c0.5,0.1,0.9,0.1,1.4,0.1v-1.7c-0.4,0-0.9-0.1-1.3-0.2c-0.2,0.4-0.5,0.8-0.7,1.2
			c-0.1-0.1-0.2-0.2-0.4-0.3c0.2-0.4,0.4-0.7,0.6-1.1c-0.3-0.1-0.6-0.3-0.9-0.5c-0.4,0.3-0.8,0.6-1.1,1c-0.2,0-0.4-0.1-0.5-0.1
			c0.4-0.4,0.9-0.8,1.3-1.2c-0.1-0.1-0.3-0.3-0.4-0.4c-0.8,0.3-1.5,0.7-2.2,1.2c-2.3,1.7-3.8,4.4-3.9,7.4c0.1-0.1,1-0.9,1.4-1
			s0.8-0.9,0.8-1s-0.8-2.2,0.2-3.5c0.9-1.2,2.2-1.8,4.4-0.6c2.1,1.2,1.7,2.9,1.3,3.5c-0.4,0.6-0.6,0.7-0.5,1s0.3,0.5,0.2,0.6
			c-0.1,0.1-0.5,0.2-0.5,0.2s0,0.3,0,0.4s-0.2,0.1-0.2,0.1s0,0.2,0,0.3c0,0.1-0.4,0-0.4,0s0.1,0.7-0.8,0.6s-1.1-0.4-1.4-0.2
			c-0.3,0.2-0.2,0.5,0,1.3s0.3,2.7,0.3,2.7l0.6,0.4c0,0,0.9,0,1.1,0.1c0.2,0,0.4,0.1,0.6,0.1c0.1,0,0.7-0.4,1-0.5s0.4,0,0.4,0.1
			s-0.1,0.3-0.1,0.3s0.5-0.2,0.6-0.1c0.2,0,0.3,0.2,0.1,0.8c-0.1,0.6-0.4,1-0.9,1c-0.5,0.1-0.9-0.2-1.2-0.2c-0.4,0-1.5,0.5-2.3,0.4
			c-1.1-0.2-1.4-0.5-1.4-0.5s-0.3,0.6-0.3,0.8c0,0.1,0,0.3,0,0.4C72.8,80.5,73.1,80.7,73.5,81z"/>
		<path class="st0" d="M74.3,84.2c-0.5,0.1-1.9-0.1-2.7-1c-0.7-0.8-1-2.8-0.9-2.8s1.1,0.7,2.1,1.6C73.9,83,74.8,84.1,74.3,84.2z
			 M71.9,84.4c-0.1,0.1-1.5,0.5-3.1-0.4s-2.3-2.6-2.3-2.7s1.1,0.1,3.1,1.2C71.6,83.6,72,84.3,71.9,84.4z M70.6,82.5
			c-0.1,0-1.5-0.6-1.9-2.4c-0.4-1.7,0.1-3,0.2-3c0.2-0.1,0.8,0.9,1.3,2.5C70.6,81.2,70.7,82.4,70.6,82.5z M68.8,81.7
			c-0.2,0.1-1.7-0.6-2.8-1.9c-0.9-1.1-1.4-3-1.3-3.1s1.4,1.1,2.4,2.2C68.2,80.2,69,81.7,68.8,81.7z M67.8,79.2
			c-0.2,0-0.9-0.8-0.8-2.7c0.1-1.2,1-2.7,1.2-2.7s0.3,1.1,0.2,2.6C68.3,77.8,68.1,79.2,67.8,79.2z M64.3,72.2c0.2-0.1,1,1.2,1.5,2.3
			c0.4,1,1,3,0.7,3.1c-0.1,0-1.3-0.7-1.9-2.4C64.1,73.9,64.3,72.2,64.3,72.2z M68.2,70.8c0.2,0,0.1,1.3-0.4,2.6
			c-0.5,1.3-1.1,2.4-1.2,2.3s-0.4-1.6,0-2.8C67,71.7,68,70.7,68.2,70.8z M66.5,71.8c-0.1-0.2-0.2-1.5,0.7-2.7
			c0.9-1.1,1.7-1.5,1.8-1.4c0.1,0.1-0.3,1.4-0.9,2.3C67.5,70.9,66.6,71.9,66.5,71.8z M66.3,69.5c-0.2-0.1-0.2-1.2,0.3-2.3
			c0.5-1,1.5-1.9,1.6-1.8c0.2,0.1-0.2,1.4-0.6,2.3C67.3,68.5,66.4,69.6,66.3,69.5z M65.4,67.9c0.2,0,0.6,1.2,0.7,2.8
			c0.1,1.6-0.1,2.9-0.2,2.9s-1-0.7-1-2.4C64.8,69.5,65.3,67.9,65.4,67.9z M82.4,88.9c-0.2,0.1-0.3-1-2.4-2.4
			c-0.3-0.2-0.6-0.4-0.9-0.6c-0.2,0.1-0.5,0.3-0.8,0.5c-2,1.4-2.1,2.4-2.4,2.4c-0.2-0.1-0.6-0.5-0.6-0.5s1.4-1.7,3.1-2.7
			c-1-0.4-1.5-0.4-1.5-0.4s-0.7,1.2-2.9,1c-2.2-0.1-3.3-0.6-3.7-0.9c-0.1-0.1-0.5-0.4,2.3-0.7c2.6-0.2,4.7-0.1,6.5,0.6
			c1.9-0.8,4-1,6.7-0.7c2.8,0.3,2.4,0.6,2.3,0.7c-0.4,0.2-1.5,0.7-3.7,0.9c-2.2,0.1-2.9-1-2.9-1s-0.6,0-1.7,0.5
			c1.7,0.9,3.2,2.8,3.2,2.8S82.6,88.8,82.4,88.9z M84.1,84.2c-0.5-0.1,0.4-1.3,1.5-2.2c1-0.9,2-1.7,2.1-1.6s-0.3,2-0.9,2.8
			C85.9,84.1,84.6,84.2,84.1,84.2z M86.5,84.3c-0.1-0.1,0.3-0.8,2.3-1.9s3-1.4,3.1-1.2c0,0.1-0.7,1.8-2.3,2.7
			C88,84.8,86.6,84.4,86.5,84.3z M87.8,82.4c-0.2,0,0-1.3,0.4-2.9c0.5-1.6,1.1-2.6,1.3-2.5c0.1,0,0.7,1.3,0.2,3
			C89.3,81.7,87.9,82.4,87.8,82.4z M89.6,81.6c-0.2-0.1,0.6-1.6,1.7-2.7c1-1.2,2.3-2.3,2.4-2.2c0.1,0.1-0.4,1.9-1.3,3.1
			C91.3,81.1,89.7,81.7,89.6,81.6z M90.5,79.1c-0.2,0-0.5-1.4-0.6-2.8s0-2.6,0.2-2.6s1.1,1.5,1.2,2.7C91.4,78.3,90.8,79,90.5,79.1z
			 M94,72.1c0.1,0.1,0.2,1.7-0.3,3.1c-0.6,1.7-1.8,2.4-1.9,2.4c-0.2-0.1,0.3-2.1,0.7-3.1C93.1,73.3,93.9,72,94,72.1z M90.2,70.7
			c0.2,0,1.1,1,1.6,2.1c0.4,1.2,0.2,2.7,0,2.8c-0.1,0.1-0.8-1.1-1.2-2.3C90.1,71.9,90.1,70.7,90.2,70.7z M91.8,71.7
			c-0.1,0.1-1-0.9-1.6-1.8s-1.1-2.2-0.9-2.3c0.1-0.1,0.9,0.3,1.8,1.4C92,70.2,92,71.5,91.8,71.7z M92.1,69.4c-0.2,0.1-1.1-1-1.4-1.8
			c-0.4-0.9-0.8-2.3-0.6-2.3c0.2-0.1,1.2,0.9,1.6,1.8C92.3,68.2,92.3,69.3,92.1,69.4z M93,67.8c0.2,0,0.6,1.5,0.5,3.3
			c0,1.7-0.9,2.4-1,2.4s-0.3-1.3-0.2-2.9C92.4,69,92.8,67.8,93,67.8z"/>
		<path class="st0" d="M-3.9,78.2c0,0.4,0,2.2-0.6,3.7c-0.6,1.6-2.3,2.2-3.5,2.2c-2.8,0-3.5-2-3.5-4.7v-9.3h-3v10.5
			c0,3.1,1.9,5.6,5.1,5.6c2.2,0,4.2-0.8,5.4-2.8h0.1v2.3H-1V70.2h-3v8H-3.9z"/>
		<path class="st0" d="M4.7,70.2H1.8v15.6h3v-8.5c0-3.1,0.8-3.7,1.2-4.2c1.2-1.2,2.9-1.2,2.9-1.2c2.5,0,3.6,1.4,3.6,4v9.8h3V75
			c0-5-4.8-5.3-5.9-5.3c-1.6,0-3.7,0.8-4.7,2.8H4.7V70.2z"/>
		<path class="st0" d="M20.8,85.8V70.2h-3v15.6H20.8z M17.6,66.6h3.5v-3.2h-3.5V66.6z"/>
		<path class="st0" d="M35.9,75.2c-0.2-3.4-2.6-5.5-5.9-5.5c-5,0-7.3,3.8-7.3,8.4s2,8.2,7,8.2c3.5,0,6.1-2.1,6.3-5.7h-3
			c-0.2,2.2-1.4,3.5-3.3,3.5c-2.8,0-3.9-2.5-3.9-6.1c0-3.7,1.1-6.1,3.9-6.1c2.1,0,3.1,1.4,3.2,3.3C32.9,75.2,35.9,75.2,35.9,75.2z"
			/>
		<path class="st0" d="M51.1,78.6v-1.5c0-4.3-2.2-7.3-6.9-7.4c-5,0-7.3,3.8-7.3,8.4s2,8.2,7,8.2c3.7,0,6.5-1.8,6.9-5.3h-3
			c-0.3,2.3-1.5,3.2-3.8,3.2c-3,0-4.1-2.8-3.9-5.6C40.1,78.6,51.1,78.6,51.1,78.6z M40.1,76.5c0-2.6,1.5-4.6,3.9-4.6
			c2.9,0,4,2,4,4.6H40.1z"/>
		<path class="st0" d="M57.1,85.8V72.3h3.6v-2.1h-3.6v-2.5C57,66,58,65.6,59.7,65.6c0.5,0,1,0.1,1.5,0.1v-2.5
			c-0.7-0.1-1.4-0.3-2.1-0.3c-2.2,0-4.8,0.9-4.9,4.3v3h-3.1v2.1h3.1v13.6L57.1,85.8L57.1,85.8z"/>
	</g>
</g>
</svg>
